G04 #@! TF.GenerationSoftware,KiCad,Pcbnew,(5.1.4)-1*
G04 #@! TF.CreationDate,2020-02-16T08:15:49-07:00*
G04 #@! TF.ProjectId,LightGate,4c696768-7447-4617-9465-2e6b69636164,rev?*
G04 #@! TF.SameCoordinates,PX52f83c0PY1b5ed60*
G04 #@! TF.FileFunction,Copper,L2,Bot*
G04 #@! TF.FilePolarity,Positive*
%FSLAX46Y46*%
G04 Gerber Fmt 4.6, Leading zero omitted, Abs format (unit mm)*
G04 Created by KiCad (PCBNEW (5.1.4)-1) date 2020-02-16 08:15:49*
%MOMM*%
%LPD*%
G04 APERTURE LIST*
%ADD10C,1.620000*%
%ADD11O,1.700000X1.700000*%
%ADD12R,1.700000X1.700000*%
%ADD13C,1.800000*%
%ADD14R,1.800000X1.800000*%
%ADD15C,0.800000*%
%ADD16C,0.254000*%
G04 APERTURE END LIST*
D10*
X7000000Y6700000D03*
X12000000Y4200000D03*
X7000000Y1700000D03*
D11*
X15000000Y3660000D03*
D12*
X15000000Y6200000D03*
D11*
X7500000Y12740000D03*
D12*
X7500000Y10200000D03*
D11*
X15250000Y30490000D03*
D12*
X15250000Y27950000D03*
D11*
X7500000Y20910000D03*
D12*
X7500000Y23450000D03*
D11*
X25540000Y15200000D03*
X23000000Y15200000D03*
X25540000Y17740000D03*
X23000000Y17740000D03*
X25540000Y20280000D03*
X23000000Y20280000D03*
X25540000Y22820000D03*
D12*
X23000000Y22820000D03*
D10*
X12250000Y26450000D03*
X7250000Y28950000D03*
X12250000Y31450000D03*
X10500000Y14200000D03*
X15500000Y11700000D03*
X10500000Y9200000D03*
X11000000Y24200000D03*
X16000000Y21700000D03*
X11000000Y19200000D03*
D13*
X1960000Y3700000D03*
D14*
X4500000Y3700000D03*
D13*
X2000000Y29950000D03*
D14*
X4540000Y29950000D03*
D13*
X1960000Y11950000D03*
D14*
X4500000Y11950000D03*
D13*
X2000000Y21450000D03*
D14*
X4540000Y21450000D03*
D11*
X18700000Y28800000D03*
X21240000Y28800000D03*
D12*
X23780000Y28800000D03*
D15*
X2750000Y14450000D03*
X2750000Y17950000D03*
X7250000Y4450000D03*
X28500000Y12200000D03*
X28000000Y27450000D03*
D16*
G36*
X30548001Y452000D02*
G01*
X452000Y452000D01*
X452000Y1821834D01*
X5763000Y1821834D01*
X5763000Y1578166D01*
X5810538Y1339181D01*
X5903785Y1114061D01*
X6039160Y911459D01*
X6211459Y739160D01*
X6414061Y603785D01*
X6639181Y510538D01*
X6878166Y463000D01*
X7121834Y463000D01*
X7360819Y510538D01*
X7585939Y603785D01*
X7788541Y739160D01*
X7960840Y911459D01*
X8096215Y1114061D01*
X8189462Y1339181D01*
X8237000Y1578166D01*
X8237000Y1821834D01*
X8189462Y2060819D01*
X8096215Y2285939D01*
X7960840Y2488541D01*
X7788541Y2660840D01*
X7585939Y2796215D01*
X7360819Y2889462D01*
X7121834Y2937000D01*
X6878166Y2937000D01*
X6639181Y2889462D01*
X6414061Y2796215D01*
X6211459Y2660840D01*
X6039160Y2488541D01*
X5903785Y2285939D01*
X5810538Y2060819D01*
X5763000Y1821834D01*
X452000Y1821834D01*
X452000Y2635920D01*
X1075525Y2635920D01*
X1159208Y2381739D01*
X1431775Y2250842D01*
X1724642Y2175635D01*
X2026553Y2159009D01*
X2325907Y2201603D01*
X2611199Y2301778D01*
X2760792Y2381739D01*
X2844475Y2635920D01*
X1960000Y3520395D01*
X1075525Y2635920D01*
X452000Y2635920D01*
X452000Y3401584D01*
X461603Y3334093D01*
X561778Y3048801D01*
X641739Y2899208D01*
X895920Y2815525D01*
X1780395Y3700000D01*
X2139605Y3700000D01*
X3024080Y2815525D01*
X3170934Y2863873D01*
X3170934Y2800000D01*
X3179178Y2716293D01*
X3203595Y2635804D01*
X3243245Y2561624D01*
X3296605Y2496605D01*
X3361624Y2443245D01*
X3435804Y2403595D01*
X3516293Y2379178D01*
X3600000Y2370934D01*
X5400000Y2370934D01*
X5483707Y2379178D01*
X5564196Y2403595D01*
X5638376Y2443245D01*
X5703395Y2496605D01*
X5756755Y2561624D01*
X5796405Y2635804D01*
X5820822Y2716293D01*
X5829066Y2800000D01*
X5829066Y4321834D01*
X10763000Y4321834D01*
X10763000Y4078166D01*
X10810538Y3839181D01*
X10903785Y3614061D01*
X11039160Y3411459D01*
X11211459Y3239160D01*
X11414061Y3103785D01*
X11639181Y3010538D01*
X11878166Y2963000D01*
X12121834Y2963000D01*
X12360819Y3010538D01*
X12585939Y3103785D01*
X12788541Y3239160D01*
X12960840Y3411459D01*
X13096215Y3614061D01*
X13115243Y3660000D01*
X13716822Y3660000D01*
X13741478Y3409664D01*
X13814498Y3168949D01*
X13933076Y2947104D01*
X14092656Y2752656D01*
X14287104Y2593076D01*
X14508949Y2474498D01*
X14749664Y2401478D01*
X14937274Y2383000D01*
X15062726Y2383000D01*
X15250336Y2401478D01*
X15491051Y2474498D01*
X15712896Y2593076D01*
X15907344Y2752656D01*
X16066924Y2947104D01*
X16185502Y3168949D01*
X16240543Y3350396D01*
X26473000Y3350396D01*
X26473000Y3049604D01*
X26531681Y2754590D01*
X26646790Y2476694D01*
X26813901Y2226594D01*
X27026594Y2013901D01*
X27276694Y1846790D01*
X27554590Y1731681D01*
X27849604Y1673000D01*
X28150396Y1673000D01*
X28445410Y1731681D01*
X28723306Y1846790D01*
X28973406Y2013901D01*
X29186099Y2226594D01*
X29353210Y2476694D01*
X29468319Y2754590D01*
X29527000Y3049604D01*
X29527000Y3350396D01*
X29468319Y3645410D01*
X29353210Y3923306D01*
X29186099Y4173406D01*
X28973406Y4386099D01*
X28723306Y4553210D01*
X28445410Y4668319D01*
X28150396Y4727000D01*
X27849604Y4727000D01*
X27554590Y4668319D01*
X27276694Y4553210D01*
X27026594Y4386099D01*
X26813901Y4173406D01*
X26646790Y3923306D01*
X26531681Y3645410D01*
X26473000Y3350396D01*
X16240543Y3350396D01*
X16258522Y3409664D01*
X16283178Y3660000D01*
X16258522Y3910336D01*
X16185502Y4151051D01*
X16066924Y4372896D01*
X15907344Y4567344D01*
X15712896Y4726924D01*
X15491051Y4845502D01*
X15250336Y4918522D01*
X15225847Y4920934D01*
X15850000Y4920934D01*
X15933707Y4929178D01*
X16014196Y4953595D01*
X16088376Y4993245D01*
X16153395Y5046605D01*
X16206755Y5111624D01*
X16246405Y5185804D01*
X16270822Y5266293D01*
X16279066Y5350000D01*
X16279066Y7050000D01*
X16270822Y7133707D01*
X16246405Y7214196D01*
X16206755Y7288376D01*
X16153395Y7353395D01*
X16088376Y7406755D01*
X16014196Y7446405D01*
X15933707Y7470822D01*
X15850000Y7479066D01*
X14150000Y7479066D01*
X14066293Y7470822D01*
X13985804Y7446405D01*
X13911624Y7406755D01*
X13846605Y7353395D01*
X13793245Y7288376D01*
X13753595Y7214196D01*
X13729178Y7133707D01*
X13720934Y7050000D01*
X13720934Y5350000D01*
X13729178Y5266293D01*
X13753595Y5185804D01*
X13793245Y5111624D01*
X13846605Y5046605D01*
X13911624Y4993245D01*
X13985804Y4953595D01*
X14066293Y4929178D01*
X14150000Y4920934D01*
X14774153Y4920934D01*
X14749664Y4918522D01*
X14508949Y4845502D01*
X14287104Y4726924D01*
X14092656Y4567344D01*
X13933076Y4372896D01*
X13814498Y4151051D01*
X13741478Y3910336D01*
X13716822Y3660000D01*
X13115243Y3660000D01*
X13189462Y3839181D01*
X13237000Y4078166D01*
X13237000Y4321834D01*
X13189462Y4560819D01*
X13096215Y4785939D01*
X12960840Y4988541D01*
X12788541Y5160840D01*
X12585939Y5296215D01*
X12360819Y5389462D01*
X12121834Y5437000D01*
X11878166Y5437000D01*
X11639181Y5389462D01*
X11414061Y5296215D01*
X11211459Y5160840D01*
X11039160Y4988541D01*
X10903785Y4785939D01*
X10810538Y4560819D01*
X10763000Y4321834D01*
X5829066Y4321834D01*
X5829066Y4600000D01*
X5820822Y4683707D01*
X5796405Y4764196D01*
X5756755Y4838376D01*
X5703395Y4903395D01*
X5638376Y4956755D01*
X5564196Y4996405D01*
X5483707Y5020822D01*
X5400000Y5029066D01*
X3600000Y5029066D01*
X3516293Y5020822D01*
X3435804Y4996405D01*
X3361624Y4956755D01*
X3296605Y4903395D01*
X3243245Y4838376D01*
X3203595Y4764196D01*
X3179178Y4683707D01*
X3170934Y4600000D01*
X3170934Y4536127D01*
X3024080Y4584475D01*
X2139605Y3700000D01*
X1780395Y3700000D01*
X895920Y4584475D01*
X641739Y4500792D01*
X510842Y4228225D01*
X452000Y3999086D01*
X452000Y4764080D01*
X1075525Y4764080D01*
X1960000Y3879605D01*
X2844475Y4764080D01*
X2760792Y5018261D01*
X2488225Y5149158D01*
X2195358Y5224365D01*
X1893447Y5240991D01*
X1594093Y5198397D01*
X1308801Y5098222D01*
X1159208Y5018261D01*
X1075525Y4764080D01*
X452000Y4764080D01*
X452000Y6821834D01*
X5763000Y6821834D01*
X5763000Y6578166D01*
X5810538Y6339181D01*
X5903785Y6114061D01*
X6039160Y5911459D01*
X6211459Y5739160D01*
X6414061Y5603785D01*
X6639181Y5510538D01*
X6878166Y5463000D01*
X7121834Y5463000D01*
X7360819Y5510538D01*
X7585939Y5603785D01*
X7788541Y5739160D01*
X7960840Y5911459D01*
X8096215Y6114061D01*
X8189462Y6339181D01*
X8237000Y6578166D01*
X8237000Y6821834D01*
X8189462Y7060819D01*
X8096215Y7285939D01*
X7960840Y7488541D01*
X7788541Y7660840D01*
X7585939Y7796215D01*
X7360819Y7889462D01*
X7121834Y7937000D01*
X6878166Y7937000D01*
X6639181Y7889462D01*
X6414061Y7796215D01*
X6211459Y7660840D01*
X6039160Y7488541D01*
X5903785Y7285939D01*
X5810538Y7060819D01*
X5763000Y6821834D01*
X452000Y6821834D01*
X452000Y10885920D01*
X1075525Y10885920D01*
X1159208Y10631739D01*
X1431775Y10500842D01*
X1724642Y10425635D01*
X2026553Y10409009D01*
X2325907Y10451603D01*
X2611199Y10551778D01*
X2760792Y10631739D01*
X2844475Y10885920D01*
X1960000Y11770395D01*
X1075525Y10885920D01*
X452000Y10885920D01*
X452000Y11651584D01*
X461603Y11584093D01*
X561778Y11298801D01*
X641739Y11149208D01*
X895920Y11065525D01*
X1780395Y11950000D01*
X2139605Y11950000D01*
X3024080Y11065525D01*
X3170934Y11113873D01*
X3170934Y11050000D01*
X3179178Y10966293D01*
X3203595Y10885804D01*
X3243245Y10811624D01*
X3296605Y10746605D01*
X3361624Y10693245D01*
X3435804Y10653595D01*
X3516293Y10629178D01*
X3600000Y10620934D01*
X5400000Y10620934D01*
X5483707Y10629178D01*
X5564196Y10653595D01*
X5638376Y10693245D01*
X5703395Y10746605D01*
X5756755Y10811624D01*
X5796405Y10885804D01*
X5820822Y10966293D01*
X5829066Y11050000D01*
X5829066Y12740000D01*
X6216822Y12740000D01*
X6241478Y12489664D01*
X6314498Y12248949D01*
X6433076Y12027104D01*
X6592656Y11832656D01*
X6787104Y11673076D01*
X7008949Y11554498D01*
X7249664Y11481478D01*
X7274153Y11479066D01*
X6650000Y11479066D01*
X6566293Y11470822D01*
X6485804Y11446405D01*
X6411624Y11406755D01*
X6346605Y11353395D01*
X6293245Y11288376D01*
X6253595Y11214196D01*
X6229178Y11133707D01*
X6220934Y11050000D01*
X6220934Y9350000D01*
X6229178Y9266293D01*
X6253595Y9185804D01*
X6293245Y9111624D01*
X6346605Y9046605D01*
X6411624Y8993245D01*
X6485804Y8953595D01*
X6566293Y8929178D01*
X6650000Y8920934D01*
X8350000Y8920934D01*
X8433707Y8929178D01*
X8514196Y8953595D01*
X8588376Y8993245D01*
X8653395Y9046605D01*
X8706755Y9111624D01*
X8746405Y9185804D01*
X8770822Y9266293D01*
X8776292Y9321834D01*
X9263000Y9321834D01*
X9263000Y9078166D01*
X9310538Y8839181D01*
X9403785Y8614061D01*
X9539160Y8411459D01*
X9711459Y8239160D01*
X9914061Y8103785D01*
X10139181Y8010538D01*
X10378166Y7963000D01*
X10621834Y7963000D01*
X10860819Y8010538D01*
X11085939Y8103785D01*
X11288541Y8239160D01*
X11460840Y8411459D01*
X11596215Y8614061D01*
X11689462Y8839181D01*
X11737000Y9078166D01*
X11737000Y9321834D01*
X11689462Y9560819D01*
X11596215Y9785939D01*
X11460840Y9988541D01*
X11288541Y10160840D01*
X11085939Y10296215D01*
X10860819Y10389462D01*
X10621834Y10437000D01*
X10378166Y10437000D01*
X10139181Y10389462D01*
X9914061Y10296215D01*
X9711459Y10160840D01*
X9539160Y9988541D01*
X9403785Y9785939D01*
X9310538Y9560819D01*
X9263000Y9321834D01*
X8776292Y9321834D01*
X8779066Y9350000D01*
X8779066Y11050000D01*
X8770822Y11133707D01*
X8746405Y11214196D01*
X8706755Y11288376D01*
X8653395Y11353395D01*
X8588376Y11406755D01*
X8514196Y11446405D01*
X8433707Y11470822D01*
X8350000Y11479066D01*
X7725847Y11479066D01*
X7750336Y11481478D01*
X7991051Y11554498D01*
X8212896Y11673076D01*
X8394157Y11821834D01*
X14263000Y11821834D01*
X14263000Y11578166D01*
X14310538Y11339181D01*
X14403785Y11114061D01*
X14539160Y10911459D01*
X14711459Y10739160D01*
X14914061Y10603785D01*
X15139181Y10510538D01*
X15378166Y10463000D01*
X15621834Y10463000D01*
X15860819Y10510538D01*
X16085939Y10603785D01*
X16288541Y10739160D01*
X16460840Y10911459D01*
X16596215Y11114061D01*
X16689462Y11339181D01*
X16737000Y11578166D01*
X16737000Y11821834D01*
X16689462Y12060819D01*
X16596215Y12285939D01*
X16460840Y12488541D01*
X16288541Y12660840D01*
X16085939Y12796215D01*
X15860819Y12889462D01*
X15621834Y12937000D01*
X15378166Y12937000D01*
X15139181Y12889462D01*
X14914061Y12796215D01*
X14711459Y12660840D01*
X14539160Y12488541D01*
X14403785Y12285939D01*
X14310538Y12060819D01*
X14263000Y11821834D01*
X8394157Y11821834D01*
X8407344Y11832656D01*
X8566924Y12027104D01*
X8685502Y12248949D01*
X8758522Y12489664D01*
X8783178Y12740000D01*
X8758522Y12990336D01*
X8685502Y13231051D01*
X8566924Y13452896D01*
X8407344Y13647344D01*
X8212896Y13806924D01*
X7991051Y13925502D01*
X7750336Y13998522D01*
X7562726Y14017000D01*
X7437274Y14017000D01*
X7249664Y13998522D01*
X7008949Y13925502D01*
X6787104Y13806924D01*
X6592656Y13647344D01*
X6433076Y13452896D01*
X6314498Y13231051D01*
X6241478Y12990336D01*
X6216822Y12740000D01*
X5829066Y12740000D01*
X5829066Y12850000D01*
X5820822Y12933707D01*
X5796405Y13014196D01*
X5756755Y13088376D01*
X5703395Y13153395D01*
X5638376Y13206755D01*
X5564196Y13246405D01*
X5483707Y13270822D01*
X5400000Y13279066D01*
X3600000Y13279066D01*
X3516293Y13270822D01*
X3435804Y13246405D01*
X3361624Y13206755D01*
X3296605Y13153395D01*
X3243245Y13088376D01*
X3203595Y13014196D01*
X3179178Y12933707D01*
X3170934Y12850000D01*
X3170934Y12786127D01*
X3024080Y12834475D01*
X2139605Y11950000D01*
X1780395Y11950000D01*
X895920Y12834475D01*
X641739Y12750792D01*
X510842Y12478225D01*
X452000Y12249086D01*
X452000Y13014080D01*
X1075525Y13014080D01*
X1960000Y12129605D01*
X2844475Y13014080D01*
X2760792Y13268261D01*
X2488225Y13399158D01*
X2195358Y13474365D01*
X1893447Y13490991D01*
X1594093Y13448397D01*
X1308801Y13348222D01*
X1159208Y13268261D01*
X1075525Y13014080D01*
X452000Y13014080D01*
X452000Y14321834D01*
X9263000Y14321834D01*
X9263000Y14078166D01*
X9310538Y13839181D01*
X9403785Y13614061D01*
X9539160Y13411459D01*
X9711459Y13239160D01*
X9914061Y13103785D01*
X10139181Y13010538D01*
X10378166Y12963000D01*
X10621834Y12963000D01*
X10860819Y13010538D01*
X11085939Y13103785D01*
X11288541Y13239160D01*
X11460840Y13411459D01*
X11596215Y13614061D01*
X11689462Y13839181D01*
X11737000Y14078166D01*
X11737000Y14321834D01*
X11689462Y14560819D01*
X11596215Y14785939D01*
X11460840Y14988541D01*
X11288541Y15160840D01*
X11085939Y15296215D01*
X10860819Y15389462D01*
X10621834Y15437000D01*
X10378166Y15437000D01*
X10139181Y15389462D01*
X9914061Y15296215D01*
X9711459Y15160840D01*
X9539160Y14988541D01*
X9403785Y14785939D01*
X9310538Y14560819D01*
X9263000Y14321834D01*
X452000Y14321834D01*
X452000Y19321834D01*
X9763000Y19321834D01*
X9763000Y19078166D01*
X9810538Y18839181D01*
X9903785Y18614061D01*
X10039160Y18411459D01*
X10211459Y18239160D01*
X10414061Y18103785D01*
X10639181Y18010538D01*
X10878166Y17963000D01*
X11121834Y17963000D01*
X11360819Y18010538D01*
X11585939Y18103785D01*
X11788541Y18239160D01*
X11960840Y18411459D01*
X12096215Y18614061D01*
X12189462Y18839181D01*
X12237000Y19078166D01*
X12237000Y19321834D01*
X12189462Y19560819D01*
X12096215Y19785939D01*
X11960840Y19988541D01*
X11788541Y20160840D01*
X11610207Y20280000D01*
X21716822Y20280000D01*
X21741478Y20029664D01*
X21814498Y19788949D01*
X21933076Y19567104D01*
X22092656Y19372656D01*
X22287104Y19213076D01*
X22508949Y19094498D01*
X22749664Y19021478D01*
X22866202Y19010000D01*
X22749664Y18998522D01*
X22508949Y18925502D01*
X22287104Y18806924D01*
X22092656Y18647344D01*
X21933076Y18452896D01*
X21814498Y18231051D01*
X21741478Y17990336D01*
X21716822Y17740000D01*
X21741478Y17489664D01*
X21814498Y17248949D01*
X21933076Y17027104D01*
X22092656Y16832656D01*
X22287104Y16673076D01*
X22508949Y16554498D01*
X22749664Y16481478D01*
X22866202Y16470000D01*
X22749664Y16458522D01*
X22508949Y16385502D01*
X22287104Y16266924D01*
X22092656Y16107344D01*
X21933076Y15912896D01*
X21814498Y15691051D01*
X21741478Y15450336D01*
X21716822Y15200000D01*
X21741478Y14949664D01*
X21814498Y14708949D01*
X21933076Y14487104D01*
X22092656Y14292656D01*
X22287104Y14133076D01*
X22508949Y14014498D01*
X22749664Y13941478D01*
X22937274Y13923000D01*
X23062726Y13923000D01*
X23250336Y13941478D01*
X23491051Y14014498D01*
X23712896Y14133076D01*
X23907344Y14292656D01*
X24066924Y14487104D01*
X24185502Y14708949D01*
X24258522Y14949664D01*
X24270000Y15066202D01*
X24281478Y14949664D01*
X24354498Y14708949D01*
X24473076Y14487104D01*
X24632656Y14292656D01*
X24827104Y14133076D01*
X25048949Y14014498D01*
X25289664Y13941478D01*
X25477274Y13923000D01*
X25602726Y13923000D01*
X25790336Y13941478D01*
X26031051Y14014498D01*
X26252896Y14133076D01*
X26447344Y14292656D01*
X26606924Y14487104D01*
X26725502Y14708949D01*
X26798522Y14949664D01*
X26823178Y15200000D01*
X26798522Y15450336D01*
X26725502Y15691051D01*
X26606924Y15912896D01*
X26447344Y16107344D01*
X26252896Y16266924D01*
X26031051Y16385502D01*
X25790336Y16458522D01*
X25673798Y16470000D01*
X25790336Y16481478D01*
X26031051Y16554498D01*
X26252896Y16673076D01*
X26447344Y16832656D01*
X26606924Y17027104D01*
X26725502Y17248949D01*
X26798522Y17489664D01*
X26823178Y17740000D01*
X26798522Y17990336D01*
X26725502Y18231051D01*
X26606924Y18452896D01*
X26447344Y18647344D01*
X26252896Y18806924D01*
X26031051Y18925502D01*
X25790336Y18998522D01*
X25673798Y19010000D01*
X25790336Y19021478D01*
X26031051Y19094498D01*
X26252896Y19213076D01*
X26447344Y19372656D01*
X26606924Y19567104D01*
X26725502Y19788949D01*
X26798522Y20029664D01*
X26823178Y20280000D01*
X26798522Y20530336D01*
X26725502Y20771051D01*
X26606924Y20992896D01*
X26447344Y21187344D01*
X26252896Y21346924D01*
X26031051Y21465502D01*
X25790336Y21538522D01*
X25673798Y21550000D01*
X25790336Y21561478D01*
X26031051Y21634498D01*
X26252896Y21753076D01*
X26447344Y21912656D01*
X26606924Y22107104D01*
X26725502Y22328949D01*
X26798522Y22569664D01*
X26823178Y22820000D01*
X26798522Y23070336D01*
X26725502Y23311051D01*
X26606924Y23532896D01*
X26447344Y23727344D01*
X26252896Y23886924D01*
X26031051Y24005502D01*
X25790336Y24078522D01*
X25602726Y24097000D01*
X25477274Y24097000D01*
X25289664Y24078522D01*
X25048949Y24005502D01*
X24827104Y23886924D01*
X24632656Y23727344D01*
X24473076Y23532896D01*
X24354498Y23311051D01*
X24281478Y23070336D01*
X24279066Y23045847D01*
X24279066Y23670000D01*
X24270822Y23753707D01*
X24246405Y23834196D01*
X24206755Y23908376D01*
X24153395Y23973395D01*
X24088376Y24026755D01*
X24014196Y24066405D01*
X23933707Y24090822D01*
X23850000Y24099066D01*
X22150000Y24099066D01*
X22066293Y24090822D01*
X21985804Y24066405D01*
X21911624Y24026755D01*
X21846605Y23973395D01*
X21793245Y23908376D01*
X21753595Y23834196D01*
X21729178Y23753707D01*
X21720934Y23670000D01*
X21720934Y21970000D01*
X21729178Y21886293D01*
X21753595Y21805804D01*
X21793245Y21731624D01*
X21846605Y21666605D01*
X21911624Y21613245D01*
X21985804Y21573595D01*
X22066293Y21549178D01*
X22150000Y21540934D01*
X22774153Y21540934D01*
X22749664Y21538522D01*
X22508949Y21465502D01*
X22287104Y21346924D01*
X22092656Y21187344D01*
X21933076Y20992896D01*
X21814498Y20771051D01*
X21741478Y20530336D01*
X21716822Y20280000D01*
X11610207Y20280000D01*
X11585939Y20296215D01*
X11360819Y20389462D01*
X11121834Y20437000D01*
X10878166Y20437000D01*
X10639181Y20389462D01*
X10414061Y20296215D01*
X10211459Y20160840D01*
X10039160Y19988541D01*
X9903785Y19785939D01*
X9810538Y19560819D01*
X9763000Y19321834D01*
X452000Y19321834D01*
X452000Y20385920D01*
X1115525Y20385920D01*
X1199208Y20131739D01*
X1471775Y20000842D01*
X1764642Y19925635D01*
X2066553Y19909009D01*
X2365907Y19951603D01*
X2651199Y20051778D01*
X2800792Y20131739D01*
X2884475Y20385920D01*
X2000000Y21270395D01*
X1115525Y20385920D01*
X452000Y20385920D01*
X452000Y21383447D01*
X459009Y21383447D01*
X501603Y21084093D01*
X601778Y20798801D01*
X681739Y20649208D01*
X935920Y20565525D01*
X1820395Y21450000D01*
X2179605Y21450000D01*
X3064080Y20565525D01*
X3210934Y20613873D01*
X3210934Y20550000D01*
X3219178Y20466293D01*
X3243595Y20385804D01*
X3283245Y20311624D01*
X3336605Y20246605D01*
X3401624Y20193245D01*
X3475804Y20153595D01*
X3556293Y20129178D01*
X3640000Y20120934D01*
X5440000Y20120934D01*
X5523707Y20129178D01*
X5604196Y20153595D01*
X5678376Y20193245D01*
X5743395Y20246605D01*
X5796755Y20311624D01*
X5836405Y20385804D01*
X5860822Y20466293D01*
X5869066Y20550000D01*
X5869066Y20910000D01*
X6216822Y20910000D01*
X6241478Y20659664D01*
X6314498Y20418949D01*
X6433076Y20197104D01*
X6592656Y20002656D01*
X6787104Y19843076D01*
X7008949Y19724498D01*
X7249664Y19651478D01*
X7437274Y19633000D01*
X7562726Y19633000D01*
X7750336Y19651478D01*
X7991051Y19724498D01*
X8212896Y19843076D01*
X8407344Y20002656D01*
X8566924Y20197104D01*
X8685502Y20418949D01*
X8758522Y20659664D01*
X8783178Y20910000D01*
X8758522Y21160336D01*
X8685502Y21401051D01*
X8566924Y21622896D01*
X8407344Y21817344D01*
X8401873Y21821834D01*
X14763000Y21821834D01*
X14763000Y21578166D01*
X14810538Y21339181D01*
X14903785Y21114061D01*
X15039160Y20911459D01*
X15211459Y20739160D01*
X15414061Y20603785D01*
X15639181Y20510538D01*
X15878166Y20463000D01*
X16121834Y20463000D01*
X16360819Y20510538D01*
X16585939Y20603785D01*
X16788541Y20739160D01*
X16960840Y20911459D01*
X17096215Y21114061D01*
X17189462Y21339181D01*
X17237000Y21578166D01*
X17237000Y21821834D01*
X17189462Y22060819D01*
X17096215Y22285939D01*
X16960840Y22488541D01*
X16788541Y22660840D01*
X16585939Y22796215D01*
X16360819Y22889462D01*
X16121834Y22937000D01*
X15878166Y22937000D01*
X15639181Y22889462D01*
X15414061Y22796215D01*
X15211459Y22660840D01*
X15039160Y22488541D01*
X14903785Y22285939D01*
X14810538Y22060819D01*
X14763000Y21821834D01*
X8401873Y21821834D01*
X8212896Y21976924D01*
X7991051Y22095502D01*
X7750336Y22168522D01*
X7725847Y22170934D01*
X8350000Y22170934D01*
X8433707Y22179178D01*
X8514196Y22203595D01*
X8588376Y22243245D01*
X8653395Y22296605D01*
X8706755Y22361624D01*
X8746405Y22435804D01*
X8770822Y22516293D01*
X8779066Y22600000D01*
X8779066Y24300000D01*
X8776916Y24321834D01*
X9763000Y24321834D01*
X9763000Y24078166D01*
X9810538Y23839181D01*
X9903785Y23614061D01*
X10039160Y23411459D01*
X10211459Y23239160D01*
X10414061Y23103785D01*
X10639181Y23010538D01*
X10878166Y22963000D01*
X11121834Y22963000D01*
X11360819Y23010538D01*
X11585939Y23103785D01*
X11788541Y23239160D01*
X11960840Y23411459D01*
X12096215Y23614061D01*
X12189462Y23839181D01*
X12237000Y24078166D01*
X12237000Y24321834D01*
X12189462Y24560819D01*
X12096215Y24785939D01*
X11960840Y24988541D01*
X11788541Y25160840D01*
X11585939Y25296215D01*
X11360819Y25389462D01*
X11121834Y25437000D01*
X10878166Y25437000D01*
X10639181Y25389462D01*
X10414061Y25296215D01*
X10211459Y25160840D01*
X10039160Y24988541D01*
X9903785Y24785939D01*
X9810538Y24560819D01*
X9763000Y24321834D01*
X8776916Y24321834D01*
X8770822Y24383707D01*
X8746405Y24464196D01*
X8706755Y24538376D01*
X8653395Y24603395D01*
X8588376Y24656755D01*
X8514196Y24696405D01*
X8433707Y24720822D01*
X8350000Y24729066D01*
X6650000Y24729066D01*
X6566293Y24720822D01*
X6485804Y24696405D01*
X6411624Y24656755D01*
X6346605Y24603395D01*
X6293245Y24538376D01*
X6253595Y24464196D01*
X6229178Y24383707D01*
X6220934Y24300000D01*
X6220934Y22600000D01*
X6229178Y22516293D01*
X6253595Y22435804D01*
X6293245Y22361624D01*
X6346605Y22296605D01*
X6411624Y22243245D01*
X6485804Y22203595D01*
X6566293Y22179178D01*
X6650000Y22170934D01*
X7274153Y22170934D01*
X7249664Y22168522D01*
X7008949Y22095502D01*
X6787104Y21976924D01*
X6592656Y21817344D01*
X6433076Y21622896D01*
X6314498Y21401051D01*
X6241478Y21160336D01*
X6216822Y20910000D01*
X5869066Y20910000D01*
X5869066Y22350000D01*
X5860822Y22433707D01*
X5836405Y22514196D01*
X5796755Y22588376D01*
X5743395Y22653395D01*
X5678376Y22706755D01*
X5604196Y22746405D01*
X5523707Y22770822D01*
X5440000Y22779066D01*
X3640000Y22779066D01*
X3556293Y22770822D01*
X3475804Y22746405D01*
X3401624Y22706755D01*
X3336605Y22653395D01*
X3283245Y22588376D01*
X3243595Y22514196D01*
X3219178Y22433707D01*
X3210934Y22350000D01*
X3210934Y22286127D01*
X3064080Y22334475D01*
X2179605Y21450000D01*
X1820395Y21450000D01*
X935920Y22334475D01*
X681739Y22250792D01*
X550842Y21978225D01*
X475635Y21685358D01*
X459009Y21383447D01*
X452000Y21383447D01*
X452000Y22514080D01*
X1115525Y22514080D01*
X2000000Y21629605D01*
X2884475Y22514080D01*
X2800792Y22768261D01*
X2528225Y22899158D01*
X2235358Y22974365D01*
X1933447Y22990991D01*
X1634093Y22948397D01*
X1348801Y22848222D01*
X1199208Y22768261D01*
X1115525Y22514080D01*
X452000Y22514080D01*
X452000Y26571834D01*
X11013000Y26571834D01*
X11013000Y26328166D01*
X11060538Y26089181D01*
X11153785Y25864061D01*
X11289160Y25661459D01*
X11461459Y25489160D01*
X11664061Y25353785D01*
X11889181Y25260538D01*
X12128166Y25213000D01*
X12371834Y25213000D01*
X12610819Y25260538D01*
X12835939Y25353785D01*
X13038541Y25489160D01*
X13210840Y25661459D01*
X13346215Y25864061D01*
X13439462Y26089181D01*
X13487000Y26328166D01*
X13487000Y26571834D01*
X13439462Y26810819D01*
X13346215Y27035939D01*
X13210840Y27238541D01*
X13038541Y27410840D01*
X12835939Y27546215D01*
X12610819Y27639462D01*
X12371834Y27687000D01*
X12128166Y27687000D01*
X11889181Y27639462D01*
X11664061Y27546215D01*
X11461459Y27410840D01*
X11289160Y27238541D01*
X11153785Y27035939D01*
X11060538Y26810819D01*
X11013000Y26571834D01*
X452000Y26571834D01*
X452000Y28885920D01*
X1115525Y28885920D01*
X1199208Y28631739D01*
X1471775Y28500842D01*
X1764642Y28425635D01*
X2066553Y28409009D01*
X2365907Y28451603D01*
X2651199Y28551778D01*
X2800792Y28631739D01*
X2884475Y28885920D01*
X2000000Y29770395D01*
X1115525Y28885920D01*
X452000Y28885920D01*
X452000Y29883447D01*
X459009Y29883447D01*
X501603Y29584093D01*
X601778Y29298801D01*
X681739Y29149208D01*
X935920Y29065525D01*
X1820395Y29950000D01*
X2179605Y29950000D01*
X3064080Y29065525D01*
X3210934Y29113873D01*
X3210934Y29050000D01*
X3219178Y28966293D01*
X3243595Y28885804D01*
X3283245Y28811624D01*
X3336605Y28746605D01*
X3401624Y28693245D01*
X3475804Y28653595D01*
X3556293Y28629178D01*
X3640000Y28620934D01*
X5440000Y28620934D01*
X5523707Y28629178D01*
X5604196Y28653595D01*
X5678376Y28693245D01*
X5743395Y28746605D01*
X5796755Y28811624D01*
X5836405Y28885804D01*
X5860822Y28966293D01*
X5869066Y29050000D01*
X5869066Y29071834D01*
X6013000Y29071834D01*
X6013000Y28828166D01*
X6060538Y28589181D01*
X6153785Y28364061D01*
X6289160Y28161459D01*
X6461459Y27989160D01*
X6664061Y27853785D01*
X6889181Y27760538D01*
X7128166Y27713000D01*
X7371834Y27713000D01*
X7610819Y27760538D01*
X7835939Y27853785D01*
X8038541Y27989160D01*
X8210840Y28161459D01*
X8346215Y28364061D01*
X8439462Y28589181D01*
X8487000Y28828166D01*
X8487000Y29071834D01*
X8439462Y29310819D01*
X8346215Y29535939D01*
X8210840Y29738541D01*
X8038541Y29910840D01*
X7835939Y30046215D01*
X7610819Y30139462D01*
X7371834Y30187000D01*
X7128166Y30187000D01*
X6889181Y30139462D01*
X6664061Y30046215D01*
X6461459Y29910840D01*
X6289160Y29738541D01*
X6153785Y29535939D01*
X6060538Y29310819D01*
X6013000Y29071834D01*
X5869066Y29071834D01*
X5869066Y30850000D01*
X5860822Y30933707D01*
X5836405Y31014196D01*
X5796755Y31088376D01*
X5743395Y31153395D01*
X5678376Y31206755D01*
X5604196Y31246405D01*
X5523707Y31270822D01*
X5440000Y31279066D01*
X3640000Y31279066D01*
X3556293Y31270822D01*
X3475804Y31246405D01*
X3401624Y31206755D01*
X3336605Y31153395D01*
X3283245Y31088376D01*
X3243595Y31014196D01*
X3219178Y30933707D01*
X3210934Y30850000D01*
X3210934Y30786127D01*
X3064080Y30834475D01*
X2179605Y29950000D01*
X1820395Y29950000D01*
X935920Y30834475D01*
X681739Y30750792D01*
X550842Y30478225D01*
X475635Y30185358D01*
X459009Y29883447D01*
X452000Y29883447D01*
X452000Y31014080D01*
X1115525Y31014080D01*
X2000000Y30129605D01*
X2884475Y31014080D01*
X2800792Y31268261D01*
X2528225Y31399158D01*
X2235358Y31474365D01*
X1933447Y31490991D01*
X1634093Y31448397D01*
X1348801Y31348222D01*
X1199208Y31268261D01*
X1115525Y31014080D01*
X452000Y31014080D01*
X452000Y31571834D01*
X11013000Y31571834D01*
X11013000Y31328166D01*
X11060538Y31089181D01*
X11153785Y30864061D01*
X11289160Y30661459D01*
X11461459Y30489160D01*
X11664061Y30353785D01*
X11889181Y30260538D01*
X12128166Y30213000D01*
X12371834Y30213000D01*
X12610819Y30260538D01*
X12835939Y30353785D01*
X13038541Y30489160D01*
X13039381Y30490000D01*
X13966822Y30490000D01*
X13991478Y30239664D01*
X14064498Y29998949D01*
X14183076Y29777104D01*
X14342656Y29582656D01*
X14537104Y29423076D01*
X14758949Y29304498D01*
X14999664Y29231478D01*
X15024153Y29229066D01*
X14400000Y29229066D01*
X14316293Y29220822D01*
X14235804Y29196405D01*
X14161624Y29156755D01*
X14096605Y29103395D01*
X14043245Y29038376D01*
X14003595Y28964196D01*
X13979178Y28883707D01*
X13970934Y28800000D01*
X13970934Y27100000D01*
X13979178Y27016293D01*
X14003595Y26935804D01*
X14043245Y26861624D01*
X14096605Y26796605D01*
X14161624Y26743245D01*
X14235804Y26703595D01*
X14316293Y26679178D01*
X14400000Y26670934D01*
X16100000Y26670934D01*
X16183707Y26679178D01*
X16264196Y26703595D01*
X16338376Y26743245D01*
X16403395Y26796605D01*
X16456755Y26861624D01*
X16496405Y26935804D01*
X16520822Y27016293D01*
X16529066Y27100000D01*
X16529066Y28443109D01*
X17258519Y28443109D01*
X17355843Y28168748D01*
X17504822Y27918645D01*
X17699731Y27702412D01*
X17933080Y27528359D01*
X18195901Y27403175D01*
X18343110Y27358524D01*
X18573000Y27479845D01*
X18573000Y28673000D01*
X17379186Y28673000D01*
X17258519Y28443109D01*
X16529066Y28443109D01*
X16529066Y28800000D01*
X16520822Y28883707D01*
X16496405Y28964196D01*
X16456755Y29038376D01*
X16403395Y29103395D01*
X16338376Y29156755D01*
X16338122Y29156891D01*
X17258519Y29156891D01*
X17379186Y28927000D01*
X18573000Y28927000D01*
X18573000Y30120155D01*
X18827000Y30120155D01*
X18827000Y28927000D01*
X18847000Y28927000D01*
X18847000Y28673000D01*
X18827000Y28673000D01*
X18827000Y27479845D01*
X19056890Y27358524D01*
X19204099Y27403175D01*
X19466920Y27528359D01*
X19700269Y27702412D01*
X19895178Y27918645D01*
X20044157Y28168748D01*
X20078176Y28264650D01*
X20173076Y28087104D01*
X20332656Y27892656D01*
X20527104Y27733076D01*
X20748949Y27614498D01*
X20989664Y27541478D01*
X21177274Y27523000D01*
X21302726Y27523000D01*
X21490336Y27541478D01*
X21731051Y27614498D01*
X21952896Y27733076D01*
X22147344Y27892656D01*
X22306924Y28087104D01*
X22425502Y28308949D01*
X22498522Y28549664D01*
X22500934Y28574153D01*
X22500934Y27950000D01*
X22509178Y27866293D01*
X22533595Y27785804D01*
X22573245Y27711624D01*
X22626605Y27646605D01*
X22691624Y27593245D01*
X22765804Y27553595D01*
X22846293Y27529178D01*
X22930000Y27520934D01*
X24630000Y27520934D01*
X24713707Y27529178D01*
X24794196Y27553595D01*
X24868376Y27593245D01*
X24933395Y27646605D01*
X24986755Y27711624D01*
X25026405Y27785804D01*
X25050822Y27866293D01*
X25059066Y27950000D01*
X25059066Y29650000D01*
X25050822Y29733707D01*
X25026405Y29814196D01*
X24986755Y29888376D01*
X24933395Y29953395D01*
X24868376Y30006755D01*
X24794196Y30046405D01*
X24713707Y30070822D01*
X24630000Y30079066D01*
X22930000Y30079066D01*
X22846293Y30070822D01*
X22765804Y30046405D01*
X22691624Y30006755D01*
X22626605Y29953395D01*
X22573245Y29888376D01*
X22533595Y29814196D01*
X22509178Y29733707D01*
X22500934Y29650000D01*
X22500934Y29025847D01*
X22498522Y29050336D01*
X22425502Y29291051D01*
X22306924Y29512896D01*
X22147344Y29707344D01*
X21952896Y29866924D01*
X21731051Y29985502D01*
X21490336Y30058522D01*
X21302726Y30077000D01*
X21177274Y30077000D01*
X20989664Y30058522D01*
X20748949Y29985502D01*
X20527104Y29866924D01*
X20332656Y29707344D01*
X20173076Y29512896D01*
X20078176Y29335350D01*
X20044157Y29431252D01*
X19895178Y29681355D01*
X19700269Y29897588D01*
X19466920Y30071641D01*
X19204099Y30196825D01*
X19056890Y30241476D01*
X18827000Y30120155D01*
X18573000Y30120155D01*
X18343110Y30241476D01*
X18195901Y30196825D01*
X17933080Y30071641D01*
X17699731Y29897588D01*
X17504822Y29681355D01*
X17355843Y29431252D01*
X17258519Y29156891D01*
X16338122Y29156891D01*
X16264196Y29196405D01*
X16183707Y29220822D01*
X16100000Y29229066D01*
X15475847Y29229066D01*
X15500336Y29231478D01*
X15741051Y29304498D01*
X15962896Y29423076D01*
X16157344Y29582656D01*
X16316924Y29777104D01*
X16435502Y29998949D01*
X16508522Y30239664D01*
X16533178Y30490000D01*
X16508522Y30740336D01*
X16475136Y30850396D01*
X26473000Y30850396D01*
X26473000Y30549604D01*
X26531681Y30254590D01*
X26646790Y29976694D01*
X26813901Y29726594D01*
X27026594Y29513901D01*
X27276694Y29346790D01*
X27554590Y29231681D01*
X27849604Y29173000D01*
X28150396Y29173000D01*
X28445410Y29231681D01*
X28723306Y29346790D01*
X28973406Y29513901D01*
X29186099Y29726594D01*
X29353210Y29976694D01*
X29468319Y30254590D01*
X29527000Y30549604D01*
X29527000Y30850396D01*
X29468319Y31145410D01*
X29353210Y31423306D01*
X29186099Y31673406D01*
X28973406Y31886099D01*
X28723306Y32053210D01*
X28445410Y32168319D01*
X28150396Y32227000D01*
X27849604Y32227000D01*
X27554590Y32168319D01*
X27276694Y32053210D01*
X27026594Y31886099D01*
X26813901Y31673406D01*
X26646790Y31423306D01*
X26531681Y31145410D01*
X26473000Y30850396D01*
X16475136Y30850396D01*
X16435502Y30981051D01*
X16316924Y31202896D01*
X16157344Y31397344D01*
X15962896Y31556924D01*
X15741051Y31675502D01*
X15500336Y31748522D01*
X15312726Y31767000D01*
X15187274Y31767000D01*
X14999664Y31748522D01*
X14758949Y31675502D01*
X14537104Y31556924D01*
X14342656Y31397344D01*
X14183076Y31202896D01*
X14064498Y30981051D01*
X13991478Y30740336D01*
X13966822Y30490000D01*
X13039381Y30490000D01*
X13210840Y30661459D01*
X13346215Y30864061D01*
X13439462Y31089181D01*
X13487000Y31328166D01*
X13487000Y31571834D01*
X13439462Y31810819D01*
X13346215Y32035939D01*
X13210840Y32238541D01*
X13038541Y32410840D01*
X12835939Y32546215D01*
X12610819Y32639462D01*
X12371834Y32687000D01*
X12128166Y32687000D01*
X11889181Y32639462D01*
X11664061Y32546215D01*
X11461459Y32410840D01*
X11289160Y32238541D01*
X11153785Y32035939D01*
X11060538Y31810819D01*
X11013000Y31571834D01*
X452000Y31571834D01*
X452000Y32748000D01*
X30548000Y32748000D01*
X30548001Y452000D01*
X30548001Y452000D01*
G37*
X30548001Y452000D02*
X452000Y452000D01*
X452000Y1821834D01*
X5763000Y1821834D01*
X5763000Y1578166D01*
X5810538Y1339181D01*
X5903785Y1114061D01*
X6039160Y911459D01*
X6211459Y739160D01*
X6414061Y603785D01*
X6639181Y510538D01*
X6878166Y463000D01*
X7121834Y463000D01*
X7360819Y510538D01*
X7585939Y603785D01*
X7788541Y739160D01*
X7960840Y911459D01*
X8096215Y1114061D01*
X8189462Y1339181D01*
X8237000Y1578166D01*
X8237000Y1821834D01*
X8189462Y2060819D01*
X8096215Y2285939D01*
X7960840Y2488541D01*
X7788541Y2660840D01*
X7585939Y2796215D01*
X7360819Y2889462D01*
X7121834Y2937000D01*
X6878166Y2937000D01*
X6639181Y2889462D01*
X6414061Y2796215D01*
X6211459Y2660840D01*
X6039160Y2488541D01*
X5903785Y2285939D01*
X5810538Y2060819D01*
X5763000Y1821834D01*
X452000Y1821834D01*
X452000Y2635920D01*
X1075525Y2635920D01*
X1159208Y2381739D01*
X1431775Y2250842D01*
X1724642Y2175635D01*
X2026553Y2159009D01*
X2325907Y2201603D01*
X2611199Y2301778D01*
X2760792Y2381739D01*
X2844475Y2635920D01*
X1960000Y3520395D01*
X1075525Y2635920D01*
X452000Y2635920D01*
X452000Y3401584D01*
X461603Y3334093D01*
X561778Y3048801D01*
X641739Y2899208D01*
X895920Y2815525D01*
X1780395Y3700000D01*
X2139605Y3700000D01*
X3024080Y2815525D01*
X3170934Y2863873D01*
X3170934Y2800000D01*
X3179178Y2716293D01*
X3203595Y2635804D01*
X3243245Y2561624D01*
X3296605Y2496605D01*
X3361624Y2443245D01*
X3435804Y2403595D01*
X3516293Y2379178D01*
X3600000Y2370934D01*
X5400000Y2370934D01*
X5483707Y2379178D01*
X5564196Y2403595D01*
X5638376Y2443245D01*
X5703395Y2496605D01*
X5756755Y2561624D01*
X5796405Y2635804D01*
X5820822Y2716293D01*
X5829066Y2800000D01*
X5829066Y4321834D01*
X10763000Y4321834D01*
X10763000Y4078166D01*
X10810538Y3839181D01*
X10903785Y3614061D01*
X11039160Y3411459D01*
X11211459Y3239160D01*
X11414061Y3103785D01*
X11639181Y3010538D01*
X11878166Y2963000D01*
X12121834Y2963000D01*
X12360819Y3010538D01*
X12585939Y3103785D01*
X12788541Y3239160D01*
X12960840Y3411459D01*
X13096215Y3614061D01*
X13115243Y3660000D01*
X13716822Y3660000D01*
X13741478Y3409664D01*
X13814498Y3168949D01*
X13933076Y2947104D01*
X14092656Y2752656D01*
X14287104Y2593076D01*
X14508949Y2474498D01*
X14749664Y2401478D01*
X14937274Y2383000D01*
X15062726Y2383000D01*
X15250336Y2401478D01*
X15491051Y2474498D01*
X15712896Y2593076D01*
X15907344Y2752656D01*
X16066924Y2947104D01*
X16185502Y3168949D01*
X16240543Y3350396D01*
X26473000Y3350396D01*
X26473000Y3049604D01*
X26531681Y2754590D01*
X26646790Y2476694D01*
X26813901Y2226594D01*
X27026594Y2013901D01*
X27276694Y1846790D01*
X27554590Y1731681D01*
X27849604Y1673000D01*
X28150396Y1673000D01*
X28445410Y1731681D01*
X28723306Y1846790D01*
X28973406Y2013901D01*
X29186099Y2226594D01*
X29353210Y2476694D01*
X29468319Y2754590D01*
X29527000Y3049604D01*
X29527000Y3350396D01*
X29468319Y3645410D01*
X29353210Y3923306D01*
X29186099Y4173406D01*
X28973406Y4386099D01*
X28723306Y4553210D01*
X28445410Y4668319D01*
X28150396Y4727000D01*
X27849604Y4727000D01*
X27554590Y4668319D01*
X27276694Y4553210D01*
X27026594Y4386099D01*
X26813901Y4173406D01*
X26646790Y3923306D01*
X26531681Y3645410D01*
X26473000Y3350396D01*
X16240543Y3350396D01*
X16258522Y3409664D01*
X16283178Y3660000D01*
X16258522Y3910336D01*
X16185502Y4151051D01*
X16066924Y4372896D01*
X15907344Y4567344D01*
X15712896Y4726924D01*
X15491051Y4845502D01*
X15250336Y4918522D01*
X15225847Y4920934D01*
X15850000Y4920934D01*
X15933707Y4929178D01*
X16014196Y4953595D01*
X16088376Y4993245D01*
X16153395Y5046605D01*
X16206755Y5111624D01*
X16246405Y5185804D01*
X16270822Y5266293D01*
X16279066Y5350000D01*
X16279066Y7050000D01*
X16270822Y7133707D01*
X16246405Y7214196D01*
X16206755Y7288376D01*
X16153395Y7353395D01*
X16088376Y7406755D01*
X16014196Y7446405D01*
X15933707Y7470822D01*
X15850000Y7479066D01*
X14150000Y7479066D01*
X14066293Y7470822D01*
X13985804Y7446405D01*
X13911624Y7406755D01*
X13846605Y7353395D01*
X13793245Y7288376D01*
X13753595Y7214196D01*
X13729178Y7133707D01*
X13720934Y7050000D01*
X13720934Y5350000D01*
X13729178Y5266293D01*
X13753595Y5185804D01*
X13793245Y5111624D01*
X13846605Y5046605D01*
X13911624Y4993245D01*
X13985804Y4953595D01*
X14066293Y4929178D01*
X14150000Y4920934D01*
X14774153Y4920934D01*
X14749664Y4918522D01*
X14508949Y4845502D01*
X14287104Y4726924D01*
X14092656Y4567344D01*
X13933076Y4372896D01*
X13814498Y4151051D01*
X13741478Y3910336D01*
X13716822Y3660000D01*
X13115243Y3660000D01*
X13189462Y3839181D01*
X13237000Y4078166D01*
X13237000Y4321834D01*
X13189462Y4560819D01*
X13096215Y4785939D01*
X12960840Y4988541D01*
X12788541Y5160840D01*
X12585939Y5296215D01*
X12360819Y5389462D01*
X12121834Y5437000D01*
X11878166Y5437000D01*
X11639181Y5389462D01*
X11414061Y5296215D01*
X11211459Y5160840D01*
X11039160Y4988541D01*
X10903785Y4785939D01*
X10810538Y4560819D01*
X10763000Y4321834D01*
X5829066Y4321834D01*
X5829066Y4600000D01*
X5820822Y4683707D01*
X5796405Y4764196D01*
X5756755Y4838376D01*
X5703395Y4903395D01*
X5638376Y4956755D01*
X5564196Y4996405D01*
X5483707Y5020822D01*
X5400000Y5029066D01*
X3600000Y5029066D01*
X3516293Y5020822D01*
X3435804Y4996405D01*
X3361624Y4956755D01*
X3296605Y4903395D01*
X3243245Y4838376D01*
X3203595Y4764196D01*
X3179178Y4683707D01*
X3170934Y4600000D01*
X3170934Y4536127D01*
X3024080Y4584475D01*
X2139605Y3700000D01*
X1780395Y3700000D01*
X895920Y4584475D01*
X641739Y4500792D01*
X510842Y4228225D01*
X452000Y3999086D01*
X452000Y4764080D01*
X1075525Y4764080D01*
X1960000Y3879605D01*
X2844475Y4764080D01*
X2760792Y5018261D01*
X2488225Y5149158D01*
X2195358Y5224365D01*
X1893447Y5240991D01*
X1594093Y5198397D01*
X1308801Y5098222D01*
X1159208Y5018261D01*
X1075525Y4764080D01*
X452000Y4764080D01*
X452000Y6821834D01*
X5763000Y6821834D01*
X5763000Y6578166D01*
X5810538Y6339181D01*
X5903785Y6114061D01*
X6039160Y5911459D01*
X6211459Y5739160D01*
X6414061Y5603785D01*
X6639181Y5510538D01*
X6878166Y5463000D01*
X7121834Y5463000D01*
X7360819Y5510538D01*
X7585939Y5603785D01*
X7788541Y5739160D01*
X7960840Y5911459D01*
X8096215Y6114061D01*
X8189462Y6339181D01*
X8237000Y6578166D01*
X8237000Y6821834D01*
X8189462Y7060819D01*
X8096215Y7285939D01*
X7960840Y7488541D01*
X7788541Y7660840D01*
X7585939Y7796215D01*
X7360819Y7889462D01*
X7121834Y7937000D01*
X6878166Y7937000D01*
X6639181Y7889462D01*
X6414061Y7796215D01*
X6211459Y7660840D01*
X6039160Y7488541D01*
X5903785Y7285939D01*
X5810538Y7060819D01*
X5763000Y6821834D01*
X452000Y6821834D01*
X452000Y10885920D01*
X1075525Y10885920D01*
X1159208Y10631739D01*
X1431775Y10500842D01*
X1724642Y10425635D01*
X2026553Y10409009D01*
X2325907Y10451603D01*
X2611199Y10551778D01*
X2760792Y10631739D01*
X2844475Y10885920D01*
X1960000Y11770395D01*
X1075525Y10885920D01*
X452000Y10885920D01*
X452000Y11651584D01*
X461603Y11584093D01*
X561778Y11298801D01*
X641739Y11149208D01*
X895920Y11065525D01*
X1780395Y11950000D01*
X2139605Y11950000D01*
X3024080Y11065525D01*
X3170934Y11113873D01*
X3170934Y11050000D01*
X3179178Y10966293D01*
X3203595Y10885804D01*
X3243245Y10811624D01*
X3296605Y10746605D01*
X3361624Y10693245D01*
X3435804Y10653595D01*
X3516293Y10629178D01*
X3600000Y10620934D01*
X5400000Y10620934D01*
X5483707Y10629178D01*
X5564196Y10653595D01*
X5638376Y10693245D01*
X5703395Y10746605D01*
X5756755Y10811624D01*
X5796405Y10885804D01*
X5820822Y10966293D01*
X5829066Y11050000D01*
X5829066Y12740000D01*
X6216822Y12740000D01*
X6241478Y12489664D01*
X6314498Y12248949D01*
X6433076Y12027104D01*
X6592656Y11832656D01*
X6787104Y11673076D01*
X7008949Y11554498D01*
X7249664Y11481478D01*
X7274153Y11479066D01*
X6650000Y11479066D01*
X6566293Y11470822D01*
X6485804Y11446405D01*
X6411624Y11406755D01*
X6346605Y11353395D01*
X6293245Y11288376D01*
X6253595Y11214196D01*
X6229178Y11133707D01*
X6220934Y11050000D01*
X6220934Y9350000D01*
X6229178Y9266293D01*
X6253595Y9185804D01*
X6293245Y9111624D01*
X6346605Y9046605D01*
X6411624Y8993245D01*
X6485804Y8953595D01*
X6566293Y8929178D01*
X6650000Y8920934D01*
X8350000Y8920934D01*
X8433707Y8929178D01*
X8514196Y8953595D01*
X8588376Y8993245D01*
X8653395Y9046605D01*
X8706755Y9111624D01*
X8746405Y9185804D01*
X8770822Y9266293D01*
X8776292Y9321834D01*
X9263000Y9321834D01*
X9263000Y9078166D01*
X9310538Y8839181D01*
X9403785Y8614061D01*
X9539160Y8411459D01*
X9711459Y8239160D01*
X9914061Y8103785D01*
X10139181Y8010538D01*
X10378166Y7963000D01*
X10621834Y7963000D01*
X10860819Y8010538D01*
X11085939Y8103785D01*
X11288541Y8239160D01*
X11460840Y8411459D01*
X11596215Y8614061D01*
X11689462Y8839181D01*
X11737000Y9078166D01*
X11737000Y9321834D01*
X11689462Y9560819D01*
X11596215Y9785939D01*
X11460840Y9988541D01*
X11288541Y10160840D01*
X11085939Y10296215D01*
X10860819Y10389462D01*
X10621834Y10437000D01*
X10378166Y10437000D01*
X10139181Y10389462D01*
X9914061Y10296215D01*
X9711459Y10160840D01*
X9539160Y9988541D01*
X9403785Y9785939D01*
X9310538Y9560819D01*
X9263000Y9321834D01*
X8776292Y9321834D01*
X8779066Y9350000D01*
X8779066Y11050000D01*
X8770822Y11133707D01*
X8746405Y11214196D01*
X8706755Y11288376D01*
X8653395Y11353395D01*
X8588376Y11406755D01*
X8514196Y11446405D01*
X8433707Y11470822D01*
X8350000Y11479066D01*
X7725847Y11479066D01*
X7750336Y11481478D01*
X7991051Y11554498D01*
X8212896Y11673076D01*
X8394157Y11821834D01*
X14263000Y11821834D01*
X14263000Y11578166D01*
X14310538Y11339181D01*
X14403785Y11114061D01*
X14539160Y10911459D01*
X14711459Y10739160D01*
X14914061Y10603785D01*
X15139181Y10510538D01*
X15378166Y10463000D01*
X15621834Y10463000D01*
X15860819Y10510538D01*
X16085939Y10603785D01*
X16288541Y10739160D01*
X16460840Y10911459D01*
X16596215Y11114061D01*
X16689462Y11339181D01*
X16737000Y11578166D01*
X16737000Y11821834D01*
X16689462Y12060819D01*
X16596215Y12285939D01*
X16460840Y12488541D01*
X16288541Y12660840D01*
X16085939Y12796215D01*
X15860819Y12889462D01*
X15621834Y12937000D01*
X15378166Y12937000D01*
X15139181Y12889462D01*
X14914061Y12796215D01*
X14711459Y12660840D01*
X14539160Y12488541D01*
X14403785Y12285939D01*
X14310538Y12060819D01*
X14263000Y11821834D01*
X8394157Y11821834D01*
X8407344Y11832656D01*
X8566924Y12027104D01*
X8685502Y12248949D01*
X8758522Y12489664D01*
X8783178Y12740000D01*
X8758522Y12990336D01*
X8685502Y13231051D01*
X8566924Y13452896D01*
X8407344Y13647344D01*
X8212896Y13806924D01*
X7991051Y13925502D01*
X7750336Y13998522D01*
X7562726Y14017000D01*
X7437274Y14017000D01*
X7249664Y13998522D01*
X7008949Y13925502D01*
X6787104Y13806924D01*
X6592656Y13647344D01*
X6433076Y13452896D01*
X6314498Y13231051D01*
X6241478Y12990336D01*
X6216822Y12740000D01*
X5829066Y12740000D01*
X5829066Y12850000D01*
X5820822Y12933707D01*
X5796405Y13014196D01*
X5756755Y13088376D01*
X5703395Y13153395D01*
X5638376Y13206755D01*
X5564196Y13246405D01*
X5483707Y13270822D01*
X5400000Y13279066D01*
X3600000Y13279066D01*
X3516293Y13270822D01*
X3435804Y13246405D01*
X3361624Y13206755D01*
X3296605Y13153395D01*
X3243245Y13088376D01*
X3203595Y13014196D01*
X3179178Y12933707D01*
X3170934Y12850000D01*
X3170934Y12786127D01*
X3024080Y12834475D01*
X2139605Y11950000D01*
X1780395Y11950000D01*
X895920Y12834475D01*
X641739Y12750792D01*
X510842Y12478225D01*
X452000Y12249086D01*
X452000Y13014080D01*
X1075525Y13014080D01*
X1960000Y12129605D01*
X2844475Y13014080D01*
X2760792Y13268261D01*
X2488225Y13399158D01*
X2195358Y13474365D01*
X1893447Y13490991D01*
X1594093Y13448397D01*
X1308801Y13348222D01*
X1159208Y13268261D01*
X1075525Y13014080D01*
X452000Y13014080D01*
X452000Y14321834D01*
X9263000Y14321834D01*
X9263000Y14078166D01*
X9310538Y13839181D01*
X9403785Y13614061D01*
X9539160Y13411459D01*
X9711459Y13239160D01*
X9914061Y13103785D01*
X10139181Y13010538D01*
X10378166Y12963000D01*
X10621834Y12963000D01*
X10860819Y13010538D01*
X11085939Y13103785D01*
X11288541Y13239160D01*
X11460840Y13411459D01*
X11596215Y13614061D01*
X11689462Y13839181D01*
X11737000Y14078166D01*
X11737000Y14321834D01*
X11689462Y14560819D01*
X11596215Y14785939D01*
X11460840Y14988541D01*
X11288541Y15160840D01*
X11085939Y15296215D01*
X10860819Y15389462D01*
X10621834Y15437000D01*
X10378166Y15437000D01*
X10139181Y15389462D01*
X9914061Y15296215D01*
X9711459Y15160840D01*
X9539160Y14988541D01*
X9403785Y14785939D01*
X9310538Y14560819D01*
X9263000Y14321834D01*
X452000Y14321834D01*
X452000Y19321834D01*
X9763000Y19321834D01*
X9763000Y19078166D01*
X9810538Y18839181D01*
X9903785Y18614061D01*
X10039160Y18411459D01*
X10211459Y18239160D01*
X10414061Y18103785D01*
X10639181Y18010538D01*
X10878166Y17963000D01*
X11121834Y17963000D01*
X11360819Y18010538D01*
X11585939Y18103785D01*
X11788541Y18239160D01*
X11960840Y18411459D01*
X12096215Y18614061D01*
X12189462Y18839181D01*
X12237000Y19078166D01*
X12237000Y19321834D01*
X12189462Y19560819D01*
X12096215Y19785939D01*
X11960840Y19988541D01*
X11788541Y20160840D01*
X11610207Y20280000D01*
X21716822Y20280000D01*
X21741478Y20029664D01*
X21814498Y19788949D01*
X21933076Y19567104D01*
X22092656Y19372656D01*
X22287104Y19213076D01*
X22508949Y19094498D01*
X22749664Y19021478D01*
X22866202Y19010000D01*
X22749664Y18998522D01*
X22508949Y18925502D01*
X22287104Y18806924D01*
X22092656Y18647344D01*
X21933076Y18452896D01*
X21814498Y18231051D01*
X21741478Y17990336D01*
X21716822Y17740000D01*
X21741478Y17489664D01*
X21814498Y17248949D01*
X21933076Y17027104D01*
X22092656Y16832656D01*
X22287104Y16673076D01*
X22508949Y16554498D01*
X22749664Y16481478D01*
X22866202Y16470000D01*
X22749664Y16458522D01*
X22508949Y16385502D01*
X22287104Y16266924D01*
X22092656Y16107344D01*
X21933076Y15912896D01*
X21814498Y15691051D01*
X21741478Y15450336D01*
X21716822Y15200000D01*
X21741478Y14949664D01*
X21814498Y14708949D01*
X21933076Y14487104D01*
X22092656Y14292656D01*
X22287104Y14133076D01*
X22508949Y14014498D01*
X22749664Y13941478D01*
X22937274Y13923000D01*
X23062726Y13923000D01*
X23250336Y13941478D01*
X23491051Y14014498D01*
X23712896Y14133076D01*
X23907344Y14292656D01*
X24066924Y14487104D01*
X24185502Y14708949D01*
X24258522Y14949664D01*
X24270000Y15066202D01*
X24281478Y14949664D01*
X24354498Y14708949D01*
X24473076Y14487104D01*
X24632656Y14292656D01*
X24827104Y14133076D01*
X25048949Y14014498D01*
X25289664Y13941478D01*
X25477274Y13923000D01*
X25602726Y13923000D01*
X25790336Y13941478D01*
X26031051Y14014498D01*
X26252896Y14133076D01*
X26447344Y14292656D01*
X26606924Y14487104D01*
X26725502Y14708949D01*
X26798522Y14949664D01*
X26823178Y15200000D01*
X26798522Y15450336D01*
X26725502Y15691051D01*
X26606924Y15912896D01*
X26447344Y16107344D01*
X26252896Y16266924D01*
X26031051Y16385502D01*
X25790336Y16458522D01*
X25673798Y16470000D01*
X25790336Y16481478D01*
X26031051Y16554498D01*
X26252896Y16673076D01*
X26447344Y16832656D01*
X26606924Y17027104D01*
X26725502Y17248949D01*
X26798522Y17489664D01*
X26823178Y17740000D01*
X26798522Y17990336D01*
X26725502Y18231051D01*
X26606924Y18452896D01*
X26447344Y18647344D01*
X26252896Y18806924D01*
X26031051Y18925502D01*
X25790336Y18998522D01*
X25673798Y19010000D01*
X25790336Y19021478D01*
X26031051Y19094498D01*
X26252896Y19213076D01*
X26447344Y19372656D01*
X26606924Y19567104D01*
X26725502Y19788949D01*
X26798522Y20029664D01*
X26823178Y20280000D01*
X26798522Y20530336D01*
X26725502Y20771051D01*
X26606924Y20992896D01*
X26447344Y21187344D01*
X26252896Y21346924D01*
X26031051Y21465502D01*
X25790336Y21538522D01*
X25673798Y21550000D01*
X25790336Y21561478D01*
X26031051Y21634498D01*
X26252896Y21753076D01*
X26447344Y21912656D01*
X26606924Y22107104D01*
X26725502Y22328949D01*
X26798522Y22569664D01*
X26823178Y22820000D01*
X26798522Y23070336D01*
X26725502Y23311051D01*
X26606924Y23532896D01*
X26447344Y23727344D01*
X26252896Y23886924D01*
X26031051Y24005502D01*
X25790336Y24078522D01*
X25602726Y24097000D01*
X25477274Y24097000D01*
X25289664Y24078522D01*
X25048949Y24005502D01*
X24827104Y23886924D01*
X24632656Y23727344D01*
X24473076Y23532896D01*
X24354498Y23311051D01*
X24281478Y23070336D01*
X24279066Y23045847D01*
X24279066Y23670000D01*
X24270822Y23753707D01*
X24246405Y23834196D01*
X24206755Y23908376D01*
X24153395Y23973395D01*
X24088376Y24026755D01*
X24014196Y24066405D01*
X23933707Y24090822D01*
X23850000Y24099066D01*
X22150000Y24099066D01*
X22066293Y24090822D01*
X21985804Y24066405D01*
X21911624Y24026755D01*
X21846605Y23973395D01*
X21793245Y23908376D01*
X21753595Y23834196D01*
X21729178Y23753707D01*
X21720934Y23670000D01*
X21720934Y21970000D01*
X21729178Y21886293D01*
X21753595Y21805804D01*
X21793245Y21731624D01*
X21846605Y21666605D01*
X21911624Y21613245D01*
X21985804Y21573595D01*
X22066293Y21549178D01*
X22150000Y21540934D01*
X22774153Y21540934D01*
X22749664Y21538522D01*
X22508949Y21465502D01*
X22287104Y21346924D01*
X22092656Y21187344D01*
X21933076Y20992896D01*
X21814498Y20771051D01*
X21741478Y20530336D01*
X21716822Y20280000D01*
X11610207Y20280000D01*
X11585939Y20296215D01*
X11360819Y20389462D01*
X11121834Y20437000D01*
X10878166Y20437000D01*
X10639181Y20389462D01*
X10414061Y20296215D01*
X10211459Y20160840D01*
X10039160Y19988541D01*
X9903785Y19785939D01*
X9810538Y19560819D01*
X9763000Y19321834D01*
X452000Y19321834D01*
X452000Y20385920D01*
X1115525Y20385920D01*
X1199208Y20131739D01*
X1471775Y20000842D01*
X1764642Y19925635D01*
X2066553Y19909009D01*
X2365907Y19951603D01*
X2651199Y20051778D01*
X2800792Y20131739D01*
X2884475Y20385920D01*
X2000000Y21270395D01*
X1115525Y20385920D01*
X452000Y20385920D01*
X452000Y21383447D01*
X459009Y21383447D01*
X501603Y21084093D01*
X601778Y20798801D01*
X681739Y20649208D01*
X935920Y20565525D01*
X1820395Y21450000D01*
X2179605Y21450000D01*
X3064080Y20565525D01*
X3210934Y20613873D01*
X3210934Y20550000D01*
X3219178Y20466293D01*
X3243595Y20385804D01*
X3283245Y20311624D01*
X3336605Y20246605D01*
X3401624Y20193245D01*
X3475804Y20153595D01*
X3556293Y20129178D01*
X3640000Y20120934D01*
X5440000Y20120934D01*
X5523707Y20129178D01*
X5604196Y20153595D01*
X5678376Y20193245D01*
X5743395Y20246605D01*
X5796755Y20311624D01*
X5836405Y20385804D01*
X5860822Y20466293D01*
X5869066Y20550000D01*
X5869066Y20910000D01*
X6216822Y20910000D01*
X6241478Y20659664D01*
X6314498Y20418949D01*
X6433076Y20197104D01*
X6592656Y20002656D01*
X6787104Y19843076D01*
X7008949Y19724498D01*
X7249664Y19651478D01*
X7437274Y19633000D01*
X7562726Y19633000D01*
X7750336Y19651478D01*
X7991051Y19724498D01*
X8212896Y19843076D01*
X8407344Y20002656D01*
X8566924Y20197104D01*
X8685502Y20418949D01*
X8758522Y20659664D01*
X8783178Y20910000D01*
X8758522Y21160336D01*
X8685502Y21401051D01*
X8566924Y21622896D01*
X8407344Y21817344D01*
X8401873Y21821834D01*
X14763000Y21821834D01*
X14763000Y21578166D01*
X14810538Y21339181D01*
X14903785Y21114061D01*
X15039160Y20911459D01*
X15211459Y20739160D01*
X15414061Y20603785D01*
X15639181Y20510538D01*
X15878166Y20463000D01*
X16121834Y20463000D01*
X16360819Y20510538D01*
X16585939Y20603785D01*
X16788541Y20739160D01*
X16960840Y20911459D01*
X17096215Y21114061D01*
X17189462Y21339181D01*
X17237000Y21578166D01*
X17237000Y21821834D01*
X17189462Y22060819D01*
X17096215Y22285939D01*
X16960840Y22488541D01*
X16788541Y22660840D01*
X16585939Y22796215D01*
X16360819Y22889462D01*
X16121834Y22937000D01*
X15878166Y22937000D01*
X15639181Y22889462D01*
X15414061Y22796215D01*
X15211459Y22660840D01*
X15039160Y22488541D01*
X14903785Y22285939D01*
X14810538Y22060819D01*
X14763000Y21821834D01*
X8401873Y21821834D01*
X8212896Y21976924D01*
X7991051Y22095502D01*
X7750336Y22168522D01*
X7725847Y22170934D01*
X8350000Y22170934D01*
X8433707Y22179178D01*
X8514196Y22203595D01*
X8588376Y22243245D01*
X8653395Y22296605D01*
X8706755Y22361624D01*
X8746405Y22435804D01*
X8770822Y22516293D01*
X8779066Y22600000D01*
X8779066Y24300000D01*
X8776916Y24321834D01*
X9763000Y24321834D01*
X9763000Y24078166D01*
X9810538Y23839181D01*
X9903785Y23614061D01*
X10039160Y23411459D01*
X10211459Y23239160D01*
X10414061Y23103785D01*
X10639181Y23010538D01*
X10878166Y22963000D01*
X11121834Y22963000D01*
X11360819Y23010538D01*
X11585939Y23103785D01*
X11788541Y23239160D01*
X11960840Y23411459D01*
X12096215Y23614061D01*
X12189462Y23839181D01*
X12237000Y24078166D01*
X12237000Y24321834D01*
X12189462Y24560819D01*
X12096215Y24785939D01*
X11960840Y24988541D01*
X11788541Y25160840D01*
X11585939Y25296215D01*
X11360819Y25389462D01*
X11121834Y25437000D01*
X10878166Y25437000D01*
X10639181Y25389462D01*
X10414061Y25296215D01*
X10211459Y25160840D01*
X10039160Y24988541D01*
X9903785Y24785939D01*
X9810538Y24560819D01*
X9763000Y24321834D01*
X8776916Y24321834D01*
X8770822Y24383707D01*
X8746405Y24464196D01*
X8706755Y24538376D01*
X8653395Y24603395D01*
X8588376Y24656755D01*
X8514196Y24696405D01*
X8433707Y24720822D01*
X8350000Y24729066D01*
X6650000Y24729066D01*
X6566293Y24720822D01*
X6485804Y24696405D01*
X6411624Y24656755D01*
X6346605Y24603395D01*
X6293245Y24538376D01*
X6253595Y24464196D01*
X6229178Y24383707D01*
X6220934Y24300000D01*
X6220934Y22600000D01*
X6229178Y22516293D01*
X6253595Y22435804D01*
X6293245Y22361624D01*
X6346605Y22296605D01*
X6411624Y22243245D01*
X6485804Y22203595D01*
X6566293Y22179178D01*
X6650000Y22170934D01*
X7274153Y22170934D01*
X7249664Y22168522D01*
X7008949Y22095502D01*
X6787104Y21976924D01*
X6592656Y21817344D01*
X6433076Y21622896D01*
X6314498Y21401051D01*
X6241478Y21160336D01*
X6216822Y20910000D01*
X5869066Y20910000D01*
X5869066Y22350000D01*
X5860822Y22433707D01*
X5836405Y22514196D01*
X5796755Y22588376D01*
X5743395Y22653395D01*
X5678376Y22706755D01*
X5604196Y22746405D01*
X5523707Y22770822D01*
X5440000Y22779066D01*
X3640000Y22779066D01*
X3556293Y22770822D01*
X3475804Y22746405D01*
X3401624Y22706755D01*
X3336605Y22653395D01*
X3283245Y22588376D01*
X3243595Y22514196D01*
X3219178Y22433707D01*
X3210934Y22350000D01*
X3210934Y22286127D01*
X3064080Y22334475D01*
X2179605Y21450000D01*
X1820395Y21450000D01*
X935920Y22334475D01*
X681739Y22250792D01*
X550842Y21978225D01*
X475635Y21685358D01*
X459009Y21383447D01*
X452000Y21383447D01*
X452000Y22514080D01*
X1115525Y22514080D01*
X2000000Y21629605D01*
X2884475Y22514080D01*
X2800792Y22768261D01*
X2528225Y22899158D01*
X2235358Y22974365D01*
X1933447Y22990991D01*
X1634093Y22948397D01*
X1348801Y22848222D01*
X1199208Y22768261D01*
X1115525Y22514080D01*
X452000Y22514080D01*
X452000Y26571834D01*
X11013000Y26571834D01*
X11013000Y26328166D01*
X11060538Y26089181D01*
X11153785Y25864061D01*
X11289160Y25661459D01*
X11461459Y25489160D01*
X11664061Y25353785D01*
X11889181Y25260538D01*
X12128166Y25213000D01*
X12371834Y25213000D01*
X12610819Y25260538D01*
X12835939Y25353785D01*
X13038541Y25489160D01*
X13210840Y25661459D01*
X13346215Y25864061D01*
X13439462Y26089181D01*
X13487000Y26328166D01*
X13487000Y26571834D01*
X13439462Y26810819D01*
X13346215Y27035939D01*
X13210840Y27238541D01*
X13038541Y27410840D01*
X12835939Y27546215D01*
X12610819Y27639462D01*
X12371834Y27687000D01*
X12128166Y27687000D01*
X11889181Y27639462D01*
X11664061Y27546215D01*
X11461459Y27410840D01*
X11289160Y27238541D01*
X11153785Y27035939D01*
X11060538Y26810819D01*
X11013000Y26571834D01*
X452000Y26571834D01*
X452000Y28885920D01*
X1115525Y28885920D01*
X1199208Y28631739D01*
X1471775Y28500842D01*
X1764642Y28425635D01*
X2066553Y28409009D01*
X2365907Y28451603D01*
X2651199Y28551778D01*
X2800792Y28631739D01*
X2884475Y28885920D01*
X2000000Y29770395D01*
X1115525Y28885920D01*
X452000Y28885920D01*
X452000Y29883447D01*
X459009Y29883447D01*
X501603Y29584093D01*
X601778Y29298801D01*
X681739Y29149208D01*
X935920Y29065525D01*
X1820395Y29950000D01*
X2179605Y29950000D01*
X3064080Y29065525D01*
X3210934Y29113873D01*
X3210934Y29050000D01*
X3219178Y28966293D01*
X3243595Y28885804D01*
X3283245Y28811624D01*
X3336605Y28746605D01*
X3401624Y28693245D01*
X3475804Y28653595D01*
X3556293Y28629178D01*
X3640000Y28620934D01*
X5440000Y28620934D01*
X5523707Y28629178D01*
X5604196Y28653595D01*
X5678376Y28693245D01*
X5743395Y28746605D01*
X5796755Y28811624D01*
X5836405Y28885804D01*
X5860822Y28966293D01*
X5869066Y29050000D01*
X5869066Y29071834D01*
X6013000Y29071834D01*
X6013000Y28828166D01*
X6060538Y28589181D01*
X6153785Y28364061D01*
X6289160Y28161459D01*
X6461459Y27989160D01*
X6664061Y27853785D01*
X6889181Y27760538D01*
X7128166Y27713000D01*
X7371834Y27713000D01*
X7610819Y27760538D01*
X7835939Y27853785D01*
X8038541Y27989160D01*
X8210840Y28161459D01*
X8346215Y28364061D01*
X8439462Y28589181D01*
X8487000Y28828166D01*
X8487000Y29071834D01*
X8439462Y29310819D01*
X8346215Y29535939D01*
X8210840Y29738541D01*
X8038541Y29910840D01*
X7835939Y30046215D01*
X7610819Y30139462D01*
X7371834Y30187000D01*
X7128166Y30187000D01*
X6889181Y30139462D01*
X6664061Y30046215D01*
X6461459Y29910840D01*
X6289160Y29738541D01*
X6153785Y29535939D01*
X6060538Y29310819D01*
X6013000Y29071834D01*
X5869066Y29071834D01*
X5869066Y30850000D01*
X5860822Y30933707D01*
X5836405Y31014196D01*
X5796755Y31088376D01*
X5743395Y31153395D01*
X5678376Y31206755D01*
X5604196Y31246405D01*
X5523707Y31270822D01*
X5440000Y31279066D01*
X3640000Y31279066D01*
X3556293Y31270822D01*
X3475804Y31246405D01*
X3401624Y31206755D01*
X3336605Y31153395D01*
X3283245Y31088376D01*
X3243595Y31014196D01*
X3219178Y30933707D01*
X3210934Y30850000D01*
X3210934Y30786127D01*
X3064080Y30834475D01*
X2179605Y29950000D01*
X1820395Y29950000D01*
X935920Y30834475D01*
X681739Y30750792D01*
X550842Y30478225D01*
X475635Y30185358D01*
X459009Y29883447D01*
X452000Y29883447D01*
X452000Y31014080D01*
X1115525Y31014080D01*
X2000000Y30129605D01*
X2884475Y31014080D01*
X2800792Y31268261D01*
X2528225Y31399158D01*
X2235358Y31474365D01*
X1933447Y31490991D01*
X1634093Y31448397D01*
X1348801Y31348222D01*
X1199208Y31268261D01*
X1115525Y31014080D01*
X452000Y31014080D01*
X452000Y31571834D01*
X11013000Y31571834D01*
X11013000Y31328166D01*
X11060538Y31089181D01*
X11153785Y30864061D01*
X11289160Y30661459D01*
X11461459Y30489160D01*
X11664061Y30353785D01*
X11889181Y30260538D01*
X12128166Y30213000D01*
X12371834Y30213000D01*
X12610819Y30260538D01*
X12835939Y30353785D01*
X13038541Y30489160D01*
X13039381Y30490000D01*
X13966822Y30490000D01*
X13991478Y30239664D01*
X14064498Y29998949D01*
X14183076Y29777104D01*
X14342656Y29582656D01*
X14537104Y29423076D01*
X14758949Y29304498D01*
X14999664Y29231478D01*
X15024153Y29229066D01*
X14400000Y29229066D01*
X14316293Y29220822D01*
X14235804Y29196405D01*
X14161624Y29156755D01*
X14096605Y29103395D01*
X14043245Y29038376D01*
X14003595Y28964196D01*
X13979178Y28883707D01*
X13970934Y28800000D01*
X13970934Y27100000D01*
X13979178Y27016293D01*
X14003595Y26935804D01*
X14043245Y26861624D01*
X14096605Y26796605D01*
X14161624Y26743245D01*
X14235804Y26703595D01*
X14316293Y26679178D01*
X14400000Y26670934D01*
X16100000Y26670934D01*
X16183707Y26679178D01*
X16264196Y26703595D01*
X16338376Y26743245D01*
X16403395Y26796605D01*
X16456755Y26861624D01*
X16496405Y26935804D01*
X16520822Y27016293D01*
X16529066Y27100000D01*
X16529066Y28443109D01*
X17258519Y28443109D01*
X17355843Y28168748D01*
X17504822Y27918645D01*
X17699731Y27702412D01*
X17933080Y27528359D01*
X18195901Y27403175D01*
X18343110Y27358524D01*
X18573000Y27479845D01*
X18573000Y28673000D01*
X17379186Y28673000D01*
X17258519Y28443109D01*
X16529066Y28443109D01*
X16529066Y28800000D01*
X16520822Y28883707D01*
X16496405Y28964196D01*
X16456755Y29038376D01*
X16403395Y29103395D01*
X16338376Y29156755D01*
X16338122Y29156891D01*
X17258519Y29156891D01*
X17379186Y28927000D01*
X18573000Y28927000D01*
X18573000Y30120155D01*
X18827000Y30120155D01*
X18827000Y28927000D01*
X18847000Y28927000D01*
X18847000Y28673000D01*
X18827000Y28673000D01*
X18827000Y27479845D01*
X19056890Y27358524D01*
X19204099Y27403175D01*
X19466920Y27528359D01*
X19700269Y27702412D01*
X19895178Y27918645D01*
X20044157Y28168748D01*
X20078176Y28264650D01*
X20173076Y28087104D01*
X20332656Y27892656D01*
X20527104Y27733076D01*
X20748949Y27614498D01*
X20989664Y27541478D01*
X21177274Y27523000D01*
X21302726Y27523000D01*
X21490336Y27541478D01*
X21731051Y27614498D01*
X21952896Y27733076D01*
X22147344Y27892656D01*
X22306924Y28087104D01*
X22425502Y28308949D01*
X22498522Y28549664D01*
X22500934Y28574153D01*
X22500934Y27950000D01*
X22509178Y27866293D01*
X22533595Y27785804D01*
X22573245Y27711624D01*
X22626605Y27646605D01*
X22691624Y27593245D01*
X22765804Y27553595D01*
X22846293Y27529178D01*
X22930000Y27520934D01*
X24630000Y27520934D01*
X24713707Y27529178D01*
X24794196Y27553595D01*
X24868376Y27593245D01*
X24933395Y27646605D01*
X24986755Y27711624D01*
X25026405Y27785804D01*
X25050822Y27866293D01*
X25059066Y27950000D01*
X25059066Y29650000D01*
X25050822Y29733707D01*
X25026405Y29814196D01*
X24986755Y29888376D01*
X24933395Y29953395D01*
X24868376Y30006755D01*
X24794196Y30046405D01*
X24713707Y30070822D01*
X24630000Y30079066D01*
X22930000Y30079066D01*
X22846293Y30070822D01*
X22765804Y30046405D01*
X22691624Y30006755D01*
X22626605Y29953395D01*
X22573245Y29888376D01*
X22533595Y29814196D01*
X22509178Y29733707D01*
X22500934Y29650000D01*
X22500934Y29025847D01*
X22498522Y29050336D01*
X22425502Y29291051D01*
X22306924Y29512896D01*
X22147344Y29707344D01*
X21952896Y29866924D01*
X21731051Y29985502D01*
X21490336Y30058522D01*
X21302726Y30077000D01*
X21177274Y30077000D01*
X20989664Y30058522D01*
X20748949Y29985502D01*
X20527104Y29866924D01*
X20332656Y29707344D01*
X20173076Y29512896D01*
X20078176Y29335350D01*
X20044157Y29431252D01*
X19895178Y29681355D01*
X19700269Y29897588D01*
X19466920Y30071641D01*
X19204099Y30196825D01*
X19056890Y30241476D01*
X18827000Y30120155D01*
X18573000Y30120155D01*
X18343110Y30241476D01*
X18195901Y30196825D01*
X17933080Y30071641D01*
X17699731Y29897588D01*
X17504822Y29681355D01*
X17355843Y29431252D01*
X17258519Y29156891D01*
X16338122Y29156891D01*
X16264196Y29196405D01*
X16183707Y29220822D01*
X16100000Y29229066D01*
X15475847Y29229066D01*
X15500336Y29231478D01*
X15741051Y29304498D01*
X15962896Y29423076D01*
X16157344Y29582656D01*
X16316924Y29777104D01*
X16435502Y29998949D01*
X16508522Y30239664D01*
X16533178Y30490000D01*
X16508522Y30740336D01*
X16475136Y30850396D01*
X26473000Y30850396D01*
X26473000Y30549604D01*
X26531681Y30254590D01*
X26646790Y29976694D01*
X26813901Y29726594D01*
X27026594Y29513901D01*
X27276694Y29346790D01*
X27554590Y29231681D01*
X27849604Y29173000D01*
X28150396Y29173000D01*
X28445410Y29231681D01*
X28723306Y29346790D01*
X28973406Y29513901D01*
X29186099Y29726594D01*
X29353210Y29976694D01*
X29468319Y30254590D01*
X29527000Y30549604D01*
X29527000Y30850396D01*
X29468319Y31145410D01*
X29353210Y31423306D01*
X29186099Y31673406D01*
X28973406Y31886099D01*
X28723306Y32053210D01*
X28445410Y32168319D01*
X28150396Y32227000D01*
X27849604Y32227000D01*
X27554590Y32168319D01*
X27276694Y32053210D01*
X27026594Y31886099D01*
X26813901Y31673406D01*
X26646790Y31423306D01*
X26531681Y31145410D01*
X26473000Y30850396D01*
X16475136Y30850396D01*
X16435502Y30981051D01*
X16316924Y31202896D01*
X16157344Y31397344D01*
X15962896Y31556924D01*
X15741051Y31675502D01*
X15500336Y31748522D01*
X15312726Y31767000D01*
X15187274Y31767000D01*
X14999664Y31748522D01*
X14758949Y31675502D01*
X14537104Y31556924D01*
X14342656Y31397344D01*
X14183076Y31202896D01*
X14064498Y30981051D01*
X13991478Y30740336D01*
X13966822Y30490000D01*
X13039381Y30490000D01*
X13210840Y30661459D01*
X13346215Y30864061D01*
X13439462Y31089181D01*
X13487000Y31328166D01*
X13487000Y31571834D01*
X13439462Y31810819D01*
X13346215Y32035939D01*
X13210840Y32238541D01*
X13038541Y32410840D01*
X12835939Y32546215D01*
X12610819Y32639462D01*
X12371834Y32687000D01*
X12128166Y32687000D01*
X11889181Y32639462D01*
X11664061Y32546215D01*
X11461459Y32410840D01*
X11289160Y32238541D01*
X11153785Y32035939D01*
X11060538Y31810819D01*
X11013000Y31571834D01*
X452000Y31571834D01*
X452000Y32748000D01*
X30548000Y32748000D01*
X30548001Y452000D01*
M02*
