G04 #@! TF.GenerationSoftware,KiCad,Pcbnew,(5.1.4)-1*
G04 #@! TF.CreationDate,2020-02-16T08:15:50-07:00*
G04 #@! TF.ProjectId,LightGate,4c696768-7447-4617-9465-2e6b69636164,rev?*
G04 #@! TF.SameCoordinates,PX52f83c0PY1b5ed60*
G04 #@! TF.FileFunction,Soldermask,Top*
G04 #@! TF.FilePolarity,Negative*
%FSLAX46Y46*%
G04 Gerber Fmt 4.6, Leading zero omitted, Abs format (unit mm)*
G04 Created by KiCad (PCBNEW (5.1.4)-1) date 2020-02-16 08:15:50*
%MOMM*%
%LPD*%
G04 APERTURE LIST*
%ADD10C,0.100000*%
G04 APERTURE END LIST*
D10*
G36*
X7251143Y2527913D02*
G01*
X7407838Y2463008D01*
X7548853Y2368785D01*
X7668785Y2248853D01*
X7763008Y2107838D01*
X7827913Y1951143D01*
X7861000Y1784802D01*
X7861000Y1615198D01*
X7827913Y1448857D01*
X7763008Y1292162D01*
X7668785Y1151147D01*
X7548853Y1031215D01*
X7407838Y936992D01*
X7251143Y872087D01*
X7084802Y839000D01*
X6915198Y839000D01*
X6748857Y872087D01*
X6592162Y936992D01*
X6451147Y1031215D01*
X6331215Y1151147D01*
X6236992Y1292162D01*
X6172087Y1448857D01*
X6139000Y1615198D01*
X6139000Y1784802D01*
X6172087Y1951143D01*
X6236992Y2107838D01*
X6331215Y2248853D01*
X6451147Y2368785D01*
X6592162Y2463008D01*
X6748857Y2527913D01*
X6915198Y2561000D01*
X7084802Y2561000D01*
X7251143Y2527913D01*
X7251143Y2527913D01*
G37*
G36*
X22488674Y3246535D02*
G01*
X22526367Y3235101D01*
X22561103Y3216534D01*
X22591548Y3191548D01*
X22616534Y3161103D01*
X22635101Y3126367D01*
X22646535Y3088674D01*
X22651000Y3043339D01*
X22651000Y1956661D01*
X22646535Y1911326D01*
X22635101Y1873633D01*
X22616534Y1838897D01*
X22591548Y1808452D01*
X22561103Y1783466D01*
X22526367Y1764899D01*
X22488674Y1753465D01*
X22443339Y1749000D01*
X21606661Y1749000D01*
X21561326Y1753465D01*
X21523633Y1764899D01*
X21488897Y1783466D01*
X21458452Y1808452D01*
X21433466Y1838897D01*
X21414899Y1873633D01*
X21403465Y1911326D01*
X21399000Y1956661D01*
X21399000Y3043339D01*
X21403465Y3088674D01*
X21414899Y3126367D01*
X21433466Y3161103D01*
X21458452Y3191548D01*
X21488897Y3216534D01*
X21523633Y3235101D01*
X21561326Y3246535D01*
X21606661Y3251000D01*
X22443339Y3251000D01*
X22488674Y3246535D01*
X22488674Y3246535D01*
G37*
G36*
X20438674Y3246535D02*
G01*
X20476367Y3235101D01*
X20511103Y3216534D01*
X20541548Y3191548D01*
X20566534Y3161103D01*
X20585101Y3126367D01*
X20596535Y3088674D01*
X20601000Y3043339D01*
X20601000Y1956661D01*
X20596535Y1911326D01*
X20585101Y1873633D01*
X20566534Y1838897D01*
X20541548Y1808452D01*
X20511103Y1783466D01*
X20476367Y1764899D01*
X20438674Y1753465D01*
X20393339Y1749000D01*
X19556661Y1749000D01*
X19511326Y1753465D01*
X19473633Y1764899D01*
X19438897Y1783466D01*
X19408452Y1808452D01*
X19383466Y1838897D01*
X19364899Y1873633D01*
X19353465Y1911326D01*
X19349000Y1956661D01*
X19349000Y3043339D01*
X19353465Y3088674D01*
X19364899Y3126367D01*
X19383466Y3161103D01*
X19408452Y3191548D01*
X19438897Y3216534D01*
X19473633Y3235101D01*
X19511326Y3246535D01*
X19556661Y3251000D01*
X20393339Y3251000D01*
X20438674Y3246535D01*
X20438674Y3246535D01*
G37*
G36*
X24588674Y3046535D02*
G01*
X24626367Y3035101D01*
X24661103Y3016534D01*
X24691548Y2991548D01*
X24716534Y2961103D01*
X24735101Y2926367D01*
X24746535Y2888674D01*
X24751000Y2843339D01*
X24751000Y2006661D01*
X24746535Y1961326D01*
X24735101Y1923633D01*
X24716534Y1888897D01*
X24691548Y1858452D01*
X24661103Y1833466D01*
X24626367Y1814899D01*
X24588674Y1803465D01*
X24543339Y1799000D01*
X23456661Y1799000D01*
X23411326Y1803465D01*
X23373633Y1814899D01*
X23338897Y1833466D01*
X23308452Y1858452D01*
X23283466Y1888897D01*
X23264899Y1923633D01*
X23253465Y1961326D01*
X23249000Y2006661D01*
X23249000Y2843339D01*
X23253465Y2888674D01*
X23264899Y2926367D01*
X23283466Y2961103D01*
X23308452Y2991548D01*
X23338897Y3016534D01*
X23373633Y3035101D01*
X23411326Y3046535D01*
X23456661Y3051000D01*
X24543339Y3051000D01*
X24588674Y3046535D01*
X24588674Y3046535D01*
G37*
G36*
X28224549Y4328884D02*
G01*
X28335734Y4306768D01*
X28545203Y4220003D01*
X28733720Y4094040D01*
X28894040Y3933720D01*
X28997609Y3778718D01*
X29020004Y3745201D01*
X29039141Y3699000D01*
X29058964Y3651144D01*
X29106768Y3535733D01*
X29151000Y3313365D01*
X29151000Y3086635D01*
X29142871Y3045770D01*
X29106768Y2864266D01*
X29074161Y2785547D01*
X29024077Y2664631D01*
X29020003Y2654797D01*
X28894040Y2466280D01*
X28733720Y2305960D01*
X28545203Y2179997D01*
X28335734Y2093232D01*
X28224836Y2071173D01*
X28113365Y2049000D01*
X27886635Y2049000D01*
X27775164Y2071173D01*
X27664266Y2093232D01*
X27454797Y2179997D01*
X27266280Y2305960D01*
X27105960Y2466280D01*
X26979997Y2654797D01*
X26975924Y2664631D01*
X26925839Y2785547D01*
X26893232Y2864266D01*
X26857129Y3045770D01*
X26849000Y3086635D01*
X26849000Y3313365D01*
X26893232Y3535733D01*
X26941037Y3651144D01*
X26960859Y3699000D01*
X26979996Y3745201D01*
X27002391Y3778718D01*
X27105960Y3933720D01*
X27266280Y4094040D01*
X27454797Y4220003D01*
X27664266Y4306768D01*
X27775451Y4328884D01*
X27886635Y4351000D01*
X28113365Y4351000D01*
X28224549Y4328884D01*
X28224549Y4328884D01*
G37*
G36*
X18775562Y3971819D02*
G01*
X18810481Y3961226D01*
X18842663Y3944024D01*
X18870873Y3920873D01*
X18894024Y3892663D01*
X18911226Y3860481D01*
X18921819Y3825562D01*
X18926000Y3783105D01*
X18926000Y2641895D01*
X18921819Y2599438D01*
X18911226Y2564519D01*
X18894024Y2532337D01*
X18870873Y2504127D01*
X18842663Y2480976D01*
X18810481Y2463774D01*
X18775562Y2453181D01*
X18733105Y2449000D01*
X17266895Y2449000D01*
X17224438Y2453181D01*
X17189519Y2463774D01*
X17157337Y2480976D01*
X17129127Y2504127D01*
X17105976Y2532337D01*
X17088774Y2564519D01*
X17078181Y2599438D01*
X17074000Y2641895D01*
X17074000Y3783105D01*
X17078181Y3825562D01*
X17088774Y3860481D01*
X17105976Y3892663D01*
X17129127Y3920873D01*
X17157337Y3944024D01*
X17189519Y3961226D01*
X17224438Y3971819D01*
X17266895Y3976000D01*
X18733105Y3976000D01*
X18775562Y3971819D01*
X18775562Y3971819D01*
G37*
G36*
X5451000Y2749000D02*
G01*
X3549000Y2749000D01*
X3549000Y4651000D01*
X5451000Y4651000D01*
X5451000Y2749000D01*
X5451000Y2749000D01*
G37*
G36*
X2237395Y4614454D02*
G01*
X2410466Y4542766D01*
X2410467Y4542765D01*
X2566227Y4438690D01*
X2698690Y4306227D01*
X2713006Y4284801D01*
X2802766Y4150466D01*
X2874454Y3977395D01*
X2911000Y3793667D01*
X2911000Y3606333D01*
X2874454Y3422605D01*
X2802766Y3249534D01*
X2802765Y3249533D01*
X2698690Y3093773D01*
X2566227Y2961310D01*
X2565917Y2961103D01*
X2410466Y2857234D01*
X2237395Y2785546D01*
X2053667Y2749000D01*
X1866333Y2749000D01*
X1682605Y2785546D01*
X1509534Y2857234D01*
X1354083Y2961103D01*
X1353773Y2961310D01*
X1221310Y3093773D01*
X1117235Y3249533D01*
X1117234Y3249534D01*
X1045546Y3422605D01*
X1009000Y3606333D01*
X1009000Y3793667D01*
X1045546Y3977395D01*
X1117234Y4150466D01*
X1206994Y4284801D01*
X1221310Y4306227D01*
X1353773Y4438690D01*
X1509533Y4542765D01*
X1509534Y4542766D01*
X1682605Y4614454D01*
X1866333Y4651000D01*
X2053667Y4651000D01*
X2237395Y4614454D01*
X2237395Y4614454D01*
G37*
G36*
X15110443Y4554481D02*
G01*
X15176627Y4547963D01*
X15346466Y4496443D01*
X15502991Y4412778D01*
X15538729Y4383448D01*
X15640186Y4300186D01*
X15723448Y4198729D01*
X15752778Y4162991D01*
X15836443Y4006466D01*
X15887963Y3836627D01*
X15905359Y3660000D01*
X15887963Y3483373D01*
X15844168Y3339000D01*
X15836442Y3313532D01*
X15800631Y3246535D01*
X15752778Y3157009D01*
X15723448Y3121271D01*
X15640186Y3019814D01*
X15568896Y2961309D01*
X15502991Y2907222D01*
X15346466Y2823557D01*
X15176627Y2772037D01*
X15110443Y2765519D01*
X15044260Y2759000D01*
X14955740Y2759000D01*
X14889558Y2765518D01*
X14823373Y2772037D01*
X14653534Y2823557D01*
X14497009Y2907222D01*
X14431104Y2961309D01*
X14359814Y3019814D01*
X14276552Y3121271D01*
X14247222Y3157009D01*
X14199369Y3246535D01*
X14163558Y3313532D01*
X14155832Y3339000D01*
X14112037Y3483373D01*
X14094641Y3660000D01*
X14112037Y3836627D01*
X14163557Y4006466D01*
X14247222Y4162991D01*
X14276552Y4198729D01*
X14359814Y4300186D01*
X14461271Y4383448D01*
X14497009Y4412778D01*
X14653534Y4496443D01*
X14823373Y4547963D01*
X14889557Y4554481D01*
X14955740Y4561000D01*
X15044260Y4561000D01*
X15110443Y4554481D01*
X15110443Y4554481D01*
G37*
G36*
X12251143Y5027913D02*
G01*
X12407838Y4963008D01*
X12548853Y4868785D01*
X12668785Y4748853D01*
X12763008Y4607838D01*
X12827913Y4451143D01*
X12861000Y4284802D01*
X12861000Y4115198D01*
X12827913Y3948857D01*
X12763008Y3792162D01*
X12668785Y3651147D01*
X12548853Y3531215D01*
X12407838Y3436992D01*
X12251143Y3372087D01*
X12084802Y3339000D01*
X11915198Y3339000D01*
X11748857Y3372087D01*
X11592162Y3436992D01*
X11451147Y3531215D01*
X11331215Y3651147D01*
X11236992Y3792162D01*
X11172087Y3948857D01*
X11139000Y4115198D01*
X11139000Y4284802D01*
X11172087Y4451143D01*
X11236992Y4607838D01*
X11331215Y4748853D01*
X11451147Y4868785D01*
X11592162Y4963008D01*
X11748857Y5027913D01*
X11915198Y5061000D01*
X12084802Y5061000D01*
X12251143Y5027913D01*
X12251143Y5027913D01*
G37*
G36*
X20438674Y5196535D02*
G01*
X20476367Y5185101D01*
X20511103Y5166534D01*
X20541548Y5141548D01*
X20566534Y5111103D01*
X20585101Y5076367D01*
X20596535Y5038674D01*
X20601000Y4993339D01*
X20601000Y3906661D01*
X20596535Y3861326D01*
X20585101Y3823633D01*
X20566534Y3788897D01*
X20541548Y3758452D01*
X20511103Y3733466D01*
X20476367Y3714899D01*
X20438674Y3703465D01*
X20393339Y3699000D01*
X19556661Y3699000D01*
X19511326Y3703465D01*
X19473633Y3714899D01*
X19438897Y3733466D01*
X19408452Y3758452D01*
X19383466Y3788897D01*
X19364899Y3823633D01*
X19353465Y3861326D01*
X19349000Y3906661D01*
X19349000Y4993339D01*
X19353465Y5038674D01*
X19364899Y5076367D01*
X19383466Y5111103D01*
X19408452Y5141548D01*
X19438897Y5166534D01*
X19473633Y5185101D01*
X19511326Y5196535D01*
X19556661Y5201000D01*
X20393339Y5201000D01*
X20438674Y5196535D01*
X20438674Y5196535D01*
G37*
G36*
X22488674Y5196535D02*
G01*
X22526367Y5185101D01*
X22561103Y5166534D01*
X22591548Y5141548D01*
X22616534Y5111103D01*
X22635101Y5076367D01*
X22646535Y5038674D01*
X22651000Y4993339D01*
X22651000Y3906661D01*
X22646535Y3861326D01*
X22635101Y3823633D01*
X22616534Y3788897D01*
X22591548Y3758452D01*
X22561103Y3733466D01*
X22526367Y3714899D01*
X22488674Y3703465D01*
X22443339Y3699000D01*
X21606661Y3699000D01*
X21561326Y3703465D01*
X21523633Y3714899D01*
X21488897Y3733466D01*
X21458452Y3758452D01*
X21433466Y3788897D01*
X21414899Y3823633D01*
X21403465Y3861326D01*
X21399000Y3906661D01*
X21399000Y4993339D01*
X21403465Y5038674D01*
X21414899Y5076367D01*
X21433466Y5111103D01*
X21458452Y5141548D01*
X21488897Y5166534D01*
X21523633Y5185101D01*
X21561326Y5196535D01*
X21606661Y5201000D01*
X22443339Y5201000D01*
X22488674Y5196535D01*
X22488674Y5196535D01*
G37*
G36*
X24588674Y5096535D02*
G01*
X24626367Y5085101D01*
X24661103Y5066534D01*
X24691548Y5041548D01*
X24716534Y5011103D01*
X24735101Y4976367D01*
X24746535Y4938674D01*
X24751000Y4893339D01*
X24751000Y4056661D01*
X24746535Y4011326D01*
X24735101Y3973633D01*
X24716534Y3938897D01*
X24691548Y3908452D01*
X24661103Y3883466D01*
X24626367Y3864899D01*
X24588674Y3853465D01*
X24543339Y3849000D01*
X23456661Y3849000D01*
X23411326Y3853465D01*
X23373633Y3864899D01*
X23338897Y3883466D01*
X23308452Y3908452D01*
X23283466Y3938897D01*
X23264899Y3973633D01*
X23253465Y4011326D01*
X23249000Y4056661D01*
X23249000Y4893339D01*
X23253465Y4938674D01*
X23264899Y4976367D01*
X23283466Y5011103D01*
X23308452Y5041548D01*
X23338897Y5066534D01*
X23373633Y5085101D01*
X23411326Y5096535D01*
X23456661Y5101000D01*
X24543339Y5101000D01*
X24588674Y5096535D01*
X24588674Y5096535D01*
G37*
G36*
X15901000Y5299000D02*
G01*
X14099000Y5299000D01*
X14099000Y7101000D01*
X15901000Y7101000D01*
X15901000Y5299000D01*
X15901000Y5299000D01*
G37*
G36*
X18775562Y6946819D02*
G01*
X18810481Y6936226D01*
X18842663Y6919024D01*
X18870873Y6895873D01*
X18894024Y6867663D01*
X18911226Y6835481D01*
X18921819Y6800562D01*
X18926000Y6758105D01*
X18926000Y5616895D01*
X18921819Y5574438D01*
X18911226Y5539519D01*
X18894024Y5507337D01*
X18870873Y5479127D01*
X18842663Y5455976D01*
X18810481Y5438774D01*
X18775562Y5428181D01*
X18733105Y5424000D01*
X17266895Y5424000D01*
X17224438Y5428181D01*
X17189519Y5438774D01*
X17157337Y5455976D01*
X17129127Y5479127D01*
X17105976Y5507337D01*
X17088774Y5539519D01*
X17078181Y5574438D01*
X17074000Y5616895D01*
X17074000Y6758105D01*
X17078181Y6800562D01*
X17088774Y6835481D01*
X17105976Y6867663D01*
X17129127Y6895873D01*
X17157337Y6919024D01*
X17189519Y6936226D01*
X17224438Y6946819D01*
X17266895Y6951000D01*
X18733105Y6951000D01*
X18775562Y6946819D01*
X18775562Y6946819D01*
G37*
G36*
X7251143Y7527913D02*
G01*
X7407838Y7463008D01*
X7548853Y7368785D01*
X7668785Y7248853D01*
X7763008Y7107838D01*
X7827913Y6951143D01*
X7861000Y6784802D01*
X7861000Y6615198D01*
X7827913Y6448857D01*
X7763008Y6292162D01*
X7668785Y6151147D01*
X7548853Y6031215D01*
X7407838Y5936992D01*
X7251143Y5872087D01*
X7084802Y5839000D01*
X6915198Y5839000D01*
X6748857Y5872087D01*
X6592162Y5936992D01*
X6451147Y6031215D01*
X6331215Y6151147D01*
X6236992Y6292162D01*
X6172087Y6448857D01*
X6139000Y6615198D01*
X6139000Y6784802D01*
X6172087Y6951143D01*
X6236992Y7107838D01*
X6331215Y7248853D01*
X6451147Y7368785D01*
X6592162Y7463008D01*
X6748857Y7527913D01*
X6915198Y7561000D01*
X7084802Y7561000D01*
X7251143Y7527913D01*
X7251143Y7527913D01*
G37*
G36*
X21875562Y7471819D02*
G01*
X21910481Y7461226D01*
X21942663Y7444024D01*
X21970873Y7420873D01*
X21994024Y7392663D01*
X22011226Y7360481D01*
X22021819Y7325562D01*
X22026000Y7283105D01*
X22026000Y6141895D01*
X22021819Y6099438D01*
X22011226Y6064519D01*
X21994024Y6032337D01*
X21970873Y6004127D01*
X21942663Y5980976D01*
X21910481Y5963774D01*
X21875562Y5953181D01*
X21833105Y5949000D01*
X20366895Y5949000D01*
X20324438Y5953181D01*
X20289519Y5963774D01*
X20257337Y5980976D01*
X20229127Y6004127D01*
X20205976Y6032337D01*
X20188774Y6064519D01*
X20178181Y6099438D01*
X20174000Y6141895D01*
X20174000Y7283105D01*
X20178181Y7325562D01*
X20188774Y7360481D01*
X20205976Y7392663D01*
X20229127Y7420873D01*
X20257337Y7444024D01*
X20289519Y7461226D01*
X20324438Y7471819D01*
X20366895Y7476000D01*
X21833105Y7476000D01*
X21875562Y7471819D01*
X21875562Y7471819D01*
G37*
G36*
X2913674Y7696535D02*
G01*
X2951367Y7685101D01*
X2986103Y7666534D01*
X3016548Y7641548D01*
X3041534Y7611103D01*
X3060101Y7576367D01*
X3071535Y7538674D01*
X3076000Y7493339D01*
X3076000Y6406661D01*
X3071535Y6361326D01*
X3060101Y6323633D01*
X3041534Y6288897D01*
X3016548Y6258452D01*
X2986103Y6233466D01*
X2951367Y6214899D01*
X2913674Y6203465D01*
X2868339Y6199000D01*
X2031661Y6199000D01*
X1986326Y6203465D01*
X1948633Y6214899D01*
X1913897Y6233466D01*
X1883452Y6258452D01*
X1858466Y6288897D01*
X1839899Y6323633D01*
X1828465Y6361326D01*
X1824000Y6406661D01*
X1824000Y7493339D01*
X1828465Y7538674D01*
X1839899Y7576367D01*
X1858466Y7611103D01*
X1883452Y7641548D01*
X1913897Y7666534D01*
X1948633Y7685101D01*
X1986326Y7696535D01*
X2031661Y7701000D01*
X2868339Y7701000D01*
X2913674Y7696535D01*
X2913674Y7696535D01*
G37*
G36*
X12238674Y7696535D02*
G01*
X12276367Y7685101D01*
X12311103Y7666534D01*
X12341548Y7641548D01*
X12366534Y7611103D01*
X12385101Y7576367D01*
X12396535Y7538674D01*
X12401000Y7493339D01*
X12401000Y6406661D01*
X12396535Y6361326D01*
X12385101Y6323633D01*
X12366534Y6288897D01*
X12341548Y6258452D01*
X12311103Y6233466D01*
X12276367Y6214899D01*
X12238674Y6203465D01*
X12193339Y6199000D01*
X11356661Y6199000D01*
X11311326Y6203465D01*
X11273633Y6214899D01*
X11238897Y6233466D01*
X11208452Y6258452D01*
X11183466Y6288897D01*
X11164899Y6323633D01*
X11153465Y6361326D01*
X11149000Y6406661D01*
X11149000Y7493339D01*
X11153465Y7538674D01*
X11164899Y7576367D01*
X11183466Y7611103D01*
X11208452Y7641548D01*
X11238897Y7666534D01*
X11273633Y7685101D01*
X11311326Y7696535D01*
X11356661Y7701000D01*
X12193339Y7701000D01*
X12238674Y7696535D01*
X12238674Y7696535D01*
G37*
G36*
X4963674Y7696535D02*
G01*
X5001367Y7685101D01*
X5036103Y7666534D01*
X5066548Y7641548D01*
X5091534Y7611103D01*
X5110101Y7576367D01*
X5121535Y7538674D01*
X5126000Y7493339D01*
X5126000Y6406661D01*
X5121535Y6361326D01*
X5110101Y6323633D01*
X5091534Y6288897D01*
X5066548Y6258452D01*
X5036103Y6233466D01*
X5001367Y6214899D01*
X4963674Y6203465D01*
X4918339Y6199000D01*
X4081661Y6199000D01*
X4036326Y6203465D01*
X3998633Y6214899D01*
X3963897Y6233466D01*
X3933452Y6258452D01*
X3908466Y6288897D01*
X3889899Y6323633D01*
X3878465Y6361326D01*
X3874000Y6406661D01*
X3874000Y7493339D01*
X3878465Y7538674D01*
X3889899Y7576367D01*
X3908466Y7611103D01*
X3933452Y7641548D01*
X3963897Y7666534D01*
X3998633Y7685101D01*
X4036326Y7696535D01*
X4081661Y7701000D01*
X4918339Y7701000D01*
X4963674Y7696535D01*
X4963674Y7696535D01*
G37*
G36*
X10188674Y7696535D02*
G01*
X10226367Y7685101D01*
X10261103Y7666534D01*
X10291548Y7641548D01*
X10316534Y7611103D01*
X10335101Y7576367D01*
X10346535Y7538674D01*
X10351000Y7493339D01*
X10351000Y6406661D01*
X10346535Y6361326D01*
X10335101Y6323633D01*
X10316534Y6288897D01*
X10291548Y6258452D01*
X10261103Y6233466D01*
X10226367Y6214899D01*
X10188674Y6203465D01*
X10143339Y6199000D01*
X9306661Y6199000D01*
X9261326Y6203465D01*
X9223633Y6214899D01*
X9188897Y6233466D01*
X9158452Y6258452D01*
X9133466Y6288897D01*
X9114899Y6323633D01*
X9103465Y6361326D01*
X9099000Y6406661D01*
X9099000Y7493339D01*
X9103465Y7538674D01*
X9114899Y7576367D01*
X9133466Y7611103D01*
X9158452Y7641548D01*
X9188897Y7666534D01*
X9223633Y7685101D01*
X9261326Y7696535D01*
X9306661Y7701000D01*
X10143339Y7701000D01*
X10188674Y7696535D01*
X10188674Y7696535D01*
G37*
G36*
X25426000Y6619000D02*
G01*
X22774000Y6619000D01*
X22774000Y8281000D01*
X25426000Y8281000D01*
X25426000Y6619000D01*
X25426000Y6619000D01*
G37*
G36*
X27588674Y8046535D02*
G01*
X27626367Y8035101D01*
X27661103Y8016534D01*
X27691548Y7991548D01*
X27716534Y7961103D01*
X27735101Y7926367D01*
X27746535Y7888674D01*
X27751000Y7843339D01*
X27751000Y7006661D01*
X27746535Y6961326D01*
X27735101Y6923633D01*
X27716534Y6888897D01*
X27691548Y6858452D01*
X27661103Y6833466D01*
X27626367Y6814899D01*
X27588674Y6803465D01*
X27543339Y6799000D01*
X26456661Y6799000D01*
X26411326Y6803465D01*
X26373633Y6814899D01*
X26338897Y6833466D01*
X26308452Y6858452D01*
X26283466Y6888897D01*
X26264899Y6923633D01*
X26253465Y6961326D01*
X26249000Y7006661D01*
X26249000Y7843339D01*
X26253465Y7888674D01*
X26264899Y7926367D01*
X26283466Y7961103D01*
X26308452Y7991548D01*
X26338897Y8016534D01*
X26373633Y8035101D01*
X26411326Y8046535D01*
X26456661Y8051000D01*
X27543339Y8051000D01*
X27588674Y8046535D01*
X27588674Y8046535D01*
G37*
G36*
X15938674Y9196535D02*
G01*
X15976367Y9185101D01*
X16011103Y9166534D01*
X16041548Y9141548D01*
X16066534Y9111103D01*
X16085101Y9076367D01*
X16096535Y9038674D01*
X16101000Y8993339D01*
X16101000Y7906661D01*
X16096535Y7861326D01*
X16085101Y7823633D01*
X16066534Y7788897D01*
X16041548Y7758452D01*
X16011103Y7733466D01*
X15976367Y7714899D01*
X15938674Y7703465D01*
X15893339Y7699000D01*
X15056661Y7699000D01*
X15011326Y7703465D01*
X14973633Y7714899D01*
X14938897Y7733466D01*
X14908452Y7758452D01*
X14883466Y7788897D01*
X14864899Y7823633D01*
X14853465Y7861326D01*
X14849000Y7906661D01*
X14849000Y8993339D01*
X14853465Y9038674D01*
X14864899Y9076367D01*
X14883466Y9111103D01*
X14908452Y9141548D01*
X14938897Y9166534D01*
X14973633Y9185101D01*
X15011326Y9196535D01*
X15056661Y9201000D01*
X15893339Y9201000D01*
X15938674Y9196535D01*
X15938674Y9196535D01*
G37*
G36*
X17988674Y9196535D02*
G01*
X18026367Y9185101D01*
X18061103Y9166534D01*
X18091548Y9141548D01*
X18116534Y9111103D01*
X18135101Y9076367D01*
X18146535Y9038674D01*
X18151000Y8993339D01*
X18151000Y7906661D01*
X18146535Y7861326D01*
X18135101Y7823633D01*
X18116534Y7788897D01*
X18091548Y7758452D01*
X18061103Y7733466D01*
X18026367Y7714899D01*
X17988674Y7703465D01*
X17943339Y7699000D01*
X17106661Y7699000D01*
X17061326Y7703465D01*
X17023633Y7714899D01*
X16988897Y7733466D01*
X16958452Y7758452D01*
X16933466Y7788897D01*
X16914899Y7823633D01*
X16903465Y7861326D01*
X16899000Y7906661D01*
X16899000Y8993339D01*
X16903465Y9038674D01*
X16914899Y9076367D01*
X16933466Y9111103D01*
X16958452Y9141548D01*
X16988897Y9166534D01*
X17023633Y9185101D01*
X17061326Y9196535D01*
X17106661Y9201000D01*
X17943339Y9201000D01*
X17988674Y9196535D01*
X17988674Y9196535D01*
G37*
G36*
X2963674Y9696535D02*
G01*
X3001367Y9685101D01*
X3036103Y9666534D01*
X3066548Y9641548D01*
X3091534Y9611103D01*
X3110101Y9576367D01*
X3121535Y9538674D01*
X3126000Y9493339D01*
X3126000Y8406661D01*
X3121535Y8361326D01*
X3110101Y8323633D01*
X3091534Y8288897D01*
X3066548Y8258452D01*
X3036103Y8233466D01*
X3001367Y8214899D01*
X2963674Y8203465D01*
X2918339Y8199000D01*
X2081661Y8199000D01*
X2036326Y8203465D01*
X1998633Y8214899D01*
X1963897Y8233466D01*
X1933452Y8258452D01*
X1908466Y8288897D01*
X1889899Y8323633D01*
X1878465Y8361326D01*
X1874000Y8406661D01*
X1874000Y9493339D01*
X1878465Y9538674D01*
X1889899Y9576367D01*
X1908466Y9611103D01*
X1933452Y9641548D01*
X1963897Y9666534D01*
X1998633Y9685101D01*
X2036326Y9696535D01*
X2081661Y9701000D01*
X2918339Y9701000D01*
X2963674Y9696535D01*
X2963674Y9696535D01*
G37*
G36*
X5013674Y9696535D02*
G01*
X5051367Y9685101D01*
X5086103Y9666534D01*
X5116548Y9641548D01*
X5141534Y9611103D01*
X5160101Y9576367D01*
X5171535Y9538674D01*
X5176000Y9493339D01*
X5176000Y8406661D01*
X5171535Y8361326D01*
X5160101Y8323633D01*
X5141534Y8288897D01*
X5116548Y8258452D01*
X5086103Y8233466D01*
X5051367Y8214899D01*
X5013674Y8203465D01*
X4968339Y8199000D01*
X4131661Y8199000D01*
X4086326Y8203465D01*
X4048633Y8214899D01*
X4013897Y8233466D01*
X3983452Y8258452D01*
X3958466Y8288897D01*
X3939899Y8323633D01*
X3928465Y8361326D01*
X3924000Y8406661D01*
X3924000Y9493339D01*
X3928465Y9538674D01*
X3939899Y9576367D01*
X3958466Y9611103D01*
X3983452Y9641548D01*
X4013897Y9666534D01*
X4048633Y9685101D01*
X4086326Y9696535D01*
X4131661Y9701000D01*
X4968339Y9701000D01*
X5013674Y9696535D01*
X5013674Y9696535D01*
G37*
G36*
X10751143Y10027913D02*
G01*
X10907838Y9963008D01*
X11048853Y9868785D01*
X11168785Y9748853D01*
X11263008Y9607838D01*
X11327913Y9451143D01*
X11361000Y9284802D01*
X11361000Y9115198D01*
X11327913Y8948857D01*
X11263008Y8792162D01*
X11168785Y8651147D01*
X11048853Y8531215D01*
X10907838Y8436992D01*
X10751143Y8372087D01*
X10584802Y8339000D01*
X10415198Y8339000D01*
X10248857Y8372087D01*
X10092162Y8436992D01*
X9951147Y8531215D01*
X9831215Y8651147D01*
X9736992Y8792162D01*
X9672087Y8948857D01*
X9639000Y9115198D01*
X9639000Y9284802D01*
X9672087Y9451143D01*
X9736992Y9607838D01*
X9831215Y9748853D01*
X9951147Y9868785D01*
X10092162Y9963008D01*
X10248857Y10027913D01*
X10415198Y10061000D01*
X10584802Y10061000D01*
X10751143Y10027913D01*
X10751143Y10027913D01*
G37*
G36*
X27588674Y10096535D02*
G01*
X27626367Y10085101D01*
X27661103Y10066534D01*
X27691548Y10041548D01*
X27716534Y10011103D01*
X27735101Y9976367D01*
X27746535Y9938674D01*
X27751000Y9893339D01*
X27751000Y9056661D01*
X27746535Y9011326D01*
X27735101Y8973633D01*
X27716534Y8938897D01*
X27691548Y8908452D01*
X27661103Y8883466D01*
X27626367Y8864899D01*
X27588674Y8853465D01*
X27543339Y8849000D01*
X26456661Y8849000D01*
X26411326Y8853465D01*
X26373633Y8864899D01*
X26338897Y8883466D01*
X26308452Y8908452D01*
X26283466Y8938897D01*
X26264899Y8973633D01*
X26253465Y9011326D01*
X26249000Y9056661D01*
X26249000Y9893339D01*
X26253465Y9938674D01*
X26264899Y9976367D01*
X26283466Y10011103D01*
X26308452Y10041548D01*
X26338897Y10066534D01*
X26373633Y10085101D01*
X26411326Y10096535D01*
X26456661Y10101000D01*
X27543339Y10101000D01*
X27588674Y10096535D01*
X27588674Y10096535D01*
G37*
G36*
X21875562Y10446819D02*
G01*
X21910481Y10436226D01*
X21942663Y10419024D01*
X21970873Y10395873D01*
X21994024Y10367663D01*
X22011226Y10335481D01*
X22021819Y10300562D01*
X22026000Y10258105D01*
X22026000Y9116895D01*
X22021819Y9074438D01*
X22011226Y9039519D01*
X21994024Y9007337D01*
X21970873Y8979127D01*
X21942663Y8955976D01*
X21910481Y8938774D01*
X21875562Y8928181D01*
X21833105Y8924000D01*
X20366895Y8924000D01*
X20324438Y8928181D01*
X20289519Y8938774D01*
X20257337Y8955976D01*
X20229127Y8979127D01*
X20205976Y9007337D01*
X20188774Y9039519D01*
X20178181Y9074438D01*
X20174000Y9116895D01*
X20174000Y10258105D01*
X20178181Y10300562D01*
X20188774Y10335481D01*
X20205976Y10367663D01*
X20229127Y10395873D01*
X20257337Y10419024D01*
X20289519Y10436226D01*
X20324438Y10446819D01*
X20366895Y10451000D01*
X21833105Y10451000D01*
X21875562Y10446819D01*
X21875562Y10446819D01*
G37*
G36*
X8401000Y9299000D02*
G01*
X6599000Y9299000D01*
X6599000Y11101000D01*
X8401000Y11101000D01*
X8401000Y9299000D01*
X8401000Y9299000D01*
G37*
G36*
X23526000Y9319000D02*
G01*
X22774000Y9319000D01*
X22774000Y10981000D01*
X23526000Y10981000D01*
X23526000Y9319000D01*
X23526000Y9319000D01*
G37*
G36*
X25426000Y9319000D02*
G01*
X24674000Y9319000D01*
X24674000Y10981000D01*
X25426000Y10981000D01*
X25426000Y9319000D01*
X25426000Y9319000D01*
G37*
G36*
X13738674Y12196535D02*
G01*
X13776367Y12185101D01*
X13811103Y12166534D01*
X13841548Y12141548D01*
X13866534Y12111103D01*
X13885101Y12076367D01*
X13896535Y12038674D01*
X13901000Y11993339D01*
X13901000Y10906661D01*
X13896535Y10861326D01*
X13885101Y10823633D01*
X13866534Y10788897D01*
X13841548Y10758452D01*
X13811103Y10733466D01*
X13776367Y10714899D01*
X13738674Y10703465D01*
X13693339Y10699000D01*
X12856661Y10699000D01*
X12811326Y10703465D01*
X12773633Y10714899D01*
X12738897Y10733466D01*
X12708452Y10758452D01*
X12683466Y10788897D01*
X12664899Y10823633D01*
X12653465Y10861326D01*
X12649000Y10906661D01*
X12649000Y11993339D01*
X12653465Y12038674D01*
X12664899Y12076367D01*
X12683466Y12111103D01*
X12708452Y12141548D01*
X12738897Y12166534D01*
X12773633Y12185101D01*
X12811326Y12196535D01*
X12856661Y12201000D01*
X13693339Y12201000D01*
X13738674Y12196535D01*
X13738674Y12196535D01*
G37*
G36*
X11688674Y12196535D02*
G01*
X11726367Y12185101D01*
X11761103Y12166534D01*
X11791548Y12141548D01*
X11816534Y12111103D01*
X11835101Y12076367D01*
X11846535Y12038674D01*
X11851000Y11993339D01*
X11851000Y10906661D01*
X11846535Y10861326D01*
X11835101Y10823633D01*
X11816534Y10788897D01*
X11791548Y10758452D01*
X11761103Y10733466D01*
X11726367Y10714899D01*
X11688674Y10703465D01*
X11643339Y10699000D01*
X10806661Y10699000D01*
X10761326Y10703465D01*
X10723633Y10714899D01*
X10688897Y10733466D01*
X10658452Y10758452D01*
X10633466Y10788897D01*
X10614899Y10823633D01*
X10603465Y10861326D01*
X10599000Y10906661D01*
X10599000Y11993339D01*
X10603465Y12038674D01*
X10614899Y12076367D01*
X10633466Y12111103D01*
X10658452Y12141548D01*
X10688897Y12166534D01*
X10723633Y12185101D01*
X10761326Y12196535D01*
X10806661Y12201000D01*
X11643339Y12201000D01*
X11688674Y12196535D01*
X11688674Y12196535D01*
G37*
G36*
X15751143Y12527913D02*
G01*
X15907838Y12463008D01*
X16048853Y12368785D01*
X16168785Y12248853D01*
X16263008Y12107838D01*
X16327913Y11951143D01*
X16361000Y11784802D01*
X16361000Y11615198D01*
X16327913Y11448857D01*
X16263008Y11292162D01*
X16168785Y11151147D01*
X16048853Y11031215D01*
X15907838Y10936992D01*
X15751143Y10872087D01*
X15584802Y10839000D01*
X15415198Y10839000D01*
X15248857Y10872087D01*
X15092162Y10936992D01*
X14951147Y11031215D01*
X14831215Y11151147D01*
X14736992Y11292162D01*
X14672087Y11448857D01*
X14639000Y11615198D01*
X14639000Y11784802D01*
X14672087Y11951143D01*
X14736992Y12107838D01*
X14831215Y12248853D01*
X14951147Y12368785D01*
X15092162Y12463008D01*
X15248857Y12527913D01*
X15415198Y12561000D01*
X15584802Y12561000D01*
X15751143Y12527913D01*
X15751143Y12527913D01*
G37*
G36*
X5451000Y10999000D02*
G01*
X3549000Y10999000D01*
X3549000Y12901000D01*
X5451000Y12901000D01*
X5451000Y10999000D01*
X5451000Y10999000D01*
G37*
G36*
X2237395Y12864454D02*
G01*
X2410466Y12792766D01*
X2410467Y12792765D01*
X2566227Y12688690D01*
X2698690Y12556227D01*
X2705166Y12546535D01*
X2802766Y12400466D01*
X2874454Y12227395D01*
X2911000Y12043667D01*
X2911000Y11856333D01*
X2874454Y11672605D01*
X2802766Y11499534D01*
X2802765Y11499533D01*
X2698690Y11343773D01*
X2566227Y11211310D01*
X2509839Y11173633D01*
X2410466Y11107234D01*
X2237395Y11035546D01*
X2053667Y10999000D01*
X1866333Y10999000D01*
X1682605Y11035546D01*
X1509534Y11107234D01*
X1410161Y11173633D01*
X1353773Y11211310D01*
X1221310Y11343773D01*
X1117235Y11499533D01*
X1117234Y11499534D01*
X1045546Y11672605D01*
X1009000Y11856333D01*
X1009000Y12043667D01*
X1045546Y12227395D01*
X1117234Y12400466D01*
X1214834Y12546535D01*
X1221310Y12556227D01*
X1353773Y12688690D01*
X1509533Y12792765D01*
X1509534Y12792766D01*
X1682605Y12864454D01*
X1866333Y12901000D01*
X2053667Y12901000D01*
X2237395Y12864454D01*
X2237395Y12864454D01*
G37*
G36*
X20588674Y12546535D02*
G01*
X20626367Y12535101D01*
X20661103Y12516534D01*
X20691548Y12491548D01*
X20716534Y12461103D01*
X20735101Y12426367D01*
X20746535Y12388674D01*
X20751000Y12343339D01*
X20751000Y11256661D01*
X20746535Y11211326D01*
X20735101Y11173633D01*
X20716534Y11138897D01*
X20691548Y11108452D01*
X20661103Y11083466D01*
X20626367Y11064899D01*
X20588674Y11053465D01*
X20543339Y11049000D01*
X19706661Y11049000D01*
X19661326Y11053465D01*
X19623633Y11064899D01*
X19588897Y11083466D01*
X19558452Y11108452D01*
X19533466Y11138897D01*
X19514899Y11173633D01*
X19503465Y11211326D01*
X19499000Y11256661D01*
X19499000Y12343339D01*
X19503465Y12388674D01*
X19514899Y12426367D01*
X19533466Y12461103D01*
X19558452Y12491548D01*
X19588897Y12516534D01*
X19623633Y12535101D01*
X19661326Y12546535D01*
X19706661Y12551000D01*
X20543339Y12551000D01*
X20588674Y12546535D01*
X20588674Y12546535D01*
G37*
G36*
X18538674Y12546535D02*
G01*
X18576367Y12535101D01*
X18611103Y12516534D01*
X18641548Y12491548D01*
X18666534Y12461103D01*
X18685101Y12426367D01*
X18696535Y12388674D01*
X18701000Y12343339D01*
X18701000Y11256661D01*
X18696535Y11211326D01*
X18685101Y11173633D01*
X18666534Y11138897D01*
X18641548Y11108452D01*
X18611103Y11083466D01*
X18576367Y11064899D01*
X18538674Y11053465D01*
X18493339Y11049000D01*
X17656661Y11049000D01*
X17611326Y11053465D01*
X17573633Y11064899D01*
X17538897Y11083466D01*
X17508452Y11108452D01*
X17483466Y11138897D01*
X17464899Y11173633D01*
X17453465Y11211326D01*
X17449000Y11256661D01*
X17449000Y12343339D01*
X17453465Y12388674D01*
X17464899Y12426367D01*
X17483466Y12461103D01*
X17508452Y12491548D01*
X17538897Y12516534D01*
X17573633Y12535101D01*
X17611326Y12546535D01*
X17656661Y12551000D01*
X18493339Y12551000D01*
X18538674Y12546535D01*
X18538674Y12546535D01*
G37*
G36*
X24038674Y13046535D02*
G01*
X24076367Y13035101D01*
X24111103Y13016534D01*
X24141548Y12991548D01*
X24166534Y12961103D01*
X24185101Y12926367D01*
X24196535Y12888674D01*
X24201000Y12843339D01*
X24201000Y11756661D01*
X24196535Y11711326D01*
X24185101Y11673633D01*
X24166534Y11638897D01*
X24141548Y11608452D01*
X24111103Y11583466D01*
X24076367Y11564899D01*
X24038674Y11553465D01*
X23993339Y11549000D01*
X23156661Y11549000D01*
X23111326Y11553465D01*
X23073633Y11564899D01*
X23038897Y11583466D01*
X23008452Y11608452D01*
X22983466Y11638897D01*
X22964899Y11673633D01*
X22953465Y11711326D01*
X22949000Y11756661D01*
X22949000Y12843339D01*
X22953465Y12888674D01*
X22964899Y12926367D01*
X22983466Y12961103D01*
X23008452Y12991548D01*
X23038897Y13016534D01*
X23073633Y13035101D01*
X23111326Y13046535D01*
X23156661Y13051000D01*
X23993339Y13051000D01*
X24038674Y13046535D01*
X24038674Y13046535D01*
G37*
G36*
X26088674Y13046535D02*
G01*
X26126367Y13035101D01*
X26161103Y13016534D01*
X26191548Y12991548D01*
X26216534Y12961103D01*
X26235101Y12926367D01*
X26246535Y12888674D01*
X26251000Y12843339D01*
X26251000Y11756661D01*
X26246535Y11711326D01*
X26235101Y11673633D01*
X26216534Y11638897D01*
X26191548Y11608452D01*
X26161103Y11583466D01*
X26126367Y11564899D01*
X26088674Y11553465D01*
X26043339Y11549000D01*
X25206661Y11549000D01*
X25161326Y11553465D01*
X25123633Y11564899D01*
X25088897Y11583466D01*
X25058452Y11608452D01*
X25033466Y11638897D01*
X25014899Y11673633D01*
X25003465Y11711326D01*
X24999000Y11756661D01*
X24999000Y12843339D01*
X25003465Y12888674D01*
X25014899Y12926367D01*
X25033466Y12961103D01*
X25058452Y12991548D01*
X25088897Y13016534D01*
X25123633Y13035101D01*
X25161326Y13046535D01*
X25206661Y13051000D01*
X26043339Y13051000D01*
X26088674Y13046535D01*
X26088674Y13046535D01*
G37*
G36*
X7610442Y13634482D02*
G01*
X7676627Y13627963D01*
X7846466Y13576443D01*
X7846468Y13576442D01*
X7924728Y13534611D01*
X8002991Y13492778D01*
X8038729Y13463448D01*
X8140186Y13380186D01*
X8223448Y13278729D01*
X8252778Y13242991D01*
X8336443Y13086466D01*
X8387963Y12916627D01*
X8405359Y12740000D01*
X8387963Y12563373D01*
X8336443Y12393534D01*
X8252778Y12237009D01*
X8223448Y12201271D01*
X8140186Y12099814D01*
X8058751Y12032983D01*
X8002991Y11987222D01*
X8002989Y11987221D01*
X7893743Y11928827D01*
X7846466Y11903557D01*
X7676627Y11852037D01*
X7610442Y11845518D01*
X7544260Y11839000D01*
X7455740Y11839000D01*
X7389558Y11845518D01*
X7323373Y11852037D01*
X7153534Y11903557D01*
X7106258Y11928827D01*
X6997011Y11987221D01*
X6997009Y11987222D01*
X6941249Y12032983D01*
X6859814Y12099814D01*
X6776552Y12201271D01*
X6747222Y12237009D01*
X6663557Y12393534D01*
X6612037Y12563373D01*
X6594641Y12740000D01*
X6612037Y12916627D01*
X6663557Y13086466D01*
X6747222Y13242991D01*
X6776552Y13278729D01*
X6859814Y13380186D01*
X6961271Y13463448D01*
X6997009Y13492778D01*
X7075272Y13534611D01*
X7153532Y13576442D01*
X7153534Y13576443D01*
X7323373Y13627963D01*
X7389558Y13634482D01*
X7455740Y13641000D01*
X7544260Y13641000D01*
X7610442Y13634482D01*
X7610442Y13634482D01*
G37*
G36*
X10751143Y15027913D02*
G01*
X10907838Y14963008D01*
X11048853Y14868785D01*
X11168785Y14748853D01*
X11263008Y14607838D01*
X11327913Y14451143D01*
X11361000Y14284802D01*
X11361000Y14115198D01*
X11327913Y13948857D01*
X11263008Y13792162D01*
X11168785Y13651147D01*
X11048853Y13531215D01*
X10907838Y13436992D01*
X10751143Y13372087D01*
X10584802Y13339000D01*
X10415198Y13339000D01*
X10248857Y13372087D01*
X10092162Y13436992D01*
X9951147Y13531215D01*
X9831215Y13651147D01*
X9736992Y13792162D01*
X9672087Y13948857D01*
X9639000Y14115198D01*
X9639000Y14284802D01*
X9672087Y14451143D01*
X9736992Y14607838D01*
X9831215Y14748853D01*
X9951147Y14868785D01*
X10092162Y14963008D01*
X10248857Y15027913D01*
X10415198Y15061000D01*
X10584802Y15061000D01*
X10751143Y15027913D01*
X10751143Y15027913D01*
G37*
G36*
X15679928Y15473236D02*
G01*
X15701009Y15466840D01*
X15720445Y15456452D01*
X15737476Y15442476D01*
X15751452Y15425445D01*
X15761840Y15406009D01*
X15768236Y15384928D01*
X15771000Y15356860D01*
X15771000Y13543140D01*
X15768236Y13515072D01*
X15761840Y13493991D01*
X15751452Y13474555D01*
X15737476Y13457524D01*
X15720445Y13443548D01*
X15701009Y13433160D01*
X15679928Y13426764D01*
X15651860Y13424000D01*
X15188140Y13424000D01*
X15160072Y13426764D01*
X15138991Y13433160D01*
X15119555Y13443548D01*
X15102524Y13457524D01*
X15088548Y13474555D01*
X15078160Y13493991D01*
X15071764Y13515072D01*
X15069000Y13543140D01*
X15069000Y15356860D01*
X15071764Y15384928D01*
X15078160Y15406009D01*
X15088548Y15425445D01*
X15102524Y15442476D01*
X15119555Y15456452D01*
X15138991Y15466840D01*
X15160072Y15473236D01*
X15188140Y15476000D01*
X15651860Y15476000D01*
X15679928Y15473236D01*
X15679928Y15473236D01*
G37*
G36*
X16949928Y15473236D02*
G01*
X16971009Y15466840D01*
X16990445Y15456452D01*
X17007476Y15442476D01*
X17021452Y15425445D01*
X17031840Y15406009D01*
X17038236Y15384928D01*
X17041000Y15356860D01*
X17041000Y13543140D01*
X17038236Y13515072D01*
X17031840Y13493991D01*
X17021452Y13474555D01*
X17007476Y13457524D01*
X16990445Y13443548D01*
X16971009Y13433160D01*
X16949928Y13426764D01*
X16921860Y13424000D01*
X16458140Y13424000D01*
X16430072Y13426764D01*
X16408991Y13433160D01*
X16389555Y13443548D01*
X16372524Y13457524D01*
X16358548Y13474555D01*
X16348160Y13493991D01*
X16341764Y13515072D01*
X16339000Y13543140D01*
X16339000Y15356860D01*
X16341764Y15384928D01*
X16348160Y15406009D01*
X16358548Y15425445D01*
X16372524Y15442476D01*
X16389555Y15456452D01*
X16408991Y15466840D01*
X16430072Y15473236D01*
X16458140Y15476000D01*
X16921860Y15476000D01*
X16949928Y15473236D01*
X16949928Y15473236D01*
G37*
G36*
X18219928Y15473236D02*
G01*
X18241009Y15466840D01*
X18260445Y15456452D01*
X18277476Y15442476D01*
X18291452Y15425445D01*
X18301840Y15406009D01*
X18308236Y15384928D01*
X18311000Y15356860D01*
X18311000Y13543140D01*
X18308236Y13515072D01*
X18301840Y13493991D01*
X18291452Y13474555D01*
X18277476Y13457524D01*
X18260445Y13443548D01*
X18241009Y13433160D01*
X18219928Y13426764D01*
X18191860Y13424000D01*
X17728140Y13424000D01*
X17700072Y13426764D01*
X17678991Y13433160D01*
X17659555Y13443548D01*
X17642524Y13457524D01*
X17628548Y13474555D01*
X17618160Y13493991D01*
X17611764Y13515072D01*
X17609000Y13543140D01*
X17609000Y15356860D01*
X17611764Y15384928D01*
X17618160Y15406009D01*
X17628548Y15425445D01*
X17642524Y15442476D01*
X17659555Y15456452D01*
X17678991Y15466840D01*
X17700072Y15473236D01*
X17728140Y15476000D01*
X18191860Y15476000D01*
X18219928Y15473236D01*
X18219928Y15473236D01*
G37*
G36*
X14409928Y15473236D02*
G01*
X14431009Y15466840D01*
X14450445Y15456452D01*
X14467476Y15442476D01*
X14481452Y15425445D01*
X14491840Y15406009D01*
X14498236Y15384928D01*
X14501000Y15356860D01*
X14501000Y13543140D01*
X14498236Y13515072D01*
X14491840Y13493991D01*
X14481452Y13474555D01*
X14467476Y13457524D01*
X14450445Y13443548D01*
X14431009Y13433160D01*
X14409928Y13426764D01*
X14381860Y13424000D01*
X13918140Y13424000D01*
X13890072Y13426764D01*
X13868991Y13433160D01*
X13849555Y13443548D01*
X13832524Y13457524D01*
X13818548Y13474555D01*
X13808160Y13493991D01*
X13801764Y13515072D01*
X13799000Y13543140D01*
X13799000Y15356860D01*
X13801764Y15384928D01*
X13808160Y15406009D01*
X13818548Y15425445D01*
X13832524Y15442476D01*
X13849555Y15456452D01*
X13868991Y15466840D01*
X13890072Y15473236D01*
X13918140Y15476000D01*
X14381860Y15476000D01*
X14409928Y15473236D01*
X14409928Y15473236D01*
G37*
G36*
X19489928Y15473236D02*
G01*
X19511009Y15466840D01*
X19530445Y15456452D01*
X19547476Y15442476D01*
X19561452Y15425445D01*
X19571840Y15406009D01*
X19578236Y15384928D01*
X19581000Y15356860D01*
X19581000Y13543140D01*
X19578236Y13515072D01*
X19571840Y13493991D01*
X19561452Y13474555D01*
X19547476Y13457524D01*
X19530445Y13443548D01*
X19511009Y13433160D01*
X19489928Y13426764D01*
X19461860Y13424000D01*
X18998140Y13424000D01*
X18970072Y13426764D01*
X18948991Y13433160D01*
X18929555Y13443548D01*
X18912524Y13457524D01*
X18898548Y13474555D01*
X18888160Y13493991D01*
X18881764Y13515072D01*
X18879000Y13543140D01*
X18879000Y15356860D01*
X18881764Y15384928D01*
X18888160Y15406009D01*
X18898548Y15425445D01*
X18912524Y15442476D01*
X18929555Y15456452D01*
X18948991Y15466840D01*
X18970072Y15473236D01*
X18998140Y15476000D01*
X19461860Y15476000D01*
X19489928Y15473236D01*
X19489928Y15473236D01*
G37*
G36*
X13139928Y15473236D02*
G01*
X13161009Y15466840D01*
X13180445Y15456452D01*
X13197476Y15442476D01*
X13211452Y15425445D01*
X13221840Y15406009D01*
X13228236Y15384928D01*
X13231000Y15356860D01*
X13231000Y13543140D01*
X13228236Y13515072D01*
X13221840Y13493991D01*
X13211452Y13474555D01*
X13197476Y13457524D01*
X13180445Y13443548D01*
X13161009Y13433160D01*
X13139928Y13426764D01*
X13111860Y13424000D01*
X12648140Y13424000D01*
X12620072Y13426764D01*
X12598991Y13433160D01*
X12579555Y13443548D01*
X12562524Y13457524D01*
X12548548Y13474555D01*
X12538160Y13493991D01*
X12531764Y13515072D01*
X12529000Y13543140D01*
X12529000Y15356860D01*
X12531764Y15384928D01*
X12538160Y15406009D01*
X12548548Y15425445D01*
X12562524Y15442476D01*
X12579555Y15456452D01*
X12598991Y15466840D01*
X12620072Y15473236D01*
X12648140Y15476000D01*
X13111860Y15476000D01*
X13139928Y15473236D01*
X13139928Y15473236D01*
G37*
G36*
X20759928Y15473236D02*
G01*
X20781009Y15466840D01*
X20800445Y15456452D01*
X20817476Y15442476D01*
X20831452Y15425445D01*
X20841840Y15406009D01*
X20848236Y15384928D01*
X20851000Y15356860D01*
X20851000Y13543140D01*
X20848236Y13515072D01*
X20841840Y13493991D01*
X20831452Y13474555D01*
X20817476Y13457524D01*
X20800445Y13443548D01*
X20781009Y13433160D01*
X20759928Y13426764D01*
X20731860Y13424000D01*
X20268140Y13424000D01*
X20240072Y13426764D01*
X20218991Y13433160D01*
X20199555Y13443548D01*
X20182524Y13457524D01*
X20168548Y13474555D01*
X20158160Y13493991D01*
X20151764Y13515072D01*
X20149000Y13543140D01*
X20149000Y15356860D01*
X20151764Y15384928D01*
X20158160Y15406009D01*
X20168548Y15425445D01*
X20182524Y15442476D01*
X20199555Y15456452D01*
X20218991Y15466840D01*
X20240072Y15473236D01*
X20268140Y15476000D01*
X20731860Y15476000D01*
X20759928Y15473236D01*
X20759928Y15473236D01*
G37*
G36*
X5588674Y14771535D02*
G01*
X5626367Y14760101D01*
X5661103Y14741534D01*
X5691548Y14716548D01*
X5716534Y14686103D01*
X5735101Y14651367D01*
X5746535Y14613674D01*
X5751000Y14568339D01*
X5751000Y13731661D01*
X5746535Y13686326D01*
X5735101Y13648633D01*
X5716534Y13613897D01*
X5691548Y13583452D01*
X5661103Y13558466D01*
X5626367Y13539899D01*
X5588674Y13528465D01*
X5543339Y13524000D01*
X4456661Y13524000D01*
X4411326Y13528465D01*
X4373633Y13539899D01*
X4338897Y13558466D01*
X4308452Y13583452D01*
X4283466Y13613897D01*
X4264899Y13648633D01*
X4253465Y13686326D01*
X4249000Y13731661D01*
X4249000Y14568339D01*
X4253465Y14613674D01*
X4264899Y14651367D01*
X4283466Y14686103D01*
X4308452Y14716548D01*
X4338897Y14741534D01*
X4373633Y14760101D01*
X4411326Y14771535D01*
X4456661Y14776000D01*
X5543339Y14776000D01*
X5588674Y14771535D01*
X5588674Y14771535D01*
G37*
G36*
X25650442Y16094482D02*
G01*
X25716627Y16087963D01*
X25886466Y16036443D01*
X26042991Y15952778D01*
X26078729Y15923448D01*
X26180186Y15840186D01*
X26239365Y15768075D01*
X26292778Y15702991D01*
X26376443Y15546466D01*
X26427963Y15376627D01*
X26445359Y15200000D01*
X26427963Y15023373D01*
X26376443Y14853534D01*
X26292778Y14697009D01*
X26263448Y14661271D01*
X26180186Y14559814D01*
X26078729Y14476552D01*
X26042991Y14447222D01*
X25886466Y14363557D01*
X25716627Y14312037D01*
X25650442Y14305518D01*
X25584260Y14299000D01*
X25495740Y14299000D01*
X25429558Y14305518D01*
X25363373Y14312037D01*
X25193534Y14363557D01*
X25037009Y14447222D01*
X25001271Y14476552D01*
X24899814Y14559814D01*
X24816552Y14661271D01*
X24787222Y14697009D01*
X24703557Y14853534D01*
X24652037Y15023373D01*
X24634641Y15200000D01*
X24652037Y15376627D01*
X24703557Y15546466D01*
X24787222Y15702991D01*
X24840635Y15768075D01*
X24899814Y15840186D01*
X25001271Y15923448D01*
X25037009Y15952778D01*
X25193534Y16036443D01*
X25363373Y16087963D01*
X25429557Y16094481D01*
X25495740Y16101000D01*
X25584260Y16101000D01*
X25650442Y16094482D01*
X25650442Y16094482D01*
G37*
G36*
X23110442Y16094482D02*
G01*
X23176627Y16087963D01*
X23346466Y16036443D01*
X23502991Y15952778D01*
X23538729Y15923448D01*
X23640186Y15840186D01*
X23699365Y15768075D01*
X23752778Y15702991D01*
X23836443Y15546466D01*
X23887963Y15376627D01*
X23905359Y15200000D01*
X23887963Y15023373D01*
X23836443Y14853534D01*
X23752778Y14697009D01*
X23723448Y14661271D01*
X23640186Y14559814D01*
X23538729Y14476552D01*
X23502991Y14447222D01*
X23346466Y14363557D01*
X23176627Y14312037D01*
X23110442Y14305518D01*
X23044260Y14299000D01*
X22955740Y14299000D01*
X22889558Y14305518D01*
X22823373Y14312037D01*
X22653534Y14363557D01*
X22497009Y14447222D01*
X22461271Y14476552D01*
X22359814Y14559814D01*
X22276552Y14661271D01*
X22247222Y14697009D01*
X22163557Y14853534D01*
X22112037Y15023373D01*
X22094641Y15200000D01*
X22112037Y15376627D01*
X22163557Y15546466D01*
X22247222Y15702991D01*
X22300635Y15768075D01*
X22359814Y15840186D01*
X22461271Y15923448D01*
X22497009Y15952778D01*
X22653534Y16036443D01*
X22823373Y16087963D01*
X22889557Y16094481D01*
X22955740Y16101000D01*
X23044260Y16101000D01*
X23110442Y16094482D01*
X23110442Y16094482D01*
G37*
G36*
X7588674Y16796535D02*
G01*
X7626367Y16785101D01*
X7661103Y16766534D01*
X7691548Y16741548D01*
X7716534Y16711103D01*
X7735101Y16676367D01*
X7746535Y16638674D01*
X7751000Y16593339D01*
X7751000Y15756661D01*
X7746535Y15711326D01*
X7735101Y15673633D01*
X7716534Y15638897D01*
X7691548Y15608452D01*
X7661103Y15583466D01*
X7626367Y15564899D01*
X7588674Y15553465D01*
X7543339Y15549000D01*
X6456661Y15549000D01*
X6411326Y15553465D01*
X6373633Y15564899D01*
X6338897Y15583466D01*
X6308452Y15608452D01*
X6283466Y15638897D01*
X6264899Y15673633D01*
X6253465Y15711326D01*
X6249000Y15756661D01*
X6249000Y16593339D01*
X6253465Y16638674D01*
X6264899Y16676367D01*
X6283466Y16711103D01*
X6308452Y16741548D01*
X6338897Y16766534D01*
X6373633Y16785101D01*
X6411326Y16796535D01*
X6456661Y16801000D01*
X7543339Y16801000D01*
X7588674Y16796535D01*
X7588674Y16796535D01*
G37*
G36*
X9588674Y16821535D02*
G01*
X9626367Y16810101D01*
X9661103Y16791534D01*
X9691548Y16766548D01*
X9716534Y16736103D01*
X9735101Y16701367D01*
X9746535Y16663674D01*
X9751000Y16618339D01*
X9751000Y15781661D01*
X9746535Y15736326D01*
X9735101Y15698633D01*
X9716534Y15663897D01*
X9691548Y15633452D01*
X9661103Y15608466D01*
X9626367Y15589899D01*
X9588674Y15578465D01*
X9543339Y15574000D01*
X8456661Y15574000D01*
X8411326Y15578465D01*
X8373633Y15589899D01*
X8338897Y15608466D01*
X8308452Y15633452D01*
X8283466Y15663897D01*
X8264899Y15698633D01*
X8253465Y15736326D01*
X8249000Y15781661D01*
X8249000Y16618339D01*
X8253465Y16663674D01*
X8264899Y16701367D01*
X8283466Y16736103D01*
X8308452Y16766548D01*
X8338897Y16791534D01*
X8373633Y16810101D01*
X8411326Y16821535D01*
X8456661Y16826000D01*
X9543339Y16826000D01*
X9588674Y16821535D01*
X9588674Y16821535D01*
G37*
G36*
X5588674Y16821535D02*
G01*
X5626367Y16810101D01*
X5661103Y16791534D01*
X5691548Y16766548D01*
X5716534Y16736103D01*
X5735101Y16701367D01*
X5746535Y16663674D01*
X5751000Y16618339D01*
X5751000Y15781661D01*
X5746535Y15736326D01*
X5735101Y15698633D01*
X5716534Y15663897D01*
X5691548Y15633452D01*
X5661103Y15608466D01*
X5626367Y15589899D01*
X5588674Y15578465D01*
X5543339Y15574000D01*
X4456661Y15574000D01*
X4411326Y15578465D01*
X4373633Y15589899D01*
X4338897Y15608466D01*
X4308452Y15633452D01*
X4283466Y15663897D01*
X4264899Y15698633D01*
X4253465Y15736326D01*
X4249000Y15781661D01*
X4249000Y16618339D01*
X4253465Y16663674D01*
X4264899Y16701367D01*
X4283466Y16736103D01*
X4308452Y16766548D01*
X4338897Y16791534D01*
X4373633Y16810101D01*
X4411326Y16821535D01*
X4456661Y16826000D01*
X5543339Y16826000D01*
X5588674Y16821535D01*
X5588674Y16821535D01*
G37*
G36*
X25650443Y18634481D02*
G01*
X25716627Y18627963D01*
X25886466Y18576443D01*
X26042991Y18492778D01*
X26076751Y18465072D01*
X26180186Y18380186D01*
X26263448Y18278729D01*
X26292778Y18242991D01*
X26376443Y18086466D01*
X26427963Y17916627D01*
X26445359Y17740000D01*
X26427963Y17563373D01*
X26376443Y17393534D01*
X26292778Y17237009D01*
X26263448Y17201271D01*
X26180186Y17099814D01*
X26078729Y17016552D01*
X26042991Y16987222D01*
X25886466Y16903557D01*
X25716627Y16852037D01*
X25650443Y16845519D01*
X25584260Y16839000D01*
X25495740Y16839000D01*
X25429558Y16845518D01*
X25363373Y16852037D01*
X25193534Y16903557D01*
X25037009Y16987222D01*
X25001271Y17016552D01*
X24899814Y17099814D01*
X24816552Y17201271D01*
X24787222Y17237009D01*
X24703557Y17393534D01*
X24652037Y17563373D01*
X24634641Y17740000D01*
X24652037Y17916627D01*
X24703557Y18086466D01*
X24787222Y18242991D01*
X24816552Y18278729D01*
X24899814Y18380186D01*
X25003249Y18465072D01*
X25037009Y18492778D01*
X25193534Y18576443D01*
X25363373Y18627963D01*
X25429557Y18634481D01*
X25495740Y18641000D01*
X25584260Y18641000D01*
X25650443Y18634481D01*
X25650443Y18634481D01*
G37*
G36*
X23110443Y18634481D02*
G01*
X23176627Y18627963D01*
X23346466Y18576443D01*
X23502991Y18492778D01*
X23536751Y18465072D01*
X23640186Y18380186D01*
X23723448Y18278729D01*
X23752778Y18242991D01*
X23836443Y18086466D01*
X23887963Y17916627D01*
X23905359Y17740000D01*
X23887963Y17563373D01*
X23836443Y17393534D01*
X23752778Y17237009D01*
X23723448Y17201271D01*
X23640186Y17099814D01*
X23538729Y17016552D01*
X23502991Y16987222D01*
X23346466Y16903557D01*
X23176627Y16852037D01*
X23110443Y16845519D01*
X23044260Y16839000D01*
X22955740Y16839000D01*
X22889558Y16845518D01*
X22823373Y16852037D01*
X22653534Y16903557D01*
X22497009Y16987222D01*
X22461271Y17016552D01*
X22359814Y17099814D01*
X22276552Y17201271D01*
X22247222Y17237009D01*
X22163557Y17393534D01*
X22112037Y17563373D01*
X22094641Y17740000D01*
X22112037Y17916627D01*
X22163557Y18086466D01*
X22247222Y18242991D01*
X22276552Y18278729D01*
X22359814Y18380186D01*
X22463249Y18465072D01*
X22497009Y18492778D01*
X22653534Y18576443D01*
X22823373Y18627963D01*
X22889557Y18634481D01*
X22955740Y18641000D01*
X23044260Y18641000D01*
X23110443Y18634481D01*
X23110443Y18634481D01*
G37*
G36*
X7588674Y18846535D02*
G01*
X7626367Y18835101D01*
X7661103Y18816534D01*
X7691548Y18791548D01*
X7716534Y18761103D01*
X7735101Y18726367D01*
X7746535Y18688674D01*
X7751000Y18643339D01*
X7751000Y17806661D01*
X7746535Y17761326D01*
X7735101Y17723633D01*
X7716534Y17688897D01*
X7691548Y17658452D01*
X7661103Y17633466D01*
X7626367Y17614899D01*
X7588674Y17603465D01*
X7543339Y17599000D01*
X6456661Y17599000D01*
X6411326Y17603465D01*
X6373633Y17614899D01*
X6338897Y17633466D01*
X6308452Y17658452D01*
X6283466Y17688897D01*
X6264899Y17723633D01*
X6253465Y17761326D01*
X6249000Y17806661D01*
X6249000Y18643339D01*
X6253465Y18688674D01*
X6264899Y18726367D01*
X6283466Y18761103D01*
X6308452Y18791548D01*
X6338897Y18816534D01*
X6373633Y18835101D01*
X6411326Y18846535D01*
X6456661Y18851000D01*
X7543339Y18851000D01*
X7588674Y18846535D01*
X7588674Y18846535D01*
G37*
G36*
X9588674Y18871535D02*
G01*
X9626367Y18860101D01*
X9661103Y18841534D01*
X9691548Y18816548D01*
X9716534Y18786103D01*
X9735101Y18751367D01*
X9746535Y18713674D01*
X9751000Y18668339D01*
X9751000Y17831661D01*
X9746535Y17786326D01*
X9735101Y17748633D01*
X9716534Y17713897D01*
X9691548Y17683452D01*
X9661103Y17658466D01*
X9626367Y17639899D01*
X9588674Y17628465D01*
X9543339Y17624000D01*
X8456661Y17624000D01*
X8411326Y17628465D01*
X8373633Y17639899D01*
X8338897Y17658466D01*
X8308452Y17683452D01*
X8283466Y17713897D01*
X8264899Y17748633D01*
X8253465Y17786326D01*
X8249000Y17831661D01*
X8249000Y18668339D01*
X8253465Y18713674D01*
X8264899Y18751367D01*
X8283466Y18786103D01*
X8308452Y18816548D01*
X8338897Y18841534D01*
X8373633Y18860101D01*
X8411326Y18871535D01*
X8456661Y18876000D01*
X9543339Y18876000D01*
X9588674Y18871535D01*
X9588674Y18871535D01*
G37*
G36*
X11251143Y20027913D02*
G01*
X11407838Y19963008D01*
X11548853Y19868785D01*
X11668785Y19748853D01*
X11763008Y19607838D01*
X11827913Y19451143D01*
X11861000Y19284802D01*
X11861000Y19115198D01*
X11827913Y18948857D01*
X11763008Y18792162D01*
X11668785Y18651147D01*
X11548853Y18531215D01*
X11407838Y18436992D01*
X11251143Y18372087D01*
X11084802Y18339000D01*
X10915198Y18339000D01*
X10748857Y18372087D01*
X10592162Y18436992D01*
X10451147Y18531215D01*
X10331215Y18651147D01*
X10236992Y18792162D01*
X10172087Y18948857D01*
X10139000Y19115198D01*
X10139000Y19284802D01*
X10172087Y19451143D01*
X10236992Y19607838D01*
X10331215Y19748853D01*
X10451147Y19868785D01*
X10592162Y19963008D01*
X10748857Y20027913D01*
X10915198Y20061000D01*
X11084802Y20061000D01*
X11251143Y20027913D01*
X11251143Y20027913D01*
G37*
G36*
X19489928Y20423236D02*
G01*
X19511009Y20416840D01*
X19530445Y20406452D01*
X19547476Y20392476D01*
X19561452Y20375445D01*
X19571840Y20356009D01*
X19578236Y20334928D01*
X19581000Y20306860D01*
X19581000Y18493140D01*
X19578236Y18465072D01*
X19571840Y18443991D01*
X19561452Y18424555D01*
X19547476Y18407524D01*
X19530445Y18393548D01*
X19511009Y18383160D01*
X19489928Y18376764D01*
X19461860Y18374000D01*
X18998140Y18374000D01*
X18970072Y18376764D01*
X18948991Y18383160D01*
X18929555Y18393548D01*
X18912524Y18407524D01*
X18898548Y18424555D01*
X18888160Y18443991D01*
X18881764Y18465072D01*
X18879000Y18493140D01*
X18879000Y20306860D01*
X18881764Y20334928D01*
X18888160Y20356009D01*
X18898548Y20375445D01*
X18912524Y20392476D01*
X18929555Y20406452D01*
X18948991Y20416840D01*
X18970072Y20423236D01*
X18998140Y20426000D01*
X19461860Y20426000D01*
X19489928Y20423236D01*
X19489928Y20423236D01*
G37*
G36*
X20759928Y20423236D02*
G01*
X20781009Y20416840D01*
X20800445Y20406452D01*
X20817476Y20392476D01*
X20831452Y20375445D01*
X20841840Y20356009D01*
X20848236Y20334928D01*
X20851000Y20306860D01*
X20851000Y18493140D01*
X20848236Y18465072D01*
X20841840Y18443991D01*
X20831452Y18424555D01*
X20817476Y18407524D01*
X20800445Y18393548D01*
X20781009Y18383160D01*
X20759928Y18376764D01*
X20731860Y18374000D01*
X20268140Y18374000D01*
X20240072Y18376764D01*
X20218991Y18383160D01*
X20199555Y18393548D01*
X20182524Y18407524D01*
X20168548Y18424555D01*
X20158160Y18443991D01*
X20151764Y18465072D01*
X20149000Y18493140D01*
X20149000Y20306860D01*
X20151764Y20334928D01*
X20158160Y20356009D01*
X20168548Y20375445D01*
X20182524Y20392476D01*
X20199555Y20406452D01*
X20218991Y20416840D01*
X20240072Y20423236D01*
X20268140Y20426000D01*
X20731860Y20426000D01*
X20759928Y20423236D01*
X20759928Y20423236D01*
G37*
G36*
X16949928Y20423236D02*
G01*
X16971009Y20416840D01*
X16990445Y20406452D01*
X17007476Y20392476D01*
X17021452Y20375445D01*
X17031840Y20356009D01*
X17038236Y20334928D01*
X17041000Y20306860D01*
X17041000Y18493140D01*
X17038236Y18465072D01*
X17031840Y18443991D01*
X17021452Y18424555D01*
X17007476Y18407524D01*
X16990445Y18393548D01*
X16971009Y18383160D01*
X16949928Y18376764D01*
X16921860Y18374000D01*
X16458140Y18374000D01*
X16430072Y18376764D01*
X16408991Y18383160D01*
X16389555Y18393548D01*
X16372524Y18407524D01*
X16358548Y18424555D01*
X16348160Y18443991D01*
X16341764Y18465072D01*
X16339000Y18493140D01*
X16339000Y20306860D01*
X16341764Y20334928D01*
X16348160Y20356009D01*
X16358548Y20375445D01*
X16372524Y20392476D01*
X16389555Y20406452D01*
X16408991Y20416840D01*
X16430072Y20423236D01*
X16458140Y20426000D01*
X16921860Y20426000D01*
X16949928Y20423236D01*
X16949928Y20423236D01*
G37*
G36*
X15679928Y20423236D02*
G01*
X15701009Y20416840D01*
X15720445Y20406452D01*
X15737476Y20392476D01*
X15751452Y20375445D01*
X15761840Y20356009D01*
X15768236Y20334928D01*
X15771000Y20306860D01*
X15771000Y18493140D01*
X15768236Y18465072D01*
X15761840Y18443991D01*
X15751452Y18424555D01*
X15737476Y18407524D01*
X15720445Y18393548D01*
X15701009Y18383160D01*
X15679928Y18376764D01*
X15651860Y18374000D01*
X15188140Y18374000D01*
X15160072Y18376764D01*
X15138991Y18383160D01*
X15119555Y18393548D01*
X15102524Y18407524D01*
X15088548Y18424555D01*
X15078160Y18443991D01*
X15071764Y18465072D01*
X15069000Y18493140D01*
X15069000Y20306860D01*
X15071764Y20334928D01*
X15078160Y20356009D01*
X15088548Y20375445D01*
X15102524Y20392476D01*
X15119555Y20406452D01*
X15138991Y20416840D01*
X15160072Y20423236D01*
X15188140Y20426000D01*
X15651860Y20426000D01*
X15679928Y20423236D01*
X15679928Y20423236D01*
G37*
G36*
X14409928Y20423236D02*
G01*
X14431009Y20416840D01*
X14450445Y20406452D01*
X14467476Y20392476D01*
X14481452Y20375445D01*
X14491840Y20356009D01*
X14498236Y20334928D01*
X14501000Y20306860D01*
X14501000Y18493140D01*
X14498236Y18465072D01*
X14491840Y18443991D01*
X14481452Y18424555D01*
X14467476Y18407524D01*
X14450445Y18393548D01*
X14431009Y18383160D01*
X14409928Y18376764D01*
X14381860Y18374000D01*
X13918140Y18374000D01*
X13890072Y18376764D01*
X13868991Y18383160D01*
X13849555Y18393548D01*
X13832524Y18407524D01*
X13818548Y18424555D01*
X13808160Y18443991D01*
X13801764Y18465072D01*
X13799000Y18493140D01*
X13799000Y20306860D01*
X13801764Y20334928D01*
X13808160Y20356009D01*
X13818548Y20375445D01*
X13832524Y20392476D01*
X13849555Y20406452D01*
X13868991Y20416840D01*
X13890072Y20423236D01*
X13918140Y20426000D01*
X14381860Y20426000D01*
X14409928Y20423236D01*
X14409928Y20423236D01*
G37*
G36*
X13139928Y20423236D02*
G01*
X13161009Y20416840D01*
X13180445Y20406452D01*
X13197476Y20392476D01*
X13211452Y20375445D01*
X13221840Y20356009D01*
X13228236Y20334928D01*
X13231000Y20306860D01*
X13231000Y18493140D01*
X13228236Y18465072D01*
X13221840Y18443991D01*
X13211452Y18424555D01*
X13197476Y18407524D01*
X13180445Y18393548D01*
X13161009Y18383160D01*
X13139928Y18376764D01*
X13111860Y18374000D01*
X12648140Y18374000D01*
X12620072Y18376764D01*
X12598991Y18383160D01*
X12579555Y18393548D01*
X12562524Y18407524D01*
X12548548Y18424555D01*
X12538160Y18443991D01*
X12531764Y18465072D01*
X12529000Y18493140D01*
X12529000Y20306860D01*
X12531764Y20334928D01*
X12538160Y20356009D01*
X12548548Y20375445D01*
X12562524Y20392476D01*
X12579555Y20406452D01*
X12598991Y20416840D01*
X12620072Y20423236D01*
X12648140Y20426000D01*
X13111860Y20426000D01*
X13139928Y20423236D01*
X13139928Y20423236D01*
G37*
G36*
X18219928Y20423236D02*
G01*
X18241009Y20416840D01*
X18260445Y20406452D01*
X18277476Y20392476D01*
X18291452Y20375445D01*
X18301840Y20356009D01*
X18308236Y20334928D01*
X18311000Y20306860D01*
X18311000Y18493140D01*
X18308236Y18465072D01*
X18301840Y18443991D01*
X18291452Y18424555D01*
X18277476Y18407524D01*
X18260445Y18393548D01*
X18241009Y18383160D01*
X18219928Y18376764D01*
X18191860Y18374000D01*
X17728140Y18374000D01*
X17700072Y18376764D01*
X17678991Y18383160D01*
X17659555Y18393548D01*
X17642524Y18407524D01*
X17628548Y18424555D01*
X17618160Y18443991D01*
X17611764Y18465072D01*
X17609000Y18493140D01*
X17609000Y20306860D01*
X17611764Y20334928D01*
X17618160Y20356009D01*
X17628548Y20375445D01*
X17642524Y20392476D01*
X17659555Y20406452D01*
X17678991Y20416840D01*
X17700072Y20423236D01*
X17728140Y20426000D01*
X18191860Y20426000D01*
X18219928Y20423236D01*
X18219928Y20423236D01*
G37*
G36*
X25650443Y21174481D02*
G01*
X25716627Y21167963D01*
X25886466Y21116443D01*
X26042991Y21032778D01*
X26078729Y21003448D01*
X26180186Y20920186D01*
X26263448Y20818729D01*
X26292778Y20782991D01*
X26376443Y20626466D01*
X26427963Y20456627D01*
X26445359Y20280000D01*
X26427963Y20103373D01*
X26376443Y19933534D01*
X26292778Y19777009D01*
X26269673Y19748856D01*
X26180186Y19639814D01*
X26078729Y19556552D01*
X26042991Y19527222D01*
X25886466Y19443557D01*
X25716627Y19392037D01*
X25650443Y19385519D01*
X25584260Y19379000D01*
X25495740Y19379000D01*
X25429558Y19385518D01*
X25363373Y19392037D01*
X25193534Y19443557D01*
X25037009Y19527222D01*
X25001271Y19556552D01*
X24899814Y19639814D01*
X24810327Y19748856D01*
X24787222Y19777009D01*
X24703557Y19933534D01*
X24652037Y20103373D01*
X24634641Y20280000D01*
X24652037Y20456627D01*
X24703557Y20626466D01*
X24787222Y20782991D01*
X24816552Y20818729D01*
X24899814Y20920186D01*
X25001271Y21003448D01*
X25037009Y21032778D01*
X25193534Y21116443D01*
X25363373Y21167963D01*
X25429557Y21174481D01*
X25495740Y21181000D01*
X25584260Y21181000D01*
X25650443Y21174481D01*
X25650443Y21174481D01*
G37*
G36*
X23110443Y21174481D02*
G01*
X23176627Y21167963D01*
X23346466Y21116443D01*
X23502991Y21032778D01*
X23538729Y21003448D01*
X23640186Y20920186D01*
X23723448Y20818729D01*
X23752778Y20782991D01*
X23836443Y20626466D01*
X23887963Y20456627D01*
X23905359Y20280000D01*
X23887963Y20103373D01*
X23836443Y19933534D01*
X23752778Y19777009D01*
X23729673Y19748856D01*
X23640186Y19639814D01*
X23538729Y19556552D01*
X23502991Y19527222D01*
X23346466Y19443557D01*
X23176627Y19392037D01*
X23110443Y19385519D01*
X23044260Y19379000D01*
X22955740Y19379000D01*
X22889558Y19385518D01*
X22823373Y19392037D01*
X22653534Y19443557D01*
X22497009Y19527222D01*
X22461271Y19556552D01*
X22359814Y19639814D01*
X22270327Y19748856D01*
X22247222Y19777009D01*
X22163557Y19933534D01*
X22112037Y20103373D01*
X22094641Y20280000D01*
X22112037Y20456627D01*
X22163557Y20626466D01*
X22247222Y20782991D01*
X22276552Y20818729D01*
X22359814Y20920186D01*
X22461271Y21003448D01*
X22497009Y21032778D01*
X22653534Y21116443D01*
X22823373Y21167963D01*
X22889557Y21174481D01*
X22955740Y21181000D01*
X23044260Y21181000D01*
X23110443Y21174481D01*
X23110443Y21174481D01*
G37*
G36*
X7610443Y21804481D02*
G01*
X7676627Y21797963D01*
X7846466Y21746443D01*
X8002991Y21662778D01*
X8038729Y21633448D01*
X8140186Y21550186D01*
X8223343Y21448857D01*
X8252778Y21412991D01*
X8336443Y21256466D01*
X8387963Y21086627D01*
X8405359Y20910000D01*
X8387963Y20733373D01*
X8336443Y20563534D01*
X8252778Y20407009D01*
X8244090Y20396423D01*
X8140186Y20269814D01*
X8038729Y20186552D01*
X8002991Y20157222D01*
X7846466Y20073557D01*
X7676627Y20022037D01*
X7610442Y20015518D01*
X7544260Y20009000D01*
X7455740Y20009000D01*
X7389558Y20015518D01*
X7323373Y20022037D01*
X7153534Y20073557D01*
X6997009Y20157222D01*
X6961271Y20186552D01*
X6859814Y20269814D01*
X6755910Y20396423D01*
X6747222Y20407009D01*
X6663557Y20563534D01*
X6612037Y20733373D01*
X6594641Y20910000D01*
X6612037Y21086627D01*
X6663557Y21256466D01*
X6747222Y21412991D01*
X6776657Y21448857D01*
X6859814Y21550186D01*
X6961271Y21633448D01*
X6997009Y21662778D01*
X7153534Y21746443D01*
X7323373Y21797963D01*
X7389557Y21804481D01*
X7455740Y21811000D01*
X7544260Y21811000D01*
X7610443Y21804481D01*
X7610443Y21804481D01*
G37*
G36*
X5491000Y20499000D02*
G01*
X3589000Y20499000D01*
X3589000Y22401000D01*
X5491000Y22401000D01*
X5491000Y20499000D01*
X5491000Y20499000D01*
G37*
G36*
X2277395Y22364454D02*
G01*
X2450466Y22292766D01*
X2450467Y22292765D01*
X2606227Y22188690D01*
X2738690Y22056227D01*
X2738691Y22056225D01*
X2842766Y21900466D01*
X2914454Y21727395D01*
X2951000Y21543667D01*
X2951000Y21356333D01*
X2914454Y21172605D01*
X2842766Y20999534D01*
X2842765Y20999533D01*
X2738690Y20843773D01*
X2606227Y20711310D01*
X2527818Y20658919D01*
X2450466Y20607234D01*
X2277395Y20535546D01*
X2093667Y20499000D01*
X1906333Y20499000D01*
X1722605Y20535546D01*
X1549534Y20607234D01*
X1472182Y20658919D01*
X1393773Y20711310D01*
X1261310Y20843773D01*
X1157235Y20999533D01*
X1157234Y20999534D01*
X1085546Y21172605D01*
X1049000Y21356333D01*
X1049000Y21543667D01*
X1085546Y21727395D01*
X1157234Y21900466D01*
X1261309Y22056225D01*
X1261310Y22056227D01*
X1393773Y22188690D01*
X1549533Y22292765D01*
X1549534Y22292766D01*
X1722605Y22364454D01*
X1906333Y22401000D01*
X2093667Y22401000D01*
X2277395Y22364454D01*
X2277395Y22364454D01*
G37*
G36*
X16251143Y22527913D02*
G01*
X16407838Y22463008D01*
X16548853Y22368785D01*
X16668785Y22248853D01*
X16763008Y22107838D01*
X16827913Y21951143D01*
X16861000Y21784802D01*
X16861000Y21615198D01*
X16827913Y21448857D01*
X16763008Y21292162D01*
X16668785Y21151147D01*
X16548853Y21031215D01*
X16407838Y20936992D01*
X16251143Y20872087D01*
X16084802Y20839000D01*
X15915198Y20839000D01*
X15748857Y20872087D01*
X15592162Y20936992D01*
X15451147Y21031215D01*
X15331215Y21151147D01*
X15236992Y21292162D01*
X15172087Y21448857D01*
X15139000Y21615198D01*
X15139000Y21784802D01*
X15172087Y21951143D01*
X15236992Y22107838D01*
X15331215Y22248853D01*
X15451147Y22368785D01*
X15592162Y22463008D01*
X15748857Y22527913D01*
X15915198Y22561000D01*
X16084802Y22561000D01*
X16251143Y22527913D01*
X16251143Y22527913D01*
G37*
G36*
X23901000Y21919000D02*
G01*
X22099000Y21919000D01*
X22099000Y23721000D01*
X23901000Y23721000D01*
X23901000Y21919000D01*
X23901000Y21919000D01*
G37*
G36*
X25650442Y23714482D02*
G01*
X25716627Y23707963D01*
X25886466Y23656443D01*
X26042991Y23572778D01*
X26066524Y23553465D01*
X26180186Y23460186D01*
X26252485Y23372088D01*
X26292778Y23322991D01*
X26292779Y23322989D01*
X26356667Y23203465D01*
X26376443Y23166466D01*
X26427963Y22996627D01*
X26445359Y22820000D01*
X26427963Y22643373D01*
X26376443Y22473534D01*
X26292778Y22317009D01*
X26272882Y22292766D01*
X26180186Y22179814D01*
X26092479Y22107836D01*
X26042991Y22067222D01*
X25886466Y21983557D01*
X25716627Y21932037D01*
X25650443Y21925519D01*
X25584260Y21919000D01*
X25495740Y21919000D01*
X25429558Y21925518D01*
X25363373Y21932037D01*
X25193534Y21983557D01*
X25037009Y22067222D01*
X24987521Y22107836D01*
X24899814Y22179814D01*
X24807118Y22292766D01*
X24787222Y22317009D01*
X24703557Y22473534D01*
X24652037Y22643373D01*
X24634641Y22820000D01*
X24652037Y22996627D01*
X24703557Y23166466D01*
X24723334Y23203465D01*
X24787221Y23322989D01*
X24787222Y23322991D01*
X24827515Y23372088D01*
X24899814Y23460186D01*
X25013476Y23553465D01*
X25037009Y23572778D01*
X25193534Y23656443D01*
X25363373Y23707963D01*
X25429558Y23714482D01*
X25495740Y23721000D01*
X25584260Y23721000D01*
X25650442Y23714482D01*
X25650442Y23714482D01*
G37*
G36*
X8401000Y22549000D02*
G01*
X6599000Y22549000D01*
X6599000Y24351000D01*
X8401000Y24351000D01*
X8401000Y22549000D01*
X8401000Y22549000D01*
G37*
G36*
X16238674Y24696535D02*
G01*
X16276367Y24685101D01*
X16311103Y24666534D01*
X16341548Y24641548D01*
X16366534Y24611103D01*
X16385101Y24576367D01*
X16396535Y24538674D01*
X16401000Y24493339D01*
X16401000Y23406661D01*
X16396535Y23361326D01*
X16385101Y23323633D01*
X16366534Y23288897D01*
X16341548Y23258452D01*
X16311103Y23233466D01*
X16276367Y23214899D01*
X16238674Y23203465D01*
X16193339Y23199000D01*
X15356661Y23199000D01*
X15311326Y23203465D01*
X15273633Y23214899D01*
X15238897Y23233466D01*
X15208452Y23258452D01*
X15183466Y23288897D01*
X15164899Y23323633D01*
X15153465Y23361326D01*
X15149000Y23406661D01*
X15149000Y24493339D01*
X15153465Y24538674D01*
X15164899Y24576367D01*
X15183466Y24611103D01*
X15208452Y24641548D01*
X15238897Y24666534D01*
X15273633Y24685101D01*
X15311326Y24696535D01*
X15356661Y24701000D01*
X16193339Y24701000D01*
X16238674Y24696535D01*
X16238674Y24696535D01*
G37*
G36*
X14188674Y24696535D02*
G01*
X14226367Y24685101D01*
X14261103Y24666534D01*
X14291548Y24641548D01*
X14316534Y24611103D01*
X14335101Y24576367D01*
X14346535Y24538674D01*
X14351000Y24493339D01*
X14351000Y23406661D01*
X14346535Y23361326D01*
X14335101Y23323633D01*
X14316534Y23288897D01*
X14291548Y23258452D01*
X14261103Y23233466D01*
X14226367Y23214899D01*
X14188674Y23203465D01*
X14143339Y23199000D01*
X13306661Y23199000D01*
X13261326Y23203465D01*
X13223633Y23214899D01*
X13188897Y23233466D01*
X13158452Y23258452D01*
X13133466Y23288897D01*
X13114899Y23323633D01*
X13103465Y23361326D01*
X13099000Y23406661D01*
X13099000Y24493339D01*
X13103465Y24538674D01*
X13114899Y24576367D01*
X13133466Y24611103D01*
X13158452Y24641548D01*
X13188897Y24666534D01*
X13223633Y24685101D01*
X13261326Y24696535D01*
X13306661Y24701000D01*
X14143339Y24701000D01*
X14188674Y24696535D01*
X14188674Y24696535D01*
G37*
G36*
X11251143Y25027913D02*
G01*
X11407838Y24963008D01*
X11548853Y24868785D01*
X11668785Y24748853D01*
X11763008Y24607838D01*
X11827913Y24451143D01*
X11861000Y24284802D01*
X11861000Y24115198D01*
X11827913Y23948857D01*
X11763008Y23792162D01*
X11668785Y23651147D01*
X11548853Y23531215D01*
X11407838Y23436992D01*
X11251143Y23372087D01*
X11084802Y23339000D01*
X10915198Y23339000D01*
X10748857Y23372087D01*
X10592162Y23436992D01*
X10451147Y23531215D01*
X10331215Y23651147D01*
X10236992Y23792162D01*
X10172087Y23948857D01*
X10139000Y24115198D01*
X10139000Y24284802D01*
X10172087Y24451143D01*
X10236992Y24607838D01*
X10331215Y24748853D01*
X10451147Y24868785D01*
X10592162Y24963008D01*
X10748857Y25027913D01*
X10915198Y25061000D01*
X11084802Y25061000D01*
X11251143Y25027913D01*
X11251143Y25027913D01*
G37*
G36*
X20888674Y24796535D02*
G01*
X20926367Y24785101D01*
X20961103Y24766534D01*
X20991548Y24741548D01*
X21016534Y24711103D01*
X21035101Y24676367D01*
X21046535Y24638674D01*
X21051000Y24593339D01*
X21051000Y23756661D01*
X21046535Y23711326D01*
X21035101Y23673633D01*
X21016534Y23638897D01*
X20991548Y23608452D01*
X20961103Y23583466D01*
X20926367Y23564899D01*
X20888674Y23553465D01*
X20843339Y23549000D01*
X19756661Y23549000D01*
X19711326Y23553465D01*
X19673633Y23564899D01*
X19638897Y23583466D01*
X19608452Y23608452D01*
X19583466Y23638897D01*
X19564899Y23673633D01*
X19553465Y23711326D01*
X19549000Y23756661D01*
X19549000Y24593339D01*
X19553465Y24638674D01*
X19564899Y24676367D01*
X19583466Y24711103D01*
X19608452Y24741548D01*
X19638897Y24766534D01*
X19673633Y24785101D01*
X19711326Y24796535D01*
X19756661Y24801000D01*
X20843339Y24801000D01*
X20888674Y24796535D01*
X20888674Y24796535D01*
G37*
G36*
X5713674Y25546535D02*
G01*
X5751367Y25535101D01*
X5786103Y25516534D01*
X5816548Y25491548D01*
X5841534Y25461103D01*
X5860101Y25426367D01*
X5871535Y25388674D01*
X5876000Y25343339D01*
X5876000Y24256661D01*
X5871535Y24211326D01*
X5860101Y24173633D01*
X5841534Y24138897D01*
X5816548Y24108452D01*
X5786103Y24083466D01*
X5751367Y24064899D01*
X5713674Y24053465D01*
X5668339Y24049000D01*
X4831661Y24049000D01*
X4786326Y24053465D01*
X4748633Y24064899D01*
X4713897Y24083466D01*
X4683452Y24108452D01*
X4658466Y24138897D01*
X4639899Y24173633D01*
X4628465Y24211326D01*
X4624000Y24256661D01*
X4624000Y25343339D01*
X4628465Y25388674D01*
X4639899Y25426367D01*
X4658466Y25461103D01*
X4683452Y25491548D01*
X4713897Y25516534D01*
X4748633Y25535101D01*
X4786326Y25546535D01*
X4831661Y25551000D01*
X5668339Y25551000D01*
X5713674Y25546535D01*
X5713674Y25546535D01*
G37*
G36*
X3663674Y25546535D02*
G01*
X3701367Y25535101D01*
X3736103Y25516534D01*
X3766548Y25491548D01*
X3791534Y25461103D01*
X3810101Y25426367D01*
X3821535Y25388674D01*
X3826000Y25343339D01*
X3826000Y24256661D01*
X3821535Y24211326D01*
X3810101Y24173633D01*
X3791534Y24138897D01*
X3766548Y24108452D01*
X3736103Y24083466D01*
X3701367Y24064899D01*
X3663674Y24053465D01*
X3618339Y24049000D01*
X2781661Y24049000D01*
X2736326Y24053465D01*
X2698633Y24064899D01*
X2663897Y24083466D01*
X2633452Y24108452D01*
X2608466Y24138897D01*
X2589899Y24173633D01*
X2578465Y24211326D01*
X2574000Y24256661D01*
X2574000Y25343339D01*
X2578465Y25388674D01*
X2589899Y25426367D01*
X2608466Y25461103D01*
X2633452Y25491548D01*
X2663897Y25516534D01*
X2698633Y25535101D01*
X2736326Y25546535D01*
X2781661Y25551000D01*
X3618339Y25551000D01*
X3663674Y25546535D01*
X3663674Y25546535D01*
G37*
G36*
X24251000Y25099000D02*
G01*
X21849000Y25099000D01*
X21849000Y26701000D01*
X24251000Y26701000D01*
X24251000Y25099000D01*
X24251000Y25099000D01*
G37*
G36*
X12501143Y27277913D02*
G01*
X12657838Y27213008D01*
X12798853Y27118785D01*
X12918785Y26998853D01*
X13013008Y26857838D01*
X13077913Y26701143D01*
X13111000Y26534802D01*
X13111000Y26365198D01*
X13077913Y26198857D01*
X13013008Y26042162D01*
X12918785Y25901147D01*
X12798853Y25781215D01*
X12657838Y25686992D01*
X12501143Y25622087D01*
X12334802Y25589000D01*
X12165198Y25589000D01*
X11998857Y25622087D01*
X11842162Y25686992D01*
X11701147Y25781215D01*
X11581215Y25901147D01*
X11486992Y26042162D01*
X11422087Y26198857D01*
X11389000Y26365198D01*
X11389000Y26534802D01*
X11422087Y26701143D01*
X11486992Y26857838D01*
X11581215Y26998853D01*
X11701147Y27118785D01*
X11842162Y27213008D01*
X11998857Y27277913D01*
X12165198Y27311000D01*
X12334802Y27311000D01*
X12501143Y27277913D01*
X12501143Y27277913D01*
G37*
G36*
X20888674Y26846535D02*
G01*
X20926367Y26835101D01*
X20961103Y26816534D01*
X20991548Y26791548D01*
X21016534Y26761103D01*
X21035101Y26726367D01*
X21046535Y26688674D01*
X21051000Y26643339D01*
X21051000Y25806661D01*
X21046535Y25761326D01*
X21035101Y25723633D01*
X21016534Y25688897D01*
X20991548Y25658452D01*
X20961103Y25633466D01*
X20926367Y25614899D01*
X20888674Y25603465D01*
X20843339Y25599000D01*
X19756661Y25599000D01*
X19711326Y25603465D01*
X19673633Y25614899D01*
X19638897Y25633466D01*
X19608452Y25658452D01*
X19583466Y25688897D01*
X19564899Y25723633D01*
X19553465Y25761326D01*
X19549000Y25806661D01*
X19549000Y26643339D01*
X19553465Y26688674D01*
X19564899Y26726367D01*
X19583466Y26761103D01*
X19608452Y26791548D01*
X19638897Y26816534D01*
X19673633Y26835101D01*
X19711326Y26846535D01*
X19756661Y26851000D01*
X20843339Y26851000D01*
X20888674Y26846535D01*
X20888674Y26846535D01*
G37*
G36*
X3663674Y27946535D02*
G01*
X3701367Y27935101D01*
X3736103Y27916534D01*
X3766548Y27891548D01*
X3791534Y27861103D01*
X3810101Y27826367D01*
X3821535Y27788674D01*
X3826000Y27743339D01*
X3826000Y26656661D01*
X3821535Y26611326D01*
X3810101Y26573633D01*
X3791534Y26538897D01*
X3766548Y26508452D01*
X3736103Y26483466D01*
X3701367Y26464899D01*
X3663674Y26453465D01*
X3618339Y26449000D01*
X2781661Y26449000D01*
X2736326Y26453465D01*
X2698633Y26464899D01*
X2663897Y26483466D01*
X2633452Y26508452D01*
X2608466Y26538897D01*
X2589899Y26573633D01*
X2578465Y26611326D01*
X2574000Y26656661D01*
X2574000Y27743339D01*
X2578465Y27788674D01*
X2589899Y27826367D01*
X2608466Y27861103D01*
X2633452Y27891548D01*
X2663897Y27916534D01*
X2698633Y27935101D01*
X2736326Y27946535D01*
X2781661Y27951000D01*
X3618339Y27951000D01*
X3663674Y27946535D01*
X3663674Y27946535D01*
G37*
G36*
X5713674Y27946535D02*
G01*
X5751367Y27935101D01*
X5786103Y27916534D01*
X5816548Y27891548D01*
X5841534Y27861103D01*
X5860101Y27826367D01*
X5871535Y27788674D01*
X5876000Y27743339D01*
X5876000Y26656661D01*
X5871535Y26611326D01*
X5860101Y26573633D01*
X5841534Y26538897D01*
X5816548Y26508452D01*
X5786103Y26483466D01*
X5751367Y26464899D01*
X5713674Y26453465D01*
X5668339Y26449000D01*
X4831661Y26449000D01*
X4786326Y26453465D01*
X4748633Y26464899D01*
X4713897Y26483466D01*
X4683452Y26508452D01*
X4658466Y26538897D01*
X4639899Y26573633D01*
X4628465Y26611326D01*
X4624000Y26656661D01*
X4624000Y27743339D01*
X4628465Y27788674D01*
X4639899Y27826367D01*
X4658466Y27861103D01*
X4683452Y27891548D01*
X4713897Y27916534D01*
X4748633Y27935101D01*
X4786326Y27946535D01*
X4831661Y27951000D01*
X5668339Y27951000D01*
X5713674Y27946535D01*
X5713674Y27946535D01*
G37*
G36*
X16151000Y27049000D02*
G01*
X14349000Y27049000D01*
X14349000Y28851000D01*
X16151000Y28851000D01*
X16151000Y27049000D01*
X16151000Y27049000D01*
G37*
G36*
X10338674Y28796535D02*
G01*
X10376367Y28785101D01*
X10411103Y28766534D01*
X10441548Y28741548D01*
X10466534Y28711103D01*
X10485101Y28676367D01*
X10496535Y28638674D01*
X10501000Y28593339D01*
X10501000Y27756661D01*
X10496535Y27711326D01*
X10485101Y27673633D01*
X10466534Y27638897D01*
X10441548Y27608452D01*
X10411103Y27583466D01*
X10376367Y27564899D01*
X10338674Y27553465D01*
X10293339Y27549000D01*
X9206661Y27549000D01*
X9161326Y27553465D01*
X9123633Y27564899D01*
X9088897Y27583466D01*
X9058452Y27608452D01*
X9033466Y27638897D01*
X9014899Y27673633D01*
X9003465Y27711326D01*
X8999000Y27756661D01*
X8999000Y28593339D01*
X9003465Y28638674D01*
X9014899Y28676367D01*
X9033466Y28711103D01*
X9058452Y28741548D01*
X9088897Y28766534D01*
X9123633Y28785101D01*
X9161326Y28796535D01*
X9206661Y28801000D01*
X10293339Y28801000D01*
X10338674Y28796535D01*
X10338674Y28796535D01*
G37*
G36*
X24681000Y27899000D02*
G01*
X22879000Y27899000D01*
X22879000Y29701000D01*
X24681000Y29701000D01*
X24681000Y27899000D01*
X24681000Y27899000D01*
G37*
G36*
X21350443Y29694481D02*
G01*
X21416627Y29687963D01*
X21586466Y29636443D01*
X21742991Y29552778D01*
X21747594Y29549000D01*
X21880186Y29440186D01*
X21947766Y29357838D01*
X21992778Y29302991D01*
X22076443Y29146466D01*
X22127963Y28976627D01*
X22145359Y28800000D01*
X22127963Y28623373D01*
X22076443Y28453534D01*
X21992778Y28297009D01*
X21979816Y28281215D01*
X21880186Y28159814D01*
X21778729Y28076552D01*
X21742991Y28047222D01*
X21586466Y27963557D01*
X21416627Y27912037D01*
X21350442Y27905518D01*
X21284260Y27899000D01*
X21195740Y27899000D01*
X21129558Y27905518D01*
X21063373Y27912037D01*
X20893534Y27963557D01*
X20737009Y28047222D01*
X20701271Y28076552D01*
X20599814Y28159814D01*
X20500184Y28281215D01*
X20487222Y28297009D01*
X20403557Y28453534D01*
X20352037Y28623373D01*
X20334641Y28800000D01*
X20352037Y28976627D01*
X20403557Y29146466D01*
X20487222Y29302991D01*
X20532234Y29357838D01*
X20599814Y29440186D01*
X20732406Y29549000D01*
X20737009Y29552778D01*
X20893534Y29636443D01*
X21063373Y29687963D01*
X21129557Y29694481D01*
X21195740Y29701000D01*
X21284260Y29701000D01*
X21350443Y29694481D01*
X21350443Y29694481D01*
G37*
G36*
X18810443Y29694481D02*
G01*
X18876627Y29687963D01*
X19046466Y29636443D01*
X19202991Y29552778D01*
X19207594Y29549000D01*
X19340186Y29440186D01*
X19407766Y29357838D01*
X19452778Y29302991D01*
X19536443Y29146466D01*
X19587963Y28976627D01*
X19605359Y28800000D01*
X19587963Y28623373D01*
X19536443Y28453534D01*
X19452778Y28297009D01*
X19439816Y28281215D01*
X19340186Y28159814D01*
X19238729Y28076552D01*
X19202991Y28047222D01*
X19046466Y27963557D01*
X18876627Y27912037D01*
X18810442Y27905518D01*
X18744260Y27899000D01*
X18655740Y27899000D01*
X18589558Y27905518D01*
X18523373Y27912037D01*
X18353534Y27963557D01*
X18197009Y28047222D01*
X18161271Y28076552D01*
X18059814Y28159814D01*
X17960184Y28281215D01*
X17947222Y28297009D01*
X17863557Y28453534D01*
X17812037Y28623373D01*
X17794641Y28800000D01*
X17812037Y28976627D01*
X17863557Y29146466D01*
X17947222Y29302991D01*
X17992234Y29357838D01*
X18059814Y29440186D01*
X18192406Y29549000D01*
X18197009Y29552778D01*
X18353534Y29636443D01*
X18523373Y29687963D01*
X18589557Y29694481D01*
X18655740Y29701000D01*
X18744260Y29701000D01*
X18810443Y29694481D01*
X18810443Y29694481D01*
G37*
G36*
X7501143Y29777913D02*
G01*
X7657838Y29713008D01*
X7798853Y29618785D01*
X7918785Y29498853D01*
X8013008Y29357838D01*
X8077913Y29201143D01*
X8111000Y29034802D01*
X8111000Y28865198D01*
X8077913Y28698857D01*
X8013008Y28542162D01*
X7918785Y28401147D01*
X7798853Y28281215D01*
X7657838Y28186992D01*
X7501143Y28122087D01*
X7334802Y28089000D01*
X7165198Y28089000D01*
X6998857Y28122087D01*
X6842162Y28186992D01*
X6701147Y28281215D01*
X6581215Y28401147D01*
X6486992Y28542162D01*
X6422087Y28698857D01*
X6389000Y28865198D01*
X6389000Y29034802D01*
X6422087Y29201143D01*
X6486992Y29357838D01*
X6581215Y29498853D01*
X6701147Y29618785D01*
X6842162Y29713008D01*
X6998857Y29777913D01*
X7165198Y29811000D01*
X7334802Y29811000D01*
X7501143Y29777913D01*
X7501143Y29777913D01*
G37*
G36*
X2277395Y30864454D02*
G01*
X2450466Y30792766D01*
X2467753Y30781215D01*
X2606227Y30688690D01*
X2738690Y30556227D01*
X2738691Y30556225D01*
X2842766Y30400466D01*
X2914454Y30227395D01*
X2951000Y30043667D01*
X2951000Y29856333D01*
X2914454Y29672605D01*
X2842766Y29499534D01*
X2842765Y29499533D01*
X2738690Y29343773D01*
X2606227Y29211310D01*
X2591012Y29201144D01*
X2450466Y29107234D01*
X2277395Y29035546D01*
X2093667Y28999000D01*
X1906333Y28999000D01*
X1722605Y29035546D01*
X1549534Y29107234D01*
X1408988Y29201144D01*
X1393773Y29211310D01*
X1261310Y29343773D01*
X1157235Y29499533D01*
X1157234Y29499534D01*
X1085546Y29672605D01*
X1049000Y29856333D01*
X1049000Y30043667D01*
X1085546Y30227395D01*
X1157234Y30400466D01*
X1261309Y30556225D01*
X1261310Y30556227D01*
X1393773Y30688690D01*
X1532247Y30781215D01*
X1549534Y30792766D01*
X1722605Y30864454D01*
X1906333Y30901000D01*
X2093667Y30901000D01*
X2277395Y30864454D01*
X2277395Y30864454D01*
G37*
G36*
X5491000Y28999000D02*
G01*
X3589000Y28999000D01*
X3589000Y30901000D01*
X5491000Y30901000D01*
X5491000Y28999000D01*
X5491000Y28999000D01*
G37*
G36*
X28224549Y31828884D02*
G01*
X28335734Y31806768D01*
X28545203Y31720003D01*
X28733720Y31594040D01*
X28894040Y31433720D01*
X29020003Y31245203D01*
X29020004Y31245201D01*
X29039200Y31198857D01*
X29104105Y31042164D01*
X29106768Y31035733D01*
X29150370Y30816534D01*
X29151000Y30813364D01*
X29151000Y30586636D01*
X29106768Y30364266D01*
X29020003Y30154797D01*
X28894040Y29966280D01*
X28733720Y29805960D01*
X28545203Y29679997D01*
X28545202Y29679996D01*
X28545201Y29679996D01*
X28527357Y29672605D01*
X28335734Y29593232D01*
X28224549Y29571116D01*
X28113365Y29549000D01*
X27886635Y29549000D01*
X27775451Y29571116D01*
X27664266Y29593232D01*
X27472643Y29672605D01*
X27454799Y29679996D01*
X27454798Y29679996D01*
X27454797Y29679997D01*
X27266280Y29805960D01*
X27105960Y29966280D01*
X26979997Y30154797D01*
X26893232Y30364266D01*
X26849000Y30586636D01*
X26849000Y30813364D01*
X26849631Y30816534D01*
X26893232Y31035733D01*
X26895896Y31042164D01*
X26960800Y31198857D01*
X26979996Y31245201D01*
X26979997Y31245203D01*
X27105960Y31433720D01*
X27266280Y31594040D01*
X27454797Y31720003D01*
X27664266Y31806768D01*
X27775451Y31828884D01*
X27886635Y31851000D01*
X28113365Y31851000D01*
X28224549Y31828884D01*
X28224549Y31828884D01*
G37*
G36*
X15360443Y31384481D02*
G01*
X15426627Y31377963D01*
X15596466Y31326443D01*
X15752991Y31242778D01*
X15788729Y31213448D01*
X15890186Y31130186D01*
X15967700Y31035733D01*
X16002778Y30992991D01*
X16086443Y30836466D01*
X16137963Y30666627D01*
X16155359Y30490000D01*
X16137963Y30313373D01*
X16086443Y30143534D01*
X16002778Y29987009D01*
X15985767Y29966281D01*
X15890186Y29849814D01*
X15802573Y29777913D01*
X15752991Y29737222D01*
X15596466Y29653557D01*
X15426627Y29602037D01*
X15360442Y29595518D01*
X15294260Y29589000D01*
X15205740Y29589000D01*
X15139558Y29595518D01*
X15073373Y29602037D01*
X14903534Y29653557D01*
X14747009Y29737222D01*
X14697427Y29777913D01*
X14609814Y29849814D01*
X14514233Y29966281D01*
X14497222Y29987009D01*
X14413557Y30143534D01*
X14362037Y30313373D01*
X14344641Y30490000D01*
X14362037Y30666627D01*
X14413557Y30836466D01*
X14497222Y30992991D01*
X14532300Y31035733D01*
X14609814Y31130186D01*
X14711271Y31213448D01*
X14747009Y31242778D01*
X14903534Y31326443D01*
X15073373Y31377963D01*
X15139557Y31384481D01*
X15205740Y31391000D01*
X15294260Y31391000D01*
X15360443Y31384481D01*
X15360443Y31384481D01*
G37*
G36*
X10338674Y30846535D02*
G01*
X10376367Y30835101D01*
X10411103Y30816534D01*
X10441548Y30791548D01*
X10466534Y30761103D01*
X10485101Y30726367D01*
X10496535Y30688674D01*
X10501000Y30643339D01*
X10501000Y29806661D01*
X10496535Y29761326D01*
X10485101Y29723633D01*
X10466534Y29688897D01*
X10441548Y29658452D01*
X10411103Y29633466D01*
X10376367Y29614899D01*
X10338674Y29603465D01*
X10293339Y29599000D01*
X9206661Y29599000D01*
X9161326Y29603465D01*
X9123633Y29614899D01*
X9088897Y29633466D01*
X9058452Y29658452D01*
X9033466Y29688897D01*
X9014899Y29723633D01*
X9003465Y29761326D01*
X8999000Y29806661D01*
X8999000Y30643339D01*
X9003465Y30688674D01*
X9014899Y30726367D01*
X9033466Y30761103D01*
X9058452Y30791548D01*
X9088897Y30816534D01*
X9123633Y30835101D01*
X9161326Y30846535D01*
X9206661Y30851000D01*
X10293339Y30851000D01*
X10338674Y30846535D01*
X10338674Y30846535D01*
G37*
G36*
X12501143Y32277913D02*
G01*
X12657838Y32213008D01*
X12798853Y32118785D01*
X12918785Y31998853D01*
X13013008Y31857838D01*
X13077913Y31701143D01*
X13111000Y31534802D01*
X13111000Y31365198D01*
X13077913Y31198857D01*
X13013008Y31042162D01*
X12918785Y30901147D01*
X12798853Y30781215D01*
X12657838Y30686992D01*
X12501143Y30622087D01*
X12334802Y30589000D01*
X12165198Y30589000D01*
X11998857Y30622087D01*
X11842162Y30686992D01*
X11701147Y30781215D01*
X11581215Y30901147D01*
X11486992Y31042162D01*
X11422087Y31198857D01*
X11389000Y31365198D01*
X11389000Y31534802D01*
X11422087Y31701143D01*
X11486992Y31857838D01*
X11581215Y31998853D01*
X11701147Y32118785D01*
X11842162Y32213008D01*
X11998857Y32277913D01*
X12165198Y32311000D01*
X12334802Y32311000D01*
X12501143Y32277913D01*
X12501143Y32277913D01*
G37*
M02*
