G04 #@! TF.GenerationSoftware,KiCad,Pcbnew,(5.1.4)-1*
G04 #@! TF.CreationDate,2020-02-16T08:15:50-07:00*
G04 #@! TF.ProjectId,LightGate,4c696768-7447-4617-9465-2e6b69636164,rev?*
G04 #@! TF.SameCoordinates,PX52f83c0PY1b5ed60*
G04 #@! TF.FileFunction,Soldermask,Bot*
G04 #@! TF.FilePolarity,Negative*
%FSLAX46Y46*%
G04 Gerber Fmt 4.6, Leading zero omitted, Abs format (unit mm)*
G04 Created by KiCad (PCBNEW (5.1.4)-1) date 2020-02-16 08:15:50*
%MOMM*%
%LPD*%
G04 APERTURE LIST*
%ADD10C,0.100000*%
G04 APERTURE END LIST*
D10*
G36*
X7251143Y2527913D02*
G01*
X7407838Y2463008D01*
X7548853Y2368785D01*
X7668785Y2248853D01*
X7763008Y2107838D01*
X7827913Y1951143D01*
X7861000Y1784802D01*
X7861000Y1615198D01*
X7827913Y1448857D01*
X7763008Y1292162D01*
X7668785Y1151147D01*
X7548853Y1031215D01*
X7407838Y936992D01*
X7251143Y872087D01*
X7084802Y839000D01*
X6915198Y839000D01*
X6748857Y872087D01*
X6592162Y936992D01*
X6451147Y1031215D01*
X6331215Y1151147D01*
X6236992Y1292162D01*
X6172087Y1448857D01*
X6139000Y1615198D01*
X6139000Y1784802D01*
X6172087Y1951143D01*
X6236992Y2107838D01*
X6331215Y2248853D01*
X6451147Y2368785D01*
X6592162Y2463008D01*
X6748857Y2527913D01*
X6915198Y2561000D01*
X7084802Y2561000D01*
X7251143Y2527913D01*
X7251143Y2527913D01*
G37*
G36*
X28224549Y4328884D02*
G01*
X28335734Y4306768D01*
X28545203Y4220003D01*
X28733720Y4094040D01*
X28894040Y3933720D01*
X29020003Y3745203D01*
X29106768Y3535734D01*
X29151000Y3313364D01*
X29151000Y3086636D01*
X29106768Y2864266D01*
X29020003Y2654797D01*
X28894040Y2466280D01*
X28733720Y2305960D01*
X28545203Y2179997D01*
X28335734Y2093232D01*
X28224549Y2071116D01*
X28113365Y2049000D01*
X27886635Y2049000D01*
X27775451Y2071116D01*
X27664266Y2093232D01*
X27454797Y2179997D01*
X27266280Y2305960D01*
X27105960Y2466280D01*
X26979997Y2654797D01*
X26893232Y2864266D01*
X26849000Y3086636D01*
X26849000Y3313364D01*
X26893232Y3535734D01*
X26979997Y3745203D01*
X27105960Y3933720D01*
X27266280Y4094040D01*
X27454797Y4220003D01*
X27664266Y4306768D01*
X27775451Y4328884D01*
X27886635Y4351000D01*
X28113365Y4351000D01*
X28224549Y4328884D01*
X28224549Y4328884D01*
G37*
G36*
X2237395Y4614454D02*
G01*
X2410466Y4542766D01*
X2410467Y4542765D01*
X2566227Y4438690D01*
X2698690Y4306227D01*
X2713006Y4284801D01*
X2802766Y4150466D01*
X2874454Y3977395D01*
X2911000Y3793667D01*
X2911000Y3606333D01*
X2874454Y3422605D01*
X2802766Y3249534D01*
X2802765Y3249533D01*
X2698690Y3093773D01*
X2566227Y2961310D01*
X2487818Y2908919D01*
X2410466Y2857234D01*
X2237395Y2785546D01*
X2053667Y2749000D01*
X1866333Y2749000D01*
X1682605Y2785546D01*
X1509534Y2857234D01*
X1432182Y2908919D01*
X1353773Y2961310D01*
X1221310Y3093773D01*
X1117235Y3249533D01*
X1117234Y3249534D01*
X1045546Y3422605D01*
X1009000Y3606333D01*
X1009000Y3793667D01*
X1045546Y3977395D01*
X1117234Y4150466D01*
X1206994Y4284801D01*
X1221310Y4306227D01*
X1353773Y4438690D01*
X1509533Y4542765D01*
X1509534Y4542766D01*
X1682605Y4614454D01*
X1866333Y4651000D01*
X2053667Y4651000D01*
X2237395Y4614454D01*
X2237395Y4614454D01*
G37*
G36*
X5451000Y2749000D02*
G01*
X3549000Y2749000D01*
X3549000Y4651000D01*
X5451000Y4651000D01*
X5451000Y2749000D01*
X5451000Y2749000D01*
G37*
G36*
X15110443Y4554481D02*
G01*
X15176627Y4547963D01*
X15346466Y4496443D01*
X15502991Y4412778D01*
X15538729Y4383448D01*
X15640186Y4300186D01*
X15723448Y4198729D01*
X15752778Y4162991D01*
X15836443Y4006466D01*
X15887963Y3836627D01*
X15905359Y3660000D01*
X15887963Y3483373D01*
X15844168Y3339000D01*
X15836442Y3313532D01*
X15794610Y3235271D01*
X15752778Y3157009D01*
X15723448Y3121271D01*
X15640186Y3019814D01*
X15568896Y2961309D01*
X15502991Y2907222D01*
X15346466Y2823557D01*
X15176627Y2772037D01*
X15110443Y2765519D01*
X15044260Y2759000D01*
X14955740Y2759000D01*
X14889558Y2765518D01*
X14823373Y2772037D01*
X14653534Y2823557D01*
X14497009Y2907222D01*
X14431104Y2961309D01*
X14359814Y3019814D01*
X14276552Y3121271D01*
X14247222Y3157009D01*
X14205390Y3235271D01*
X14163558Y3313532D01*
X14155832Y3339000D01*
X14112037Y3483373D01*
X14094641Y3660000D01*
X14112037Y3836627D01*
X14163557Y4006466D01*
X14247222Y4162991D01*
X14276552Y4198729D01*
X14359814Y4300186D01*
X14461271Y4383448D01*
X14497009Y4412778D01*
X14653534Y4496443D01*
X14823373Y4547963D01*
X14889557Y4554481D01*
X14955740Y4561000D01*
X15044260Y4561000D01*
X15110443Y4554481D01*
X15110443Y4554481D01*
G37*
G36*
X12251143Y5027913D02*
G01*
X12407838Y4963008D01*
X12548853Y4868785D01*
X12668785Y4748853D01*
X12763008Y4607838D01*
X12827913Y4451143D01*
X12861000Y4284802D01*
X12861000Y4115198D01*
X12827913Y3948857D01*
X12763008Y3792162D01*
X12668785Y3651147D01*
X12548853Y3531215D01*
X12407838Y3436992D01*
X12251143Y3372087D01*
X12084802Y3339000D01*
X11915198Y3339000D01*
X11748857Y3372087D01*
X11592162Y3436992D01*
X11451147Y3531215D01*
X11331215Y3651147D01*
X11236992Y3792162D01*
X11172087Y3948857D01*
X11139000Y4115198D01*
X11139000Y4284802D01*
X11172087Y4451143D01*
X11236992Y4607838D01*
X11331215Y4748853D01*
X11451147Y4868785D01*
X11592162Y4963008D01*
X11748857Y5027913D01*
X11915198Y5061000D01*
X12084802Y5061000D01*
X12251143Y5027913D01*
X12251143Y5027913D01*
G37*
G36*
X15901000Y5299000D02*
G01*
X14099000Y5299000D01*
X14099000Y7101000D01*
X15901000Y7101000D01*
X15901000Y5299000D01*
X15901000Y5299000D01*
G37*
G36*
X7251143Y7527913D02*
G01*
X7407838Y7463008D01*
X7548853Y7368785D01*
X7668785Y7248853D01*
X7763008Y7107838D01*
X7827913Y6951143D01*
X7861000Y6784802D01*
X7861000Y6615198D01*
X7827913Y6448857D01*
X7763008Y6292162D01*
X7668785Y6151147D01*
X7548853Y6031215D01*
X7407838Y5936992D01*
X7251143Y5872087D01*
X7084802Y5839000D01*
X6915198Y5839000D01*
X6748857Y5872087D01*
X6592162Y5936992D01*
X6451147Y6031215D01*
X6331215Y6151147D01*
X6236992Y6292162D01*
X6172087Y6448857D01*
X6139000Y6615198D01*
X6139000Y6784802D01*
X6172087Y6951143D01*
X6236992Y7107838D01*
X6331215Y7248853D01*
X6451147Y7368785D01*
X6592162Y7463008D01*
X6748857Y7527913D01*
X6915198Y7561000D01*
X7084802Y7561000D01*
X7251143Y7527913D01*
X7251143Y7527913D01*
G37*
G36*
X10751143Y10027913D02*
G01*
X10907838Y9963008D01*
X11048853Y9868785D01*
X11168785Y9748853D01*
X11263008Y9607838D01*
X11327913Y9451143D01*
X11361000Y9284802D01*
X11361000Y9115198D01*
X11327913Y8948857D01*
X11263008Y8792162D01*
X11168785Y8651147D01*
X11048853Y8531215D01*
X10907838Y8436992D01*
X10751143Y8372087D01*
X10584802Y8339000D01*
X10415198Y8339000D01*
X10248857Y8372087D01*
X10092162Y8436992D01*
X9951147Y8531215D01*
X9831215Y8651147D01*
X9736992Y8792162D01*
X9672087Y8948857D01*
X9639000Y9115198D01*
X9639000Y9284802D01*
X9672087Y9451143D01*
X9736992Y9607838D01*
X9831215Y9748853D01*
X9951147Y9868785D01*
X10092162Y9963008D01*
X10248857Y10027913D01*
X10415198Y10061000D01*
X10584802Y10061000D01*
X10751143Y10027913D01*
X10751143Y10027913D01*
G37*
G36*
X8401000Y9299000D02*
G01*
X6599000Y9299000D01*
X6599000Y11101000D01*
X8401000Y11101000D01*
X8401000Y9299000D01*
X8401000Y9299000D01*
G37*
G36*
X15751143Y12527913D02*
G01*
X15907838Y12463008D01*
X16048853Y12368785D01*
X16168785Y12248853D01*
X16263008Y12107838D01*
X16327913Y11951143D01*
X16361000Y11784802D01*
X16361000Y11615198D01*
X16327913Y11448857D01*
X16263008Y11292162D01*
X16168785Y11151147D01*
X16048853Y11031215D01*
X15907838Y10936992D01*
X15751143Y10872087D01*
X15584802Y10839000D01*
X15415198Y10839000D01*
X15248857Y10872087D01*
X15092162Y10936992D01*
X14951147Y11031215D01*
X14831215Y11151147D01*
X14736992Y11292162D01*
X14672087Y11448857D01*
X14639000Y11615198D01*
X14639000Y11784802D01*
X14672087Y11951143D01*
X14736992Y12107838D01*
X14831215Y12248853D01*
X14951147Y12368785D01*
X15092162Y12463008D01*
X15248857Y12527913D01*
X15415198Y12561000D01*
X15584802Y12561000D01*
X15751143Y12527913D01*
X15751143Y12527913D01*
G37*
G36*
X5451000Y10999000D02*
G01*
X3549000Y10999000D01*
X3549000Y12901000D01*
X5451000Y12901000D01*
X5451000Y10999000D01*
X5451000Y10999000D01*
G37*
G36*
X2237395Y12864454D02*
G01*
X2410466Y12792766D01*
X2410467Y12792765D01*
X2566227Y12688690D01*
X2698690Y12556227D01*
X2698691Y12556225D01*
X2802766Y12400466D01*
X2874454Y12227395D01*
X2911000Y12043667D01*
X2911000Y11856333D01*
X2874454Y11672605D01*
X2802766Y11499534D01*
X2802765Y11499533D01*
X2698690Y11343773D01*
X2566227Y11211310D01*
X2487818Y11158919D01*
X2410466Y11107234D01*
X2237395Y11035546D01*
X2053667Y10999000D01*
X1866333Y10999000D01*
X1682605Y11035546D01*
X1509534Y11107234D01*
X1432182Y11158919D01*
X1353773Y11211310D01*
X1221310Y11343773D01*
X1117235Y11499533D01*
X1117234Y11499534D01*
X1045546Y11672605D01*
X1009000Y11856333D01*
X1009000Y12043667D01*
X1045546Y12227395D01*
X1117234Y12400466D01*
X1221309Y12556225D01*
X1221310Y12556227D01*
X1353773Y12688690D01*
X1509533Y12792765D01*
X1509534Y12792766D01*
X1682605Y12864454D01*
X1866333Y12901000D01*
X2053667Y12901000D01*
X2237395Y12864454D01*
X2237395Y12864454D01*
G37*
G36*
X7610442Y13634482D02*
G01*
X7676627Y13627963D01*
X7846466Y13576443D01*
X8002991Y13492778D01*
X8038729Y13463448D01*
X8140186Y13380186D01*
X8223448Y13278729D01*
X8252778Y13242991D01*
X8336443Y13086466D01*
X8387963Y12916627D01*
X8405359Y12740000D01*
X8387963Y12563373D01*
X8336443Y12393534D01*
X8252778Y12237009D01*
X8223448Y12201271D01*
X8140186Y12099814D01*
X8071767Y12043665D01*
X8002991Y11987222D01*
X7846466Y11903557D01*
X7676627Y11852037D01*
X7610442Y11845518D01*
X7544260Y11839000D01*
X7455740Y11839000D01*
X7389558Y11845518D01*
X7323373Y11852037D01*
X7153534Y11903557D01*
X6997009Y11987222D01*
X6928233Y12043665D01*
X6859814Y12099814D01*
X6776552Y12201271D01*
X6747222Y12237009D01*
X6663557Y12393534D01*
X6612037Y12563373D01*
X6594641Y12740000D01*
X6612037Y12916627D01*
X6663557Y13086466D01*
X6747222Y13242991D01*
X6776552Y13278729D01*
X6859814Y13380186D01*
X6961271Y13463448D01*
X6997009Y13492778D01*
X7153534Y13576443D01*
X7323373Y13627963D01*
X7389558Y13634482D01*
X7455740Y13641000D01*
X7544260Y13641000D01*
X7610442Y13634482D01*
X7610442Y13634482D01*
G37*
G36*
X10751143Y15027913D02*
G01*
X10907838Y14963008D01*
X11048853Y14868785D01*
X11168785Y14748853D01*
X11263008Y14607838D01*
X11327913Y14451143D01*
X11361000Y14284802D01*
X11361000Y14115198D01*
X11327913Y13948857D01*
X11263008Y13792162D01*
X11168785Y13651147D01*
X11048853Y13531215D01*
X10907838Y13436992D01*
X10751143Y13372087D01*
X10584802Y13339000D01*
X10415198Y13339000D01*
X10248857Y13372087D01*
X10092162Y13436992D01*
X9951147Y13531215D01*
X9831215Y13651147D01*
X9736992Y13792162D01*
X9672087Y13948857D01*
X9639000Y14115198D01*
X9639000Y14284802D01*
X9672087Y14451143D01*
X9736992Y14607838D01*
X9831215Y14748853D01*
X9951147Y14868785D01*
X10092162Y14963008D01*
X10248857Y15027913D01*
X10415198Y15061000D01*
X10584802Y15061000D01*
X10751143Y15027913D01*
X10751143Y15027913D01*
G37*
G36*
X23110442Y16094482D02*
G01*
X23176627Y16087963D01*
X23346466Y16036443D01*
X23502991Y15952778D01*
X23538729Y15923448D01*
X23640186Y15840186D01*
X23723448Y15738729D01*
X23752778Y15702991D01*
X23836443Y15546466D01*
X23887963Y15376627D01*
X23905359Y15200000D01*
X23887963Y15023373D01*
X23836443Y14853534D01*
X23752778Y14697009D01*
X23723448Y14661271D01*
X23640186Y14559814D01*
X23538729Y14476552D01*
X23502991Y14447222D01*
X23346466Y14363557D01*
X23176627Y14312037D01*
X23110442Y14305518D01*
X23044260Y14299000D01*
X22955740Y14299000D01*
X22889558Y14305518D01*
X22823373Y14312037D01*
X22653534Y14363557D01*
X22497009Y14447222D01*
X22461271Y14476552D01*
X22359814Y14559814D01*
X22276552Y14661271D01*
X22247222Y14697009D01*
X22163557Y14853534D01*
X22112037Y15023373D01*
X22094641Y15200000D01*
X22112037Y15376627D01*
X22163557Y15546466D01*
X22247222Y15702991D01*
X22276552Y15738729D01*
X22359814Y15840186D01*
X22461271Y15923448D01*
X22497009Y15952778D01*
X22653534Y16036443D01*
X22823373Y16087963D01*
X22889557Y16094481D01*
X22955740Y16101000D01*
X23044260Y16101000D01*
X23110442Y16094482D01*
X23110442Y16094482D01*
G37*
G36*
X25650442Y16094482D02*
G01*
X25716627Y16087963D01*
X25886466Y16036443D01*
X26042991Y15952778D01*
X26078729Y15923448D01*
X26180186Y15840186D01*
X26263448Y15738729D01*
X26292778Y15702991D01*
X26376443Y15546466D01*
X26427963Y15376627D01*
X26445359Y15200000D01*
X26427963Y15023373D01*
X26376443Y14853534D01*
X26292778Y14697009D01*
X26263448Y14661271D01*
X26180186Y14559814D01*
X26078729Y14476552D01*
X26042991Y14447222D01*
X25886466Y14363557D01*
X25716627Y14312037D01*
X25650442Y14305518D01*
X25584260Y14299000D01*
X25495740Y14299000D01*
X25429558Y14305518D01*
X25363373Y14312037D01*
X25193534Y14363557D01*
X25037009Y14447222D01*
X25001271Y14476552D01*
X24899814Y14559814D01*
X24816552Y14661271D01*
X24787222Y14697009D01*
X24703557Y14853534D01*
X24652037Y15023373D01*
X24634641Y15200000D01*
X24652037Y15376627D01*
X24703557Y15546466D01*
X24787222Y15702991D01*
X24816552Y15738729D01*
X24899814Y15840186D01*
X25001271Y15923448D01*
X25037009Y15952778D01*
X25193534Y16036443D01*
X25363373Y16087963D01*
X25429557Y16094481D01*
X25495740Y16101000D01*
X25584260Y16101000D01*
X25650442Y16094482D01*
X25650442Y16094482D01*
G37*
G36*
X25650443Y18634481D02*
G01*
X25716627Y18627963D01*
X25886466Y18576443D01*
X26042991Y18492778D01*
X26078729Y18463448D01*
X26180186Y18380186D01*
X26263448Y18278729D01*
X26292778Y18242991D01*
X26376443Y18086466D01*
X26427963Y17916627D01*
X26445359Y17740000D01*
X26427963Y17563373D01*
X26376443Y17393534D01*
X26292778Y17237009D01*
X26263448Y17201271D01*
X26180186Y17099814D01*
X26078729Y17016552D01*
X26042991Y16987222D01*
X25886466Y16903557D01*
X25716627Y16852037D01*
X25650443Y16845519D01*
X25584260Y16839000D01*
X25495740Y16839000D01*
X25429558Y16845518D01*
X25363373Y16852037D01*
X25193534Y16903557D01*
X25037009Y16987222D01*
X25001271Y17016552D01*
X24899814Y17099814D01*
X24816552Y17201271D01*
X24787222Y17237009D01*
X24703557Y17393534D01*
X24652037Y17563373D01*
X24634641Y17740000D01*
X24652037Y17916627D01*
X24703557Y18086466D01*
X24787222Y18242991D01*
X24816552Y18278729D01*
X24899814Y18380186D01*
X25001271Y18463448D01*
X25037009Y18492778D01*
X25193534Y18576443D01*
X25363373Y18627963D01*
X25429557Y18634481D01*
X25495740Y18641000D01*
X25584260Y18641000D01*
X25650443Y18634481D01*
X25650443Y18634481D01*
G37*
G36*
X23110443Y18634481D02*
G01*
X23176627Y18627963D01*
X23346466Y18576443D01*
X23502991Y18492778D01*
X23538729Y18463448D01*
X23640186Y18380186D01*
X23723448Y18278729D01*
X23752778Y18242991D01*
X23836443Y18086466D01*
X23887963Y17916627D01*
X23905359Y17740000D01*
X23887963Y17563373D01*
X23836443Y17393534D01*
X23752778Y17237009D01*
X23723448Y17201271D01*
X23640186Y17099814D01*
X23538729Y17016552D01*
X23502991Y16987222D01*
X23346466Y16903557D01*
X23176627Y16852037D01*
X23110443Y16845519D01*
X23044260Y16839000D01*
X22955740Y16839000D01*
X22889558Y16845518D01*
X22823373Y16852037D01*
X22653534Y16903557D01*
X22497009Y16987222D01*
X22461271Y17016552D01*
X22359814Y17099814D01*
X22276552Y17201271D01*
X22247222Y17237009D01*
X22163557Y17393534D01*
X22112037Y17563373D01*
X22094641Y17740000D01*
X22112037Y17916627D01*
X22163557Y18086466D01*
X22247222Y18242991D01*
X22276552Y18278729D01*
X22359814Y18380186D01*
X22461271Y18463448D01*
X22497009Y18492778D01*
X22653534Y18576443D01*
X22823373Y18627963D01*
X22889557Y18634481D01*
X22955740Y18641000D01*
X23044260Y18641000D01*
X23110443Y18634481D01*
X23110443Y18634481D01*
G37*
G36*
X11251143Y20027913D02*
G01*
X11407838Y19963008D01*
X11548853Y19868785D01*
X11668785Y19748853D01*
X11763008Y19607838D01*
X11827913Y19451143D01*
X11861000Y19284802D01*
X11861000Y19115198D01*
X11827913Y18948857D01*
X11763008Y18792162D01*
X11668785Y18651147D01*
X11548853Y18531215D01*
X11407838Y18436992D01*
X11251143Y18372087D01*
X11084802Y18339000D01*
X10915198Y18339000D01*
X10748857Y18372087D01*
X10592162Y18436992D01*
X10451147Y18531215D01*
X10331215Y18651147D01*
X10236992Y18792162D01*
X10172087Y18948857D01*
X10139000Y19115198D01*
X10139000Y19284802D01*
X10172087Y19451143D01*
X10236992Y19607838D01*
X10331215Y19748853D01*
X10451147Y19868785D01*
X10592162Y19963008D01*
X10748857Y20027913D01*
X10915198Y20061000D01*
X11084802Y20061000D01*
X11251143Y20027913D01*
X11251143Y20027913D01*
G37*
G36*
X25650443Y21174481D02*
G01*
X25716627Y21167963D01*
X25886466Y21116443D01*
X26042991Y21032778D01*
X26078729Y21003448D01*
X26180186Y20920186D01*
X26263448Y20818729D01*
X26292778Y20782991D01*
X26376443Y20626466D01*
X26427963Y20456627D01*
X26445359Y20280000D01*
X26427963Y20103373D01*
X26376443Y19933534D01*
X26292778Y19777009D01*
X26269673Y19748856D01*
X26180186Y19639814D01*
X26078729Y19556552D01*
X26042991Y19527222D01*
X25886466Y19443557D01*
X25716627Y19392037D01*
X25650443Y19385519D01*
X25584260Y19379000D01*
X25495740Y19379000D01*
X25429558Y19385518D01*
X25363373Y19392037D01*
X25193534Y19443557D01*
X25037009Y19527222D01*
X25001271Y19556552D01*
X24899814Y19639814D01*
X24810327Y19748856D01*
X24787222Y19777009D01*
X24703557Y19933534D01*
X24652037Y20103373D01*
X24634641Y20280000D01*
X24652037Y20456627D01*
X24703557Y20626466D01*
X24787222Y20782991D01*
X24816552Y20818729D01*
X24899814Y20920186D01*
X25001271Y21003448D01*
X25037009Y21032778D01*
X25193534Y21116443D01*
X25363373Y21167963D01*
X25429557Y21174481D01*
X25495740Y21181000D01*
X25584260Y21181000D01*
X25650443Y21174481D01*
X25650443Y21174481D01*
G37*
G36*
X23110443Y21174481D02*
G01*
X23176627Y21167963D01*
X23346466Y21116443D01*
X23502991Y21032778D01*
X23538729Y21003448D01*
X23640186Y20920186D01*
X23723448Y20818729D01*
X23752778Y20782991D01*
X23836443Y20626466D01*
X23887963Y20456627D01*
X23905359Y20280000D01*
X23887963Y20103373D01*
X23836443Y19933534D01*
X23752778Y19777009D01*
X23729673Y19748856D01*
X23640186Y19639814D01*
X23538729Y19556552D01*
X23502991Y19527222D01*
X23346466Y19443557D01*
X23176627Y19392037D01*
X23110443Y19385519D01*
X23044260Y19379000D01*
X22955740Y19379000D01*
X22889558Y19385518D01*
X22823373Y19392037D01*
X22653534Y19443557D01*
X22497009Y19527222D01*
X22461271Y19556552D01*
X22359814Y19639814D01*
X22270327Y19748856D01*
X22247222Y19777009D01*
X22163557Y19933534D01*
X22112037Y20103373D01*
X22094641Y20280000D01*
X22112037Y20456627D01*
X22163557Y20626466D01*
X22247222Y20782991D01*
X22276552Y20818729D01*
X22359814Y20920186D01*
X22461271Y21003448D01*
X22497009Y21032778D01*
X22653534Y21116443D01*
X22823373Y21167963D01*
X22889557Y21174481D01*
X22955740Y21181000D01*
X23044260Y21181000D01*
X23110443Y21174481D01*
X23110443Y21174481D01*
G37*
G36*
X7610443Y21804481D02*
G01*
X7676627Y21797963D01*
X7846466Y21746443D01*
X8002991Y21662778D01*
X8038729Y21633448D01*
X8140186Y21550186D01*
X8223343Y21448857D01*
X8252778Y21412991D01*
X8336443Y21256466D01*
X8387963Y21086627D01*
X8405359Y20910000D01*
X8387963Y20733373D01*
X8336443Y20563534D01*
X8252778Y20407009D01*
X8223448Y20371271D01*
X8140186Y20269814D01*
X8038729Y20186552D01*
X8002991Y20157222D01*
X7846466Y20073557D01*
X7676627Y20022037D01*
X7610442Y20015518D01*
X7544260Y20009000D01*
X7455740Y20009000D01*
X7389558Y20015518D01*
X7323373Y20022037D01*
X7153534Y20073557D01*
X6997009Y20157222D01*
X6961271Y20186552D01*
X6859814Y20269814D01*
X6776552Y20371271D01*
X6747222Y20407009D01*
X6663557Y20563534D01*
X6612037Y20733373D01*
X6594641Y20910000D01*
X6612037Y21086627D01*
X6663557Y21256466D01*
X6747222Y21412991D01*
X6776657Y21448857D01*
X6859814Y21550186D01*
X6961271Y21633448D01*
X6997009Y21662778D01*
X7153534Y21746443D01*
X7323373Y21797963D01*
X7389557Y21804481D01*
X7455740Y21811000D01*
X7544260Y21811000D01*
X7610443Y21804481D01*
X7610443Y21804481D01*
G37*
G36*
X5491000Y20499000D02*
G01*
X3589000Y20499000D01*
X3589000Y22401000D01*
X5491000Y22401000D01*
X5491000Y20499000D01*
X5491000Y20499000D01*
G37*
G36*
X2277395Y22364454D02*
G01*
X2450466Y22292766D01*
X2450467Y22292765D01*
X2606227Y22188690D01*
X2738690Y22056227D01*
X2738691Y22056225D01*
X2842766Y21900466D01*
X2914454Y21727395D01*
X2951000Y21543667D01*
X2951000Y21356333D01*
X2914454Y21172605D01*
X2842766Y20999534D01*
X2842765Y20999533D01*
X2738690Y20843773D01*
X2606227Y20711310D01*
X2527818Y20658919D01*
X2450466Y20607234D01*
X2277395Y20535546D01*
X2093667Y20499000D01*
X1906333Y20499000D01*
X1722605Y20535546D01*
X1549534Y20607234D01*
X1472182Y20658919D01*
X1393773Y20711310D01*
X1261310Y20843773D01*
X1157235Y20999533D01*
X1157234Y20999534D01*
X1085546Y21172605D01*
X1049000Y21356333D01*
X1049000Y21543667D01*
X1085546Y21727395D01*
X1157234Y21900466D01*
X1261309Y22056225D01*
X1261310Y22056227D01*
X1393773Y22188690D01*
X1549533Y22292765D01*
X1549534Y22292766D01*
X1722605Y22364454D01*
X1906333Y22401000D01*
X2093667Y22401000D01*
X2277395Y22364454D01*
X2277395Y22364454D01*
G37*
G36*
X16251143Y22527913D02*
G01*
X16407838Y22463008D01*
X16548853Y22368785D01*
X16668785Y22248853D01*
X16763008Y22107838D01*
X16827913Y21951143D01*
X16861000Y21784802D01*
X16861000Y21615198D01*
X16827913Y21448857D01*
X16763008Y21292162D01*
X16668785Y21151147D01*
X16548853Y21031215D01*
X16407838Y20936992D01*
X16251143Y20872087D01*
X16084802Y20839000D01*
X15915198Y20839000D01*
X15748857Y20872087D01*
X15592162Y20936992D01*
X15451147Y21031215D01*
X15331215Y21151147D01*
X15236992Y21292162D01*
X15172087Y21448857D01*
X15139000Y21615198D01*
X15139000Y21784802D01*
X15172087Y21951143D01*
X15236992Y22107838D01*
X15331215Y22248853D01*
X15451147Y22368785D01*
X15592162Y22463008D01*
X15748857Y22527913D01*
X15915198Y22561000D01*
X16084802Y22561000D01*
X16251143Y22527913D01*
X16251143Y22527913D01*
G37*
G36*
X23901000Y21919000D02*
G01*
X22099000Y21919000D01*
X22099000Y23721000D01*
X23901000Y23721000D01*
X23901000Y21919000D01*
X23901000Y21919000D01*
G37*
G36*
X25650442Y23714482D02*
G01*
X25716627Y23707963D01*
X25886466Y23656443D01*
X26042991Y23572778D01*
X26078729Y23543448D01*
X26180186Y23460186D01*
X26252485Y23372088D01*
X26292778Y23322991D01*
X26376443Y23166466D01*
X26427963Y22996627D01*
X26445359Y22820000D01*
X26427963Y22643373D01*
X26376443Y22473534D01*
X26292778Y22317009D01*
X26272882Y22292766D01*
X26180186Y22179814D01*
X26092479Y22107836D01*
X26042991Y22067222D01*
X25886466Y21983557D01*
X25716627Y21932037D01*
X25650443Y21925519D01*
X25584260Y21919000D01*
X25495740Y21919000D01*
X25429558Y21925518D01*
X25363373Y21932037D01*
X25193534Y21983557D01*
X25037009Y22067222D01*
X24987521Y22107836D01*
X24899814Y22179814D01*
X24807118Y22292766D01*
X24787222Y22317009D01*
X24703557Y22473534D01*
X24652037Y22643373D01*
X24634641Y22820000D01*
X24652037Y22996627D01*
X24703557Y23166466D01*
X24787222Y23322991D01*
X24827515Y23372088D01*
X24899814Y23460186D01*
X25001271Y23543448D01*
X25037009Y23572778D01*
X25193534Y23656443D01*
X25363373Y23707963D01*
X25429558Y23714482D01*
X25495740Y23721000D01*
X25584260Y23721000D01*
X25650442Y23714482D01*
X25650442Y23714482D01*
G37*
G36*
X8401000Y22549000D02*
G01*
X6599000Y22549000D01*
X6599000Y24351000D01*
X8401000Y24351000D01*
X8401000Y22549000D01*
X8401000Y22549000D01*
G37*
G36*
X11251143Y25027913D02*
G01*
X11407838Y24963008D01*
X11548853Y24868785D01*
X11668785Y24748853D01*
X11763008Y24607838D01*
X11827913Y24451143D01*
X11861000Y24284802D01*
X11861000Y24115198D01*
X11827913Y23948857D01*
X11763008Y23792162D01*
X11668785Y23651147D01*
X11548853Y23531215D01*
X11407838Y23436992D01*
X11251143Y23372087D01*
X11084802Y23339000D01*
X10915198Y23339000D01*
X10748857Y23372087D01*
X10592162Y23436992D01*
X10451147Y23531215D01*
X10331215Y23651147D01*
X10236992Y23792162D01*
X10172087Y23948857D01*
X10139000Y24115198D01*
X10139000Y24284802D01*
X10172087Y24451143D01*
X10236992Y24607838D01*
X10331215Y24748853D01*
X10451147Y24868785D01*
X10592162Y24963008D01*
X10748857Y25027913D01*
X10915198Y25061000D01*
X11084802Y25061000D01*
X11251143Y25027913D01*
X11251143Y25027913D01*
G37*
G36*
X12501143Y27277913D02*
G01*
X12657838Y27213008D01*
X12798853Y27118785D01*
X12918785Y26998853D01*
X13013008Y26857838D01*
X13077913Y26701143D01*
X13111000Y26534802D01*
X13111000Y26365198D01*
X13077913Y26198857D01*
X13013008Y26042162D01*
X12918785Y25901147D01*
X12798853Y25781215D01*
X12657838Y25686992D01*
X12501143Y25622087D01*
X12334802Y25589000D01*
X12165198Y25589000D01*
X11998857Y25622087D01*
X11842162Y25686992D01*
X11701147Y25781215D01*
X11581215Y25901147D01*
X11486992Y26042162D01*
X11422087Y26198857D01*
X11389000Y26365198D01*
X11389000Y26534802D01*
X11422087Y26701143D01*
X11486992Y26857838D01*
X11581215Y26998853D01*
X11701147Y27118785D01*
X11842162Y27213008D01*
X11998857Y27277913D01*
X12165198Y27311000D01*
X12334802Y27311000D01*
X12501143Y27277913D01*
X12501143Y27277913D01*
G37*
G36*
X16151000Y27049000D02*
G01*
X14349000Y27049000D01*
X14349000Y28851000D01*
X16151000Y28851000D01*
X16151000Y27049000D01*
X16151000Y27049000D01*
G37*
G36*
X18810443Y29694481D02*
G01*
X18876627Y29687963D01*
X19046466Y29636443D01*
X19202991Y29552778D01*
X19207594Y29549000D01*
X19340186Y29440186D01*
X19407766Y29357838D01*
X19452778Y29302991D01*
X19536443Y29146466D01*
X19587963Y28976627D01*
X19605359Y28800000D01*
X19587963Y28623373D01*
X19536443Y28453534D01*
X19452778Y28297009D01*
X19439816Y28281215D01*
X19340186Y28159814D01*
X19238729Y28076552D01*
X19202991Y28047222D01*
X19046466Y27963557D01*
X18876627Y27912037D01*
X18810442Y27905518D01*
X18744260Y27899000D01*
X18655740Y27899000D01*
X18589558Y27905518D01*
X18523373Y27912037D01*
X18353534Y27963557D01*
X18197009Y28047222D01*
X18161271Y28076552D01*
X18059814Y28159814D01*
X17960184Y28281215D01*
X17947222Y28297009D01*
X17863557Y28453534D01*
X17812037Y28623373D01*
X17794641Y28800000D01*
X17812037Y28976627D01*
X17863557Y29146466D01*
X17947222Y29302991D01*
X17992234Y29357838D01*
X18059814Y29440186D01*
X18192406Y29549000D01*
X18197009Y29552778D01*
X18353534Y29636443D01*
X18523373Y29687963D01*
X18589557Y29694481D01*
X18655740Y29701000D01*
X18744260Y29701000D01*
X18810443Y29694481D01*
X18810443Y29694481D01*
G37*
G36*
X21350443Y29694481D02*
G01*
X21416627Y29687963D01*
X21586466Y29636443D01*
X21742991Y29552778D01*
X21747594Y29549000D01*
X21880186Y29440186D01*
X21947766Y29357838D01*
X21992778Y29302991D01*
X22076443Y29146466D01*
X22127963Y28976627D01*
X22145359Y28800000D01*
X22127963Y28623373D01*
X22076443Y28453534D01*
X21992778Y28297009D01*
X21979816Y28281215D01*
X21880186Y28159814D01*
X21778729Y28076552D01*
X21742991Y28047222D01*
X21586466Y27963557D01*
X21416627Y27912037D01*
X21350442Y27905518D01*
X21284260Y27899000D01*
X21195740Y27899000D01*
X21129558Y27905518D01*
X21063373Y27912037D01*
X20893534Y27963557D01*
X20737009Y28047222D01*
X20701271Y28076552D01*
X20599814Y28159814D01*
X20500184Y28281215D01*
X20487222Y28297009D01*
X20403557Y28453534D01*
X20352037Y28623373D01*
X20334641Y28800000D01*
X20352037Y28976627D01*
X20403557Y29146466D01*
X20487222Y29302991D01*
X20532234Y29357838D01*
X20599814Y29440186D01*
X20732406Y29549000D01*
X20737009Y29552778D01*
X20893534Y29636443D01*
X21063373Y29687963D01*
X21129557Y29694481D01*
X21195740Y29701000D01*
X21284260Y29701000D01*
X21350443Y29694481D01*
X21350443Y29694481D01*
G37*
G36*
X24681000Y27899000D02*
G01*
X22879000Y27899000D01*
X22879000Y29701000D01*
X24681000Y29701000D01*
X24681000Y27899000D01*
X24681000Y27899000D01*
G37*
G36*
X7501143Y29777913D02*
G01*
X7657838Y29713008D01*
X7798853Y29618785D01*
X7918785Y29498853D01*
X8013008Y29357838D01*
X8077913Y29201143D01*
X8111000Y29034802D01*
X8111000Y28865198D01*
X8077913Y28698857D01*
X8013008Y28542162D01*
X7918785Y28401147D01*
X7798853Y28281215D01*
X7657838Y28186992D01*
X7501143Y28122087D01*
X7334802Y28089000D01*
X7165198Y28089000D01*
X6998857Y28122087D01*
X6842162Y28186992D01*
X6701147Y28281215D01*
X6581215Y28401147D01*
X6486992Y28542162D01*
X6422087Y28698857D01*
X6389000Y28865198D01*
X6389000Y29034802D01*
X6422087Y29201143D01*
X6486992Y29357838D01*
X6581215Y29498853D01*
X6701147Y29618785D01*
X6842162Y29713008D01*
X6998857Y29777913D01*
X7165198Y29811000D01*
X7334802Y29811000D01*
X7501143Y29777913D01*
X7501143Y29777913D01*
G37*
G36*
X2277395Y30864454D02*
G01*
X2450466Y30792766D01*
X2467753Y30781215D01*
X2606227Y30688690D01*
X2738690Y30556227D01*
X2738691Y30556225D01*
X2842766Y30400466D01*
X2914454Y30227395D01*
X2951000Y30043667D01*
X2951000Y29856333D01*
X2914454Y29672605D01*
X2842766Y29499534D01*
X2842765Y29499533D01*
X2738690Y29343773D01*
X2606227Y29211310D01*
X2591012Y29201144D01*
X2450466Y29107234D01*
X2277395Y29035546D01*
X2093667Y28999000D01*
X1906333Y28999000D01*
X1722605Y29035546D01*
X1549534Y29107234D01*
X1408988Y29201144D01*
X1393773Y29211310D01*
X1261310Y29343773D01*
X1157235Y29499533D01*
X1157234Y29499534D01*
X1085546Y29672605D01*
X1049000Y29856333D01*
X1049000Y30043667D01*
X1085546Y30227395D01*
X1157234Y30400466D01*
X1261309Y30556225D01*
X1261310Y30556227D01*
X1393773Y30688690D01*
X1532247Y30781215D01*
X1549534Y30792766D01*
X1722605Y30864454D01*
X1906333Y30901000D01*
X2093667Y30901000D01*
X2277395Y30864454D01*
X2277395Y30864454D01*
G37*
G36*
X5491000Y28999000D02*
G01*
X3589000Y28999000D01*
X3589000Y30901000D01*
X5491000Y30901000D01*
X5491000Y28999000D01*
X5491000Y28999000D01*
G37*
G36*
X28224549Y31828884D02*
G01*
X28335734Y31806768D01*
X28545203Y31720003D01*
X28733720Y31594040D01*
X28894040Y31433720D01*
X29020003Y31245203D01*
X29020004Y31245201D01*
X29039200Y31198857D01*
X29104105Y31042164D01*
X29106768Y31035733D01*
X29146405Y30836468D01*
X29151000Y30813364D01*
X29151000Y30586636D01*
X29106768Y30364266D01*
X29020003Y30154797D01*
X28894040Y29966280D01*
X28733720Y29805960D01*
X28545203Y29679997D01*
X28335734Y29593232D01*
X28224549Y29571116D01*
X28113365Y29549000D01*
X27886635Y29549000D01*
X27775451Y29571116D01*
X27664266Y29593232D01*
X27454797Y29679997D01*
X27266280Y29805960D01*
X27105960Y29966280D01*
X26979997Y30154797D01*
X26893232Y30364266D01*
X26849000Y30586636D01*
X26849000Y30813364D01*
X26853596Y30836468D01*
X26893232Y31035733D01*
X26895896Y31042164D01*
X26960800Y31198857D01*
X26979996Y31245201D01*
X26979997Y31245203D01*
X27105960Y31433720D01*
X27266280Y31594040D01*
X27454797Y31720003D01*
X27664266Y31806768D01*
X27775451Y31828884D01*
X27886635Y31851000D01*
X28113365Y31851000D01*
X28224549Y31828884D01*
X28224549Y31828884D01*
G37*
G36*
X15360443Y31384481D02*
G01*
X15426627Y31377963D01*
X15596466Y31326443D01*
X15752991Y31242778D01*
X15788729Y31213448D01*
X15890186Y31130186D01*
X15967700Y31035733D01*
X16002778Y30992991D01*
X16086443Y30836466D01*
X16137963Y30666627D01*
X16155359Y30490000D01*
X16137963Y30313373D01*
X16086443Y30143534D01*
X16002778Y29987009D01*
X15985767Y29966281D01*
X15890186Y29849814D01*
X15802573Y29777913D01*
X15752991Y29737222D01*
X15596466Y29653557D01*
X15426627Y29602037D01*
X15360442Y29595518D01*
X15294260Y29589000D01*
X15205740Y29589000D01*
X15139558Y29595518D01*
X15073373Y29602037D01*
X14903534Y29653557D01*
X14747009Y29737222D01*
X14697427Y29777913D01*
X14609814Y29849814D01*
X14514233Y29966281D01*
X14497222Y29987009D01*
X14413557Y30143534D01*
X14362037Y30313373D01*
X14344641Y30490000D01*
X14362037Y30666627D01*
X14413557Y30836466D01*
X14497222Y30992991D01*
X14532300Y31035733D01*
X14609814Y31130186D01*
X14711271Y31213448D01*
X14747009Y31242778D01*
X14903534Y31326443D01*
X15073373Y31377963D01*
X15139557Y31384481D01*
X15205740Y31391000D01*
X15294260Y31391000D01*
X15360443Y31384481D01*
X15360443Y31384481D01*
G37*
G36*
X12501143Y32277913D02*
G01*
X12657838Y32213008D01*
X12798853Y32118785D01*
X12918785Y31998853D01*
X13013008Y31857838D01*
X13077913Y31701143D01*
X13111000Y31534802D01*
X13111000Y31365198D01*
X13077913Y31198857D01*
X13013008Y31042162D01*
X12918785Y30901147D01*
X12798853Y30781215D01*
X12657838Y30686992D01*
X12501143Y30622087D01*
X12334802Y30589000D01*
X12165198Y30589000D01*
X11998857Y30622087D01*
X11842162Y30686992D01*
X11701147Y30781215D01*
X11581215Y30901147D01*
X11486992Y31042162D01*
X11422087Y31198857D01*
X11389000Y31365198D01*
X11389000Y31534802D01*
X11422087Y31701143D01*
X11486992Y31857838D01*
X11581215Y31998853D01*
X11701147Y32118785D01*
X11842162Y32213008D01*
X11998857Y32277913D01*
X12165198Y32311000D01*
X12334802Y32311000D01*
X12501143Y32277913D01*
X12501143Y32277913D01*
G37*
M02*
