G04 #@! TF.GenerationSoftware,KiCad,Pcbnew,(5.1.4)-1*
G04 #@! TF.CreationDate,2020-02-16T08:15:49-07:00*
G04 #@! TF.ProjectId,LightGate,4c696768-7447-4617-9465-2e6b69636164,rev?*
G04 #@! TF.SameCoordinates,PX52f83c0PY1b5ed60*
G04 #@! TF.FileFunction,Copper,L1,Top*
G04 #@! TF.FilePolarity,Positive*
%FSLAX46Y46*%
G04 Gerber Fmt 4.6, Leading zero omitted, Abs format (unit mm)*
G04 Created by KiCad (PCBNEW (5.1.4)-1) date 2020-02-16 08:15:49*
%MOMM*%
%LPD*%
G04 APERTURE LIST*
%ADD10C,0.100000*%
%ADD11C,1.150000*%
%ADD12C,1.425000*%
%ADD13C,1.620000*%
%ADD14O,1.700000X1.700000*%
%ADD15R,1.700000X1.700000*%
%ADD16R,1.000000X1.500000*%
%ADD17R,0.650000X1.560000*%
%ADD18C,1.800000*%
%ADD19R,1.800000X1.800000*%
%ADD20C,0.600000*%
%ADD21C,0.800000*%
%ADD22C,0.250000*%
%ADD23C,0.600000*%
%ADD24C,0.400000*%
%ADD25C,1.000000*%
%ADD26C,0.254000*%
G04 APERTURE END LIST*
D10*
G36*
X22800000Y26200000D02*
G01*
X23300000Y26200000D01*
X23300000Y25600000D01*
X22800000Y25600000D01*
X22800000Y26200000D01*
G37*
G36*
X4899505Y9648796D02*
G01*
X4923773Y9645196D01*
X4947572Y9639235D01*
X4970671Y9630970D01*
X4992850Y9620480D01*
X5013893Y9607868D01*
X5033599Y9593253D01*
X5051777Y9576777D01*
X5068253Y9558599D01*
X5082868Y9538893D01*
X5095480Y9517850D01*
X5105970Y9495671D01*
X5114235Y9472572D01*
X5120196Y9448773D01*
X5123796Y9424505D01*
X5125000Y9400001D01*
X5125000Y8499999D01*
X5123796Y8475495D01*
X5120196Y8451227D01*
X5114235Y8427428D01*
X5105970Y8404329D01*
X5095480Y8382150D01*
X5082868Y8361107D01*
X5068253Y8341401D01*
X5051777Y8323223D01*
X5033599Y8306747D01*
X5013893Y8292132D01*
X4992850Y8279520D01*
X4970671Y8269030D01*
X4947572Y8260765D01*
X4923773Y8254804D01*
X4899505Y8251204D01*
X4875001Y8250000D01*
X4224999Y8250000D01*
X4200495Y8251204D01*
X4176227Y8254804D01*
X4152428Y8260765D01*
X4129329Y8269030D01*
X4107150Y8279520D01*
X4086107Y8292132D01*
X4066401Y8306747D01*
X4048223Y8323223D01*
X4031747Y8341401D01*
X4017132Y8361107D01*
X4004520Y8382150D01*
X3994030Y8404329D01*
X3985765Y8427428D01*
X3979804Y8451227D01*
X3976204Y8475495D01*
X3975000Y8499999D01*
X3975000Y9400001D01*
X3976204Y9424505D01*
X3979804Y9448773D01*
X3985765Y9472572D01*
X3994030Y9495671D01*
X4004520Y9517850D01*
X4017132Y9538893D01*
X4031747Y9558599D01*
X4048223Y9576777D01*
X4066401Y9593253D01*
X4086107Y9607868D01*
X4107150Y9620480D01*
X4129329Y9630970D01*
X4152428Y9639235D01*
X4176227Y9645196D01*
X4200495Y9648796D01*
X4224999Y9650000D01*
X4875001Y9650000D01*
X4899505Y9648796D01*
X4899505Y9648796D01*
G37*
D11*
X4550000Y8950000D03*
D10*
G36*
X2849505Y9648796D02*
G01*
X2873773Y9645196D01*
X2897572Y9639235D01*
X2920671Y9630970D01*
X2942850Y9620480D01*
X2963893Y9607868D01*
X2983599Y9593253D01*
X3001777Y9576777D01*
X3018253Y9558599D01*
X3032868Y9538893D01*
X3045480Y9517850D01*
X3055970Y9495671D01*
X3064235Y9472572D01*
X3070196Y9448773D01*
X3073796Y9424505D01*
X3075000Y9400001D01*
X3075000Y8499999D01*
X3073796Y8475495D01*
X3070196Y8451227D01*
X3064235Y8427428D01*
X3055970Y8404329D01*
X3045480Y8382150D01*
X3032868Y8361107D01*
X3018253Y8341401D01*
X3001777Y8323223D01*
X2983599Y8306747D01*
X2963893Y8292132D01*
X2942850Y8279520D01*
X2920671Y8269030D01*
X2897572Y8260765D01*
X2873773Y8254804D01*
X2849505Y8251204D01*
X2825001Y8250000D01*
X2174999Y8250000D01*
X2150495Y8251204D01*
X2126227Y8254804D01*
X2102428Y8260765D01*
X2079329Y8269030D01*
X2057150Y8279520D01*
X2036107Y8292132D01*
X2016401Y8306747D01*
X1998223Y8323223D01*
X1981747Y8341401D01*
X1967132Y8361107D01*
X1954520Y8382150D01*
X1944030Y8404329D01*
X1935765Y8427428D01*
X1929804Y8451227D01*
X1926204Y8475495D01*
X1925000Y8499999D01*
X1925000Y9400001D01*
X1926204Y9424505D01*
X1929804Y9448773D01*
X1935765Y9472572D01*
X1944030Y9495671D01*
X1954520Y9517850D01*
X1967132Y9538893D01*
X1981747Y9558599D01*
X1998223Y9576777D01*
X2016401Y9593253D01*
X2036107Y9607868D01*
X2057150Y9620480D01*
X2079329Y9630970D01*
X2102428Y9639235D01*
X2126227Y9645196D01*
X2150495Y9648796D01*
X2174999Y9650000D01*
X2825001Y9650000D01*
X2849505Y9648796D01*
X2849505Y9648796D01*
G37*
D11*
X2500000Y8950000D03*
D10*
G36*
X18649504Y3923796D02*
G01*
X18673773Y3920196D01*
X18697571Y3914235D01*
X18720671Y3905970D01*
X18742849Y3895480D01*
X18763893Y3882867D01*
X18783598Y3868253D01*
X18801777Y3851777D01*
X18818253Y3833598D01*
X18832867Y3813893D01*
X18845480Y3792849D01*
X18855970Y3770671D01*
X18864235Y3747571D01*
X18870196Y3723773D01*
X18873796Y3699504D01*
X18875000Y3675000D01*
X18875000Y2750000D01*
X18873796Y2725496D01*
X18870196Y2701227D01*
X18864235Y2677429D01*
X18855970Y2654329D01*
X18845480Y2632151D01*
X18832867Y2611107D01*
X18818253Y2591402D01*
X18801777Y2573223D01*
X18783598Y2556747D01*
X18763893Y2542133D01*
X18742849Y2529520D01*
X18720671Y2519030D01*
X18697571Y2510765D01*
X18673773Y2504804D01*
X18649504Y2501204D01*
X18625000Y2500000D01*
X17375000Y2500000D01*
X17350496Y2501204D01*
X17326227Y2504804D01*
X17302429Y2510765D01*
X17279329Y2519030D01*
X17257151Y2529520D01*
X17236107Y2542133D01*
X17216402Y2556747D01*
X17198223Y2573223D01*
X17181747Y2591402D01*
X17167133Y2611107D01*
X17154520Y2632151D01*
X17144030Y2654329D01*
X17135765Y2677429D01*
X17129804Y2701227D01*
X17126204Y2725496D01*
X17125000Y2750000D01*
X17125000Y3675000D01*
X17126204Y3699504D01*
X17129804Y3723773D01*
X17135765Y3747571D01*
X17144030Y3770671D01*
X17154520Y3792849D01*
X17167133Y3813893D01*
X17181747Y3833598D01*
X17198223Y3851777D01*
X17216402Y3868253D01*
X17236107Y3882867D01*
X17257151Y3895480D01*
X17279329Y3905970D01*
X17302429Y3914235D01*
X17326227Y3920196D01*
X17350496Y3923796D01*
X17375000Y3925000D01*
X18625000Y3925000D01*
X18649504Y3923796D01*
X18649504Y3923796D01*
G37*
D12*
X18000000Y3212500D03*
D10*
G36*
X18649504Y6898796D02*
G01*
X18673773Y6895196D01*
X18697571Y6889235D01*
X18720671Y6880970D01*
X18742849Y6870480D01*
X18763893Y6857867D01*
X18783598Y6843253D01*
X18801777Y6826777D01*
X18818253Y6808598D01*
X18832867Y6788893D01*
X18845480Y6767849D01*
X18855970Y6745671D01*
X18864235Y6722571D01*
X18870196Y6698773D01*
X18873796Y6674504D01*
X18875000Y6650000D01*
X18875000Y5725000D01*
X18873796Y5700496D01*
X18870196Y5676227D01*
X18864235Y5652429D01*
X18855970Y5629329D01*
X18845480Y5607151D01*
X18832867Y5586107D01*
X18818253Y5566402D01*
X18801777Y5548223D01*
X18783598Y5531747D01*
X18763893Y5517133D01*
X18742849Y5504520D01*
X18720671Y5494030D01*
X18697571Y5485765D01*
X18673773Y5479804D01*
X18649504Y5476204D01*
X18625000Y5475000D01*
X17375000Y5475000D01*
X17350496Y5476204D01*
X17326227Y5479804D01*
X17302429Y5485765D01*
X17279329Y5494030D01*
X17257151Y5504520D01*
X17236107Y5517133D01*
X17216402Y5531747D01*
X17198223Y5548223D01*
X17181747Y5566402D01*
X17167133Y5586107D01*
X17154520Y5607151D01*
X17144030Y5629329D01*
X17135765Y5652429D01*
X17129804Y5676227D01*
X17126204Y5700496D01*
X17125000Y5725000D01*
X17125000Y6650000D01*
X17126204Y6674504D01*
X17129804Y6698773D01*
X17135765Y6722571D01*
X17144030Y6745671D01*
X17154520Y6767849D01*
X17167133Y6788893D01*
X17181747Y6808598D01*
X17198223Y6826777D01*
X17216402Y6843253D01*
X17236107Y6857867D01*
X17257151Y6870480D01*
X17279329Y6880970D01*
X17302429Y6889235D01*
X17326227Y6895196D01*
X17350496Y6898796D01*
X17375000Y6900000D01*
X18625000Y6900000D01*
X18649504Y6898796D01*
X18649504Y6898796D01*
G37*
D12*
X18000000Y6187500D03*
D13*
X7000000Y6700000D03*
X12000000Y4200000D03*
X7000000Y1700000D03*
D14*
X15000000Y3660000D03*
D15*
X15000000Y6200000D03*
D14*
X7500000Y12740000D03*
D15*
X7500000Y10200000D03*
D14*
X15250000Y30490000D03*
D15*
X15250000Y27950000D03*
D14*
X7500000Y20910000D03*
D15*
X7500000Y23450000D03*
D10*
G36*
X27474505Y10048796D02*
G01*
X27498773Y10045196D01*
X27522572Y10039235D01*
X27545671Y10030970D01*
X27567850Y10020480D01*
X27588893Y10007868D01*
X27608599Y9993253D01*
X27626777Y9976777D01*
X27643253Y9958599D01*
X27657868Y9938893D01*
X27670480Y9917850D01*
X27680970Y9895671D01*
X27689235Y9872572D01*
X27695196Y9848773D01*
X27698796Y9824505D01*
X27700000Y9800001D01*
X27700000Y9149999D01*
X27698796Y9125495D01*
X27695196Y9101227D01*
X27689235Y9077428D01*
X27680970Y9054329D01*
X27670480Y9032150D01*
X27657868Y9011107D01*
X27643253Y8991401D01*
X27626777Y8973223D01*
X27608599Y8956747D01*
X27588893Y8942132D01*
X27567850Y8929520D01*
X27545671Y8919030D01*
X27522572Y8910765D01*
X27498773Y8904804D01*
X27474505Y8901204D01*
X27450001Y8900000D01*
X26549999Y8900000D01*
X26525495Y8901204D01*
X26501227Y8904804D01*
X26477428Y8910765D01*
X26454329Y8919030D01*
X26432150Y8929520D01*
X26411107Y8942132D01*
X26391401Y8956747D01*
X26373223Y8973223D01*
X26356747Y8991401D01*
X26342132Y9011107D01*
X26329520Y9032150D01*
X26319030Y9054329D01*
X26310765Y9077428D01*
X26304804Y9101227D01*
X26301204Y9125495D01*
X26300000Y9149999D01*
X26300000Y9800001D01*
X26301204Y9824505D01*
X26304804Y9848773D01*
X26310765Y9872572D01*
X26319030Y9895671D01*
X26329520Y9917850D01*
X26342132Y9938893D01*
X26356747Y9958599D01*
X26373223Y9976777D01*
X26391401Y9993253D01*
X26411107Y10007868D01*
X26432150Y10020480D01*
X26454329Y10030970D01*
X26477428Y10039235D01*
X26501227Y10045196D01*
X26525495Y10048796D01*
X26549999Y10050000D01*
X27450001Y10050000D01*
X27474505Y10048796D01*
X27474505Y10048796D01*
G37*
D11*
X27000000Y9475000D03*
D10*
G36*
X27474505Y7998796D02*
G01*
X27498773Y7995196D01*
X27522572Y7989235D01*
X27545671Y7980970D01*
X27567850Y7970480D01*
X27588893Y7957868D01*
X27608599Y7943253D01*
X27626777Y7926777D01*
X27643253Y7908599D01*
X27657868Y7888893D01*
X27670480Y7867850D01*
X27680970Y7845671D01*
X27689235Y7822572D01*
X27695196Y7798773D01*
X27698796Y7774505D01*
X27700000Y7750001D01*
X27700000Y7099999D01*
X27698796Y7075495D01*
X27695196Y7051227D01*
X27689235Y7027428D01*
X27680970Y7004329D01*
X27670480Y6982150D01*
X27657868Y6961107D01*
X27643253Y6941401D01*
X27626777Y6923223D01*
X27608599Y6906747D01*
X27588893Y6892132D01*
X27567850Y6879520D01*
X27545671Y6869030D01*
X27522572Y6860765D01*
X27498773Y6854804D01*
X27474505Y6851204D01*
X27450001Y6850000D01*
X26549999Y6850000D01*
X26525495Y6851204D01*
X26501227Y6854804D01*
X26477428Y6860765D01*
X26454329Y6869030D01*
X26432150Y6879520D01*
X26411107Y6892132D01*
X26391401Y6906747D01*
X26373223Y6923223D01*
X26356747Y6941401D01*
X26342132Y6961107D01*
X26329520Y6982150D01*
X26319030Y7004329D01*
X26310765Y7027428D01*
X26304804Y7051227D01*
X26301204Y7075495D01*
X26300000Y7099999D01*
X26300000Y7750001D01*
X26301204Y7774505D01*
X26304804Y7798773D01*
X26310765Y7822572D01*
X26319030Y7845671D01*
X26329520Y7867850D01*
X26342132Y7888893D01*
X26356747Y7908599D01*
X26373223Y7926777D01*
X26391401Y7943253D01*
X26411107Y7957868D01*
X26432150Y7970480D01*
X26454329Y7980970D01*
X26477428Y7989235D01*
X26501227Y7995196D01*
X26525495Y7998796D01*
X26549999Y8000000D01*
X27450001Y8000000D01*
X27474505Y7998796D01*
X27474505Y7998796D01*
G37*
D11*
X27000000Y7425000D03*
D14*
X25540000Y15200000D03*
X23000000Y15200000D03*
X25540000Y17740000D03*
X23000000Y17740000D03*
X25540000Y20280000D03*
X23000000Y20280000D03*
X25540000Y22820000D03*
D15*
X23000000Y22820000D03*
D16*
X23700000Y25900000D03*
X22400000Y25900000D03*
D10*
G36*
X21749504Y7423796D02*
G01*
X21773773Y7420196D01*
X21797571Y7414235D01*
X21820671Y7405970D01*
X21842849Y7395480D01*
X21863893Y7382867D01*
X21883598Y7368253D01*
X21901777Y7351777D01*
X21918253Y7333598D01*
X21932867Y7313893D01*
X21945480Y7292849D01*
X21955970Y7270671D01*
X21964235Y7247571D01*
X21970196Y7223773D01*
X21973796Y7199504D01*
X21975000Y7175000D01*
X21975000Y6250000D01*
X21973796Y6225496D01*
X21970196Y6201227D01*
X21964235Y6177429D01*
X21955970Y6154329D01*
X21945480Y6132151D01*
X21932867Y6111107D01*
X21918253Y6091402D01*
X21901777Y6073223D01*
X21883598Y6056747D01*
X21863893Y6042133D01*
X21842849Y6029520D01*
X21820671Y6019030D01*
X21797571Y6010765D01*
X21773773Y6004804D01*
X21749504Y6001204D01*
X21725000Y6000000D01*
X20475000Y6000000D01*
X20450496Y6001204D01*
X20426227Y6004804D01*
X20402429Y6010765D01*
X20379329Y6019030D01*
X20357151Y6029520D01*
X20336107Y6042133D01*
X20316402Y6056747D01*
X20298223Y6073223D01*
X20281747Y6091402D01*
X20267133Y6111107D01*
X20254520Y6132151D01*
X20244030Y6154329D01*
X20235765Y6177429D01*
X20229804Y6201227D01*
X20226204Y6225496D01*
X20225000Y6250000D01*
X20225000Y7175000D01*
X20226204Y7199504D01*
X20229804Y7223773D01*
X20235765Y7247571D01*
X20244030Y7270671D01*
X20254520Y7292849D01*
X20267133Y7313893D01*
X20281747Y7333598D01*
X20298223Y7351777D01*
X20316402Y7368253D01*
X20336107Y7382867D01*
X20357151Y7395480D01*
X20379329Y7405970D01*
X20402429Y7414235D01*
X20426227Y7420196D01*
X20450496Y7423796D01*
X20475000Y7425000D01*
X21725000Y7425000D01*
X21749504Y7423796D01*
X21749504Y7423796D01*
G37*
D12*
X21100000Y6712500D03*
D10*
G36*
X21749504Y10398796D02*
G01*
X21773773Y10395196D01*
X21797571Y10389235D01*
X21820671Y10380970D01*
X21842849Y10370480D01*
X21863893Y10357867D01*
X21883598Y10343253D01*
X21901777Y10326777D01*
X21918253Y10308598D01*
X21932867Y10288893D01*
X21945480Y10267849D01*
X21955970Y10245671D01*
X21964235Y10222571D01*
X21970196Y10198773D01*
X21973796Y10174504D01*
X21975000Y10150000D01*
X21975000Y9225000D01*
X21973796Y9200496D01*
X21970196Y9176227D01*
X21964235Y9152429D01*
X21955970Y9129329D01*
X21945480Y9107151D01*
X21932867Y9086107D01*
X21918253Y9066402D01*
X21901777Y9048223D01*
X21883598Y9031747D01*
X21863893Y9017133D01*
X21842849Y9004520D01*
X21820671Y8994030D01*
X21797571Y8985765D01*
X21773773Y8979804D01*
X21749504Y8976204D01*
X21725000Y8975000D01*
X20475000Y8975000D01*
X20450496Y8976204D01*
X20426227Y8979804D01*
X20402429Y8985765D01*
X20379329Y8994030D01*
X20357151Y9004520D01*
X20336107Y9017133D01*
X20316402Y9031747D01*
X20298223Y9048223D01*
X20281747Y9066402D01*
X20267133Y9086107D01*
X20254520Y9107151D01*
X20244030Y9129329D01*
X20235765Y9152429D01*
X20229804Y9176227D01*
X20226204Y9200496D01*
X20225000Y9225000D01*
X20225000Y10150000D01*
X20226204Y10174504D01*
X20229804Y10198773D01*
X20235765Y10222571D01*
X20244030Y10245671D01*
X20254520Y10267849D01*
X20267133Y10288893D01*
X20281747Y10308598D01*
X20298223Y10326777D01*
X20316402Y10343253D01*
X20336107Y10357867D01*
X20357151Y10370480D01*
X20379329Y10380970D01*
X20402429Y10389235D01*
X20426227Y10395196D01*
X20450496Y10398796D01*
X20475000Y10400000D01*
X21725000Y10400000D01*
X21749504Y10398796D01*
X21749504Y10398796D01*
G37*
D12*
X21100000Y9687500D03*
D10*
G36*
X20774505Y24748796D02*
G01*
X20798773Y24745196D01*
X20822572Y24739235D01*
X20845671Y24730970D01*
X20867850Y24720480D01*
X20888893Y24707868D01*
X20908599Y24693253D01*
X20926777Y24676777D01*
X20943253Y24658599D01*
X20957868Y24638893D01*
X20970480Y24617850D01*
X20980970Y24595671D01*
X20989235Y24572572D01*
X20995196Y24548773D01*
X20998796Y24524505D01*
X21000000Y24500001D01*
X21000000Y23849999D01*
X20998796Y23825495D01*
X20995196Y23801227D01*
X20989235Y23777428D01*
X20980970Y23754329D01*
X20970480Y23732150D01*
X20957868Y23711107D01*
X20943253Y23691401D01*
X20926777Y23673223D01*
X20908599Y23656747D01*
X20888893Y23642132D01*
X20867850Y23629520D01*
X20845671Y23619030D01*
X20822572Y23610765D01*
X20798773Y23604804D01*
X20774505Y23601204D01*
X20750001Y23600000D01*
X19849999Y23600000D01*
X19825495Y23601204D01*
X19801227Y23604804D01*
X19777428Y23610765D01*
X19754329Y23619030D01*
X19732150Y23629520D01*
X19711107Y23642132D01*
X19691401Y23656747D01*
X19673223Y23673223D01*
X19656747Y23691401D01*
X19642132Y23711107D01*
X19629520Y23732150D01*
X19619030Y23754329D01*
X19610765Y23777428D01*
X19604804Y23801227D01*
X19601204Y23825495D01*
X19600000Y23849999D01*
X19600000Y24500001D01*
X19601204Y24524505D01*
X19604804Y24548773D01*
X19610765Y24572572D01*
X19619030Y24595671D01*
X19629520Y24617850D01*
X19642132Y24638893D01*
X19656747Y24658599D01*
X19673223Y24676777D01*
X19691401Y24693253D01*
X19711107Y24707868D01*
X19732150Y24720480D01*
X19754329Y24730970D01*
X19777428Y24739235D01*
X19801227Y24745196D01*
X19825495Y24748796D01*
X19849999Y24750000D01*
X20750001Y24750000D01*
X20774505Y24748796D01*
X20774505Y24748796D01*
G37*
D11*
X20300000Y24175000D03*
D10*
G36*
X20774505Y26798796D02*
G01*
X20798773Y26795196D01*
X20822572Y26789235D01*
X20845671Y26780970D01*
X20867850Y26770480D01*
X20888893Y26757868D01*
X20908599Y26743253D01*
X20926777Y26726777D01*
X20943253Y26708599D01*
X20957868Y26688893D01*
X20970480Y26667850D01*
X20980970Y26645671D01*
X20989235Y26622572D01*
X20995196Y26598773D01*
X20998796Y26574505D01*
X21000000Y26550001D01*
X21000000Y25899999D01*
X20998796Y25875495D01*
X20995196Y25851227D01*
X20989235Y25827428D01*
X20980970Y25804329D01*
X20970480Y25782150D01*
X20957868Y25761107D01*
X20943253Y25741401D01*
X20926777Y25723223D01*
X20908599Y25706747D01*
X20888893Y25692132D01*
X20867850Y25679520D01*
X20845671Y25669030D01*
X20822572Y25660765D01*
X20798773Y25654804D01*
X20774505Y25651204D01*
X20750001Y25650000D01*
X19849999Y25650000D01*
X19825495Y25651204D01*
X19801227Y25654804D01*
X19777428Y25660765D01*
X19754329Y25669030D01*
X19732150Y25679520D01*
X19711107Y25692132D01*
X19691401Y25706747D01*
X19673223Y25723223D01*
X19656747Y25741401D01*
X19642132Y25761107D01*
X19629520Y25782150D01*
X19619030Y25804329D01*
X19610765Y25827428D01*
X19604804Y25851227D01*
X19601204Y25875495D01*
X19600000Y25899999D01*
X19600000Y26550001D01*
X19601204Y26574505D01*
X19604804Y26598773D01*
X19610765Y26622572D01*
X19619030Y26645671D01*
X19629520Y26667850D01*
X19642132Y26688893D01*
X19656747Y26708599D01*
X19673223Y26726777D01*
X19691401Y26743253D01*
X19711107Y26757868D01*
X19732150Y26770480D01*
X19754329Y26780970D01*
X19777428Y26789235D01*
X19801227Y26795196D01*
X19825495Y26798796D01*
X19849999Y26800000D01*
X20750001Y26800000D01*
X20774505Y26798796D01*
X20774505Y26798796D01*
G37*
D11*
X20300000Y26225000D03*
D10*
G36*
X22374505Y3198796D02*
G01*
X22398773Y3195196D01*
X22422572Y3189235D01*
X22445671Y3180970D01*
X22467850Y3170480D01*
X22488893Y3157868D01*
X22508599Y3143253D01*
X22526777Y3126777D01*
X22543253Y3108599D01*
X22557868Y3088893D01*
X22570480Y3067850D01*
X22580970Y3045671D01*
X22589235Y3022572D01*
X22595196Y2998773D01*
X22598796Y2974505D01*
X22600000Y2950001D01*
X22600000Y2049999D01*
X22598796Y2025495D01*
X22595196Y2001227D01*
X22589235Y1977428D01*
X22580970Y1954329D01*
X22570480Y1932150D01*
X22557868Y1911107D01*
X22543253Y1891401D01*
X22526777Y1873223D01*
X22508599Y1856747D01*
X22488893Y1842132D01*
X22467850Y1829520D01*
X22445671Y1819030D01*
X22422572Y1810765D01*
X22398773Y1804804D01*
X22374505Y1801204D01*
X22350001Y1800000D01*
X21699999Y1800000D01*
X21675495Y1801204D01*
X21651227Y1804804D01*
X21627428Y1810765D01*
X21604329Y1819030D01*
X21582150Y1829520D01*
X21561107Y1842132D01*
X21541401Y1856747D01*
X21523223Y1873223D01*
X21506747Y1891401D01*
X21492132Y1911107D01*
X21479520Y1932150D01*
X21469030Y1954329D01*
X21460765Y1977428D01*
X21454804Y2001227D01*
X21451204Y2025495D01*
X21450000Y2049999D01*
X21450000Y2950001D01*
X21451204Y2974505D01*
X21454804Y2998773D01*
X21460765Y3022572D01*
X21469030Y3045671D01*
X21479520Y3067850D01*
X21492132Y3088893D01*
X21506747Y3108599D01*
X21523223Y3126777D01*
X21541401Y3143253D01*
X21561107Y3157868D01*
X21582150Y3170480D01*
X21604329Y3180970D01*
X21627428Y3189235D01*
X21651227Y3195196D01*
X21675495Y3198796D01*
X21699999Y3200000D01*
X22350001Y3200000D01*
X22374505Y3198796D01*
X22374505Y3198796D01*
G37*
D11*
X22025000Y2500000D03*
D10*
G36*
X20324505Y3198796D02*
G01*
X20348773Y3195196D01*
X20372572Y3189235D01*
X20395671Y3180970D01*
X20417850Y3170480D01*
X20438893Y3157868D01*
X20458599Y3143253D01*
X20476777Y3126777D01*
X20493253Y3108599D01*
X20507868Y3088893D01*
X20520480Y3067850D01*
X20530970Y3045671D01*
X20539235Y3022572D01*
X20545196Y2998773D01*
X20548796Y2974505D01*
X20550000Y2950001D01*
X20550000Y2049999D01*
X20548796Y2025495D01*
X20545196Y2001227D01*
X20539235Y1977428D01*
X20530970Y1954329D01*
X20520480Y1932150D01*
X20507868Y1911107D01*
X20493253Y1891401D01*
X20476777Y1873223D01*
X20458599Y1856747D01*
X20438893Y1842132D01*
X20417850Y1829520D01*
X20395671Y1819030D01*
X20372572Y1810765D01*
X20348773Y1804804D01*
X20324505Y1801204D01*
X20300001Y1800000D01*
X19649999Y1800000D01*
X19625495Y1801204D01*
X19601227Y1804804D01*
X19577428Y1810765D01*
X19554329Y1819030D01*
X19532150Y1829520D01*
X19511107Y1842132D01*
X19491401Y1856747D01*
X19473223Y1873223D01*
X19456747Y1891401D01*
X19442132Y1911107D01*
X19429520Y1932150D01*
X19419030Y1954329D01*
X19410765Y1977428D01*
X19404804Y2001227D01*
X19401204Y2025495D01*
X19400000Y2049999D01*
X19400000Y2950001D01*
X19401204Y2974505D01*
X19404804Y2998773D01*
X19410765Y3022572D01*
X19419030Y3045671D01*
X19429520Y3067850D01*
X19442132Y3088893D01*
X19456747Y3108599D01*
X19473223Y3126777D01*
X19491401Y3143253D01*
X19511107Y3157868D01*
X19532150Y3170480D01*
X19554329Y3180970D01*
X19577428Y3189235D01*
X19601227Y3195196D01*
X19625495Y3198796D01*
X19649999Y3200000D01*
X20300001Y3200000D01*
X20324505Y3198796D01*
X20324505Y3198796D01*
G37*
D11*
X19975000Y2500000D03*
D10*
G36*
X13624505Y12148796D02*
G01*
X13648773Y12145196D01*
X13672572Y12139235D01*
X13695671Y12130970D01*
X13717850Y12120480D01*
X13738893Y12107868D01*
X13758599Y12093253D01*
X13776777Y12076777D01*
X13793253Y12058599D01*
X13807868Y12038893D01*
X13820480Y12017850D01*
X13830970Y11995671D01*
X13839235Y11972572D01*
X13845196Y11948773D01*
X13848796Y11924505D01*
X13850000Y11900001D01*
X13850000Y10999999D01*
X13848796Y10975495D01*
X13845196Y10951227D01*
X13839235Y10927428D01*
X13830970Y10904329D01*
X13820480Y10882150D01*
X13807868Y10861107D01*
X13793253Y10841401D01*
X13776777Y10823223D01*
X13758599Y10806747D01*
X13738893Y10792132D01*
X13717850Y10779520D01*
X13695671Y10769030D01*
X13672572Y10760765D01*
X13648773Y10754804D01*
X13624505Y10751204D01*
X13600001Y10750000D01*
X12949999Y10750000D01*
X12925495Y10751204D01*
X12901227Y10754804D01*
X12877428Y10760765D01*
X12854329Y10769030D01*
X12832150Y10779520D01*
X12811107Y10792132D01*
X12791401Y10806747D01*
X12773223Y10823223D01*
X12756747Y10841401D01*
X12742132Y10861107D01*
X12729520Y10882150D01*
X12719030Y10904329D01*
X12710765Y10927428D01*
X12704804Y10951227D01*
X12701204Y10975495D01*
X12700000Y10999999D01*
X12700000Y11900001D01*
X12701204Y11924505D01*
X12704804Y11948773D01*
X12710765Y11972572D01*
X12719030Y11995671D01*
X12729520Y12017850D01*
X12742132Y12038893D01*
X12756747Y12058599D01*
X12773223Y12076777D01*
X12791401Y12093253D01*
X12811107Y12107868D01*
X12832150Y12120480D01*
X12854329Y12130970D01*
X12877428Y12139235D01*
X12901227Y12145196D01*
X12925495Y12148796D01*
X12949999Y12150000D01*
X13600001Y12150000D01*
X13624505Y12148796D01*
X13624505Y12148796D01*
G37*
D11*
X13275000Y11450000D03*
D10*
G36*
X11574505Y12148796D02*
G01*
X11598773Y12145196D01*
X11622572Y12139235D01*
X11645671Y12130970D01*
X11667850Y12120480D01*
X11688893Y12107868D01*
X11708599Y12093253D01*
X11726777Y12076777D01*
X11743253Y12058599D01*
X11757868Y12038893D01*
X11770480Y12017850D01*
X11780970Y11995671D01*
X11789235Y11972572D01*
X11795196Y11948773D01*
X11798796Y11924505D01*
X11800000Y11900001D01*
X11800000Y10999999D01*
X11798796Y10975495D01*
X11795196Y10951227D01*
X11789235Y10927428D01*
X11780970Y10904329D01*
X11770480Y10882150D01*
X11757868Y10861107D01*
X11743253Y10841401D01*
X11726777Y10823223D01*
X11708599Y10806747D01*
X11688893Y10792132D01*
X11667850Y10779520D01*
X11645671Y10769030D01*
X11622572Y10760765D01*
X11598773Y10754804D01*
X11574505Y10751204D01*
X11550001Y10750000D01*
X10899999Y10750000D01*
X10875495Y10751204D01*
X10851227Y10754804D01*
X10827428Y10760765D01*
X10804329Y10769030D01*
X10782150Y10779520D01*
X10761107Y10792132D01*
X10741401Y10806747D01*
X10723223Y10823223D01*
X10706747Y10841401D01*
X10692132Y10861107D01*
X10679520Y10882150D01*
X10669030Y10904329D01*
X10660765Y10927428D01*
X10654804Y10951227D01*
X10651204Y10975495D01*
X10650000Y10999999D01*
X10650000Y11900001D01*
X10651204Y11924505D01*
X10654804Y11948773D01*
X10660765Y11972572D01*
X10669030Y11995671D01*
X10679520Y12017850D01*
X10692132Y12038893D01*
X10706747Y12058599D01*
X10723223Y12076777D01*
X10741401Y12093253D01*
X10761107Y12107868D01*
X10782150Y12120480D01*
X10804329Y12130970D01*
X10827428Y12139235D01*
X10851227Y12145196D01*
X10875495Y12148796D01*
X10899999Y12150000D01*
X11550001Y12150000D01*
X11574505Y12148796D01*
X11574505Y12148796D01*
G37*
D11*
X11225000Y11450000D03*
D17*
X23150000Y10150000D03*
X25050000Y10150000D03*
X25050000Y7450000D03*
X24100000Y7450000D03*
X23150000Y7450000D03*
D13*
X12250000Y26450000D03*
X7250000Y28950000D03*
X12250000Y31450000D03*
X10500000Y14200000D03*
X15500000Y11700000D03*
X10500000Y9200000D03*
X11000000Y24200000D03*
X16000000Y21700000D03*
X11000000Y19200000D03*
D10*
G36*
X22374505Y5148796D02*
G01*
X22398773Y5145196D01*
X22422572Y5139235D01*
X22445671Y5130970D01*
X22467850Y5120480D01*
X22488893Y5107868D01*
X22508599Y5093253D01*
X22526777Y5076777D01*
X22543253Y5058599D01*
X22557868Y5038893D01*
X22570480Y5017850D01*
X22580970Y4995671D01*
X22589235Y4972572D01*
X22595196Y4948773D01*
X22598796Y4924505D01*
X22600000Y4900001D01*
X22600000Y3999999D01*
X22598796Y3975495D01*
X22595196Y3951227D01*
X22589235Y3927428D01*
X22580970Y3904329D01*
X22570480Y3882150D01*
X22557868Y3861107D01*
X22543253Y3841401D01*
X22526777Y3823223D01*
X22508599Y3806747D01*
X22488893Y3792132D01*
X22467850Y3779520D01*
X22445671Y3769030D01*
X22422572Y3760765D01*
X22398773Y3754804D01*
X22374505Y3751204D01*
X22350001Y3750000D01*
X21699999Y3750000D01*
X21675495Y3751204D01*
X21651227Y3754804D01*
X21627428Y3760765D01*
X21604329Y3769030D01*
X21582150Y3779520D01*
X21561107Y3792132D01*
X21541401Y3806747D01*
X21523223Y3823223D01*
X21506747Y3841401D01*
X21492132Y3861107D01*
X21479520Y3882150D01*
X21469030Y3904329D01*
X21460765Y3927428D01*
X21454804Y3951227D01*
X21451204Y3975495D01*
X21450000Y3999999D01*
X21450000Y4900001D01*
X21451204Y4924505D01*
X21454804Y4948773D01*
X21460765Y4972572D01*
X21469030Y4995671D01*
X21479520Y5017850D01*
X21492132Y5038893D01*
X21506747Y5058599D01*
X21523223Y5076777D01*
X21541401Y5093253D01*
X21561107Y5107868D01*
X21582150Y5120480D01*
X21604329Y5130970D01*
X21627428Y5139235D01*
X21651227Y5145196D01*
X21675495Y5148796D01*
X21699999Y5150000D01*
X22350001Y5150000D01*
X22374505Y5148796D01*
X22374505Y5148796D01*
G37*
D11*
X22025000Y4450000D03*
D10*
G36*
X20324505Y5148796D02*
G01*
X20348773Y5145196D01*
X20372572Y5139235D01*
X20395671Y5130970D01*
X20417850Y5120480D01*
X20438893Y5107868D01*
X20458599Y5093253D01*
X20476777Y5076777D01*
X20493253Y5058599D01*
X20507868Y5038893D01*
X20520480Y5017850D01*
X20530970Y4995671D01*
X20539235Y4972572D01*
X20545196Y4948773D01*
X20548796Y4924505D01*
X20550000Y4900001D01*
X20550000Y3999999D01*
X20548796Y3975495D01*
X20545196Y3951227D01*
X20539235Y3927428D01*
X20530970Y3904329D01*
X20520480Y3882150D01*
X20507868Y3861107D01*
X20493253Y3841401D01*
X20476777Y3823223D01*
X20458599Y3806747D01*
X20438893Y3792132D01*
X20417850Y3779520D01*
X20395671Y3769030D01*
X20372572Y3760765D01*
X20348773Y3754804D01*
X20324505Y3751204D01*
X20300001Y3750000D01*
X19649999Y3750000D01*
X19625495Y3751204D01*
X19601227Y3754804D01*
X19577428Y3760765D01*
X19554329Y3769030D01*
X19532150Y3779520D01*
X19511107Y3792132D01*
X19491401Y3806747D01*
X19473223Y3823223D01*
X19456747Y3841401D01*
X19442132Y3861107D01*
X19429520Y3882150D01*
X19419030Y3904329D01*
X19410765Y3927428D01*
X19404804Y3951227D01*
X19401204Y3975495D01*
X19400000Y3999999D01*
X19400000Y4900001D01*
X19401204Y4924505D01*
X19404804Y4948773D01*
X19410765Y4972572D01*
X19419030Y4995671D01*
X19429520Y5017850D01*
X19442132Y5038893D01*
X19456747Y5058599D01*
X19473223Y5076777D01*
X19491401Y5093253D01*
X19511107Y5107868D01*
X19532150Y5120480D01*
X19554329Y5130970D01*
X19577428Y5139235D01*
X19601227Y5145196D01*
X19625495Y5148796D01*
X19649999Y5150000D01*
X20300001Y5150000D01*
X20324505Y5148796D01*
X20324505Y5148796D01*
G37*
D11*
X19975000Y4450000D03*
D10*
G36*
X24474505Y5048796D02*
G01*
X24498773Y5045196D01*
X24522572Y5039235D01*
X24545671Y5030970D01*
X24567850Y5020480D01*
X24588893Y5007868D01*
X24608599Y4993253D01*
X24626777Y4976777D01*
X24643253Y4958599D01*
X24657868Y4938893D01*
X24670480Y4917850D01*
X24680970Y4895671D01*
X24689235Y4872572D01*
X24695196Y4848773D01*
X24698796Y4824505D01*
X24700000Y4800001D01*
X24700000Y4149999D01*
X24698796Y4125495D01*
X24695196Y4101227D01*
X24689235Y4077428D01*
X24680970Y4054329D01*
X24670480Y4032150D01*
X24657868Y4011107D01*
X24643253Y3991401D01*
X24626777Y3973223D01*
X24608599Y3956747D01*
X24588893Y3942132D01*
X24567850Y3929520D01*
X24545671Y3919030D01*
X24522572Y3910765D01*
X24498773Y3904804D01*
X24474505Y3901204D01*
X24450001Y3900000D01*
X23549999Y3900000D01*
X23525495Y3901204D01*
X23501227Y3904804D01*
X23477428Y3910765D01*
X23454329Y3919030D01*
X23432150Y3929520D01*
X23411107Y3942132D01*
X23391401Y3956747D01*
X23373223Y3973223D01*
X23356747Y3991401D01*
X23342132Y4011107D01*
X23329520Y4032150D01*
X23319030Y4054329D01*
X23310765Y4077428D01*
X23304804Y4101227D01*
X23301204Y4125495D01*
X23300000Y4149999D01*
X23300000Y4800001D01*
X23301204Y4824505D01*
X23304804Y4848773D01*
X23310765Y4872572D01*
X23319030Y4895671D01*
X23329520Y4917850D01*
X23342132Y4938893D01*
X23356747Y4958599D01*
X23373223Y4976777D01*
X23391401Y4993253D01*
X23411107Y5007868D01*
X23432150Y5020480D01*
X23454329Y5030970D01*
X23477428Y5039235D01*
X23501227Y5045196D01*
X23525495Y5048796D01*
X23549999Y5050000D01*
X24450001Y5050000D01*
X24474505Y5048796D01*
X24474505Y5048796D01*
G37*
D11*
X24000000Y4475000D03*
D10*
G36*
X24474505Y2998796D02*
G01*
X24498773Y2995196D01*
X24522572Y2989235D01*
X24545671Y2980970D01*
X24567850Y2970480D01*
X24588893Y2957868D01*
X24608599Y2943253D01*
X24626777Y2926777D01*
X24643253Y2908599D01*
X24657868Y2888893D01*
X24670480Y2867850D01*
X24680970Y2845671D01*
X24689235Y2822572D01*
X24695196Y2798773D01*
X24698796Y2774505D01*
X24700000Y2750001D01*
X24700000Y2099999D01*
X24698796Y2075495D01*
X24695196Y2051227D01*
X24689235Y2027428D01*
X24680970Y2004329D01*
X24670480Y1982150D01*
X24657868Y1961107D01*
X24643253Y1941401D01*
X24626777Y1923223D01*
X24608599Y1906747D01*
X24588893Y1892132D01*
X24567850Y1879520D01*
X24545671Y1869030D01*
X24522572Y1860765D01*
X24498773Y1854804D01*
X24474505Y1851204D01*
X24450001Y1850000D01*
X23549999Y1850000D01*
X23525495Y1851204D01*
X23501227Y1854804D01*
X23477428Y1860765D01*
X23454329Y1869030D01*
X23432150Y1879520D01*
X23411107Y1892132D01*
X23391401Y1906747D01*
X23373223Y1923223D01*
X23356747Y1941401D01*
X23342132Y1961107D01*
X23329520Y1982150D01*
X23319030Y2004329D01*
X23310765Y2027428D01*
X23304804Y2051227D01*
X23301204Y2075495D01*
X23300000Y2099999D01*
X23300000Y2750001D01*
X23301204Y2774505D01*
X23304804Y2798773D01*
X23310765Y2822572D01*
X23319030Y2845671D01*
X23329520Y2867850D01*
X23342132Y2888893D01*
X23356747Y2908599D01*
X23373223Y2926777D01*
X23391401Y2943253D01*
X23411107Y2957868D01*
X23432150Y2970480D01*
X23454329Y2980970D01*
X23477428Y2989235D01*
X23501227Y2995196D01*
X23525495Y2998796D01*
X23549999Y3000000D01*
X24450001Y3000000D01*
X24474505Y2998796D01*
X24474505Y2998796D01*
G37*
D11*
X24000000Y2425000D03*
D18*
X1960000Y3700000D03*
D19*
X4500000Y3700000D03*
D18*
X2000000Y29950000D03*
D19*
X4540000Y29950000D03*
D18*
X1960000Y11950000D03*
D19*
X4500000Y11950000D03*
D18*
X2000000Y21450000D03*
D19*
X4540000Y21450000D03*
D10*
G36*
X20664703Y15424278D02*
G01*
X20679264Y15422118D01*
X20693543Y15418541D01*
X20707403Y15413582D01*
X20720710Y15407288D01*
X20733336Y15399720D01*
X20745159Y15390952D01*
X20756066Y15381066D01*
X20765952Y15370159D01*
X20774720Y15358336D01*
X20782288Y15345710D01*
X20788582Y15332403D01*
X20793541Y15318543D01*
X20797118Y15304264D01*
X20799278Y15289703D01*
X20800000Y15275000D01*
X20800000Y13625000D01*
X20799278Y13610297D01*
X20797118Y13595736D01*
X20793541Y13581457D01*
X20788582Y13567597D01*
X20782288Y13554290D01*
X20774720Y13541664D01*
X20765952Y13529841D01*
X20756066Y13518934D01*
X20745159Y13509048D01*
X20733336Y13500280D01*
X20720710Y13492712D01*
X20707403Y13486418D01*
X20693543Y13481459D01*
X20679264Y13477882D01*
X20664703Y13475722D01*
X20650000Y13475000D01*
X20350000Y13475000D01*
X20335297Y13475722D01*
X20320736Y13477882D01*
X20306457Y13481459D01*
X20292597Y13486418D01*
X20279290Y13492712D01*
X20266664Y13500280D01*
X20254841Y13509048D01*
X20243934Y13518934D01*
X20234048Y13529841D01*
X20225280Y13541664D01*
X20217712Y13554290D01*
X20211418Y13567597D01*
X20206459Y13581457D01*
X20202882Y13595736D01*
X20200722Y13610297D01*
X20200000Y13625000D01*
X20200000Y15275000D01*
X20200722Y15289703D01*
X20202882Y15304264D01*
X20206459Y15318543D01*
X20211418Y15332403D01*
X20217712Y15345710D01*
X20225280Y15358336D01*
X20234048Y15370159D01*
X20243934Y15381066D01*
X20254841Y15390952D01*
X20266664Y15399720D01*
X20279290Y15407288D01*
X20292597Y15413582D01*
X20306457Y15418541D01*
X20320736Y15422118D01*
X20335297Y15424278D01*
X20350000Y15425000D01*
X20650000Y15425000D01*
X20664703Y15424278D01*
X20664703Y15424278D01*
G37*
D20*
X20500000Y14450000D03*
D10*
G36*
X19394703Y15424278D02*
G01*
X19409264Y15422118D01*
X19423543Y15418541D01*
X19437403Y15413582D01*
X19450710Y15407288D01*
X19463336Y15399720D01*
X19475159Y15390952D01*
X19486066Y15381066D01*
X19495952Y15370159D01*
X19504720Y15358336D01*
X19512288Y15345710D01*
X19518582Y15332403D01*
X19523541Y15318543D01*
X19527118Y15304264D01*
X19529278Y15289703D01*
X19530000Y15275000D01*
X19530000Y13625000D01*
X19529278Y13610297D01*
X19527118Y13595736D01*
X19523541Y13581457D01*
X19518582Y13567597D01*
X19512288Y13554290D01*
X19504720Y13541664D01*
X19495952Y13529841D01*
X19486066Y13518934D01*
X19475159Y13509048D01*
X19463336Y13500280D01*
X19450710Y13492712D01*
X19437403Y13486418D01*
X19423543Y13481459D01*
X19409264Y13477882D01*
X19394703Y13475722D01*
X19380000Y13475000D01*
X19080000Y13475000D01*
X19065297Y13475722D01*
X19050736Y13477882D01*
X19036457Y13481459D01*
X19022597Y13486418D01*
X19009290Y13492712D01*
X18996664Y13500280D01*
X18984841Y13509048D01*
X18973934Y13518934D01*
X18964048Y13529841D01*
X18955280Y13541664D01*
X18947712Y13554290D01*
X18941418Y13567597D01*
X18936459Y13581457D01*
X18932882Y13595736D01*
X18930722Y13610297D01*
X18930000Y13625000D01*
X18930000Y15275000D01*
X18930722Y15289703D01*
X18932882Y15304264D01*
X18936459Y15318543D01*
X18941418Y15332403D01*
X18947712Y15345710D01*
X18955280Y15358336D01*
X18964048Y15370159D01*
X18973934Y15381066D01*
X18984841Y15390952D01*
X18996664Y15399720D01*
X19009290Y15407288D01*
X19022597Y15413582D01*
X19036457Y15418541D01*
X19050736Y15422118D01*
X19065297Y15424278D01*
X19080000Y15425000D01*
X19380000Y15425000D01*
X19394703Y15424278D01*
X19394703Y15424278D01*
G37*
D20*
X19230000Y14450000D03*
D10*
G36*
X18124703Y15424278D02*
G01*
X18139264Y15422118D01*
X18153543Y15418541D01*
X18167403Y15413582D01*
X18180710Y15407288D01*
X18193336Y15399720D01*
X18205159Y15390952D01*
X18216066Y15381066D01*
X18225952Y15370159D01*
X18234720Y15358336D01*
X18242288Y15345710D01*
X18248582Y15332403D01*
X18253541Y15318543D01*
X18257118Y15304264D01*
X18259278Y15289703D01*
X18260000Y15275000D01*
X18260000Y13625000D01*
X18259278Y13610297D01*
X18257118Y13595736D01*
X18253541Y13581457D01*
X18248582Y13567597D01*
X18242288Y13554290D01*
X18234720Y13541664D01*
X18225952Y13529841D01*
X18216066Y13518934D01*
X18205159Y13509048D01*
X18193336Y13500280D01*
X18180710Y13492712D01*
X18167403Y13486418D01*
X18153543Y13481459D01*
X18139264Y13477882D01*
X18124703Y13475722D01*
X18110000Y13475000D01*
X17810000Y13475000D01*
X17795297Y13475722D01*
X17780736Y13477882D01*
X17766457Y13481459D01*
X17752597Y13486418D01*
X17739290Y13492712D01*
X17726664Y13500280D01*
X17714841Y13509048D01*
X17703934Y13518934D01*
X17694048Y13529841D01*
X17685280Y13541664D01*
X17677712Y13554290D01*
X17671418Y13567597D01*
X17666459Y13581457D01*
X17662882Y13595736D01*
X17660722Y13610297D01*
X17660000Y13625000D01*
X17660000Y15275000D01*
X17660722Y15289703D01*
X17662882Y15304264D01*
X17666459Y15318543D01*
X17671418Y15332403D01*
X17677712Y15345710D01*
X17685280Y15358336D01*
X17694048Y15370159D01*
X17703934Y15381066D01*
X17714841Y15390952D01*
X17726664Y15399720D01*
X17739290Y15407288D01*
X17752597Y15413582D01*
X17766457Y15418541D01*
X17780736Y15422118D01*
X17795297Y15424278D01*
X17810000Y15425000D01*
X18110000Y15425000D01*
X18124703Y15424278D01*
X18124703Y15424278D01*
G37*
D20*
X17960000Y14450000D03*
D10*
G36*
X16854703Y15424278D02*
G01*
X16869264Y15422118D01*
X16883543Y15418541D01*
X16897403Y15413582D01*
X16910710Y15407288D01*
X16923336Y15399720D01*
X16935159Y15390952D01*
X16946066Y15381066D01*
X16955952Y15370159D01*
X16964720Y15358336D01*
X16972288Y15345710D01*
X16978582Y15332403D01*
X16983541Y15318543D01*
X16987118Y15304264D01*
X16989278Y15289703D01*
X16990000Y15275000D01*
X16990000Y13625000D01*
X16989278Y13610297D01*
X16987118Y13595736D01*
X16983541Y13581457D01*
X16978582Y13567597D01*
X16972288Y13554290D01*
X16964720Y13541664D01*
X16955952Y13529841D01*
X16946066Y13518934D01*
X16935159Y13509048D01*
X16923336Y13500280D01*
X16910710Y13492712D01*
X16897403Y13486418D01*
X16883543Y13481459D01*
X16869264Y13477882D01*
X16854703Y13475722D01*
X16840000Y13475000D01*
X16540000Y13475000D01*
X16525297Y13475722D01*
X16510736Y13477882D01*
X16496457Y13481459D01*
X16482597Y13486418D01*
X16469290Y13492712D01*
X16456664Y13500280D01*
X16444841Y13509048D01*
X16433934Y13518934D01*
X16424048Y13529841D01*
X16415280Y13541664D01*
X16407712Y13554290D01*
X16401418Y13567597D01*
X16396459Y13581457D01*
X16392882Y13595736D01*
X16390722Y13610297D01*
X16390000Y13625000D01*
X16390000Y15275000D01*
X16390722Y15289703D01*
X16392882Y15304264D01*
X16396459Y15318543D01*
X16401418Y15332403D01*
X16407712Y15345710D01*
X16415280Y15358336D01*
X16424048Y15370159D01*
X16433934Y15381066D01*
X16444841Y15390952D01*
X16456664Y15399720D01*
X16469290Y15407288D01*
X16482597Y15413582D01*
X16496457Y15418541D01*
X16510736Y15422118D01*
X16525297Y15424278D01*
X16540000Y15425000D01*
X16840000Y15425000D01*
X16854703Y15424278D01*
X16854703Y15424278D01*
G37*
D20*
X16690000Y14450000D03*
D10*
G36*
X15584703Y15424278D02*
G01*
X15599264Y15422118D01*
X15613543Y15418541D01*
X15627403Y15413582D01*
X15640710Y15407288D01*
X15653336Y15399720D01*
X15665159Y15390952D01*
X15676066Y15381066D01*
X15685952Y15370159D01*
X15694720Y15358336D01*
X15702288Y15345710D01*
X15708582Y15332403D01*
X15713541Y15318543D01*
X15717118Y15304264D01*
X15719278Y15289703D01*
X15720000Y15275000D01*
X15720000Y13625000D01*
X15719278Y13610297D01*
X15717118Y13595736D01*
X15713541Y13581457D01*
X15708582Y13567597D01*
X15702288Y13554290D01*
X15694720Y13541664D01*
X15685952Y13529841D01*
X15676066Y13518934D01*
X15665159Y13509048D01*
X15653336Y13500280D01*
X15640710Y13492712D01*
X15627403Y13486418D01*
X15613543Y13481459D01*
X15599264Y13477882D01*
X15584703Y13475722D01*
X15570000Y13475000D01*
X15270000Y13475000D01*
X15255297Y13475722D01*
X15240736Y13477882D01*
X15226457Y13481459D01*
X15212597Y13486418D01*
X15199290Y13492712D01*
X15186664Y13500280D01*
X15174841Y13509048D01*
X15163934Y13518934D01*
X15154048Y13529841D01*
X15145280Y13541664D01*
X15137712Y13554290D01*
X15131418Y13567597D01*
X15126459Y13581457D01*
X15122882Y13595736D01*
X15120722Y13610297D01*
X15120000Y13625000D01*
X15120000Y15275000D01*
X15120722Y15289703D01*
X15122882Y15304264D01*
X15126459Y15318543D01*
X15131418Y15332403D01*
X15137712Y15345710D01*
X15145280Y15358336D01*
X15154048Y15370159D01*
X15163934Y15381066D01*
X15174841Y15390952D01*
X15186664Y15399720D01*
X15199290Y15407288D01*
X15212597Y15413582D01*
X15226457Y15418541D01*
X15240736Y15422118D01*
X15255297Y15424278D01*
X15270000Y15425000D01*
X15570000Y15425000D01*
X15584703Y15424278D01*
X15584703Y15424278D01*
G37*
D20*
X15420000Y14450000D03*
D10*
G36*
X14314703Y15424278D02*
G01*
X14329264Y15422118D01*
X14343543Y15418541D01*
X14357403Y15413582D01*
X14370710Y15407288D01*
X14383336Y15399720D01*
X14395159Y15390952D01*
X14406066Y15381066D01*
X14415952Y15370159D01*
X14424720Y15358336D01*
X14432288Y15345710D01*
X14438582Y15332403D01*
X14443541Y15318543D01*
X14447118Y15304264D01*
X14449278Y15289703D01*
X14450000Y15275000D01*
X14450000Y13625000D01*
X14449278Y13610297D01*
X14447118Y13595736D01*
X14443541Y13581457D01*
X14438582Y13567597D01*
X14432288Y13554290D01*
X14424720Y13541664D01*
X14415952Y13529841D01*
X14406066Y13518934D01*
X14395159Y13509048D01*
X14383336Y13500280D01*
X14370710Y13492712D01*
X14357403Y13486418D01*
X14343543Y13481459D01*
X14329264Y13477882D01*
X14314703Y13475722D01*
X14300000Y13475000D01*
X14000000Y13475000D01*
X13985297Y13475722D01*
X13970736Y13477882D01*
X13956457Y13481459D01*
X13942597Y13486418D01*
X13929290Y13492712D01*
X13916664Y13500280D01*
X13904841Y13509048D01*
X13893934Y13518934D01*
X13884048Y13529841D01*
X13875280Y13541664D01*
X13867712Y13554290D01*
X13861418Y13567597D01*
X13856459Y13581457D01*
X13852882Y13595736D01*
X13850722Y13610297D01*
X13850000Y13625000D01*
X13850000Y15275000D01*
X13850722Y15289703D01*
X13852882Y15304264D01*
X13856459Y15318543D01*
X13861418Y15332403D01*
X13867712Y15345710D01*
X13875280Y15358336D01*
X13884048Y15370159D01*
X13893934Y15381066D01*
X13904841Y15390952D01*
X13916664Y15399720D01*
X13929290Y15407288D01*
X13942597Y15413582D01*
X13956457Y15418541D01*
X13970736Y15422118D01*
X13985297Y15424278D01*
X14000000Y15425000D01*
X14300000Y15425000D01*
X14314703Y15424278D01*
X14314703Y15424278D01*
G37*
D20*
X14150000Y14450000D03*
D10*
G36*
X13044703Y15424278D02*
G01*
X13059264Y15422118D01*
X13073543Y15418541D01*
X13087403Y15413582D01*
X13100710Y15407288D01*
X13113336Y15399720D01*
X13125159Y15390952D01*
X13136066Y15381066D01*
X13145952Y15370159D01*
X13154720Y15358336D01*
X13162288Y15345710D01*
X13168582Y15332403D01*
X13173541Y15318543D01*
X13177118Y15304264D01*
X13179278Y15289703D01*
X13180000Y15275000D01*
X13180000Y13625000D01*
X13179278Y13610297D01*
X13177118Y13595736D01*
X13173541Y13581457D01*
X13168582Y13567597D01*
X13162288Y13554290D01*
X13154720Y13541664D01*
X13145952Y13529841D01*
X13136066Y13518934D01*
X13125159Y13509048D01*
X13113336Y13500280D01*
X13100710Y13492712D01*
X13087403Y13486418D01*
X13073543Y13481459D01*
X13059264Y13477882D01*
X13044703Y13475722D01*
X13030000Y13475000D01*
X12730000Y13475000D01*
X12715297Y13475722D01*
X12700736Y13477882D01*
X12686457Y13481459D01*
X12672597Y13486418D01*
X12659290Y13492712D01*
X12646664Y13500280D01*
X12634841Y13509048D01*
X12623934Y13518934D01*
X12614048Y13529841D01*
X12605280Y13541664D01*
X12597712Y13554290D01*
X12591418Y13567597D01*
X12586459Y13581457D01*
X12582882Y13595736D01*
X12580722Y13610297D01*
X12580000Y13625000D01*
X12580000Y15275000D01*
X12580722Y15289703D01*
X12582882Y15304264D01*
X12586459Y15318543D01*
X12591418Y15332403D01*
X12597712Y15345710D01*
X12605280Y15358336D01*
X12614048Y15370159D01*
X12623934Y15381066D01*
X12634841Y15390952D01*
X12646664Y15399720D01*
X12659290Y15407288D01*
X12672597Y15413582D01*
X12686457Y15418541D01*
X12700736Y15422118D01*
X12715297Y15424278D01*
X12730000Y15425000D01*
X13030000Y15425000D01*
X13044703Y15424278D01*
X13044703Y15424278D01*
G37*
D20*
X12880000Y14450000D03*
D10*
G36*
X13044703Y20374278D02*
G01*
X13059264Y20372118D01*
X13073543Y20368541D01*
X13087403Y20363582D01*
X13100710Y20357288D01*
X13113336Y20349720D01*
X13125159Y20340952D01*
X13136066Y20331066D01*
X13145952Y20320159D01*
X13154720Y20308336D01*
X13162288Y20295710D01*
X13168582Y20282403D01*
X13173541Y20268543D01*
X13177118Y20254264D01*
X13179278Y20239703D01*
X13180000Y20225000D01*
X13180000Y18575000D01*
X13179278Y18560297D01*
X13177118Y18545736D01*
X13173541Y18531457D01*
X13168582Y18517597D01*
X13162288Y18504290D01*
X13154720Y18491664D01*
X13145952Y18479841D01*
X13136066Y18468934D01*
X13125159Y18459048D01*
X13113336Y18450280D01*
X13100710Y18442712D01*
X13087403Y18436418D01*
X13073543Y18431459D01*
X13059264Y18427882D01*
X13044703Y18425722D01*
X13030000Y18425000D01*
X12730000Y18425000D01*
X12715297Y18425722D01*
X12700736Y18427882D01*
X12686457Y18431459D01*
X12672597Y18436418D01*
X12659290Y18442712D01*
X12646664Y18450280D01*
X12634841Y18459048D01*
X12623934Y18468934D01*
X12614048Y18479841D01*
X12605280Y18491664D01*
X12597712Y18504290D01*
X12591418Y18517597D01*
X12586459Y18531457D01*
X12582882Y18545736D01*
X12580722Y18560297D01*
X12580000Y18575000D01*
X12580000Y20225000D01*
X12580722Y20239703D01*
X12582882Y20254264D01*
X12586459Y20268543D01*
X12591418Y20282403D01*
X12597712Y20295710D01*
X12605280Y20308336D01*
X12614048Y20320159D01*
X12623934Y20331066D01*
X12634841Y20340952D01*
X12646664Y20349720D01*
X12659290Y20357288D01*
X12672597Y20363582D01*
X12686457Y20368541D01*
X12700736Y20372118D01*
X12715297Y20374278D01*
X12730000Y20375000D01*
X13030000Y20375000D01*
X13044703Y20374278D01*
X13044703Y20374278D01*
G37*
D20*
X12880000Y19400000D03*
D10*
G36*
X14314703Y20374278D02*
G01*
X14329264Y20372118D01*
X14343543Y20368541D01*
X14357403Y20363582D01*
X14370710Y20357288D01*
X14383336Y20349720D01*
X14395159Y20340952D01*
X14406066Y20331066D01*
X14415952Y20320159D01*
X14424720Y20308336D01*
X14432288Y20295710D01*
X14438582Y20282403D01*
X14443541Y20268543D01*
X14447118Y20254264D01*
X14449278Y20239703D01*
X14450000Y20225000D01*
X14450000Y18575000D01*
X14449278Y18560297D01*
X14447118Y18545736D01*
X14443541Y18531457D01*
X14438582Y18517597D01*
X14432288Y18504290D01*
X14424720Y18491664D01*
X14415952Y18479841D01*
X14406066Y18468934D01*
X14395159Y18459048D01*
X14383336Y18450280D01*
X14370710Y18442712D01*
X14357403Y18436418D01*
X14343543Y18431459D01*
X14329264Y18427882D01*
X14314703Y18425722D01*
X14300000Y18425000D01*
X14000000Y18425000D01*
X13985297Y18425722D01*
X13970736Y18427882D01*
X13956457Y18431459D01*
X13942597Y18436418D01*
X13929290Y18442712D01*
X13916664Y18450280D01*
X13904841Y18459048D01*
X13893934Y18468934D01*
X13884048Y18479841D01*
X13875280Y18491664D01*
X13867712Y18504290D01*
X13861418Y18517597D01*
X13856459Y18531457D01*
X13852882Y18545736D01*
X13850722Y18560297D01*
X13850000Y18575000D01*
X13850000Y20225000D01*
X13850722Y20239703D01*
X13852882Y20254264D01*
X13856459Y20268543D01*
X13861418Y20282403D01*
X13867712Y20295710D01*
X13875280Y20308336D01*
X13884048Y20320159D01*
X13893934Y20331066D01*
X13904841Y20340952D01*
X13916664Y20349720D01*
X13929290Y20357288D01*
X13942597Y20363582D01*
X13956457Y20368541D01*
X13970736Y20372118D01*
X13985297Y20374278D01*
X14000000Y20375000D01*
X14300000Y20375000D01*
X14314703Y20374278D01*
X14314703Y20374278D01*
G37*
D20*
X14150000Y19400000D03*
D10*
G36*
X15584703Y20374278D02*
G01*
X15599264Y20372118D01*
X15613543Y20368541D01*
X15627403Y20363582D01*
X15640710Y20357288D01*
X15653336Y20349720D01*
X15665159Y20340952D01*
X15676066Y20331066D01*
X15685952Y20320159D01*
X15694720Y20308336D01*
X15702288Y20295710D01*
X15708582Y20282403D01*
X15713541Y20268543D01*
X15717118Y20254264D01*
X15719278Y20239703D01*
X15720000Y20225000D01*
X15720000Y18575000D01*
X15719278Y18560297D01*
X15717118Y18545736D01*
X15713541Y18531457D01*
X15708582Y18517597D01*
X15702288Y18504290D01*
X15694720Y18491664D01*
X15685952Y18479841D01*
X15676066Y18468934D01*
X15665159Y18459048D01*
X15653336Y18450280D01*
X15640710Y18442712D01*
X15627403Y18436418D01*
X15613543Y18431459D01*
X15599264Y18427882D01*
X15584703Y18425722D01*
X15570000Y18425000D01*
X15270000Y18425000D01*
X15255297Y18425722D01*
X15240736Y18427882D01*
X15226457Y18431459D01*
X15212597Y18436418D01*
X15199290Y18442712D01*
X15186664Y18450280D01*
X15174841Y18459048D01*
X15163934Y18468934D01*
X15154048Y18479841D01*
X15145280Y18491664D01*
X15137712Y18504290D01*
X15131418Y18517597D01*
X15126459Y18531457D01*
X15122882Y18545736D01*
X15120722Y18560297D01*
X15120000Y18575000D01*
X15120000Y20225000D01*
X15120722Y20239703D01*
X15122882Y20254264D01*
X15126459Y20268543D01*
X15131418Y20282403D01*
X15137712Y20295710D01*
X15145280Y20308336D01*
X15154048Y20320159D01*
X15163934Y20331066D01*
X15174841Y20340952D01*
X15186664Y20349720D01*
X15199290Y20357288D01*
X15212597Y20363582D01*
X15226457Y20368541D01*
X15240736Y20372118D01*
X15255297Y20374278D01*
X15270000Y20375000D01*
X15570000Y20375000D01*
X15584703Y20374278D01*
X15584703Y20374278D01*
G37*
D20*
X15420000Y19400000D03*
D10*
G36*
X16854703Y20374278D02*
G01*
X16869264Y20372118D01*
X16883543Y20368541D01*
X16897403Y20363582D01*
X16910710Y20357288D01*
X16923336Y20349720D01*
X16935159Y20340952D01*
X16946066Y20331066D01*
X16955952Y20320159D01*
X16964720Y20308336D01*
X16972288Y20295710D01*
X16978582Y20282403D01*
X16983541Y20268543D01*
X16987118Y20254264D01*
X16989278Y20239703D01*
X16990000Y20225000D01*
X16990000Y18575000D01*
X16989278Y18560297D01*
X16987118Y18545736D01*
X16983541Y18531457D01*
X16978582Y18517597D01*
X16972288Y18504290D01*
X16964720Y18491664D01*
X16955952Y18479841D01*
X16946066Y18468934D01*
X16935159Y18459048D01*
X16923336Y18450280D01*
X16910710Y18442712D01*
X16897403Y18436418D01*
X16883543Y18431459D01*
X16869264Y18427882D01*
X16854703Y18425722D01*
X16840000Y18425000D01*
X16540000Y18425000D01*
X16525297Y18425722D01*
X16510736Y18427882D01*
X16496457Y18431459D01*
X16482597Y18436418D01*
X16469290Y18442712D01*
X16456664Y18450280D01*
X16444841Y18459048D01*
X16433934Y18468934D01*
X16424048Y18479841D01*
X16415280Y18491664D01*
X16407712Y18504290D01*
X16401418Y18517597D01*
X16396459Y18531457D01*
X16392882Y18545736D01*
X16390722Y18560297D01*
X16390000Y18575000D01*
X16390000Y20225000D01*
X16390722Y20239703D01*
X16392882Y20254264D01*
X16396459Y20268543D01*
X16401418Y20282403D01*
X16407712Y20295710D01*
X16415280Y20308336D01*
X16424048Y20320159D01*
X16433934Y20331066D01*
X16444841Y20340952D01*
X16456664Y20349720D01*
X16469290Y20357288D01*
X16482597Y20363582D01*
X16496457Y20368541D01*
X16510736Y20372118D01*
X16525297Y20374278D01*
X16540000Y20375000D01*
X16840000Y20375000D01*
X16854703Y20374278D01*
X16854703Y20374278D01*
G37*
D20*
X16690000Y19400000D03*
D10*
G36*
X18124703Y20374278D02*
G01*
X18139264Y20372118D01*
X18153543Y20368541D01*
X18167403Y20363582D01*
X18180710Y20357288D01*
X18193336Y20349720D01*
X18205159Y20340952D01*
X18216066Y20331066D01*
X18225952Y20320159D01*
X18234720Y20308336D01*
X18242288Y20295710D01*
X18248582Y20282403D01*
X18253541Y20268543D01*
X18257118Y20254264D01*
X18259278Y20239703D01*
X18260000Y20225000D01*
X18260000Y18575000D01*
X18259278Y18560297D01*
X18257118Y18545736D01*
X18253541Y18531457D01*
X18248582Y18517597D01*
X18242288Y18504290D01*
X18234720Y18491664D01*
X18225952Y18479841D01*
X18216066Y18468934D01*
X18205159Y18459048D01*
X18193336Y18450280D01*
X18180710Y18442712D01*
X18167403Y18436418D01*
X18153543Y18431459D01*
X18139264Y18427882D01*
X18124703Y18425722D01*
X18110000Y18425000D01*
X17810000Y18425000D01*
X17795297Y18425722D01*
X17780736Y18427882D01*
X17766457Y18431459D01*
X17752597Y18436418D01*
X17739290Y18442712D01*
X17726664Y18450280D01*
X17714841Y18459048D01*
X17703934Y18468934D01*
X17694048Y18479841D01*
X17685280Y18491664D01*
X17677712Y18504290D01*
X17671418Y18517597D01*
X17666459Y18531457D01*
X17662882Y18545736D01*
X17660722Y18560297D01*
X17660000Y18575000D01*
X17660000Y20225000D01*
X17660722Y20239703D01*
X17662882Y20254264D01*
X17666459Y20268543D01*
X17671418Y20282403D01*
X17677712Y20295710D01*
X17685280Y20308336D01*
X17694048Y20320159D01*
X17703934Y20331066D01*
X17714841Y20340952D01*
X17726664Y20349720D01*
X17739290Y20357288D01*
X17752597Y20363582D01*
X17766457Y20368541D01*
X17780736Y20372118D01*
X17795297Y20374278D01*
X17810000Y20375000D01*
X18110000Y20375000D01*
X18124703Y20374278D01*
X18124703Y20374278D01*
G37*
D20*
X17960000Y19400000D03*
D10*
G36*
X19394703Y20374278D02*
G01*
X19409264Y20372118D01*
X19423543Y20368541D01*
X19437403Y20363582D01*
X19450710Y20357288D01*
X19463336Y20349720D01*
X19475159Y20340952D01*
X19486066Y20331066D01*
X19495952Y20320159D01*
X19504720Y20308336D01*
X19512288Y20295710D01*
X19518582Y20282403D01*
X19523541Y20268543D01*
X19527118Y20254264D01*
X19529278Y20239703D01*
X19530000Y20225000D01*
X19530000Y18575000D01*
X19529278Y18560297D01*
X19527118Y18545736D01*
X19523541Y18531457D01*
X19518582Y18517597D01*
X19512288Y18504290D01*
X19504720Y18491664D01*
X19495952Y18479841D01*
X19486066Y18468934D01*
X19475159Y18459048D01*
X19463336Y18450280D01*
X19450710Y18442712D01*
X19437403Y18436418D01*
X19423543Y18431459D01*
X19409264Y18427882D01*
X19394703Y18425722D01*
X19380000Y18425000D01*
X19080000Y18425000D01*
X19065297Y18425722D01*
X19050736Y18427882D01*
X19036457Y18431459D01*
X19022597Y18436418D01*
X19009290Y18442712D01*
X18996664Y18450280D01*
X18984841Y18459048D01*
X18973934Y18468934D01*
X18964048Y18479841D01*
X18955280Y18491664D01*
X18947712Y18504290D01*
X18941418Y18517597D01*
X18936459Y18531457D01*
X18932882Y18545736D01*
X18930722Y18560297D01*
X18930000Y18575000D01*
X18930000Y20225000D01*
X18930722Y20239703D01*
X18932882Y20254264D01*
X18936459Y20268543D01*
X18941418Y20282403D01*
X18947712Y20295710D01*
X18955280Y20308336D01*
X18964048Y20320159D01*
X18973934Y20331066D01*
X18984841Y20340952D01*
X18996664Y20349720D01*
X19009290Y20357288D01*
X19022597Y20363582D01*
X19036457Y20368541D01*
X19050736Y20372118D01*
X19065297Y20374278D01*
X19080000Y20375000D01*
X19380000Y20375000D01*
X19394703Y20374278D01*
X19394703Y20374278D01*
G37*
D20*
X19230000Y19400000D03*
D10*
G36*
X20664703Y20374278D02*
G01*
X20679264Y20372118D01*
X20693543Y20368541D01*
X20707403Y20363582D01*
X20720710Y20357288D01*
X20733336Y20349720D01*
X20745159Y20340952D01*
X20756066Y20331066D01*
X20765952Y20320159D01*
X20774720Y20308336D01*
X20782288Y20295710D01*
X20788582Y20282403D01*
X20793541Y20268543D01*
X20797118Y20254264D01*
X20799278Y20239703D01*
X20800000Y20225000D01*
X20800000Y18575000D01*
X20799278Y18560297D01*
X20797118Y18545736D01*
X20793541Y18531457D01*
X20788582Y18517597D01*
X20782288Y18504290D01*
X20774720Y18491664D01*
X20765952Y18479841D01*
X20756066Y18468934D01*
X20745159Y18459048D01*
X20733336Y18450280D01*
X20720710Y18442712D01*
X20707403Y18436418D01*
X20693543Y18431459D01*
X20679264Y18427882D01*
X20664703Y18425722D01*
X20650000Y18425000D01*
X20350000Y18425000D01*
X20335297Y18425722D01*
X20320736Y18427882D01*
X20306457Y18431459D01*
X20292597Y18436418D01*
X20279290Y18442712D01*
X20266664Y18450280D01*
X20254841Y18459048D01*
X20243934Y18468934D01*
X20234048Y18479841D01*
X20225280Y18491664D01*
X20217712Y18504290D01*
X20211418Y18517597D01*
X20206459Y18531457D01*
X20202882Y18545736D01*
X20200722Y18560297D01*
X20200000Y18575000D01*
X20200000Y20225000D01*
X20200722Y20239703D01*
X20202882Y20254264D01*
X20206459Y20268543D01*
X20211418Y20282403D01*
X20217712Y20295710D01*
X20225280Y20308336D01*
X20234048Y20320159D01*
X20243934Y20331066D01*
X20254841Y20340952D01*
X20266664Y20349720D01*
X20279290Y20357288D01*
X20292597Y20363582D01*
X20306457Y20368541D01*
X20320736Y20372118D01*
X20335297Y20374278D01*
X20350000Y20375000D01*
X20650000Y20375000D01*
X20664703Y20374278D01*
X20664703Y20374278D01*
G37*
D20*
X20500000Y19400000D03*
D10*
G36*
X17874505Y9148796D02*
G01*
X17898773Y9145196D01*
X17922572Y9139235D01*
X17945671Y9130970D01*
X17967850Y9120480D01*
X17988893Y9107868D01*
X18008599Y9093253D01*
X18026777Y9076777D01*
X18043253Y9058599D01*
X18057868Y9038893D01*
X18070480Y9017850D01*
X18080970Y8995671D01*
X18089235Y8972572D01*
X18095196Y8948773D01*
X18098796Y8924505D01*
X18100000Y8900001D01*
X18100000Y7999999D01*
X18098796Y7975495D01*
X18095196Y7951227D01*
X18089235Y7927428D01*
X18080970Y7904329D01*
X18070480Y7882150D01*
X18057868Y7861107D01*
X18043253Y7841401D01*
X18026777Y7823223D01*
X18008599Y7806747D01*
X17988893Y7792132D01*
X17967850Y7779520D01*
X17945671Y7769030D01*
X17922572Y7760765D01*
X17898773Y7754804D01*
X17874505Y7751204D01*
X17850001Y7750000D01*
X17199999Y7750000D01*
X17175495Y7751204D01*
X17151227Y7754804D01*
X17127428Y7760765D01*
X17104329Y7769030D01*
X17082150Y7779520D01*
X17061107Y7792132D01*
X17041401Y7806747D01*
X17023223Y7823223D01*
X17006747Y7841401D01*
X16992132Y7861107D01*
X16979520Y7882150D01*
X16969030Y7904329D01*
X16960765Y7927428D01*
X16954804Y7951227D01*
X16951204Y7975495D01*
X16950000Y7999999D01*
X16950000Y8900001D01*
X16951204Y8924505D01*
X16954804Y8948773D01*
X16960765Y8972572D01*
X16969030Y8995671D01*
X16979520Y9017850D01*
X16992132Y9038893D01*
X17006747Y9058599D01*
X17023223Y9076777D01*
X17041401Y9093253D01*
X17061107Y9107868D01*
X17082150Y9120480D01*
X17104329Y9130970D01*
X17127428Y9139235D01*
X17151227Y9145196D01*
X17175495Y9148796D01*
X17199999Y9150000D01*
X17850001Y9150000D01*
X17874505Y9148796D01*
X17874505Y9148796D01*
G37*
D11*
X17525000Y8450000D03*
D10*
G36*
X15824505Y9148796D02*
G01*
X15848773Y9145196D01*
X15872572Y9139235D01*
X15895671Y9130970D01*
X15917850Y9120480D01*
X15938893Y9107868D01*
X15958599Y9093253D01*
X15976777Y9076777D01*
X15993253Y9058599D01*
X16007868Y9038893D01*
X16020480Y9017850D01*
X16030970Y8995671D01*
X16039235Y8972572D01*
X16045196Y8948773D01*
X16048796Y8924505D01*
X16050000Y8900001D01*
X16050000Y7999999D01*
X16048796Y7975495D01*
X16045196Y7951227D01*
X16039235Y7927428D01*
X16030970Y7904329D01*
X16020480Y7882150D01*
X16007868Y7861107D01*
X15993253Y7841401D01*
X15976777Y7823223D01*
X15958599Y7806747D01*
X15938893Y7792132D01*
X15917850Y7779520D01*
X15895671Y7769030D01*
X15872572Y7760765D01*
X15848773Y7754804D01*
X15824505Y7751204D01*
X15800001Y7750000D01*
X15149999Y7750000D01*
X15125495Y7751204D01*
X15101227Y7754804D01*
X15077428Y7760765D01*
X15054329Y7769030D01*
X15032150Y7779520D01*
X15011107Y7792132D01*
X14991401Y7806747D01*
X14973223Y7823223D01*
X14956747Y7841401D01*
X14942132Y7861107D01*
X14929520Y7882150D01*
X14919030Y7904329D01*
X14910765Y7927428D01*
X14904804Y7951227D01*
X14901204Y7975495D01*
X14900000Y7999999D01*
X14900000Y8900001D01*
X14901204Y8924505D01*
X14904804Y8948773D01*
X14910765Y8972572D01*
X14919030Y8995671D01*
X14929520Y9017850D01*
X14942132Y9038893D01*
X14956747Y9058599D01*
X14973223Y9076777D01*
X14991401Y9093253D01*
X15011107Y9107868D01*
X15032150Y9120480D01*
X15054329Y9130970D01*
X15077428Y9139235D01*
X15101227Y9145196D01*
X15125495Y9148796D01*
X15149999Y9150000D01*
X15800001Y9150000D01*
X15824505Y9148796D01*
X15824505Y9148796D01*
G37*
D11*
X15475000Y8450000D03*
D10*
G36*
X10224505Y30798796D02*
G01*
X10248773Y30795196D01*
X10272572Y30789235D01*
X10295671Y30780970D01*
X10317850Y30770480D01*
X10338893Y30757868D01*
X10358599Y30743253D01*
X10376777Y30726777D01*
X10393253Y30708599D01*
X10407868Y30688893D01*
X10420480Y30667850D01*
X10430970Y30645671D01*
X10439235Y30622572D01*
X10445196Y30598773D01*
X10448796Y30574505D01*
X10450000Y30550001D01*
X10450000Y29899999D01*
X10448796Y29875495D01*
X10445196Y29851227D01*
X10439235Y29827428D01*
X10430970Y29804329D01*
X10420480Y29782150D01*
X10407868Y29761107D01*
X10393253Y29741401D01*
X10376777Y29723223D01*
X10358599Y29706747D01*
X10338893Y29692132D01*
X10317850Y29679520D01*
X10295671Y29669030D01*
X10272572Y29660765D01*
X10248773Y29654804D01*
X10224505Y29651204D01*
X10200001Y29650000D01*
X9299999Y29650000D01*
X9275495Y29651204D01*
X9251227Y29654804D01*
X9227428Y29660765D01*
X9204329Y29669030D01*
X9182150Y29679520D01*
X9161107Y29692132D01*
X9141401Y29706747D01*
X9123223Y29723223D01*
X9106747Y29741401D01*
X9092132Y29761107D01*
X9079520Y29782150D01*
X9069030Y29804329D01*
X9060765Y29827428D01*
X9054804Y29851227D01*
X9051204Y29875495D01*
X9050000Y29899999D01*
X9050000Y30550001D01*
X9051204Y30574505D01*
X9054804Y30598773D01*
X9060765Y30622572D01*
X9069030Y30645671D01*
X9079520Y30667850D01*
X9092132Y30688893D01*
X9106747Y30708599D01*
X9123223Y30726777D01*
X9141401Y30743253D01*
X9161107Y30757868D01*
X9182150Y30770480D01*
X9204329Y30780970D01*
X9227428Y30789235D01*
X9251227Y30795196D01*
X9275495Y30798796D01*
X9299999Y30800000D01*
X10200001Y30800000D01*
X10224505Y30798796D01*
X10224505Y30798796D01*
G37*
D11*
X9750000Y30225000D03*
D10*
G36*
X10224505Y28748796D02*
G01*
X10248773Y28745196D01*
X10272572Y28739235D01*
X10295671Y28730970D01*
X10317850Y28720480D01*
X10338893Y28707868D01*
X10358599Y28693253D01*
X10376777Y28676777D01*
X10393253Y28658599D01*
X10407868Y28638893D01*
X10420480Y28617850D01*
X10430970Y28595671D01*
X10439235Y28572572D01*
X10445196Y28548773D01*
X10448796Y28524505D01*
X10450000Y28500001D01*
X10450000Y27849999D01*
X10448796Y27825495D01*
X10445196Y27801227D01*
X10439235Y27777428D01*
X10430970Y27754329D01*
X10420480Y27732150D01*
X10407868Y27711107D01*
X10393253Y27691401D01*
X10376777Y27673223D01*
X10358599Y27656747D01*
X10338893Y27642132D01*
X10317850Y27629520D01*
X10295671Y27619030D01*
X10272572Y27610765D01*
X10248773Y27604804D01*
X10224505Y27601204D01*
X10200001Y27600000D01*
X9299999Y27600000D01*
X9275495Y27601204D01*
X9251227Y27604804D01*
X9227428Y27610765D01*
X9204329Y27619030D01*
X9182150Y27629520D01*
X9161107Y27642132D01*
X9141401Y27656747D01*
X9123223Y27673223D01*
X9106747Y27691401D01*
X9092132Y27711107D01*
X9079520Y27732150D01*
X9069030Y27754329D01*
X9060765Y27777428D01*
X9054804Y27801227D01*
X9051204Y27825495D01*
X9050000Y27849999D01*
X9050000Y28500001D01*
X9051204Y28524505D01*
X9054804Y28548773D01*
X9060765Y28572572D01*
X9069030Y28595671D01*
X9079520Y28617850D01*
X9092132Y28638893D01*
X9106747Y28658599D01*
X9123223Y28676777D01*
X9141401Y28693253D01*
X9161107Y28707868D01*
X9182150Y28720480D01*
X9204329Y28730970D01*
X9227428Y28739235D01*
X9251227Y28745196D01*
X9275495Y28748796D01*
X9299999Y28750000D01*
X10200001Y28750000D01*
X10224505Y28748796D01*
X10224505Y28748796D01*
G37*
D11*
X9750000Y28175000D03*
D10*
G36*
X4849505Y7648796D02*
G01*
X4873773Y7645196D01*
X4897572Y7639235D01*
X4920671Y7630970D01*
X4942850Y7620480D01*
X4963893Y7607868D01*
X4983599Y7593253D01*
X5001777Y7576777D01*
X5018253Y7558599D01*
X5032868Y7538893D01*
X5045480Y7517850D01*
X5055970Y7495671D01*
X5064235Y7472572D01*
X5070196Y7448773D01*
X5073796Y7424505D01*
X5075000Y7400001D01*
X5075000Y6499999D01*
X5073796Y6475495D01*
X5070196Y6451227D01*
X5064235Y6427428D01*
X5055970Y6404329D01*
X5045480Y6382150D01*
X5032868Y6361107D01*
X5018253Y6341401D01*
X5001777Y6323223D01*
X4983599Y6306747D01*
X4963893Y6292132D01*
X4942850Y6279520D01*
X4920671Y6269030D01*
X4897572Y6260765D01*
X4873773Y6254804D01*
X4849505Y6251204D01*
X4825001Y6250000D01*
X4174999Y6250000D01*
X4150495Y6251204D01*
X4126227Y6254804D01*
X4102428Y6260765D01*
X4079329Y6269030D01*
X4057150Y6279520D01*
X4036107Y6292132D01*
X4016401Y6306747D01*
X3998223Y6323223D01*
X3981747Y6341401D01*
X3967132Y6361107D01*
X3954520Y6382150D01*
X3944030Y6404329D01*
X3935765Y6427428D01*
X3929804Y6451227D01*
X3926204Y6475495D01*
X3925000Y6499999D01*
X3925000Y7400001D01*
X3926204Y7424505D01*
X3929804Y7448773D01*
X3935765Y7472572D01*
X3944030Y7495671D01*
X3954520Y7517850D01*
X3967132Y7538893D01*
X3981747Y7558599D01*
X3998223Y7576777D01*
X4016401Y7593253D01*
X4036107Y7607868D01*
X4057150Y7620480D01*
X4079329Y7630970D01*
X4102428Y7639235D01*
X4126227Y7645196D01*
X4150495Y7648796D01*
X4174999Y7650000D01*
X4825001Y7650000D01*
X4849505Y7648796D01*
X4849505Y7648796D01*
G37*
D11*
X4500000Y6950000D03*
D10*
G36*
X2799505Y7648796D02*
G01*
X2823773Y7645196D01*
X2847572Y7639235D01*
X2870671Y7630970D01*
X2892850Y7620480D01*
X2913893Y7607868D01*
X2933599Y7593253D01*
X2951777Y7576777D01*
X2968253Y7558599D01*
X2982868Y7538893D01*
X2995480Y7517850D01*
X3005970Y7495671D01*
X3014235Y7472572D01*
X3020196Y7448773D01*
X3023796Y7424505D01*
X3025000Y7400001D01*
X3025000Y6499999D01*
X3023796Y6475495D01*
X3020196Y6451227D01*
X3014235Y6427428D01*
X3005970Y6404329D01*
X2995480Y6382150D01*
X2982868Y6361107D01*
X2968253Y6341401D01*
X2951777Y6323223D01*
X2933599Y6306747D01*
X2913893Y6292132D01*
X2892850Y6279520D01*
X2870671Y6269030D01*
X2847572Y6260765D01*
X2823773Y6254804D01*
X2799505Y6251204D01*
X2775001Y6250000D01*
X2124999Y6250000D01*
X2100495Y6251204D01*
X2076227Y6254804D01*
X2052428Y6260765D01*
X2029329Y6269030D01*
X2007150Y6279520D01*
X1986107Y6292132D01*
X1966401Y6306747D01*
X1948223Y6323223D01*
X1931747Y6341401D01*
X1917132Y6361107D01*
X1904520Y6382150D01*
X1894030Y6404329D01*
X1885765Y6427428D01*
X1879804Y6451227D01*
X1876204Y6475495D01*
X1875000Y6499999D01*
X1875000Y7400001D01*
X1876204Y7424505D01*
X1879804Y7448773D01*
X1885765Y7472572D01*
X1894030Y7495671D01*
X1904520Y7517850D01*
X1917132Y7538893D01*
X1931747Y7558599D01*
X1948223Y7576777D01*
X1966401Y7593253D01*
X1986107Y7607868D01*
X2007150Y7620480D01*
X2029329Y7630970D01*
X2052428Y7639235D01*
X2076227Y7645196D01*
X2100495Y7648796D01*
X2124999Y7650000D01*
X2775001Y7650000D01*
X2799505Y7648796D01*
X2799505Y7648796D01*
G37*
D11*
X2450000Y6950000D03*
D10*
G36*
X7474505Y18798796D02*
G01*
X7498773Y18795196D01*
X7522572Y18789235D01*
X7545671Y18780970D01*
X7567850Y18770480D01*
X7588893Y18757868D01*
X7608599Y18743253D01*
X7626777Y18726777D01*
X7643253Y18708599D01*
X7657868Y18688893D01*
X7670480Y18667850D01*
X7680970Y18645671D01*
X7689235Y18622572D01*
X7695196Y18598773D01*
X7698796Y18574505D01*
X7700000Y18550001D01*
X7700000Y17899999D01*
X7698796Y17875495D01*
X7695196Y17851227D01*
X7689235Y17827428D01*
X7680970Y17804329D01*
X7670480Y17782150D01*
X7657868Y17761107D01*
X7643253Y17741401D01*
X7626777Y17723223D01*
X7608599Y17706747D01*
X7588893Y17692132D01*
X7567850Y17679520D01*
X7545671Y17669030D01*
X7522572Y17660765D01*
X7498773Y17654804D01*
X7474505Y17651204D01*
X7450001Y17650000D01*
X6549999Y17650000D01*
X6525495Y17651204D01*
X6501227Y17654804D01*
X6477428Y17660765D01*
X6454329Y17669030D01*
X6432150Y17679520D01*
X6411107Y17692132D01*
X6391401Y17706747D01*
X6373223Y17723223D01*
X6356747Y17741401D01*
X6342132Y17761107D01*
X6329520Y17782150D01*
X6319030Y17804329D01*
X6310765Y17827428D01*
X6304804Y17851227D01*
X6301204Y17875495D01*
X6300000Y17899999D01*
X6300000Y18550001D01*
X6301204Y18574505D01*
X6304804Y18598773D01*
X6310765Y18622572D01*
X6319030Y18645671D01*
X6329520Y18667850D01*
X6342132Y18688893D01*
X6356747Y18708599D01*
X6373223Y18726777D01*
X6391401Y18743253D01*
X6411107Y18757868D01*
X6432150Y18770480D01*
X6454329Y18780970D01*
X6477428Y18789235D01*
X6501227Y18795196D01*
X6525495Y18798796D01*
X6549999Y18800000D01*
X7450001Y18800000D01*
X7474505Y18798796D01*
X7474505Y18798796D01*
G37*
D11*
X7000000Y18225000D03*
D10*
G36*
X7474505Y16748796D02*
G01*
X7498773Y16745196D01*
X7522572Y16739235D01*
X7545671Y16730970D01*
X7567850Y16720480D01*
X7588893Y16707868D01*
X7608599Y16693253D01*
X7626777Y16676777D01*
X7643253Y16658599D01*
X7657868Y16638893D01*
X7670480Y16617850D01*
X7680970Y16595671D01*
X7689235Y16572572D01*
X7695196Y16548773D01*
X7698796Y16524505D01*
X7700000Y16500001D01*
X7700000Y15849999D01*
X7698796Y15825495D01*
X7695196Y15801227D01*
X7689235Y15777428D01*
X7680970Y15754329D01*
X7670480Y15732150D01*
X7657868Y15711107D01*
X7643253Y15691401D01*
X7626777Y15673223D01*
X7608599Y15656747D01*
X7588893Y15642132D01*
X7567850Y15629520D01*
X7545671Y15619030D01*
X7522572Y15610765D01*
X7498773Y15604804D01*
X7474505Y15601204D01*
X7450001Y15600000D01*
X6549999Y15600000D01*
X6525495Y15601204D01*
X6501227Y15604804D01*
X6477428Y15610765D01*
X6454329Y15619030D01*
X6432150Y15629520D01*
X6411107Y15642132D01*
X6391401Y15656747D01*
X6373223Y15673223D01*
X6356747Y15691401D01*
X6342132Y15711107D01*
X6329520Y15732150D01*
X6319030Y15754329D01*
X6310765Y15777428D01*
X6304804Y15801227D01*
X6301204Y15825495D01*
X6300000Y15849999D01*
X6300000Y16500001D01*
X6301204Y16524505D01*
X6304804Y16548773D01*
X6310765Y16572572D01*
X6319030Y16595671D01*
X6329520Y16617850D01*
X6342132Y16638893D01*
X6356747Y16658599D01*
X6373223Y16676777D01*
X6391401Y16693253D01*
X6411107Y16707868D01*
X6432150Y16720480D01*
X6454329Y16730970D01*
X6477428Y16739235D01*
X6501227Y16745196D01*
X6525495Y16748796D01*
X6549999Y16750000D01*
X7450001Y16750000D01*
X7474505Y16748796D01*
X7474505Y16748796D01*
G37*
D11*
X7000000Y16175000D03*
D10*
G36*
X16124505Y24648796D02*
G01*
X16148773Y24645196D01*
X16172572Y24639235D01*
X16195671Y24630970D01*
X16217850Y24620480D01*
X16238893Y24607868D01*
X16258599Y24593253D01*
X16276777Y24576777D01*
X16293253Y24558599D01*
X16307868Y24538893D01*
X16320480Y24517850D01*
X16330970Y24495671D01*
X16339235Y24472572D01*
X16345196Y24448773D01*
X16348796Y24424505D01*
X16350000Y24400001D01*
X16350000Y23499999D01*
X16348796Y23475495D01*
X16345196Y23451227D01*
X16339235Y23427428D01*
X16330970Y23404329D01*
X16320480Y23382150D01*
X16307868Y23361107D01*
X16293253Y23341401D01*
X16276777Y23323223D01*
X16258599Y23306747D01*
X16238893Y23292132D01*
X16217850Y23279520D01*
X16195671Y23269030D01*
X16172572Y23260765D01*
X16148773Y23254804D01*
X16124505Y23251204D01*
X16100001Y23250000D01*
X15449999Y23250000D01*
X15425495Y23251204D01*
X15401227Y23254804D01*
X15377428Y23260765D01*
X15354329Y23269030D01*
X15332150Y23279520D01*
X15311107Y23292132D01*
X15291401Y23306747D01*
X15273223Y23323223D01*
X15256747Y23341401D01*
X15242132Y23361107D01*
X15229520Y23382150D01*
X15219030Y23404329D01*
X15210765Y23427428D01*
X15204804Y23451227D01*
X15201204Y23475495D01*
X15200000Y23499999D01*
X15200000Y24400001D01*
X15201204Y24424505D01*
X15204804Y24448773D01*
X15210765Y24472572D01*
X15219030Y24495671D01*
X15229520Y24517850D01*
X15242132Y24538893D01*
X15256747Y24558599D01*
X15273223Y24576777D01*
X15291401Y24593253D01*
X15311107Y24607868D01*
X15332150Y24620480D01*
X15354329Y24630970D01*
X15377428Y24639235D01*
X15401227Y24645196D01*
X15425495Y24648796D01*
X15449999Y24650000D01*
X16100001Y24650000D01*
X16124505Y24648796D01*
X16124505Y24648796D01*
G37*
D11*
X15775000Y23950000D03*
D10*
G36*
X14074505Y24648796D02*
G01*
X14098773Y24645196D01*
X14122572Y24639235D01*
X14145671Y24630970D01*
X14167850Y24620480D01*
X14188893Y24607868D01*
X14208599Y24593253D01*
X14226777Y24576777D01*
X14243253Y24558599D01*
X14257868Y24538893D01*
X14270480Y24517850D01*
X14280970Y24495671D01*
X14289235Y24472572D01*
X14295196Y24448773D01*
X14298796Y24424505D01*
X14300000Y24400001D01*
X14300000Y23499999D01*
X14298796Y23475495D01*
X14295196Y23451227D01*
X14289235Y23427428D01*
X14280970Y23404329D01*
X14270480Y23382150D01*
X14257868Y23361107D01*
X14243253Y23341401D01*
X14226777Y23323223D01*
X14208599Y23306747D01*
X14188893Y23292132D01*
X14167850Y23279520D01*
X14145671Y23269030D01*
X14122572Y23260765D01*
X14098773Y23254804D01*
X14074505Y23251204D01*
X14050001Y23250000D01*
X13399999Y23250000D01*
X13375495Y23251204D01*
X13351227Y23254804D01*
X13327428Y23260765D01*
X13304329Y23269030D01*
X13282150Y23279520D01*
X13261107Y23292132D01*
X13241401Y23306747D01*
X13223223Y23323223D01*
X13206747Y23341401D01*
X13192132Y23361107D01*
X13179520Y23382150D01*
X13169030Y23404329D01*
X13160765Y23427428D01*
X13154804Y23451227D01*
X13151204Y23475495D01*
X13150000Y23499999D01*
X13150000Y24400001D01*
X13151204Y24424505D01*
X13154804Y24448773D01*
X13160765Y24472572D01*
X13169030Y24495671D01*
X13179520Y24517850D01*
X13192132Y24538893D01*
X13206747Y24558599D01*
X13223223Y24576777D01*
X13241401Y24593253D01*
X13261107Y24607868D01*
X13282150Y24620480D01*
X13304329Y24630970D01*
X13327428Y24639235D01*
X13351227Y24645196D01*
X13375495Y24648796D01*
X13399999Y24650000D01*
X14050001Y24650000D01*
X14074505Y24648796D01*
X14074505Y24648796D01*
G37*
D11*
X13725000Y23950000D03*
D10*
G36*
X5474505Y14723796D02*
G01*
X5498773Y14720196D01*
X5522572Y14714235D01*
X5545671Y14705970D01*
X5567850Y14695480D01*
X5588893Y14682868D01*
X5608599Y14668253D01*
X5626777Y14651777D01*
X5643253Y14633599D01*
X5657868Y14613893D01*
X5670480Y14592850D01*
X5680970Y14570671D01*
X5689235Y14547572D01*
X5695196Y14523773D01*
X5698796Y14499505D01*
X5700000Y14475001D01*
X5700000Y13824999D01*
X5698796Y13800495D01*
X5695196Y13776227D01*
X5689235Y13752428D01*
X5680970Y13729329D01*
X5670480Y13707150D01*
X5657868Y13686107D01*
X5643253Y13666401D01*
X5626777Y13648223D01*
X5608599Y13631747D01*
X5588893Y13617132D01*
X5567850Y13604520D01*
X5545671Y13594030D01*
X5522572Y13585765D01*
X5498773Y13579804D01*
X5474505Y13576204D01*
X5450001Y13575000D01*
X4549999Y13575000D01*
X4525495Y13576204D01*
X4501227Y13579804D01*
X4477428Y13585765D01*
X4454329Y13594030D01*
X4432150Y13604520D01*
X4411107Y13617132D01*
X4391401Y13631747D01*
X4373223Y13648223D01*
X4356747Y13666401D01*
X4342132Y13686107D01*
X4329520Y13707150D01*
X4319030Y13729329D01*
X4310765Y13752428D01*
X4304804Y13776227D01*
X4301204Y13800495D01*
X4300000Y13824999D01*
X4300000Y14475001D01*
X4301204Y14499505D01*
X4304804Y14523773D01*
X4310765Y14547572D01*
X4319030Y14570671D01*
X4329520Y14592850D01*
X4342132Y14613893D01*
X4356747Y14633599D01*
X4373223Y14651777D01*
X4391401Y14668253D01*
X4411107Y14682868D01*
X4432150Y14695480D01*
X4454329Y14705970D01*
X4477428Y14714235D01*
X4501227Y14720196D01*
X4525495Y14723796D01*
X4549999Y14725000D01*
X5450001Y14725000D01*
X5474505Y14723796D01*
X5474505Y14723796D01*
G37*
D11*
X5000000Y14150000D03*
D10*
G36*
X5474505Y16773796D02*
G01*
X5498773Y16770196D01*
X5522572Y16764235D01*
X5545671Y16755970D01*
X5567850Y16745480D01*
X5588893Y16732868D01*
X5608599Y16718253D01*
X5626777Y16701777D01*
X5643253Y16683599D01*
X5657868Y16663893D01*
X5670480Y16642850D01*
X5680970Y16620671D01*
X5689235Y16597572D01*
X5695196Y16573773D01*
X5698796Y16549505D01*
X5700000Y16525001D01*
X5700000Y15874999D01*
X5698796Y15850495D01*
X5695196Y15826227D01*
X5689235Y15802428D01*
X5680970Y15779329D01*
X5670480Y15757150D01*
X5657868Y15736107D01*
X5643253Y15716401D01*
X5626777Y15698223D01*
X5608599Y15681747D01*
X5588893Y15667132D01*
X5567850Y15654520D01*
X5545671Y15644030D01*
X5522572Y15635765D01*
X5498773Y15629804D01*
X5474505Y15626204D01*
X5450001Y15625000D01*
X4549999Y15625000D01*
X4525495Y15626204D01*
X4501227Y15629804D01*
X4477428Y15635765D01*
X4454329Y15644030D01*
X4432150Y15654520D01*
X4411107Y15667132D01*
X4391401Y15681747D01*
X4373223Y15698223D01*
X4356747Y15716401D01*
X4342132Y15736107D01*
X4329520Y15757150D01*
X4319030Y15779329D01*
X4310765Y15802428D01*
X4304804Y15826227D01*
X4301204Y15850495D01*
X4300000Y15874999D01*
X4300000Y16525001D01*
X4301204Y16549505D01*
X4304804Y16573773D01*
X4310765Y16597572D01*
X4319030Y16620671D01*
X4329520Y16642850D01*
X4342132Y16663893D01*
X4356747Y16683599D01*
X4373223Y16701777D01*
X4391401Y16718253D01*
X4411107Y16732868D01*
X4432150Y16745480D01*
X4454329Y16755970D01*
X4477428Y16764235D01*
X4501227Y16770196D01*
X4525495Y16773796D01*
X4549999Y16775000D01*
X5450001Y16775000D01*
X5474505Y16773796D01*
X5474505Y16773796D01*
G37*
D11*
X5000000Y16200000D03*
D10*
G36*
X9474505Y18823796D02*
G01*
X9498773Y18820196D01*
X9522572Y18814235D01*
X9545671Y18805970D01*
X9567850Y18795480D01*
X9588893Y18782868D01*
X9608599Y18768253D01*
X9626777Y18751777D01*
X9643253Y18733599D01*
X9657868Y18713893D01*
X9670480Y18692850D01*
X9680970Y18670671D01*
X9689235Y18647572D01*
X9695196Y18623773D01*
X9698796Y18599505D01*
X9700000Y18575001D01*
X9700000Y17924999D01*
X9698796Y17900495D01*
X9695196Y17876227D01*
X9689235Y17852428D01*
X9680970Y17829329D01*
X9670480Y17807150D01*
X9657868Y17786107D01*
X9643253Y17766401D01*
X9626777Y17748223D01*
X9608599Y17731747D01*
X9588893Y17717132D01*
X9567850Y17704520D01*
X9545671Y17694030D01*
X9522572Y17685765D01*
X9498773Y17679804D01*
X9474505Y17676204D01*
X9450001Y17675000D01*
X8549999Y17675000D01*
X8525495Y17676204D01*
X8501227Y17679804D01*
X8477428Y17685765D01*
X8454329Y17694030D01*
X8432150Y17704520D01*
X8411107Y17717132D01*
X8391401Y17731747D01*
X8373223Y17748223D01*
X8356747Y17766401D01*
X8342132Y17786107D01*
X8329520Y17807150D01*
X8319030Y17829329D01*
X8310765Y17852428D01*
X8304804Y17876227D01*
X8301204Y17900495D01*
X8300000Y17924999D01*
X8300000Y18575001D01*
X8301204Y18599505D01*
X8304804Y18623773D01*
X8310765Y18647572D01*
X8319030Y18670671D01*
X8329520Y18692850D01*
X8342132Y18713893D01*
X8356747Y18733599D01*
X8373223Y18751777D01*
X8391401Y18768253D01*
X8411107Y18782868D01*
X8432150Y18795480D01*
X8454329Y18805970D01*
X8477428Y18814235D01*
X8501227Y18820196D01*
X8525495Y18823796D01*
X8549999Y18825000D01*
X9450001Y18825000D01*
X9474505Y18823796D01*
X9474505Y18823796D01*
G37*
D11*
X9000000Y18250000D03*
D10*
G36*
X9474505Y16773796D02*
G01*
X9498773Y16770196D01*
X9522572Y16764235D01*
X9545671Y16755970D01*
X9567850Y16745480D01*
X9588893Y16732868D01*
X9608599Y16718253D01*
X9626777Y16701777D01*
X9643253Y16683599D01*
X9657868Y16663893D01*
X9670480Y16642850D01*
X9680970Y16620671D01*
X9689235Y16597572D01*
X9695196Y16573773D01*
X9698796Y16549505D01*
X9700000Y16525001D01*
X9700000Y15874999D01*
X9698796Y15850495D01*
X9695196Y15826227D01*
X9689235Y15802428D01*
X9680970Y15779329D01*
X9670480Y15757150D01*
X9657868Y15736107D01*
X9643253Y15716401D01*
X9626777Y15698223D01*
X9608599Y15681747D01*
X9588893Y15667132D01*
X9567850Y15654520D01*
X9545671Y15644030D01*
X9522572Y15635765D01*
X9498773Y15629804D01*
X9474505Y15626204D01*
X9450001Y15625000D01*
X8549999Y15625000D01*
X8525495Y15626204D01*
X8501227Y15629804D01*
X8477428Y15635765D01*
X8454329Y15644030D01*
X8432150Y15654520D01*
X8411107Y15667132D01*
X8391401Y15681747D01*
X8373223Y15698223D01*
X8356747Y15716401D01*
X8342132Y15736107D01*
X8329520Y15757150D01*
X8319030Y15779329D01*
X8310765Y15802428D01*
X8304804Y15826227D01*
X8301204Y15850495D01*
X8300000Y15874999D01*
X8300000Y16525001D01*
X8301204Y16549505D01*
X8304804Y16573773D01*
X8310765Y16597572D01*
X8319030Y16620671D01*
X8329520Y16642850D01*
X8342132Y16663893D01*
X8356747Y16683599D01*
X8373223Y16701777D01*
X8391401Y16718253D01*
X8411107Y16732868D01*
X8432150Y16745480D01*
X8454329Y16755970D01*
X8477428Y16764235D01*
X8501227Y16770196D01*
X8525495Y16773796D01*
X8549999Y16775000D01*
X9450001Y16775000D01*
X9474505Y16773796D01*
X9474505Y16773796D01*
G37*
D11*
X9000000Y16200000D03*
D14*
X18700000Y28800000D03*
X21240000Y28800000D03*
D15*
X23780000Y28800000D03*
D10*
G36*
X20474505Y12498796D02*
G01*
X20498773Y12495196D01*
X20522572Y12489235D01*
X20545671Y12480970D01*
X20567850Y12470480D01*
X20588893Y12457868D01*
X20608599Y12443253D01*
X20626777Y12426777D01*
X20643253Y12408599D01*
X20657868Y12388893D01*
X20670480Y12367850D01*
X20680970Y12345671D01*
X20689235Y12322572D01*
X20695196Y12298773D01*
X20698796Y12274505D01*
X20700000Y12250001D01*
X20700000Y11349999D01*
X20698796Y11325495D01*
X20695196Y11301227D01*
X20689235Y11277428D01*
X20680970Y11254329D01*
X20670480Y11232150D01*
X20657868Y11211107D01*
X20643253Y11191401D01*
X20626777Y11173223D01*
X20608599Y11156747D01*
X20588893Y11142132D01*
X20567850Y11129520D01*
X20545671Y11119030D01*
X20522572Y11110765D01*
X20498773Y11104804D01*
X20474505Y11101204D01*
X20450001Y11100000D01*
X19799999Y11100000D01*
X19775495Y11101204D01*
X19751227Y11104804D01*
X19727428Y11110765D01*
X19704329Y11119030D01*
X19682150Y11129520D01*
X19661107Y11142132D01*
X19641401Y11156747D01*
X19623223Y11173223D01*
X19606747Y11191401D01*
X19592132Y11211107D01*
X19579520Y11232150D01*
X19569030Y11254329D01*
X19560765Y11277428D01*
X19554804Y11301227D01*
X19551204Y11325495D01*
X19550000Y11349999D01*
X19550000Y12250001D01*
X19551204Y12274505D01*
X19554804Y12298773D01*
X19560765Y12322572D01*
X19569030Y12345671D01*
X19579520Y12367850D01*
X19592132Y12388893D01*
X19606747Y12408599D01*
X19623223Y12426777D01*
X19641401Y12443253D01*
X19661107Y12457868D01*
X19682150Y12470480D01*
X19704329Y12480970D01*
X19727428Y12489235D01*
X19751227Y12495196D01*
X19775495Y12498796D01*
X19799999Y12500000D01*
X20450001Y12500000D01*
X20474505Y12498796D01*
X20474505Y12498796D01*
G37*
D11*
X20125000Y11800000D03*
D10*
G36*
X18424505Y12498796D02*
G01*
X18448773Y12495196D01*
X18472572Y12489235D01*
X18495671Y12480970D01*
X18517850Y12470480D01*
X18538893Y12457868D01*
X18558599Y12443253D01*
X18576777Y12426777D01*
X18593253Y12408599D01*
X18607868Y12388893D01*
X18620480Y12367850D01*
X18630970Y12345671D01*
X18639235Y12322572D01*
X18645196Y12298773D01*
X18648796Y12274505D01*
X18650000Y12250001D01*
X18650000Y11349999D01*
X18648796Y11325495D01*
X18645196Y11301227D01*
X18639235Y11277428D01*
X18630970Y11254329D01*
X18620480Y11232150D01*
X18607868Y11211107D01*
X18593253Y11191401D01*
X18576777Y11173223D01*
X18558599Y11156747D01*
X18538893Y11142132D01*
X18517850Y11129520D01*
X18495671Y11119030D01*
X18472572Y11110765D01*
X18448773Y11104804D01*
X18424505Y11101204D01*
X18400001Y11100000D01*
X17749999Y11100000D01*
X17725495Y11101204D01*
X17701227Y11104804D01*
X17677428Y11110765D01*
X17654329Y11119030D01*
X17632150Y11129520D01*
X17611107Y11142132D01*
X17591401Y11156747D01*
X17573223Y11173223D01*
X17556747Y11191401D01*
X17542132Y11211107D01*
X17529520Y11232150D01*
X17519030Y11254329D01*
X17510765Y11277428D01*
X17504804Y11301227D01*
X17501204Y11325495D01*
X17500000Y11349999D01*
X17500000Y12250001D01*
X17501204Y12274505D01*
X17504804Y12298773D01*
X17510765Y12322572D01*
X17519030Y12345671D01*
X17529520Y12367850D01*
X17542132Y12388893D01*
X17556747Y12408599D01*
X17573223Y12426777D01*
X17591401Y12443253D01*
X17611107Y12457868D01*
X17632150Y12470480D01*
X17654329Y12480970D01*
X17677428Y12489235D01*
X17701227Y12495196D01*
X17725495Y12498796D01*
X17749999Y12500000D01*
X18400001Y12500000D01*
X18424505Y12498796D01*
X18424505Y12498796D01*
G37*
D11*
X18075000Y11800000D03*
D10*
G36*
X3549505Y27898796D02*
G01*
X3573773Y27895196D01*
X3597572Y27889235D01*
X3620671Y27880970D01*
X3642850Y27870480D01*
X3663893Y27857868D01*
X3683599Y27843253D01*
X3701777Y27826777D01*
X3718253Y27808599D01*
X3732868Y27788893D01*
X3745480Y27767850D01*
X3755970Y27745671D01*
X3764235Y27722572D01*
X3770196Y27698773D01*
X3773796Y27674505D01*
X3775000Y27650001D01*
X3775000Y26749999D01*
X3773796Y26725495D01*
X3770196Y26701227D01*
X3764235Y26677428D01*
X3755970Y26654329D01*
X3745480Y26632150D01*
X3732868Y26611107D01*
X3718253Y26591401D01*
X3701777Y26573223D01*
X3683599Y26556747D01*
X3663893Y26542132D01*
X3642850Y26529520D01*
X3620671Y26519030D01*
X3597572Y26510765D01*
X3573773Y26504804D01*
X3549505Y26501204D01*
X3525001Y26500000D01*
X2874999Y26500000D01*
X2850495Y26501204D01*
X2826227Y26504804D01*
X2802428Y26510765D01*
X2779329Y26519030D01*
X2757150Y26529520D01*
X2736107Y26542132D01*
X2716401Y26556747D01*
X2698223Y26573223D01*
X2681747Y26591401D01*
X2667132Y26611107D01*
X2654520Y26632150D01*
X2644030Y26654329D01*
X2635765Y26677428D01*
X2629804Y26701227D01*
X2626204Y26725495D01*
X2625000Y26749999D01*
X2625000Y27650001D01*
X2626204Y27674505D01*
X2629804Y27698773D01*
X2635765Y27722572D01*
X2644030Y27745671D01*
X2654520Y27767850D01*
X2667132Y27788893D01*
X2681747Y27808599D01*
X2698223Y27826777D01*
X2716401Y27843253D01*
X2736107Y27857868D01*
X2757150Y27870480D01*
X2779329Y27880970D01*
X2802428Y27889235D01*
X2826227Y27895196D01*
X2850495Y27898796D01*
X2874999Y27900000D01*
X3525001Y27900000D01*
X3549505Y27898796D01*
X3549505Y27898796D01*
G37*
D11*
X3200000Y27200000D03*
D10*
G36*
X5599505Y27898796D02*
G01*
X5623773Y27895196D01*
X5647572Y27889235D01*
X5670671Y27880970D01*
X5692850Y27870480D01*
X5713893Y27857868D01*
X5733599Y27843253D01*
X5751777Y27826777D01*
X5768253Y27808599D01*
X5782868Y27788893D01*
X5795480Y27767850D01*
X5805970Y27745671D01*
X5814235Y27722572D01*
X5820196Y27698773D01*
X5823796Y27674505D01*
X5825000Y27650001D01*
X5825000Y26749999D01*
X5823796Y26725495D01*
X5820196Y26701227D01*
X5814235Y26677428D01*
X5805970Y26654329D01*
X5795480Y26632150D01*
X5782868Y26611107D01*
X5768253Y26591401D01*
X5751777Y26573223D01*
X5733599Y26556747D01*
X5713893Y26542132D01*
X5692850Y26529520D01*
X5670671Y26519030D01*
X5647572Y26510765D01*
X5623773Y26504804D01*
X5599505Y26501204D01*
X5575001Y26500000D01*
X4924999Y26500000D01*
X4900495Y26501204D01*
X4876227Y26504804D01*
X4852428Y26510765D01*
X4829329Y26519030D01*
X4807150Y26529520D01*
X4786107Y26542132D01*
X4766401Y26556747D01*
X4748223Y26573223D01*
X4731747Y26591401D01*
X4717132Y26611107D01*
X4704520Y26632150D01*
X4694030Y26654329D01*
X4685765Y26677428D01*
X4679804Y26701227D01*
X4676204Y26725495D01*
X4675000Y26749999D01*
X4675000Y27650001D01*
X4676204Y27674505D01*
X4679804Y27698773D01*
X4685765Y27722572D01*
X4694030Y27745671D01*
X4704520Y27767850D01*
X4717132Y27788893D01*
X4731747Y27808599D01*
X4748223Y27826777D01*
X4766401Y27843253D01*
X4786107Y27857868D01*
X4807150Y27870480D01*
X4829329Y27880970D01*
X4852428Y27889235D01*
X4876227Y27895196D01*
X4900495Y27898796D01*
X4924999Y27900000D01*
X5575001Y27900000D01*
X5599505Y27898796D01*
X5599505Y27898796D01*
G37*
D11*
X5250000Y27200000D03*
D10*
G36*
X10074505Y7648796D02*
G01*
X10098773Y7645196D01*
X10122572Y7639235D01*
X10145671Y7630970D01*
X10167850Y7620480D01*
X10188893Y7607868D01*
X10208599Y7593253D01*
X10226777Y7576777D01*
X10243253Y7558599D01*
X10257868Y7538893D01*
X10270480Y7517850D01*
X10280970Y7495671D01*
X10289235Y7472572D01*
X10295196Y7448773D01*
X10298796Y7424505D01*
X10300000Y7400001D01*
X10300000Y6499999D01*
X10298796Y6475495D01*
X10295196Y6451227D01*
X10289235Y6427428D01*
X10280970Y6404329D01*
X10270480Y6382150D01*
X10257868Y6361107D01*
X10243253Y6341401D01*
X10226777Y6323223D01*
X10208599Y6306747D01*
X10188893Y6292132D01*
X10167850Y6279520D01*
X10145671Y6269030D01*
X10122572Y6260765D01*
X10098773Y6254804D01*
X10074505Y6251204D01*
X10050001Y6250000D01*
X9399999Y6250000D01*
X9375495Y6251204D01*
X9351227Y6254804D01*
X9327428Y6260765D01*
X9304329Y6269030D01*
X9282150Y6279520D01*
X9261107Y6292132D01*
X9241401Y6306747D01*
X9223223Y6323223D01*
X9206747Y6341401D01*
X9192132Y6361107D01*
X9179520Y6382150D01*
X9169030Y6404329D01*
X9160765Y6427428D01*
X9154804Y6451227D01*
X9151204Y6475495D01*
X9150000Y6499999D01*
X9150000Y7400001D01*
X9151204Y7424505D01*
X9154804Y7448773D01*
X9160765Y7472572D01*
X9169030Y7495671D01*
X9179520Y7517850D01*
X9192132Y7538893D01*
X9206747Y7558599D01*
X9223223Y7576777D01*
X9241401Y7593253D01*
X9261107Y7607868D01*
X9282150Y7620480D01*
X9304329Y7630970D01*
X9327428Y7639235D01*
X9351227Y7645196D01*
X9375495Y7648796D01*
X9399999Y7650000D01*
X10050001Y7650000D01*
X10074505Y7648796D01*
X10074505Y7648796D01*
G37*
D11*
X9725000Y6950000D03*
D10*
G36*
X12124505Y7648796D02*
G01*
X12148773Y7645196D01*
X12172572Y7639235D01*
X12195671Y7630970D01*
X12217850Y7620480D01*
X12238893Y7607868D01*
X12258599Y7593253D01*
X12276777Y7576777D01*
X12293253Y7558599D01*
X12307868Y7538893D01*
X12320480Y7517850D01*
X12330970Y7495671D01*
X12339235Y7472572D01*
X12345196Y7448773D01*
X12348796Y7424505D01*
X12350000Y7400001D01*
X12350000Y6499999D01*
X12348796Y6475495D01*
X12345196Y6451227D01*
X12339235Y6427428D01*
X12330970Y6404329D01*
X12320480Y6382150D01*
X12307868Y6361107D01*
X12293253Y6341401D01*
X12276777Y6323223D01*
X12258599Y6306747D01*
X12238893Y6292132D01*
X12217850Y6279520D01*
X12195671Y6269030D01*
X12172572Y6260765D01*
X12148773Y6254804D01*
X12124505Y6251204D01*
X12100001Y6250000D01*
X11449999Y6250000D01*
X11425495Y6251204D01*
X11401227Y6254804D01*
X11377428Y6260765D01*
X11354329Y6269030D01*
X11332150Y6279520D01*
X11311107Y6292132D01*
X11291401Y6306747D01*
X11273223Y6323223D01*
X11256747Y6341401D01*
X11242132Y6361107D01*
X11229520Y6382150D01*
X11219030Y6404329D01*
X11210765Y6427428D01*
X11204804Y6451227D01*
X11201204Y6475495D01*
X11200000Y6499999D01*
X11200000Y7400001D01*
X11201204Y7424505D01*
X11204804Y7448773D01*
X11210765Y7472572D01*
X11219030Y7495671D01*
X11229520Y7517850D01*
X11242132Y7538893D01*
X11256747Y7558599D01*
X11273223Y7576777D01*
X11291401Y7593253D01*
X11311107Y7607868D01*
X11332150Y7620480D01*
X11354329Y7630970D01*
X11377428Y7639235D01*
X11401227Y7645196D01*
X11425495Y7648796D01*
X11449999Y7650000D01*
X12100001Y7650000D01*
X12124505Y7648796D01*
X12124505Y7648796D01*
G37*
D11*
X11775000Y6950000D03*
D10*
G36*
X3549505Y25498796D02*
G01*
X3573773Y25495196D01*
X3597572Y25489235D01*
X3620671Y25480970D01*
X3642850Y25470480D01*
X3663893Y25457868D01*
X3683599Y25443253D01*
X3701777Y25426777D01*
X3718253Y25408599D01*
X3732868Y25388893D01*
X3745480Y25367850D01*
X3755970Y25345671D01*
X3764235Y25322572D01*
X3770196Y25298773D01*
X3773796Y25274505D01*
X3775000Y25250001D01*
X3775000Y24349999D01*
X3773796Y24325495D01*
X3770196Y24301227D01*
X3764235Y24277428D01*
X3755970Y24254329D01*
X3745480Y24232150D01*
X3732868Y24211107D01*
X3718253Y24191401D01*
X3701777Y24173223D01*
X3683599Y24156747D01*
X3663893Y24142132D01*
X3642850Y24129520D01*
X3620671Y24119030D01*
X3597572Y24110765D01*
X3573773Y24104804D01*
X3549505Y24101204D01*
X3525001Y24100000D01*
X2874999Y24100000D01*
X2850495Y24101204D01*
X2826227Y24104804D01*
X2802428Y24110765D01*
X2779329Y24119030D01*
X2757150Y24129520D01*
X2736107Y24142132D01*
X2716401Y24156747D01*
X2698223Y24173223D01*
X2681747Y24191401D01*
X2667132Y24211107D01*
X2654520Y24232150D01*
X2644030Y24254329D01*
X2635765Y24277428D01*
X2629804Y24301227D01*
X2626204Y24325495D01*
X2625000Y24349999D01*
X2625000Y25250001D01*
X2626204Y25274505D01*
X2629804Y25298773D01*
X2635765Y25322572D01*
X2644030Y25345671D01*
X2654520Y25367850D01*
X2667132Y25388893D01*
X2681747Y25408599D01*
X2698223Y25426777D01*
X2716401Y25443253D01*
X2736107Y25457868D01*
X2757150Y25470480D01*
X2779329Y25480970D01*
X2802428Y25489235D01*
X2826227Y25495196D01*
X2850495Y25498796D01*
X2874999Y25500000D01*
X3525001Y25500000D01*
X3549505Y25498796D01*
X3549505Y25498796D01*
G37*
D11*
X3200000Y24800000D03*
D10*
G36*
X5599505Y25498796D02*
G01*
X5623773Y25495196D01*
X5647572Y25489235D01*
X5670671Y25480970D01*
X5692850Y25470480D01*
X5713893Y25457868D01*
X5733599Y25443253D01*
X5751777Y25426777D01*
X5768253Y25408599D01*
X5782868Y25388893D01*
X5795480Y25367850D01*
X5805970Y25345671D01*
X5814235Y25322572D01*
X5820196Y25298773D01*
X5823796Y25274505D01*
X5825000Y25250001D01*
X5825000Y24349999D01*
X5823796Y24325495D01*
X5820196Y24301227D01*
X5814235Y24277428D01*
X5805970Y24254329D01*
X5795480Y24232150D01*
X5782868Y24211107D01*
X5768253Y24191401D01*
X5751777Y24173223D01*
X5733599Y24156747D01*
X5713893Y24142132D01*
X5692850Y24129520D01*
X5670671Y24119030D01*
X5647572Y24110765D01*
X5623773Y24104804D01*
X5599505Y24101204D01*
X5575001Y24100000D01*
X4924999Y24100000D01*
X4900495Y24101204D01*
X4876227Y24104804D01*
X4852428Y24110765D01*
X4829329Y24119030D01*
X4807150Y24129520D01*
X4786107Y24142132D01*
X4766401Y24156747D01*
X4748223Y24173223D01*
X4731747Y24191401D01*
X4717132Y24211107D01*
X4704520Y24232150D01*
X4694030Y24254329D01*
X4685765Y24277428D01*
X4679804Y24301227D01*
X4676204Y24325495D01*
X4675000Y24349999D01*
X4675000Y25250001D01*
X4676204Y25274505D01*
X4679804Y25298773D01*
X4685765Y25322572D01*
X4694030Y25345671D01*
X4704520Y25367850D01*
X4717132Y25388893D01*
X4731747Y25408599D01*
X4748223Y25426777D01*
X4766401Y25443253D01*
X4786107Y25457868D01*
X4807150Y25470480D01*
X4829329Y25480970D01*
X4852428Y25489235D01*
X4876227Y25495196D01*
X4900495Y25498796D01*
X4924999Y25500000D01*
X5575001Y25500000D01*
X5599505Y25498796D01*
X5599505Y25498796D01*
G37*
D11*
X5250000Y24800000D03*
D10*
G36*
X25974505Y12998796D02*
G01*
X25998773Y12995196D01*
X26022572Y12989235D01*
X26045671Y12980970D01*
X26067850Y12970480D01*
X26088893Y12957868D01*
X26108599Y12943253D01*
X26126777Y12926777D01*
X26143253Y12908599D01*
X26157868Y12888893D01*
X26170480Y12867850D01*
X26180970Y12845671D01*
X26189235Y12822572D01*
X26195196Y12798773D01*
X26198796Y12774505D01*
X26200000Y12750001D01*
X26200000Y11849999D01*
X26198796Y11825495D01*
X26195196Y11801227D01*
X26189235Y11777428D01*
X26180970Y11754329D01*
X26170480Y11732150D01*
X26157868Y11711107D01*
X26143253Y11691401D01*
X26126777Y11673223D01*
X26108599Y11656747D01*
X26088893Y11642132D01*
X26067850Y11629520D01*
X26045671Y11619030D01*
X26022572Y11610765D01*
X25998773Y11604804D01*
X25974505Y11601204D01*
X25950001Y11600000D01*
X25299999Y11600000D01*
X25275495Y11601204D01*
X25251227Y11604804D01*
X25227428Y11610765D01*
X25204329Y11619030D01*
X25182150Y11629520D01*
X25161107Y11642132D01*
X25141401Y11656747D01*
X25123223Y11673223D01*
X25106747Y11691401D01*
X25092132Y11711107D01*
X25079520Y11732150D01*
X25069030Y11754329D01*
X25060765Y11777428D01*
X25054804Y11801227D01*
X25051204Y11825495D01*
X25050000Y11849999D01*
X25050000Y12750001D01*
X25051204Y12774505D01*
X25054804Y12798773D01*
X25060765Y12822572D01*
X25069030Y12845671D01*
X25079520Y12867850D01*
X25092132Y12888893D01*
X25106747Y12908599D01*
X25123223Y12926777D01*
X25141401Y12943253D01*
X25161107Y12957868D01*
X25182150Y12970480D01*
X25204329Y12980970D01*
X25227428Y12989235D01*
X25251227Y12995196D01*
X25275495Y12998796D01*
X25299999Y13000000D01*
X25950001Y13000000D01*
X25974505Y12998796D01*
X25974505Y12998796D01*
G37*
D11*
X25625000Y12300000D03*
D10*
G36*
X23924505Y12998796D02*
G01*
X23948773Y12995196D01*
X23972572Y12989235D01*
X23995671Y12980970D01*
X24017850Y12970480D01*
X24038893Y12957868D01*
X24058599Y12943253D01*
X24076777Y12926777D01*
X24093253Y12908599D01*
X24107868Y12888893D01*
X24120480Y12867850D01*
X24130970Y12845671D01*
X24139235Y12822572D01*
X24145196Y12798773D01*
X24148796Y12774505D01*
X24150000Y12750001D01*
X24150000Y11849999D01*
X24148796Y11825495D01*
X24145196Y11801227D01*
X24139235Y11777428D01*
X24130970Y11754329D01*
X24120480Y11732150D01*
X24107868Y11711107D01*
X24093253Y11691401D01*
X24076777Y11673223D01*
X24058599Y11656747D01*
X24038893Y11642132D01*
X24017850Y11629520D01*
X23995671Y11619030D01*
X23972572Y11610765D01*
X23948773Y11604804D01*
X23924505Y11601204D01*
X23900001Y11600000D01*
X23249999Y11600000D01*
X23225495Y11601204D01*
X23201227Y11604804D01*
X23177428Y11610765D01*
X23154329Y11619030D01*
X23132150Y11629520D01*
X23111107Y11642132D01*
X23091401Y11656747D01*
X23073223Y11673223D01*
X23056747Y11691401D01*
X23042132Y11711107D01*
X23029520Y11732150D01*
X23019030Y11754329D01*
X23010765Y11777428D01*
X23004804Y11801227D01*
X23001204Y11825495D01*
X23000000Y11849999D01*
X23000000Y12750001D01*
X23001204Y12774505D01*
X23004804Y12798773D01*
X23010765Y12822572D01*
X23019030Y12845671D01*
X23029520Y12867850D01*
X23042132Y12888893D01*
X23056747Y12908599D01*
X23073223Y12926777D01*
X23091401Y12943253D01*
X23111107Y12957868D01*
X23132150Y12970480D01*
X23154329Y12980970D01*
X23177428Y12989235D01*
X23201227Y12995196D01*
X23225495Y12998796D01*
X23249999Y13000000D01*
X23900001Y13000000D01*
X23924505Y12998796D01*
X23924505Y12998796D01*
G37*
D11*
X23575000Y12300000D03*
D21*
X2750000Y14450000D03*
X2750000Y17950000D03*
X7250000Y4450000D03*
X28500000Y12200000D03*
X28000000Y27450000D03*
D22*
X18330710Y13394290D02*
X19637500Y12087500D01*
X18330710Y14079290D02*
X18330710Y13394290D01*
X17960000Y14450000D02*
X18330710Y14079290D01*
D23*
X19637500Y12087500D02*
X20275000Y11450000D01*
X25025000Y3200000D02*
X26275000Y4450000D01*
X17960000Y14450000D02*
X17960000Y13765000D01*
X20275000Y11450000D02*
X21975000Y11450000D01*
X17960000Y13765000D02*
X18762500Y12962500D01*
X18762500Y12962500D02*
X20275000Y11450000D01*
X24150000Y6600000D02*
X24150000Y7750000D01*
X26275000Y4450000D02*
X27162500Y5337500D01*
X27162500Y5337500D02*
X27275001Y5450001D01*
D24*
X26248372Y11676628D02*
X25625000Y12300000D01*
X26248372Y9343370D02*
X26248372Y11676628D01*
X22169988Y8474990D02*
X22564997Y8869999D01*
X25775001Y8869999D02*
X26248372Y9343370D01*
X20164332Y8474990D02*
X22169988Y8474990D01*
X19651628Y8987694D02*
X20164332Y8474990D01*
X19651628Y11176628D02*
X19651628Y8987694D01*
X20275000Y11800000D02*
X19651628Y11176628D01*
D23*
X24124999Y8724999D02*
X24269999Y8869999D01*
X24124999Y8124999D02*
X24124999Y8724999D01*
X24100000Y8100000D02*
X24124999Y8124999D01*
X24100000Y7450000D02*
X24100000Y8100000D01*
D24*
X22564997Y8869999D02*
X24269999Y8869999D01*
X24269999Y8869999D02*
X25775001Y8869999D01*
D23*
X19600000Y2600000D02*
X19500000Y2500000D01*
X19600000Y4500000D02*
X19600000Y2600000D01*
X4372796Y16500010D02*
X4000000Y16500010D01*
X7000000Y16175000D02*
X4697806Y16175000D01*
X4697806Y16175000D02*
X4372796Y16500010D01*
X8975000Y16175000D02*
X9000000Y16200000D01*
X7000000Y16175000D02*
X8975000Y16175000D01*
X18060720Y19400000D02*
X18060720Y18593622D01*
X18060720Y18593622D02*
X17083549Y17616451D01*
X14930678Y17616451D02*
X14264207Y16949980D01*
X17083549Y17616451D02*
X14930678Y17616451D01*
X9917062Y16200000D02*
X10667062Y16950000D01*
X9000000Y16200000D02*
X9917062Y16200000D01*
X14264187Y16950000D02*
X14264207Y16949980D01*
X10667062Y16950000D02*
X14264187Y16950000D01*
D24*
X634999Y12697001D02*
X525010Y12587012D01*
X525010Y12587012D02*
X525010Y10725010D01*
X525010Y4924990D02*
X525010Y3062988D01*
X634999Y14584999D02*
X2525000Y16475000D01*
X634999Y13584999D02*
X634999Y14584999D01*
D23*
X4000000Y16475000D02*
X2525000Y16475000D01*
D24*
X634999Y13584999D02*
X634999Y12697001D01*
D25*
X19725000Y4450000D02*
X18000000Y2725000D01*
X19975000Y4450000D02*
X19725000Y4450000D01*
X18225000Y2500000D02*
X18000000Y2725000D01*
X19975000Y2500000D02*
X18225000Y2500000D01*
D23*
X8274990Y625010D02*
X8011812Y625010D01*
D22*
X7592801Y464999D02*
X5985001Y464999D01*
X8274990Y625010D02*
X7752812Y625010D01*
X7752812Y625010D02*
X7592801Y464999D01*
D23*
X23376628Y1801628D02*
X24000000Y2425000D01*
X22774990Y1199990D02*
X23376628Y1801628D01*
X21275010Y1199990D02*
X22774990Y1199990D01*
X19975000Y2500000D02*
X21275010Y1199990D01*
X1475000Y9775020D02*
X1275010Y9975010D01*
D24*
X1275010Y9975010D02*
X525010Y10725010D01*
D23*
X5387998Y950000D02*
X4193999Y2143999D01*
X5500000Y950000D02*
X5387998Y950000D01*
D22*
X4193999Y2143999D02*
X1443999Y2143999D01*
X5985001Y464999D02*
X5500000Y950000D01*
D23*
X4193999Y2143999D02*
X1056001Y2143999D01*
X693999Y2506001D02*
X693999Y2893999D01*
X1056001Y2143999D02*
X693999Y2506001D01*
D24*
X525010Y3062988D02*
X693999Y2893999D01*
X693999Y2893999D02*
X1443999Y2143999D01*
D23*
X1025010Y5525010D02*
X2450000Y6950000D01*
X1025010Y5424990D02*
X1025010Y5525010D01*
D24*
X1025010Y5424990D02*
X525010Y4924990D01*
D23*
X2450000Y8900000D02*
X2500000Y8950000D01*
X2450000Y6950000D02*
X2450000Y8900000D01*
X1676648Y9573372D02*
X1475000Y9775020D01*
X1876628Y9573372D02*
X1676648Y9573372D01*
X2500000Y8950000D02*
X1876628Y9573372D01*
X8674990Y1025010D02*
X8274990Y625010D01*
X12250000Y1450000D02*
X10500000Y3200000D01*
X16725000Y1450000D02*
X12250000Y1450000D01*
X18000000Y2725000D02*
X16725000Y1450000D01*
X8674990Y1025010D02*
X8674990Y1874990D01*
X8750000Y1950000D02*
X8750000Y2177194D01*
X8674990Y1874990D02*
X8750000Y1950000D01*
X9772806Y3200000D02*
X10500000Y3200000D01*
X8750000Y2177194D02*
X9772806Y3200000D01*
D24*
X14689999Y22340019D02*
X14699990Y22350010D01*
X14689999Y21071199D02*
X14689999Y22340019D01*
X15049290Y20711908D02*
X14689999Y21071199D01*
X15420000Y19400000D02*
X15049290Y19770710D01*
X15049290Y19770710D02*
X15049290Y20711908D01*
D23*
X9126628Y27551628D02*
X9750000Y28175000D01*
X9000020Y27425020D02*
X9126628Y27551628D01*
X5425000Y27200000D02*
X5650020Y27425020D01*
X15250000Y27950000D02*
X15250000Y25450000D01*
D22*
X14774990Y22224990D02*
X14689999Y22139999D01*
X14774990Y24974990D02*
X14774990Y22224990D01*
X15250000Y25450000D02*
X14774990Y24974990D01*
D24*
X14689999Y21071199D02*
X14689999Y22139999D01*
D23*
X10373372Y28798372D02*
X9750000Y28175000D01*
X13261236Y28798372D02*
X10373372Y28798372D01*
X15250000Y27950000D02*
X14109608Y27950000D01*
X14109608Y27950000D02*
X13261236Y28798372D01*
X6150020Y27425020D02*
X6524980Y27425020D01*
X5925000Y27200000D02*
X6150020Y27425020D01*
X5250000Y27200000D02*
X5925000Y27200000D01*
X5650020Y27425020D02*
X6524980Y27425020D01*
X6524980Y27425020D02*
X9000020Y27425020D01*
X12575000Y12800000D02*
X14150000Y12800000D01*
X11225000Y11450000D02*
X12575000Y12800000D01*
X14150000Y14450000D02*
X14150000Y12800000D01*
X8750000Y11450000D02*
X11225000Y11450000D01*
X7500000Y10200000D02*
X8750000Y11450000D01*
X11848372Y10826628D02*
X11225000Y11450000D01*
X11910001Y10764999D02*
X11848372Y10826628D01*
X11910001Y7885001D02*
X11910001Y8789999D01*
X11775000Y7750000D02*
X11910001Y7885001D01*
X11775000Y6950000D02*
X11775000Y7750000D01*
X11910001Y8789999D02*
X11910001Y10764999D01*
X18225000Y12250000D02*
X18225000Y11450000D01*
X18225000Y12290744D02*
X18225000Y12250000D01*
X17060710Y13455034D02*
X18225000Y12290744D01*
X17060710Y14079290D02*
X17060710Y13455034D01*
X16690000Y14450000D02*
X17060710Y14079290D01*
X15000000Y7975000D02*
X15475000Y8450000D01*
X15000000Y6200000D02*
X15000000Y7975000D01*
D24*
X16098372Y9073372D02*
X16312694Y9073372D01*
X15475000Y8450000D02*
X16098372Y9073372D01*
D23*
X18075000Y10835678D02*
X16969661Y9730339D01*
X18075000Y11800000D02*
X18075000Y10835678D01*
D24*
X16312694Y9073372D02*
X16969661Y9730339D01*
D23*
X14970186Y30300000D02*
X15285093Y29985093D01*
X14835093Y30535093D02*
X14835093Y30435093D01*
X15285093Y29985093D02*
X14835093Y30435093D01*
X17410001Y20885677D02*
X17112162Y20587838D01*
X17410001Y22376801D02*
X17410001Y20885677D01*
X17410001Y22376801D02*
X17160093Y22626709D01*
X17410001Y21023199D02*
X17410001Y22376801D01*
X16690000Y20303198D02*
X17410001Y21023199D01*
X16690000Y19400000D02*
X16690000Y20303198D01*
X13210000Y30490000D02*
X15250000Y30490000D01*
X12250000Y31450000D02*
X13210000Y30490000D01*
X11104488Y31450000D02*
X12250000Y31450000D01*
X8500000Y31450000D02*
X11104488Y31450000D01*
X7855000Y30805000D02*
X8500000Y31450000D01*
X6895000Y30805000D02*
X7855000Y30805000D01*
X6040000Y29950000D02*
X6895000Y30805000D01*
X4540000Y29950000D02*
X6040000Y29950000D01*
X17160093Y29781988D02*
X17160093Y24289907D01*
X16452081Y30490000D02*
X17160093Y29781988D01*
X15250000Y30490000D02*
X16452081Y30490000D01*
X17160093Y24289907D02*
X17160093Y22626709D01*
X7500000Y20910000D02*
X5790000Y20910000D01*
D24*
X10200010Y17614332D02*
X9810678Y17225000D01*
X10200010Y18150010D02*
X10200010Y17614332D01*
X11000000Y19200000D02*
X11000000Y18950000D01*
X11000000Y18950000D02*
X10200010Y18150010D01*
X5678192Y17878192D02*
X5803192Y17753192D01*
X5428192Y18128192D02*
X5678192Y17878192D01*
D23*
X5428192Y20548192D02*
X5540000Y20660000D01*
X5428192Y18128192D02*
X5428192Y20548192D01*
X5790000Y20910000D02*
X5540000Y20660000D01*
X5330000Y20660000D02*
X4540000Y21450000D01*
X5540000Y20660000D02*
X5330000Y20660000D01*
D22*
X10190001Y18390001D02*
X10190001Y17710389D01*
X11000000Y19200000D02*
X10190001Y18390001D01*
X9679612Y17200000D02*
X6250318Y17200000D01*
X10190001Y17710389D02*
X9679612Y17200000D01*
X5678192Y17772126D02*
X5678192Y17878192D01*
X6125159Y17325159D02*
X5678192Y17772126D01*
X6250318Y17200000D02*
X6125159Y17325159D01*
D23*
X11309999Y18390001D02*
X10500000Y19200000D01*
X11750010Y17949990D02*
X11309999Y18390001D01*
X13324246Y17949990D02*
X11750010Y17949990D01*
X14150000Y19400000D02*
X14150000Y18325000D01*
X13925000Y18100000D02*
X13900000Y18100000D01*
X13900000Y18100000D02*
X13832510Y18032510D01*
X14150000Y18325000D02*
X13925000Y18100000D01*
X13832510Y18032510D02*
X13406766Y18032510D01*
X13406766Y18032510D02*
X13324246Y17949990D01*
X11130010Y12700010D02*
X12880000Y14450000D01*
X8600010Y12700010D02*
X11130010Y12700010D01*
X7850000Y11950000D02*
X8600010Y12700010D01*
X7500000Y11950000D02*
X7850000Y11950000D01*
X4500000Y11950000D02*
X7500000Y11950000D01*
X6710000Y11950000D02*
X7500000Y12740000D01*
X11090020Y12740000D02*
X11130010Y12700010D01*
X7500000Y12740000D02*
X11090020Y12740000D01*
X4500000Y11950000D02*
X6000000Y11950000D01*
X6000000Y11950000D02*
X6710000Y11950000D01*
X6049999Y11900001D02*
X6000000Y11950000D01*
X6049999Y8869999D02*
X6049999Y11900001D01*
X6169999Y8749999D02*
X6049999Y8869999D01*
X8830001Y8749999D02*
X6169999Y8749999D01*
X9280002Y9200000D02*
X8830001Y8749999D01*
X10500000Y9200000D02*
X9280002Y9200000D01*
X6040000Y2160000D02*
X7500000Y2160000D01*
X4500000Y3700000D02*
X6040000Y2160000D01*
D24*
X13149999Y5510001D02*
X14150001Y4509999D01*
D23*
X15790710Y13348092D02*
X15790710Y14079290D01*
X16810001Y11071199D02*
X16810001Y12328801D01*
X16810001Y12328801D02*
X15790710Y13348092D01*
X15790710Y14079290D02*
X15420000Y14450000D01*
D24*
X16469401Y10730599D02*
X16128801Y10389999D01*
D23*
X16469401Y10730599D02*
X16810001Y11071199D01*
X13049999Y5610001D02*
X13149999Y5510001D01*
X14150001Y4509999D02*
X15000000Y3660000D01*
X13909999Y4509999D02*
X14150001Y4509999D01*
X13049999Y5369999D02*
X13909999Y4509999D01*
X13049999Y5610001D02*
X13049999Y5369999D01*
X12839999Y5610001D02*
X13049999Y5610001D01*
X12800010Y5649990D02*
X12839999Y5610001D01*
X10949990Y5649990D02*
X12800010Y5649990D01*
X7000000Y1700000D02*
X10949990Y5649990D01*
X16128801Y10108803D02*
X16128801Y10389999D01*
X13149999Y5510001D02*
X13149999Y8599999D01*
X13149999Y8599999D02*
X14658803Y10108803D01*
X16810001Y10923199D02*
X16810001Y11071199D01*
X15995605Y10108803D02*
X16810001Y10923199D01*
X15091197Y10108803D02*
X15995605Y10108803D01*
X15091197Y10108803D02*
X16128801Y10108803D01*
X14658803Y10108803D02*
X15091197Y10108803D01*
D24*
X7623372Y19041558D02*
X9689999Y21108185D01*
X7000000Y18225000D02*
X7623372Y18848372D01*
X7623372Y18848372D02*
X7623372Y19041558D01*
D23*
X9589999Y21610001D02*
X9689999Y21510001D01*
X9589999Y24876801D02*
X9589999Y21610001D01*
X11440001Y25640001D02*
X10353199Y25640001D01*
X12250000Y26450000D02*
X11440001Y25640001D01*
X10353199Y25640001D02*
X9589999Y24876801D01*
D24*
X9689999Y21108185D02*
X9689999Y21510001D01*
D23*
X8475000Y28950000D02*
X9750000Y30225000D01*
X7250000Y28950000D02*
X8475000Y28950000D01*
X11000000Y21286802D02*
X11000000Y24200000D01*
X9000000Y18250000D02*
X9000000Y19286802D01*
X9000000Y19286802D02*
X11000000Y21286802D01*
X16000000Y23725000D02*
X15775000Y23950000D01*
X16000000Y21700000D02*
X16000000Y23725000D01*
X10500000Y14200000D02*
X6500000Y14200000D01*
X6450000Y14150000D02*
X6500000Y14200000D01*
X5000000Y14150000D02*
X6450000Y14150000D01*
X15250000Y11450000D02*
X15500000Y11700000D01*
X13275000Y11450000D02*
X15250000Y11450000D01*
X6750000Y6950000D02*
X7000000Y6700000D01*
X4500000Y6950000D02*
X6750000Y6950000D01*
D24*
X15620036Y2309999D02*
X16624990Y3314953D01*
X13890001Y2309999D02*
X15620036Y2309999D01*
D23*
X12000000Y4200000D02*
X13750000Y2450000D01*
D24*
X13750000Y2450000D02*
X13890001Y2309999D01*
D23*
X16825000Y7652194D02*
X17573903Y8401097D01*
D24*
X16624990Y7452184D02*
X16825000Y7652194D01*
X16624990Y6324990D02*
X16624990Y7452184D01*
X16624990Y3314953D02*
X16624990Y6324990D01*
D23*
X18323372Y6348372D02*
X19248372Y6348372D01*
X17700000Y5725000D02*
X18323372Y6348372D01*
X19375000Y6475000D02*
X21500000Y6475000D01*
X19248372Y6348372D02*
X19375000Y6475000D01*
X21225000Y6600000D02*
X21100000Y6475000D01*
X22412500Y6712500D02*
X23150000Y7450000D01*
X21100000Y6712500D02*
X22412500Y6712500D01*
D25*
X20575000Y6187500D02*
X21100000Y6712500D01*
X18000000Y6187500D02*
X20575000Y6187500D01*
D23*
X20300000Y27860000D02*
X21240000Y28800000D01*
X20300000Y26225000D02*
X20300000Y27860000D01*
X21240000Y28800000D02*
X22089999Y29649999D01*
X22089999Y29649999D02*
X22089999Y29890001D01*
X25110001Y30250001D02*
X25230001Y30130001D01*
X25230001Y29670001D02*
X25230001Y30070001D01*
X22089999Y29890001D02*
X22449999Y30250001D01*
X25230001Y30130001D02*
X25230001Y29670001D01*
X22449999Y30250001D02*
X25110001Y30250001D01*
X24649999Y13374999D02*
X23175000Y11900000D01*
X23575000Y12300000D02*
X24649999Y13374999D01*
X23575000Y10575000D02*
X23150000Y10150000D01*
X23575000Y12300000D02*
X23575000Y10575000D01*
X23150000Y10150000D02*
X25050000Y10150000D01*
X21562500Y10150000D02*
X21100000Y9687500D01*
X23150000Y10150000D02*
X21562500Y10150000D01*
X25230001Y29670001D02*
X25230001Y26169999D01*
X26890001Y23509999D02*
X26890001Y14390001D01*
X26890001Y14390001D02*
X26876003Y14390001D01*
X26876003Y14390001D02*
X26086012Y13600010D01*
X26086012Y13600010D02*
X24875010Y13600010D01*
X24875010Y13600010D02*
X24198372Y12923372D01*
X24198372Y12923372D02*
X23575000Y12300000D01*
X25230001Y26169999D02*
X26550000Y24850000D01*
X26550000Y23850000D02*
X26890001Y23509999D01*
X26550000Y24850000D02*
X26550000Y23850000D01*
X20675000Y24175000D02*
X22400000Y25900000D01*
X20300000Y24175000D02*
X20675000Y24175000D01*
X12926801Y27860001D02*
X13750000Y27036802D01*
X11412099Y27860001D02*
X12926801Y27860001D01*
X10304602Y26999990D02*
X10552088Y26999990D01*
X13750000Y27036802D02*
X13750000Y26950000D01*
X13750000Y26950000D02*
X13750000Y26375318D01*
X12880000Y23105000D02*
X13725000Y23950000D01*
X12880000Y21080000D02*
X12880000Y23105000D01*
X12880000Y19400000D02*
X12880000Y21080000D01*
X13725000Y26350318D02*
X13725000Y23950000D01*
X13750000Y26375318D02*
X13725000Y26350318D01*
X6150000Y24800000D02*
X7500000Y23450000D01*
X5250000Y24800000D02*
X6150000Y24800000D01*
X9252306Y25811914D02*
X8689989Y25249597D01*
X9252306Y25947694D02*
X9252306Y25811914D01*
X9252306Y25947694D02*
X10304602Y26999990D01*
X8689989Y25249597D02*
X8689989Y24139989D01*
X8000000Y23450000D02*
X7500000Y23450000D01*
X8689989Y24139989D02*
X8000000Y23450000D01*
X11001049Y27448951D02*
X10750000Y27197902D01*
X11001049Y27448951D02*
X11412099Y27860001D01*
X10552088Y26999990D02*
X11001049Y27448951D01*
X25540000Y22820000D02*
X25540000Y15200000D01*
X23700000Y25900000D02*
X25540000Y24060000D01*
X23780000Y25980000D02*
X23700000Y25900000D01*
X23780000Y28800000D02*
X23780000Y25980000D01*
X25540000Y24060000D02*
X25540000Y22820000D01*
D24*
X20080754Y12974990D02*
X19600710Y13455034D01*
X19600710Y14079290D02*
X19230000Y14450000D01*
X20919246Y12974990D02*
X20080754Y12974990D01*
X21300010Y13355754D02*
X20919246Y12974990D01*
X19600710Y13455034D02*
X19600710Y14079290D01*
X21300010Y13500010D02*
X21300010Y13355754D01*
X23000000Y15200000D02*
X21300010Y13500010D01*
D23*
X20500000Y15240000D02*
X23000000Y17740000D01*
X20500000Y14450000D02*
X20500000Y15240000D01*
X20870710Y19770710D02*
X20970710Y19770710D01*
X20500000Y19400000D02*
X20870710Y19770710D01*
X21480000Y20280000D02*
X23000000Y20280000D01*
X20970710Y19770710D02*
X21480000Y20280000D01*
X19230000Y19400000D02*
X19600710Y19770710D01*
X19600710Y19770710D02*
X19600710Y20870710D01*
X19600710Y20870710D02*
X21550000Y22820000D01*
X21550000Y22820000D02*
X23000000Y22820000D01*
X21650000Y2600000D02*
X21550000Y2500000D01*
X21650000Y4500000D02*
X21650000Y2600000D01*
X25050000Y6070000D02*
X25050000Y7450000D01*
X24679990Y5699990D02*
X25050000Y6070000D01*
X25200000Y7300000D02*
X25050000Y7450000D01*
X27000000Y7300000D02*
X25200000Y7300000D01*
X22849990Y5699990D02*
X24679990Y5699990D01*
X21650000Y4500000D02*
X22849990Y5699990D01*
D26*
G36*
X30548001Y452000D02*
G01*
X9130112Y452000D01*
X9163801Y485689D01*
X9191543Y508456D01*
X9282393Y619157D01*
X9349900Y745453D01*
X9391470Y882493D01*
X9401990Y989302D01*
X9401990Y989304D01*
X9405507Y1025009D01*
X9401990Y1060715D01*
X9401990Y1627563D01*
X9424910Y1670443D01*
X9466480Y1807483D01*
X9470162Y1844869D01*
X9472823Y1871885D01*
X10073939Y2473000D01*
X10198868Y2473000D01*
X11710683Y961183D01*
X11733446Y933446D01*
X11844147Y842597D01*
X11934809Y794137D01*
X11970443Y775090D01*
X12107482Y733520D01*
X12250000Y719483D01*
X12285708Y723000D01*
X16689292Y723000D01*
X16725000Y719483D01*
X16867517Y733520D01*
X16906855Y745453D01*
X17004557Y775090D01*
X17130853Y842597D01*
X17241554Y933446D01*
X17264326Y961194D01*
X17925326Y1622193D01*
X18043276Y1586413D01*
X18179462Y1573000D01*
X18179472Y1573000D01*
X18224999Y1568516D01*
X18270526Y1573000D01*
X19167225Y1573000D01*
X19169828Y1569828D01*
X19272731Y1485377D01*
X19390132Y1422625D01*
X19517520Y1383982D01*
X19649999Y1370934D01*
X20075933Y1370934D01*
X20735693Y711173D01*
X20758456Y683436D01*
X20869157Y592587D01*
X20974662Y536193D01*
X20995453Y525080D01*
X21132492Y483510D01*
X21275010Y469473D01*
X21310718Y472990D01*
X22739282Y472990D01*
X22774990Y469473D01*
X22917507Y483510D01*
X22999747Y508457D01*
X23054547Y525080D01*
X23180843Y592587D01*
X23291544Y683436D01*
X23314315Y711183D01*
X23915944Y1312811D01*
X23915948Y1312816D01*
X24024066Y1420934D01*
X24450001Y1420934D01*
X24582480Y1433982D01*
X24709868Y1472625D01*
X24827269Y1535377D01*
X24930172Y1619828D01*
X25014623Y1722731D01*
X25077375Y1840132D01*
X25116018Y1967520D01*
X25129066Y2099999D01*
X25129066Y2750001D01*
X25116018Y2882480D01*
X25077375Y3009868D01*
X25014623Y3127269D01*
X24930172Y3230172D01*
X24827269Y3314623D01*
X24760343Y3350396D01*
X26473000Y3350396D01*
X26473000Y3049604D01*
X26531681Y2754590D01*
X26646790Y2476694D01*
X26813901Y2226594D01*
X27026594Y2013901D01*
X27276694Y1846790D01*
X27554590Y1731681D01*
X27849604Y1673000D01*
X28150396Y1673000D01*
X28445410Y1731681D01*
X28723306Y1846790D01*
X28973406Y2013901D01*
X29186099Y2226594D01*
X29353210Y2476694D01*
X29468319Y2754590D01*
X29527000Y3049604D01*
X29527000Y3350396D01*
X29468319Y3645410D01*
X29353210Y3923306D01*
X29186099Y4173406D01*
X28973406Y4386099D01*
X28723306Y4553210D01*
X28445410Y4668319D01*
X28150396Y4727000D01*
X27849604Y4727000D01*
X27554590Y4668319D01*
X27276694Y4553210D01*
X27026594Y4386099D01*
X26813901Y4173406D01*
X26646790Y3923306D01*
X26531681Y3645410D01*
X26473000Y3350396D01*
X24760343Y3350396D01*
X24709868Y3377375D01*
X24582480Y3416018D01*
X24450001Y3429066D01*
X23549999Y3429066D01*
X23417520Y3416018D01*
X23290132Y3377375D01*
X23172731Y3314623D01*
X23069828Y3230172D01*
X22997829Y3142441D01*
X22977375Y3209868D01*
X22914623Y3327269D01*
X22830172Y3430172D01*
X22775549Y3475000D01*
X22830172Y3519828D01*
X22914623Y3622731D01*
X22977375Y3740132D01*
X23016018Y3867520D01*
X23029066Y3999999D01*
X23029066Y4850933D01*
X23151123Y4972990D01*
X24644282Y4972990D01*
X24679990Y4969473D01*
X24822507Y4983510D01*
X24855265Y4993447D01*
X24959547Y5025080D01*
X25085843Y5092587D01*
X25196544Y5183436D01*
X25219316Y5211184D01*
X25538811Y5530679D01*
X25566553Y5553446D01*
X25657403Y5664147D01*
X25724910Y5790443D01*
X25761619Y5911459D01*
X25766480Y5927482D01*
X25780517Y6069999D01*
X25777000Y6105707D01*
X25777000Y6524248D01*
X25791789Y6573000D01*
X26126888Y6573000D01*
X26172731Y6535377D01*
X26290132Y6472625D01*
X26417520Y6433982D01*
X26549999Y6420934D01*
X27450001Y6420934D01*
X27582480Y6433982D01*
X27709868Y6472625D01*
X27827269Y6535377D01*
X27930172Y6619828D01*
X28014623Y6722731D01*
X28077375Y6840132D01*
X28116018Y6967520D01*
X28129066Y7099999D01*
X28129066Y7750001D01*
X28116018Y7882480D01*
X28077375Y8009868D01*
X28014623Y8127269D01*
X27930172Y8230172D01*
X27827269Y8314623D01*
X27709868Y8377375D01*
X27582480Y8416018D01*
X27450001Y8429066D01*
X26549999Y8429066D01*
X26417520Y8416018D01*
X26290132Y8377375D01*
X26172731Y8314623D01*
X26069828Y8230172D01*
X25985377Y8127269D01*
X25931782Y8027000D01*
X25804066Y8027000D01*
X25804066Y8230000D01*
X25795822Y8313707D01*
X25771405Y8394196D01*
X25731755Y8468376D01*
X25678395Y8533395D01*
X25613376Y8586755D01*
X25539196Y8626405D01*
X25458707Y8650822D01*
X25375000Y8659066D01*
X24725000Y8659066D01*
X24641293Y8650822D01*
X24560804Y8626405D01*
X24486624Y8586755D01*
X24421605Y8533395D01*
X24368245Y8468376D01*
X24328595Y8394196D01*
X24304178Y8313707D01*
X24295934Y8230000D01*
X24295934Y6670000D01*
X24304178Y6586293D01*
X24323000Y6524246D01*
X24323000Y6426990D01*
X23827952Y6426990D01*
X23831755Y6431624D01*
X23871405Y6505804D01*
X23895822Y6586293D01*
X23904066Y6670000D01*
X23904066Y8230000D01*
X23895822Y8313707D01*
X23871405Y8394196D01*
X23831755Y8468376D01*
X23778395Y8533395D01*
X23713376Y8586755D01*
X23639196Y8626405D01*
X23558707Y8650822D01*
X23475000Y8659066D01*
X22825000Y8659066D01*
X22741293Y8650822D01*
X22660804Y8626405D01*
X22586624Y8586755D01*
X22521605Y8533395D01*
X22468245Y8468376D01*
X22428595Y8394196D01*
X22404178Y8313707D01*
X22395934Y8230000D01*
X22395934Y7724067D01*
X22260105Y7588237D01*
X22205172Y7655172D01*
X22102269Y7739623D01*
X21984867Y7802375D01*
X21857479Y7841018D01*
X21725000Y7854066D01*
X20475000Y7854066D01*
X20342521Y7841018D01*
X20215133Y7802375D01*
X20097731Y7739623D01*
X19994828Y7655172D01*
X19910377Y7552269D01*
X19847625Y7434867D01*
X19808982Y7307479D01*
X19798593Y7202000D01*
X19410707Y7202000D01*
X19374999Y7205517D01*
X19232483Y7191480D01*
X19095443Y7149910D01*
X19086770Y7145274D01*
X19002269Y7214623D01*
X18884867Y7277375D01*
X18757479Y7316018D01*
X18625000Y7329066D01*
X17932567Y7329066D01*
X17982480Y7333982D01*
X18109868Y7372625D01*
X18227269Y7435377D01*
X18330172Y7519828D01*
X18414623Y7622731D01*
X18477375Y7740132D01*
X18516018Y7867520D01*
X18529066Y7999999D01*
X18529066Y8900001D01*
X18516018Y9032480D01*
X18477375Y9159868D01*
X18414623Y9277269D01*
X18330172Y9380172D01*
X18227269Y9464623D01*
X18109868Y9527375D01*
X17982480Y9566018D01*
X17850001Y9579066D01*
X17846520Y9579066D01*
X18563812Y10296357D01*
X18591554Y10319124D01*
X18682403Y10429825D01*
X18749910Y10556121D01*
X18791480Y10693161D01*
X18802000Y10799970D01*
X18802000Y10799972D01*
X18802611Y10806175D01*
X18880172Y10869828D01*
X18964623Y10972731D01*
X19027375Y11090132D01*
X19066018Y11217520D01*
X19079066Y11349999D01*
X19079066Y12250001D01*
X19066018Y12382480D01*
X19027375Y12509868D01*
X18964623Y12627269D01*
X18880172Y12730172D01*
X18777269Y12814623D01*
X18674121Y12869756D01*
X17787710Y13756166D01*
X17787710Y14043583D01*
X17791227Y14079291D01*
X17777190Y14221808D01*
X17735620Y14358847D01*
X17668113Y14485143D01*
X17577263Y14595844D01*
X17549521Y14618611D01*
X17419066Y14749066D01*
X17419066Y15275000D01*
X17407939Y15387970D01*
X17374987Y15496599D01*
X17321476Y15596712D01*
X17249461Y15684461D01*
X17161712Y15756476D01*
X17061599Y15809987D01*
X16952970Y15842939D01*
X16840000Y15854066D01*
X16540000Y15854066D01*
X16427030Y15842939D01*
X16318401Y15809987D01*
X16218288Y15756476D01*
X16130539Y15684461D01*
X16058524Y15596712D01*
X16055000Y15590119D01*
X16051476Y15596712D01*
X15979461Y15684461D01*
X15891712Y15756476D01*
X15791599Y15809987D01*
X15682970Y15842939D01*
X15570000Y15854066D01*
X15270000Y15854066D01*
X15157030Y15842939D01*
X15048401Y15809987D01*
X14948288Y15756476D01*
X14860539Y15684461D01*
X14788524Y15596712D01*
X14785000Y15590119D01*
X14781476Y15596712D01*
X14709461Y15684461D01*
X14621712Y15756476D01*
X14521599Y15809987D01*
X14412970Y15842939D01*
X14300000Y15854066D01*
X14000000Y15854066D01*
X13887030Y15842939D01*
X13778401Y15809987D01*
X13678288Y15756476D01*
X13590539Y15684461D01*
X13518524Y15596712D01*
X13515000Y15590119D01*
X13511476Y15596712D01*
X13439461Y15684461D01*
X13351712Y15756476D01*
X13251599Y15809987D01*
X13142970Y15842939D01*
X13030000Y15854066D01*
X12730000Y15854066D01*
X12617030Y15842939D01*
X12508401Y15809987D01*
X12408288Y15756476D01*
X12320539Y15684461D01*
X12248524Y15596712D01*
X12195013Y15496599D01*
X12162061Y15387970D01*
X12150934Y15275000D01*
X12150934Y14749067D01*
X11734794Y14332926D01*
X11689462Y14560819D01*
X11596215Y14785939D01*
X11460840Y14988541D01*
X11288541Y15160840D01*
X11085939Y15296215D01*
X10860819Y15389462D01*
X10621834Y15437000D01*
X10378166Y15437000D01*
X10139181Y15389462D01*
X9914061Y15296215D01*
X9711459Y15160840D01*
X9539160Y14988541D01*
X9498039Y14927000D01*
X6535708Y14927000D01*
X6500000Y14930517D01*
X6464292Y14927000D01*
X6357483Y14916480D01*
X6227333Y14877000D01*
X5994327Y14877000D01*
X5930172Y14955172D01*
X5827269Y15039623D01*
X5709868Y15102375D01*
X5582480Y15141018D01*
X5450001Y15154066D01*
X4549999Y15154066D01*
X4417520Y15141018D01*
X4290132Y15102375D01*
X4172731Y15039623D01*
X4069828Y14955172D01*
X3985377Y14852269D01*
X3922625Y14734868D01*
X3883982Y14607480D01*
X3870934Y14475001D01*
X3870934Y13824999D01*
X3883982Y13692520D01*
X3922625Y13565132D01*
X3985377Y13447731D01*
X4069828Y13344828D01*
X4149959Y13279066D01*
X3600000Y13279066D01*
X3516293Y13270822D01*
X3435804Y13246405D01*
X3361624Y13206755D01*
X3296605Y13153395D01*
X3243245Y13088376D01*
X3203595Y13014196D01*
X3179178Y12933707D01*
X3170934Y12850000D01*
X3170934Y11050000D01*
X3179178Y10966293D01*
X3203595Y10885804D01*
X3243245Y10811624D01*
X3296605Y10746605D01*
X3361624Y10693245D01*
X3435804Y10653595D01*
X3516293Y10629178D01*
X3600000Y10620934D01*
X5323000Y10620934D01*
X5322999Y8905707D01*
X5319482Y8869999D01*
X5333519Y8727482D01*
X5364180Y8626405D01*
X5375089Y8590443D01*
X5442596Y8464147D01*
X5533445Y8353446D01*
X5561189Y8330677D01*
X5630673Y8261193D01*
X5653445Y8233445D01*
X5764146Y8142596D01*
X5890442Y8075089D01*
X5992449Y8044146D01*
X6027482Y8033519D01*
X6169999Y8019482D01*
X6205707Y8022999D01*
X8794293Y8022999D01*
X8830001Y8019482D01*
X8972518Y8033519D01*
X9007551Y8044146D01*
X9109558Y8075089D01*
X9235854Y8142596D01*
X9346555Y8233445D01*
X9369327Y8261193D01*
X9531323Y8423189D01*
X9539160Y8411459D01*
X9711459Y8239160D01*
X9914061Y8103785D01*
X10139181Y8010538D01*
X10378166Y7963000D01*
X10621834Y7963000D01*
X10860819Y8010538D01*
X11085939Y8103785D01*
X11172132Y8161378D01*
X11167598Y8155853D01*
X11100090Y8029556D01*
X11081876Y7969511D01*
X11072731Y7964623D01*
X10969828Y7880172D01*
X10885377Y7777269D01*
X10822625Y7659868D01*
X10783982Y7532480D01*
X10770934Y7400001D01*
X10770934Y6499999D01*
X10783982Y6367520D01*
X10786253Y6360033D01*
X10670433Y6324900D01*
X10544137Y6257393D01*
X10433436Y6166544D01*
X10410669Y6138802D01*
X7194428Y2922560D01*
X7121834Y2937000D01*
X6878166Y2937000D01*
X6639181Y2889462D01*
X6633237Y2887000D01*
X6341134Y2887000D01*
X5829066Y3399067D01*
X5829066Y4600000D01*
X5820822Y4683707D01*
X5796405Y4764196D01*
X5756755Y4838376D01*
X5703395Y4903395D01*
X5638376Y4956755D01*
X5564196Y4996405D01*
X5483707Y5020822D01*
X5400000Y5029066D01*
X3600000Y5029066D01*
X3516293Y5020822D01*
X3435804Y4996405D01*
X3361624Y4956755D01*
X3296605Y4903395D01*
X3243245Y4838376D01*
X3203595Y4764196D01*
X3179178Y4683707D01*
X3170934Y4600000D01*
X3170934Y2870999D01*
X1603711Y2870999D01*
X1398411Y3076298D01*
X1368909Y3173556D01*
X1301402Y3299852D01*
X1210553Y3410553D01*
X1152010Y3458597D01*
X1152010Y4665279D01*
X1207309Y4720578D01*
X1304566Y4750080D01*
X1430862Y4817587D01*
X1541563Y4908436D01*
X1632413Y5019137D01*
X1699920Y5145433D01*
X1711396Y5183263D01*
X2349067Y5820934D01*
X2775001Y5820934D01*
X2907480Y5833982D01*
X3034868Y5872625D01*
X3152269Y5935377D01*
X3255172Y6019828D01*
X3339623Y6122731D01*
X3402375Y6240132D01*
X3441018Y6367520D01*
X3454066Y6499999D01*
X3454066Y7400001D01*
X3495934Y7400001D01*
X3495934Y6499999D01*
X3508982Y6367520D01*
X3547625Y6240132D01*
X3610377Y6122731D01*
X3694828Y6019828D01*
X3797731Y5935377D01*
X3915132Y5872625D01*
X4042520Y5833982D01*
X4174999Y5820934D01*
X4825001Y5820934D01*
X4957480Y5833982D01*
X5084868Y5872625D01*
X5202269Y5935377D01*
X5305172Y6019828D01*
X5389623Y6122731D01*
X5443218Y6223000D01*
X5858661Y6223000D01*
X5903785Y6114061D01*
X6039160Y5911459D01*
X6211459Y5739160D01*
X6414061Y5603785D01*
X6639181Y5510538D01*
X6878166Y5463000D01*
X7121834Y5463000D01*
X7360819Y5510538D01*
X7585939Y5603785D01*
X7788541Y5739160D01*
X7960840Y5911459D01*
X8096215Y6114061D01*
X8189462Y6339181D01*
X8237000Y6578166D01*
X8237000Y6821834D01*
X8189462Y7060819D01*
X8096215Y7285939D01*
X7960840Y7488541D01*
X7788541Y7660840D01*
X7585939Y7796215D01*
X7360819Y7889462D01*
X7121834Y7937000D01*
X6878166Y7937000D01*
X6639181Y7889462D01*
X6414061Y7796215D01*
X6235644Y7677000D01*
X5443218Y7677000D01*
X5389623Y7777269D01*
X5305172Y7880172D01*
X5202269Y7964623D01*
X5084868Y8027375D01*
X4957480Y8066018D01*
X4825001Y8079066D01*
X4174999Y8079066D01*
X4042520Y8066018D01*
X3915132Y8027375D01*
X3797731Y7964623D01*
X3694828Y7880172D01*
X3610377Y7777269D01*
X3547625Y7659868D01*
X3508982Y7532480D01*
X3495934Y7400001D01*
X3454066Y7400001D01*
X3441018Y7532480D01*
X3402375Y7659868D01*
X3339623Y7777269D01*
X3255172Y7880172D01*
X3193570Y7930728D01*
X3202269Y7935377D01*
X3305172Y8019828D01*
X3389623Y8122731D01*
X3452375Y8240132D01*
X3491018Y8367520D01*
X3504066Y8499999D01*
X3504066Y9400001D01*
X3491018Y9532480D01*
X3452375Y9659868D01*
X3389623Y9777269D01*
X3305172Y9880172D01*
X3202269Y9964623D01*
X3084868Y10027375D01*
X2957480Y10066018D01*
X2825001Y10079066D01*
X2402094Y10079066D01*
X2393182Y10089926D01*
X2282481Y10180775D01*
X2156185Y10248282D01*
X2019145Y10289852D01*
X1984930Y10293222D01*
X1763827Y10514325D01*
X1680863Y10582412D01*
X1554566Y10649920D01*
X1457309Y10679422D01*
X1152010Y10984721D01*
X1152010Y12338636D01*
X1158852Y12346973D01*
X1217074Y12455898D01*
X1252926Y12574088D01*
X1261999Y12666207D01*
X1265032Y12697001D01*
X1261999Y12727795D01*
X1261999Y14325288D01*
X2684712Y15748000D01*
X3883442Y15748000D01*
X3883982Y15742520D01*
X3922625Y15615132D01*
X3985377Y15497731D01*
X4069828Y15394828D01*
X4172731Y15310377D01*
X4290132Y15247625D01*
X4417520Y15208982D01*
X4549999Y15195934D01*
X5450001Y15195934D01*
X5582480Y15208982D01*
X5709868Y15247625D01*
X5827269Y15310377D01*
X5930172Y15394828D01*
X5973809Y15448000D01*
X6005673Y15448000D01*
X6069828Y15369828D01*
X6172731Y15285377D01*
X6290132Y15222625D01*
X6417520Y15183982D01*
X6549999Y15170934D01*
X7450001Y15170934D01*
X7582480Y15183982D01*
X7709868Y15222625D01*
X7827269Y15285377D01*
X7930172Y15369828D01*
X7994327Y15448000D01*
X8026191Y15448000D01*
X8069828Y15394828D01*
X8172731Y15310377D01*
X8290132Y15247625D01*
X8417520Y15208982D01*
X8549999Y15195934D01*
X9450001Y15195934D01*
X9582480Y15208982D01*
X9709868Y15247625D01*
X9827269Y15310377D01*
X9930172Y15394828D01*
X9997981Y15477453D01*
X10059579Y15483520D01*
X10106427Y15497731D01*
X10196619Y15525090D01*
X10322915Y15592597D01*
X10433616Y15683446D01*
X10456387Y15711193D01*
X10968195Y16223000D01*
X14228296Y16223000D01*
X14251428Y16220722D01*
X14264206Y16219463D01*
X14264207Y16219463D01*
X14406724Y16233500D01*
X14543763Y16275070D01*
X14670060Y16342578D01*
X14753024Y16410665D01*
X14780760Y16433427D01*
X14803522Y16461163D01*
X15231811Y16889451D01*
X17047841Y16889451D01*
X17083549Y16885934D01*
X17226066Y16899971D01*
X17233642Y16902269D01*
X17363106Y16941541D01*
X17489402Y17009048D01*
X17600103Y17099897D01*
X17622875Y17127644D01*
X18549532Y18054301D01*
X18577274Y18077068D01*
X18660209Y18178126D01*
X18670539Y18165539D01*
X18758288Y18093524D01*
X18858401Y18040013D01*
X18967030Y18007061D01*
X19080000Y17995934D01*
X19380000Y17995934D01*
X19492970Y18007061D01*
X19601599Y18040013D01*
X19701712Y18093524D01*
X19789461Y18165539D01*
X19861476Y18253288D01*
X19865000Y18259881D01*
X19868524Y18253288D01*
X19940539Y18165539D01*
X20028288Y18093524D01*
X20128401Y18040013D01*
X20237030Y18007061D01*
X20350000Y17995934D01*
X20650000Y17995934D01*
X20762970Y18007061D01*
X20871599Y18040013D01*
X20971712Y18093524D01*
X21059461Y18165539D01*
X21131476Y18253288D01*
X21184987Y18353401D01*
X21217939Y18462030D01*
X21229066Y18575000D01*
X21229066Y19089369D01*
X21250267Y19095800D01*
X21376563Y19163307D01*
X21487264Y19254156D01*
X21510035Y19281903D01*
X21781133Y19553000D01*
X21944651Y19553000D01*
X22092656Y19372656D01*
X22287104Y19213076D01*
X22508949Y19094498D01*
X22749664Y19021478D01*
X22866202Y19010000D01*
X22749664Y18998522D01*
X22508949Y18925502D01*
X22287104Y18806924D01*
X22092656Y18647344D01*
X21933076Y18452896D01*
X21814498Y18231051D01*
X21741478Y17990336D01*
X21716822Y17740000D01*
X21739690Y17507823D01*
X20011189Y15779321D01*
X19983447Y15756554D01*
X19908418Y15665130D01*
X19892598Y15645853D01*
X19863904Y15592170D01*
X19861476Y15596712D01*
X19789461Y15684461D01*
X19701712Y15756476D01*
X19601599Y15809987D01*
X19492970Y15842939D01*
X19380000Y15854066D01*
X19080000Y15854066D01*
X18967030Y15842939D01*
X18858401Y15809987D01*
X18758288Y15756476D01*
X18670539Y15684461D01*
X18598524Y15596712D01*
X18545013Y15496599D01*
X18512061Y15387970D01*
X18500934Y15275000D01*
X18500934Y13625000D01*
X18512061Y13512030D01*
X18545013Y13403401D01*
X18598524Y13303288D01*
X18670539Y13215539D01*
X18758288Y13143524D01*
X18858401Y13090013D01*
X18967030Y13057061D01*
X19080000Y13045934D01*
X19125336Y13045934D01*
X19155209Y13009533D01*
X19179137Y12989896D01*
X19615620Y12553412D01*
X19635253Y12529489D01*
X19730726Y12451137D01*
X19839651Y12392915D01*
X19957841Y12357063D01*
X20080754Y12344957D01*
X20111548Y12347990D01*
X20888452Y12347990D01*
X20919246Y12344957D01*
X20950040Y12347990D01*
X21042159Y12357063D01*
X21160349Y12392915D01*
X21269274Y12451137D01*
X21364747Y12529489D01*
X21384384Y12553417D01*
X21721583Y12890616D01*
X21745511Y12910253D01*
X21802394Y12979566D01*
X21823863Y13005726D01*
X21882085Y13114650D01*
X21917234Y13230523D01*
X22656462Y13969750D01*
X22749664Y13941478D01*
X22937274Y13923000D01*
X23062726Y13923000D01*
X23250336Y13941478D01*
X23491051Y14014498D01*
X23712896Y14133076D01*
X23907344Y14292656D01*
X24066924Y14487104D01*
X24185502Y14708949D01*
X24258522Y14949664D01*
X24270000Y15066202D01*
X24281478Y14949664D01*
X24354498Y14708949D01*
X24473076Y14487104D01*
X24632656Y14292656D01*
X24638395Y14287946D01*
X24595453Y14274920D01*
X24469157Y14207413D01*
X24358456Y14116564D01*
X24335693Y14088827D01*
X24161182Y13914315D01*
X23709556Y13462688D01*
X23709554Y13462687D01*
X23675933Y13429066D01*
X23249999Y13429066D01*
X23117520Y13416018D01*
X22990132Y13377375D01*
X22872731Y13314623D01*
X22769828Y13230172D01*
X22685377Y13127269D01*
X22622625Y13009868D01*
X22583982Y12882480D01*
X22570934Y12750001D01*
X22570934Y12309918D01*
X22567598Y12305853D01*
X22500090Y12179556D01*
X22458520Y12042517D01*
X22444483Y11900000D01*
X22458520Y11757483D01*
X22500090Y11620444D01*
X22567598Y11494147D01*
X22658447Y11383447D01*
X22709831Y11341278D01*
X22660804Y11326405D01*
X22586624Y11286755D01*
X22521605Y11233395D01*
X22468245Y11168376D01*
X22428595Y11094196D01*
X22404178Y11013707D01*
X22395934Y10930000D01*
X22395934Y10877000D01*
X21598208Y10877000D01*
X21562500Y10880517D01*
X21419982Y10866480D01*
X21296644Y10829066D01*
X20475000Y10829066D01*
X20342521Y10816018D01*
X20215133Y10777375D01*
X20097731Y10714623D01*
X19994828Y10630172D01*
X19910377Y10527269D01*
X19847625Y10409867D01*
X19808982Y10282479D01*
X19795934Y10150000D01*
X19795934Y9225000D01*
X19808982Y9092521D01*
X19847625Y8965133D01*
X19910377Y8847731D01*
X19994828Y8744828D01*
X20097731Y8660377D01*
X20215133Y8597625D01*
X20342521Y8558982D01*
X20475000Y8545934D01*
X21725000Y8545934D01*
X21857479Y8558982D01*
X21984867Y8597625D01*
X22102269Y8660377D01*
X22205172Y8744828D01*
X22289623Y8847731D01*
X22352375Y8965133D01*
X22391018Y9092521D01*
X22404066Y9225000D01*
X22404066Y9287430D01*
X22404178Y9286293D01*
X22428595Y9205804D01*
X22468245Y9131624D01*
X22521605Y9066605D01*
X22586624Y9013245D01*
X22660804Y8973595D01*
X22741293Y8949178D01*
X22825000Y8940934D01*
X23475000Y8940934D01*
X23558707Y8949178D01*
X23639196Y8973595D01*
X23713376Y9013245D01*
X23778395Y9066605D01*
X23831755Y9131624D01*
X23871405Y9205804D01*
X23895822Y9286293D01*
X23904066Y9370000D01*
X23904066Y9423000D01*
X24295934Y9423000D01*
X24295934Y9370000D01*
X24304178Y9286293D01*
X24328595Y9205804D01*
X24368245Y9131624D01*
X24421605Y9066605D01*
X24486624Y9013245D01*
X24560804Y8973595D01*
X24641293Y8949178D01*
X24725000Y8940934D01*
X25375000Y8940934D01*
X25458707Y8949178D01*
X25539196Y8973595D01*
X25613376Y9013245D01*
X25678395Y9066605D01*
X25731755Y9131624D01*
X25771405Y9205804D01*
X25795822Y9286293D01*
X25804066Y9370000D01*
X25804066Y10930000D01*
X25795822Y11013707D01*
X25771405Y11094196D01*
X25731755Y11168376D01*
X25678395Y11233395D01*
X25613376Y11286755D01*
X25539196Y11326405D01*
X25458707Y11350822D01*
X25375000Y11359066D01*
X24725000Y11359066D01*
X24641293Y11350822D01*
X24560804Y11326405D01*
X24486624Y11286755D01*
X24421605Y11233395D01*
X24368245Y11168376D01*
X24328595Y11094196D01*
X24304178Y11013707D01*
X24302000Y10991592D01*
X24302000Y11305673D01*
X24380172Y11369828D01*
X24464623Y11472731D01*
X24527375Y11590132D01*
X24566018Y11717520D01*
X24579066Y11849999D01*
X24579066Y12275933D01*
X24737687Y12434554D01*
X24737688Y12434556D01*
X25176143Y12873010D01*
X26050304Y12873010D01*
X26086012Y12869493D01*
X26228529Y12883530D01*
X26248084Y12889462D01*
X26365569Y12925100D01*
X26491865Y12992607D01*
X26602566Y13083456D01*
X26625337Y13111203D01*
X27300760Y13786624D01*
X27406555Y13873447D01*
X27497404Y13984148D01*
X27564911Y14110444D01*
X27606481Y14247484D01*
X27617001Y14354293D01*
X27620518Y14390001D01*
X27617001Y14425709D01*
X27617001Y23474292D01*
X27620518Y23510000D01*
X27606481Y23652517D01*
X27564911Y23789556D01*
X27540344Y23835517D01*
X27497404Y23915852D01*
X27406554Y24026553D01*
X27378812Y24049320D01*
X27277000Y24151132D01*
X27277000Y24814295D01*
X27280517Y24850001D01*
X27274360Y24912509D01*
X27266480Y24992517D01*
X27224910Y25129557D01*
X27157403Y25255853D01*
X27066553Y25366554D01*
X27038816Y25389317D01*
X25957001Y26471131D01*
X25957001Y30094293D01*
X25960518Y30130001D01*
X25946481Y30272518D01*
X25938587Y30298542D01*
X25904911Y30409558D01*
X25837404Y30535854D01*
X25746554Y30646555D01*
X25718812Y30669322D01*
X25649327Y30738807D01*
X25626555Y30766555D01*
X25524394Y30850396D01*
X26473000Y30850396D01*
X26473000Y30549604D01*
X26531681Y30254590D01*
X26646790Y29976694D01*
X26813901Y29726594D01*
X27026594Y29513901D01*
X27276694Y29346790D01*
X27554590Y29231681D01*
X27849604Y29173000D01*
X28150396Y29173000D01*
X28445410Y29231681D01*
X28723306Y29346790D01*
X28973406Y29513901D01*
X29186099Y29726594D01*
X29353210Y29976694D01*
X29468319Y30254590D01*
X29527000Y30549604D01*
X29527000Y30850396D01*
X29468319Y31145410D01*
X29353210Y31423306D01*
X29186099Y31673406D01*
X28973406Y31886099D01*
X28723306Y32053210D01*
X28445410Y32168319D01*
X28150396Y32227000D01*
X27849604Y32227000D01*
X27554590Y32168319D01*
X27276694Y32053210D01*
X27026594Y31886099D01*
X26813901Y31673406D01*
X26646790Y31423306D01*
X26531681Y31145410D01*
X26473000Y30850396D01*
X25524394Y30850396D01*
X25515854Y30857404D01*
X25389558Y30924911D01*
X25252518Y30966481D01*
X25145709Y30977001D01*
X25110001Y30980518D01*
X25074293Y30977001D01*
X22485707Y30977001D01*
X22449999Y30980518D01*
X22307481Y30966481D01*
X22178215Y30927269D01*
X22170442Y30924911D01*
X22044146Y30857404D01*
X21933445Y30766555D01*
X21910677Y30738812D01*
X21601187Y30429322D01*
X21573446Y30406555D01*
X21482596Y30295854D01*
X21415089Y30169558D01*
X21396259Y30107483D01*
X21384567Y30068939D01*
X21302726Y30077000D01*
X21177274Y30077000D01*
X20989664Y30058522D01*
X20748949Y29985502D01*
X20527104Y29866924D01*
X20332656Y29707344D01*
X20173076Y29512896D01*
X20054498Y29291051D01*
X19981478Y29050336D01*
X19956822Y28800000D01*
X19979690Y28567822D01*
X19811189Y28399321D01*
X19783447Y28376554D01*
X19705700Y28281818D01*
X19692598Y28265853D01*
X19625090Y28139556D01*
X19583520Y28002517D01*
X19569483Y27860000D01*
X19573001Y27824282D01*
X19573001Y27168218D01*
X19472731Y27114623D01*
X19369828Y27030172D01*
X19285377Y26927269D01*
X19222625Y26809868D01*
X19183982Y26682480D01*
X19170934Y26550001D01*
X19170934Y25899999D01*
X19183982Y25767520D01*
X19222625Y25640132D01*
X19285377Y25522731D01*
X19369828Y25419828D01*
X19472731Y25335377D01*
X19590132Y25272625D01*
X19717520Y25233982D01*
X19849999Y25220934D01*
X20692802Y25220934D01*
X20650934Y25179066D01*
X19849999Y25179066D01*
X19717520Y25166018D01*
X19590132Y25127375D01*
X19472731Y25064623D01*
X19369828Y24980172D01*
X19285377Y24877269D01*
X19222625Y24759868D01*
X19183982Y24632480D01*
X19170934Y24500001D01*
X19170934Y23849999D01*
X19183982Y23717520D01*
X19222625Y23590132D01*
X19285377Y23472731D01*
X19369828Y23369828D01*
X19472731Y23285377D01*
X19590132Y23222625D01*
X19717520Y23183982D01*
X19849999Y23170934D01*
X20750001Y23170934D01*
X20882480Y23183982D01*
X20887316Y23185449D01*
X19111899Y21410031D01*
X19084157Y21387264D01*
X19007739Y21294147D01*
X18993308Y21276563D01*
X18925800Y21150266D01*
X18884230Y21013227D01*
X18870193Y20870710D01*
X18873711Y20834993D01*
X18873711Y20764631D01*
X18858401Y20759987D01*
X18758288Y20706476D01*
X18670539Y20634461D01*
X18598524Y20546712D01*
X18595000Y20540119D01*
X18591476Y20546712D01*
X18519461Y20634461D01*
X18431712Y20706476D01*
X18331599Y20759987D01*
X18222970Y20792939D01*
X18132264Y20801873D01*
X18140518Y20885677D01*
X18137001Y20921385D01*
X18137001Y20987492D01*
X18140518Y21023198D01*
X18137001Y21058906D01*
X18137001Y22341096D01*
X18140518Y22376802D01*
X18136840Y22414146D01*
X18126481Y22519318D01*
X18084911Y22656358D01*
X18017404Y22782654D01*
X18006275Y22796215D01*
X17926555Y22893355D01*
X17898807Y22916127D01*
X17887093Y22927841D01*
X17887093Y29746281D01*
X17890610Y29781989D01*
X17876573Y29924506D01*
X17851623Y30006755D01*
X17835003Y30061545D01*
X17767496Y30187841D01*
X17676646Y30298542D01*
X17648909Y30321305D01*
X16991406Y30978807D01*
X16968635Y31006554D01*
X16857934Y31097403D01*
X16731638Y31164910D01*
X16594598Y31206480D01*
X16487789Y31217000D01*
X16452081Y31220517D01*
X16416373Y31217000D01*
X16305349Y31217000D01*
X16157344Y31397344D01*
X15962896Y31556924D01*
X15741051Y31675502D01*
X15500336Y31748522D01*
X15312726Y31767000D01*
X15187274Y31767000D01*
X14999664Y31748522D01*
X14758949Y31675502D01*
X14537104Y31556924D01*
X14342656Y31397344D01*
X14194651Y31217000D01*
X13511133Y31217000D01*
X13472560Y31255573D01*
X13487000Y31328166D01*
X13487000Y31571834D01*
X13439462Y31810819D01*
X13346215Y32035939D01*
X13210840Y32238541D01*
X13038541Y32410840D01*
X12835939Y32546215D01*
X12610819Y32639462D01*
X12371834Y32687000D01*
X12128166Y32687000D01*
X11889181Y32639462D01*
X11664061Y32546215D01*
X11461459Y32410840D01*
X11289160Y32238541D01*
X11248039Y32177000D01*
X8535708Y32177000D01*
X8500000Y32180517D01*
X8357482Y32166480D01*
X8220443Y32124910D01*
X8094147Y32057403D01*
X7983446Y31966554D01*
X7960683Y31938817D01*
X7553867Y31532000D01*
X6930708Y31532000D01*
X6895000Y31535517D01*
X6752482Y31521480D01*
X6615443Y31479910D01*
X6489147Y31412403D01*
X6378446Y31321554D01*
X6355679Y31293812D01*
X5869066Y30807198D01*
X5869066Y30850000D01*
X5860822Y30933707D01*
X5836405Y31014196D01*
X5796755Y31088376D01*
X5743395Y31153395D01*
X5678376Y31206755D01*
X5604196Y31246405D01*
X5523707Y31270822D01*
X5440000Y31279066D01*
X3640000Y31279066D01*
X3556293Y31270822D01*
X3475804Y31246405D01*
X3401624Y31206755D01*
X3336605Y31153395D01*
X3283245Y31088376D01*
X3243595Y31014196D01*
X3219178Y30933707D01*
X3210934Y30850000D01*
X3210934Y29050000D01*
X3219178Y28966293D01*
X3243595Y28885804D01*
X3283245Y28811624D01*
X3336605Y28746605D01*
X3401624Y28693245D01*
X3475804Y28653595D01*
X3556293Y28629178D01*
X3640000Y28620934D01*
X5440000Y28620934D01*
X5523707Y28629178D01*
X5604196Y28653595D01*
X5678376Y28693245D01*
X5743395Y28746605D01*
X5796755Y28811624D01*
X5836405Y28885804D01*
X5860822Y28966293D01*
X5869066Y29050000D01*
X5869066Y29223000D01*
X6004292Y29223000D01*
X6040000Y29219483D01*
X6042417Y29219721D01*
X6013000Y29071834D01*
X6013000Y28828166D01*
X6060538Y28589181D01*
X6153785Y28364061D01*
X6289160Y28161459D01*
X6298599Y28152020D01*
X6185725Y28152020D01*
X6150019Y28155537D01*
X6114314Y28152020D01*
X6028550Y28152020D01*
X5952269Y28214623D01*
X5834868Y28277375D01*
X5707480Y28316018D01*
X5575001Y28329066D01*
X4924999Y28329066D01*
X4792520Y28316018D01*
X4665132Y28277375D01*
X4547731Y28214623D01*
X4444828Y28130172D01*
X4360377Y28027269D01*
X4297625Y27909868D01*
X4258982Y27782480D01*
X4245934Y27650001D01*
X4245934Y26749999D01*
X4258982Y26617520D01*
X4297625Y26490132D01*
X4360377Y26372731D01*
X4444828Y26269828D01*
X4547731Y26185377D01*
X4665132Y26122625D01*
X4792520Y26083982D01*
X4924999Y26070934D01*
X5575001Y26070934D01*
X5707480Y26083982D01*
X5834868Y26122625D01*
X5952269Y26185377D01*
X6055172Y26269828D01*
X6139623Y26372731D01*
X6202375Y26490132D01*
X6214609Y26530463D01*
X6330853Y26592597D01*
X6441554Y26683446D01*
X6453514Y26698020D01*
X8964312Y26698020D01*
X8973586Y26697107D01*
X8763495Y26487015D01*
X8735752Y26464247D01*
X8644903Y26353546D01*
X8619410Y26305852D01*
X8577396Y26227250D01*
X8550350Y26138091D01*
X8201178Y25788918D01*
X8173435Y25766150D01*
X8082586Y25655449D01*
X8042534Y25580517D01*
X8015079Y25529153D01*
X7973509Y25392114D01*
X7959472Y25249597D01*
X7962989Y25213888D01*
X7962989Y24729066D01*
X7249066Y24729066D01*
X6689326Y25288806D01*
X6666554Y25316554D01*
X6555853Y25407403D01*
X6429557Y25474910D01*
X6292517Y25516480D01*
X6193635Y25526219D01*
X6139623Y25627269D01*
X6055172Y25730172D01*
X5952269Y25814623D01*
X5834868Y25877375D01*
X5707480Y25916018D01*
X5575001Y25929066D01*
X4924999Y25929066D01*
X4792520Y25916018D01*
X4665132Y25877375D01*
X4547731Y25814623D01*
X4444828Y25730172D01*
X4360377Y25627269D01*
X4297625Y25509868D01*
X4258982Y25382480D01*
X4245934Y25250001D01*
X4245934Y24349999D01*
X4258982Y24217520D01*
X4297625Y24090132D01*
X4360377Y23972731D01*
X4444828Y23869828D01*
X4547731Y23785377D01*
X4665132Y23722625D01*
X4792520Y23683982D01*
X4924999Y23670934D01*
X5575001Y23670934D01*
X5707480Y23683982D01*
X5834868Y23722625D01*
X5952269Y23785377D01*
X6053452Y23868416D01*
X6220934Y23700934D01*
X6220934Y22600000D01*
X6229178Y22516293D01*
X6253595Y22435804D01*
X6293245Y22361624D01*
X6346605Y22296605D01*
X6411624Y22243245D01*
X6485804Y22203595D01*
X6566293Y22179178D01*
X6650000Y22170934D01*
X7274153Y22170934D01*
X7249664Y22168522D01*
X7008949Y22095502D01*
X6787104Y21976924D01*
X6592656Y21817344D01*
X6444651Y21637000D01*
X5869066Y21637000D01*
X5869066Y22350000D01*
X5860822Y22433707D01*
X5836405Y22514196D01*
X5796755Y22588376D01*
X5743395Y22653395D01*
X5678376Y22706755D01*
X5604196Y22746405D01*
X5523707Y22770822D01*
X5440000Y22779066D01*
X3640000Y22779066D01*
X3556293Y22770822D01*
X3475804Y22746405D01*
X3401624Y22706755D01*
X3336605Y22653395D01*
X3283245Y22588376D01*
X3243595Y22514196D01*
X3219178Y22433707D01*
X3210934Y22350000D01*
X3210934Y20550000D01*
X3219178Y20466293D01*
X3243595Y20385804D01*
X3283245Y20311624D01*
X3336605Y20246605D01*
X3401624Y20193245D01*
X3475804Y20153595D01*
X3556293Y20129178D01*
X3640000Y20120934D01*
X4701193Y20120934D01*
X4701192Y18092485D01*
X4711712Y17985676D01*
X4753282Y17848636D01*
X4820789Y17722340D01*
X4911638Y17611639D01*
X5022339Y17520789D01*
X5148635Y17453282D01*
X5245894Y17423779D01*
X5268696Y17400977D01*
X5285981Y17379915D01*
X5307043Y17362630D01*
X5381611Y17288062D01*
X5381614Y17288060D01*
X5467312Y17202361D01*
X5450001Y17204066D01*
X4556270Y17204066D01*
X4515313Y17216490D01*
X4408504Y17227010D01*
X4372796Y17230527D01*
X4337088Y17227010D01*
X3964292Y17227010D01*
X3857483Y17216490D01*
X3809715Y17202000D01*
X2489292Y17202000D01*
X2382483Y17191480D01*
X2245443Y17149910D01*
X2119147Y17082403D01*
X2008446Y16991554D01*
X1917597Y16880853D01*
X1850090Y16754557D01*
X1820588Y16657300D01*
X452000Y15288711D01*
X452000Y32748000D01*
X30548000Y32748000D01*
X30548001Y452000D01*
X30548001Y452000D01*
G37*
X30548001Y452000D02*
X9130112Y452000D01*
X9163801Y485689D01*
X9191543Y508456D01*
X9282393Y619157D01*
X9349900Y745453D01*
X9391470Y882493D01*
X9401990Y989302D01*
X9401990Y989304D01*
X9405507Y1025009D01*
X9401990Y1060715D01*
X9401990Y1627563D01*
X9424910Y1670443D01*
X9466480Y1807483D01*
X9470162Y1844869D01*
X9472823Y1871885D01*
X10073939Y2473000D01*
X10198868Y2473000D01*
X11710683Y961183D01*
X11733446Y933446D01*
X11844147Y842597D01*
X11934809Y794137D01*
X11970443Y775090D01*
X12107482Y733520D01*
X12250000Y719483D01*
X12285708Y723000D01*
X16689292Y723000D01*
X16725000Y719483D01*
X16867517Y733520D01*
X16906855Y745453D01*
X17004557Y775090D01*
X17130853Y842597D01*
X17241554Y933446D01*
X17264326Y961194D01*
X17925326Y1622193D01*
X18043276Y1586413D01*
X18179462Y1573000D01*
X18179472Y1573000D01*
X18224999Y1568516D01*
X18270526Y1573000D01*
X19167225Y1573000D01*
X19169828Y1569828D01*
X19272731Y1485377D01*
X19390132Y1422625D01*
X19517520Y1383982D01*
X19649999Y1370934D01*
X20075933Y1370934D01*
X20735693Y711173D01*
X20758456Y683436D01*
X20869157Y592587D01*
X20974662Y536193D01*
X20995453Y525080D01*
X21132492Y483510D01*
X21275010Y469473D01*
X21310718Y472990D01*
X22739282Y472990D01*
X22774990Y469473D01*
X22917507Y483510D01*
X22999747Y508457D01*
X23054547Y525080D01*
X23180843Y592587D01*
X23291544Y683436D01*
X23314315Y711183D01*
X23915944Y1312811D01*
X23915948Y1312816D01*
X24024066Y1420934D01*
X24450001Y1420934D01*
X24582480Y1433982D01*
X24709868Y1472625D01*
X24827269Y1535377D01*
X24930172Y1619828D01*
X25014623Y1722731D01*
X25077375Y1840132D01*
X25116018Y1967520D01*
X25129066Y2099999D01*
X25129066Y2750001D01*
X25116018Y2882480D01*
X25077375Y3009868D01*
X25014623Y3127269D01*
X24930172Y3230172D01*
X24827269Y3314623D01*
X24760343Y3350396D01*
X26473000Y3350396D01*
X26473000Y3049604D01*
X26531681Y2754590D01*
X26646790Y2476694D01*
X26813901Y2226594D01*
X27026594Y2013901D01*
X27276694Y1846790D01*
X27554590Y1731681D01*
X27849604Y1673000D01*
X28150396Y1673000D01*
X28445410Y1731681D01*
X28723306Y1846790D01*
X28973406Y2013901D01*
X29186099Y2226594D01*
X29353210Y2476694D01*
X29468319Y2754590D01*
X29527000Y3049604D01*
X29527000Y3350396D01*
X29468319Y3645410D01*
X29353210Y3923306D01*
X29186099Y4173406D01*
X28973406Y4386099D01*
X28723306Y4553210D01*
X28445410Y4668319D01*
X28150396Y4727000D01*
X27849604Y4727000D01*
X27554590Y4668319D01*
X27276694Y4553210D01*
X27026594Y4386099D01*
X26813901Y4173406D01*
X26646790Y3923306D01*
X26531681Y3645410D01*
X26473000Y3350396D01*
X24760343Y3350396D01*
X24709868Y3377375D01*
X24582480Y3416018D01*
X24450001Y3429066D01*
X23549999Y3429066D01*
X23417520Y3416018D01*
X23290132Y3377375D01*
X23172731Y3314623D01*
X23069828Y3230172D01*
X22997829Y3142441D01*
X22977375Y3209868D01*
X22914623Y3327269D01*
X22830172Y3430172D01*
X22775549Y3475000D01*
X22830172Y3519828D01*
X22914623Y3622731D01*
X22977375Y3740132D01*
X23016018Y3867520D01*
X23029066Y3999999D01*
X23029066Y4850933D01*
X23151123Y4972990D01*
X24644282Y4972990D01*
X24679990Y4969473D01*
X24822507Y4983510D01*
X24855265Y4993447D01*
X24959547Y5025080D01*
X25085843Y5092587D01*
X25196544Y5183436D01*
X25219316Y5211184D01*
X25538811Y5530679D01*
X25566553Y5553446D01*
X25657403Y5664147D01*
X25724910Y5790443D01*
X25761619Y5911459D01*
X25766480Y5927482D01*
X25780517Y6069999D01*
X25777000Y6105707D01*
X25777000Y6524248D01*
X25791789Y6573000D01*
X26126888Y6573000D01*
X26172731Y6535377D01*
X26290132Y6472625D01*
X26417520Y6433982D01*
X26549999Y6420934D01*
X27450001Y6420934D01*
X27582480Y6433982D01*
X27709868Y6472625D01*
X27827269Y6535377D01*
X27930172Y6619828D01*
X28014623Y6722731D01*
X28077375Y6840132D01*
X28116018Y6967520D01*
X28129066Y7099999D01*
X28129066Y7750001D01*
X28116018Y7882480D01*
X28077375Y8009868D01*
X28014623Y8127269D01*
X27930172Y8230172D01*
X27827269Y8314623D01*
X27709868Y8377375D01*
X27582480Y8416018D01*
X27450001Y8429066D01*
X26549999Y8429066D01*
X26417520Y8416018D01*
X26290132Y8377375D01*
X26172731Y8314623D01*
X26069828Y8230172D01*
X25985377Y8127269D01*
X25931782Y8027000D01*
X25804066Y8027000D01*
X25804066Y8230000D01*
X25795822Y8313707D01*
X25771405Y8394196D01*
X25731755Y8468376D01*
X25678395Y8533395D01*
X25613376Y8586755D01*
X25539196Y8626405D01*
X25458707Y8650822D01*
X25375000Y8659066D01*
X24725000Y8659066D01*
X24641293Y8650822D01*
X24560804Y8626405D01*
X24486624Y8586755D01*
X24421605Y8533395D01*
X24368245Y8468376D01*
X24328595Y8394196D01*
X24304178Y8313707D01*
X24295934Y8230000D01*
X24295934Y6670000D01*
X24304178Y6586293D01*
X24323000Y6524246D01*
X24323000Y6426990D01*
X23827952Y6426990D01*
X23831755Y6431624D01*
X23871405Y6505804D01*
X23895822Y6586293D01*
X23904066Y6670000D01*
X23904066Y8230000D01*
X23895822Y8313707D01*
X23871405Y8394196D01*
X23831755Y8468376D01*
X23778395Y8533395D01*
X23713376Y8586755D01*
X23639196Y8626405D01*
X23558707Y8650822D01*
X23475000Y8659066D01*
X22825000Y8659066D01*
X22741293Y8650822D01*
X22660804Y8626405D01*
X22586624Y8586755D01*
X22521605Y8533395D01*
X22468245Y8468376D01*
X22428595Y8394196D01*
X22404178Y8313707D01*
X22395934Y8230000D01*
X22395934Y7724067D01*
X22260105Y7588237D01*
X22205172Y7655172D01*
X22102269Y7739623D01*
X21984867Y7802375D01*
X21857479Y7841018D01*
X21725000Y7854066D01*
X20475000Y7854066D01*
X20342521Y7841018D01*
X20215133Y7802375D01*
X20097731Y7739623D01*
X19994828Y7655172D01*
X19910377Y7552269D01*
X19847625Y7434867D01*
X19808982Y7307479D01*
X19798593Y7202000D01*
X19410707Y7202000D01*
X19374999Y7205517D01*
X19232483Y7191480D01*
X19095443Y7149910D01*
X19086770Y7145274D01*
X19002269Y7214623D01*
X18884867Y7277375D01*
X18757479Y7316018D01*
X18625000Y7329066D01*
X17932567Y7329066D01*
X17982480Y7333982D01*
X18109868Y7372625D01*
X18227269Y7435377D01*
X18330172Y7519828D01*
X18414623Y7622731D01*
X18477375Y7740132D01*
X18516018Y7867520D01*
X18529066Y7999999D01*
X18529066Y8900001D01*
X18516018Y9032480D01*
X18477375Y9159868D01*
X18414623Y9277269D01*
X18330172Y9380172D01*
X18227269Y9464623D01*
X18109868Y9527375D01*
X17982480Y9566018D01*
X17850001Y9579066D01*
X17846520Y9579066D01*
X18563812Y10296357D01*
X18591554Y10319124D01*
X18682403Y10429825D01*
X18749910Y10556121D01*
X18791480Y10693161D01*
X18802000Y10799970D01*
X18802000Y10799972D01*
X18802611Y10806175D01*
X18880172Y10869828D01*
X18964623Y10972731D01*
X19027375Y11090132D01*
X19066018Y11217520D01*
X19079066Y11349999D01*
X19079066Y12250001D01*
X19066018Y12382480D01*
X19027375Y12509868D01*
X18964623Y12627269D01*
X18880172Y12730172D01*
X18777269Y12814623D01*
X18674121Y12869756D01*
X17787710Y13756166D01*
X17787710Y14043583D01*
X17791227Y14079291D01*
X17777190Y14221808D01*
X17735620Y14358847D01*
X17668113Y14485143D01*
X17577263Y14595844D01*
X17549521Y14618611D01*
X17419066Y14749066D01*
X17419066Y15275000D01*
X17407939Y15387970D01*
X17374987Y15496599D01*
X17321476Y15596712D01*
X17249461Y15684461D01*
X17161712Y15756476D01*
X17061599Y15809987D01*
X16952970Y15842939D01*
X16840000Y15854066D01*
X16540000Y15854066D01*
X16427030Y15842939D01*
X16318401Y15809987D01*
X16218288Y15756476D01*
X16130539Y15684461D01*
X16058524Y15596712D01*
X16055000Y15590119D01*
X16051476Y15596712D01*
X15979461Y15684461D01*
X15891712Y15756476D01*
X15791599Y15809987D01*
X15682970Y15842939D01*
X15570000Y15854066D01*
X15270000Y15854066D01*
X15157030Y15842939D01*
X15048401Y15809987D01*
X14948288Y15756476D01*
X14860539Y15684461D01*
X14788524Y15596712D01*
X14785000Y15590119D01*
X14781476Y15596712D01*
X14709461Y15684461D01*
X14621712Y15756476D01*
X14521599Y15809987D01*
X14412970Y15842939D01*
X14300000Y15854066D01*
X14000000Y15854066D01*
X13887030Y15842939D01*
X13778401Y15809987D01*
X13678288Y15756476D01*
X13590539Y15684461D01*
X13518524Y15596712D01*
X13515000Y15590119D01*
X13511476Y15596712D01*
X13439461Y15684461D01*
X13351712Y15756476D01*
X13251599Y15809987D01*
X13142970Y15842939D01*
X13030000Y15854066D01*
X12730000Y15854066D01*
X12617030Y15842939D01*
X12508401Y15809987D01*
X12408288Y15756476D01*
X12320539Y15684461D01*
X12248524Y15596712D01*
X12195013Y15496599D01*
X12162061Y15387970D01*
X12150934Y15275000D01*
X12150934Y14749067D01*
X11734794Y14332926D01*
X11689462Y14560819D01*
X11596215Y14785939D01*
X11460840Y14988541D01*
X11288541Y15160840D01*
X11085939Y15296215D01*
X10860819Y15389462D01*
X10621834Y15437000D01*
X10378166Y15437000D01*
X10139181Y15389462D01*
X9914061Y15296215D01*
X9711459Y15160840D01*
X9539160Y14988541D01*
X9498039Y14927000D01*
X6535708Y14927000D01*
X6500000Y14930517D01*
X6464292Y14927000D01*
X6357483Y14916480D01*
X6227333Y14877000D01*
X5994327Y14877000D01*
X5930172Y14955172D01*
X5827269Y15039623D01*
X5709868Y15102375D01*
X5582480Y15141018D01*
X5450001Y15154066D01*
X4549999Y15154066D01*
X4417520Y15141018D01*
X4290132Y15102375D01*
X4172731Y15039623D01*
X4069828Y14955172D01*
X3985377Y14852269D01*
X3922625Y14734868D01*
X3883982Y14607480D01*
X3870934Y14475001D01*
X3870934Y13824999D01*
X3883982Y13692520D01*
X3922625Y13565132D01*
X3985377Y13447731D01*
X4069828Y13344828D01*
X4149959Y13279066D01*
X3600000Y13279066D01*
X3516293Y13270822D01*
X3435804Y13246405D01*
X3361624Y13206755D01*
X3296605Y13153395D01*
X3243245Y13088376D01*
X3203595Y13014196D01*
X3179178Y12933707D01*
X3170934Y12850000D01*
X3170934Y11050000D01*
X3179178Y10966293D01*
X3203595Y10885804D01*
X3243245Y10811624D01*
X3296605Y10746605D01*
X3361624Y10693245D01*
X3435804Y10653595D01*
X3516293Y10629178D01*
X3600000Y10620934D01*
X5323000Y10620934D01*
X5322999Y8905707D01*
X5319482Y8869999D01*
X5333519Y8727482D01*
X5364180Y8626405D01*
X5375089Y8590443D01*
X5442596Y8464147D01*
X5533445Y8353446D01*
X5561189Y8330677D01*
X5630673Y8261193D01*
X5653445Y8233445D01*
X5764146Y8142596D01*
X5890442Y8075089D01*
X5992449Y8044146D01*
X6027482Y8033519D01*
X6169999Y8019482D01*
X6205707Y8022999D01*
X8794293Y8022999D01*
X8830001Y8019482D01*
X8972518Y8033519D01*
X9007551Y8044146D01*
X9109558Y8075089D01*
X9235854Y8142596D01*
X9346555Y8233445D01*
X9369327Y8261193D01*
X9531323Y8423189D01*
X9539160Y8411459D01*
X9711459Y8239160D01*
X9914061Y8103785D01*
X10139181Y8010538D01*
X10378166Y7963000D01*
X10621834Y7963000D01*
X10860819Y8010538D01*
X11085939Y8103785D01*
X11172132Y8161378D01*
X11167598Y8155853D01*
X11100090Y8029556D01*
X11081876Y7969511D01*
X11072731Y7964623D01*
X10969828Y7880172D01*
X10885377Y7777269D01*
X10822625Y7659868D01*
X10783982Y7532480D01*
X10770934Y7400001D01*
X10770934Y6499999D01*
X10783982Y6367520D01*
X10786253Y6360033D01*
X10670433Y6324900D01*
X10544137Y6257393D01*
X10433436Y6166544D01*
X10410669Y6138802D01*
X7194428Y2922560D01*
X7121834Y2937000D01*
X6878166Y2937000D01*
X6639181Y2889462D01*
X6633237Y2887000D01*
X6341134Y2887000D01*
X5829066Y3399067D01*
X5829066Y4600000D01*
X5820822Y4683707D01*
X5796405Y4764196D01*
X5756755Y4838376D01*
X5703395Y4903395D01*
X5638376Y4956755D01*
X5564196Y4996405D01*
X5483707Y5020822D01*
X5400000Y5029066D01*
X3600000Y5029066D01*
X3516293Y5020822D01*
X3435804Y4996405D01*
X3361624Y4956755D01*
X3296605Y4903395D01*
X3243245Y4838376D01*
X3203595Y4764196D01*
X3179178Y4683707D01*
X3170934Y4600000D01*
X3170934Y2870999D01*
X1603711Y2870999D01*
X1398411Y3076298D01*
X1368909Y3173556D01*
X1301402Y3299852D01*
X1210553Y3410553D01*
X1152010Y3458597D01*
X1152010Y4665279D01*
X1207309Y4720578D01*
X1304566Y4750080D01*
X1430862Y4817587D01*
X1541563Y4908436D01*
X1632413Y5019137D01*
X1699920Y5145433D01*
X1711396Y5183263D01*
X2349067Y5820934D01*
X2775001Y5820934D01*
X2907480Y5833982D01*
X3034868Y5872625D01*
X3152269Y5935377D01*
X3255172Y6019828D01*
X3339623Y6122731D01*
X3402375Y6240132D01*
X3441018Y6367520D01*
X3454066Y6499999D01*
X3454066Y7400001D01*
X3495934Y7400001D01*
X3495934Y6499999D01*
X3508982Y6367520D01*
X3547625Y6240132D01*
X3610377Y6122731D01*
X3694828Y6019828D01*
X3797731Y5935377D01*
X3915132Y5872625D01*
X4042520Y5833982D01*
X4174999Y5820934D01*
X4825001Y5820934D01*
X4957480Y5833982D01*
X5084868Y5872625D01*
X5202269Y5935377D01*
X5305172Y6019828D01*
X5389623Y6122731D01*
X5443218Y6223000D01*
X5858661Y6223000D01*
X5903785Y6114061D01*
X6039160Y5911459D01*
X6211459Y5739160D01*
X6414061Y5603785D01*
X6639181Y5510538D01*
X6878166Y5463000D01*
X7121834Y5463000D01*
X7360819Y5510538D01*
X7585939Y5603785D01*
X7788541Y5739160D01*
X7960840Y5911459D01*
X8096215Y6114061D01*
X8189462Y6339181D01*
X8237000Y6578166D01*
X8237000Y6821834D01*
X8189462Y7060819D01*
X8096215Y7285939D01*
X7960840Y7488541D01*
X7788541Y7660840D01*
X7585939Y7796215D01*
X7360819Y7889462D01*
X7121834Y7937000D01*
X6878166Y7937000D01*
X6639181Y7889462D01*
X6414061Y7796215D01*
X6235644Y7677000D01*
X5443218Y7677000D01*
X5389623Y7777269D01*
X5305172Y7880172D01*
X5202269Y7964623D01*
X5084868Y8027375D01*
X4957480Y8066018D01*
X4825001Y8079066D01*
X4174999Y8079066D01*
X4042520Y8066018D01*
X3915132Y8027375D01*
X3797731Y7964623D01*
X3694828Y7880172D01*
X3610377Y7777269D01*
X3547625Y7659868D01*
X3508982Y7532480D01*
X3495934Y7400001D01*
X3454066Y7400001D01*
X3441018Y7532480D01*
X3402375Y7659868D01*
X3339623Y7777269D01*
X3255172Y7880172D01*
X3193570Y7930728D01*
X3202269Y7935377D01*
X3305172Y8019828D01*
X3389623Y8122731D01*
X3452375Y8240132D01*
X3491018Y8367520D01*
X3504066Y8499999D01*
X3504066Y9400001D01*
X3491018Y9532480D01*
X3452375Y9659868D01*
X3389623Y9777269D01*
X3305172Y9880172D01*
X3202269Y9964623D01*
X3084868Y10027375D01*
X2957480Y10066018D01*
X2825001Y10079066D01*
X2402094Y10079066D01*
X2393182Y10089926D01*
X2282481Y10180775D01*
X2156185Y10248282D01*
X2019145Y10289852D01*
X1984930Y10293222D01*
X1763827Y10514325D01*
X1680863Y10582412D01*
X1554566Y10649920D01*
X1457309Y10679422D01*
X1152010Y10984721D01*
X1152010Y12338636D01*
X1158852Y12346973D01*
X1217074Y12455898D01*
X1252926Y12574088D01*
X1261999Y12666207D01*
X1265032Y12697001D01*
X1261999Y12727795D01*
X1261999Y14325288D01*
X2684712Y15748000D01*
X3883442Y15748000D01*
X3883982Y15742520D01*
X3922625Y15615132D01*
X3985377Y15497731D01*
X4069828Y15394828D01*
X4172731Y15310377D01*
X4290132Y15247625D01*
X4417520Y15208982D01*
X4549999Y15195934D01*
X5450001Y15195934D01*
X5582480Y15208982D01*
X5709868Y15247625D01*
X5827269Y15310377D01*
X5930172Y15394828D01*
X5973809Y15448000D01*
X6005673Y15448000D01*
X6069828Y15369828D01*
X6172731Y15285377D01*
X6290132Y15222625D01*
X6417520Y15183982D01*
X6549999Y15170934D01*
X7450001Y15170934D01*
X7582480Y15183982D01*
X7709868Y15222625D01*
X7827269Y15285377D01*
X7930172Y15369828D01*
X7994327Y15448000D01*
X8026191Y15448000D01*
X8069828Y15394828D01*
X8172731Y15310377D01*
X8290132Y15247625D01*
X8417520Y15208982D01*
X8549999Y15195934D01*
X9450001Y15195934D01*
X9582480Y15208982D01*
X9709868Y15247625D01*
X9827269Y15310377D01*
X9930172Y15394828D01*
X9997981Y15477453D01*
X10059579Y15483520D01*
X10106427Y15497731D01*
X10196619Y15525090D01*
X10322915Y15592597D01*
X10433616Y15683446D01*
X10456387Y15711193D01*
X10968195Y16223000D01*
X14228296Y16223000D01*
X14251428Y16220722D01*
X14264206Y16219463D01*
X14264207Y16219463D01*
X14406724Y16233500D01*
X14543763Y16275070D01*
X14670060Y16342578D01*
X14753024Y16410665D01*
X14780760Y16433427D01*
X14803522Y16461163D01*
X15231811Y16889451D01*
X17047841Y16889451D01*
X17083549Y16885934D01*
X17226066Y16899971D01*
X17233642Y16902269D01*
X17363106Y16941541D01*
X17489402Y17009048D01*
X17600103Y17099897D01*
X17622875Y17127644D01*
X18549532Y18054301D01*
X18577274Y18077068D01*
X18660209Y18178126D01*
X18670539Y18165539D01*
X18758288Y18093524D01*
X18858401Y18040013D01*
X18967030Y18007061D01*
X19080000Y17995934D01*
X19380000Y17995934D01*
X19492970Y18007061D01*
X19601599Y18040013D01*
X19701712Y18093524D01*
X19789461Y18165539D01*
X19861476Y18253288D01*
X19865000Y18259881D01*
X19868524Y18253288D01*
X19940539Y18165539D01*
X20028288Y18093524D01*
X20128401Y18040013D01*
X20237030Y18007061D01*
X20350000Y17995934D01*
X20650000Y17995934D01*
X20762970Y18007061D01*
X20871599Y18040013D01*
X20971712Y18093524D01*
X21059461Y18165539D01*
X21131476Y18253288D01*
X21184987Y18353401D01*
X21217939Y18462030D01*
X21229066Y18575000D01*
X21229066Y19089369D01*
X21250267Y19095800D01*
X21376563Y19163307D01*
X21487264Y19254156D01*
X21510035Y19281903D01*
X21781133Y19553000D01*
X21944651Y19553000D01*
X22092656Y19372656D01*
X22287104Y19213076D01*
X22508949Y19094498D01*
X22749664Y19021478D01*
X22866202Y19010000D01*
X22749664Y18998522D01*
X22508949Y18925502D01*
X22287104Y18806924D01*
X22092656Y18647344D01*
X21933076Y18452896D01*
X21814498Y18231051D01*
X21741478Y17990336D01*
X21716822Y17740000D01*
X21739690Y17507823D01*
X20011189Y15779321D01*
X19983447Y15756554D01*
X19908418Y15665130D01*
X19892598Y15645853D01*
X19863904Y15592170D01*
X19861476Y15596712D01*
X19789461Y15684461D01*
X19701712Y15756476D01*
X19601599Y15809987D01*
X19492970Y15842939D01*
X19380000Y15854066D01*
X19080000Y15854066D01*
X18967030Y15842939D01*
X18858401Y15809987D01*
X18758288Y15756476D01*
X18670539Y15684461D01*
X18598524Y15596712D01*
X18545013Y15496599D01*
X18512061Y15387970D01*
X18500934Y15275000D01*
X18500934Y13625000D01*
X18512061Y13512030D01*
X18545013Y13403401D01*
X18598524Y13303288D01*
X18670539Y13215539D01*
X18758288Y13143524D01*
X18858401Y13090013D01*
X18967030Y13057061D01*
X19080000Y13045934D01*
X19125336Y13045934D01*
X19155209Y13009533D01*
X19179137Y12989896D01*
X19615620Y12553412D01*
X19635253Y12529489D01*
X19730726Y12451137D01*
X19839651Y12392915D01*
X19957841Y12357063D01*
X20080754Y12344957D01*
X20111548Y12347990D01*
X20888452Y12347990D01*
X20919246Y12344957D01*
X20950040Y12347990D01*
X21042159Y12357063D01*
X21160349Y12392915D01*
X21269274Y12451137D01*
X21364747Y12529489D01*
X21384384Y12553417D01*
X21721583Y12890616D01*
X21745511Y12910253D01*
X21802394Y12979566D01*
X21823863Y13005726D01*
X21882085Y13114650D01*
X21917234Y13230523D01*
X22656462Y13969750D01*
X22749664Y13941478D01*
X22937274Y13923000D01*
X23062726Y13923000D01*
X23250336Y13941478D01*
X23491051Y14014498D01*
X23712896Y14133076D01*
X23907344Y14292656D01*
X24066924Y14487104D01*
X24185502Y14708949D01*
X24258522Y14949664D01*
X24270000Y15066202D01*
X24281478Y14949664D01*
X24354498Y14708949D01*
X24473076Y14487104D01*
X24632656Y14292656D01*
X24638395Y14287946D01*
X24595453Y14274920D01*
X24469157Y14207413D01*
X24358456Y14116564D01*
X24335693Y14088827D01*
X24161182Y13914315D01*
X23709556Y13462688D01*
X23709554Y13462687D01*
X23675933Y13429066D01*
X23249999Y13429066D01*
X23117520Y13416018D01*
X22990132Y13377375D01*
X22872731Y13314623D01*
X22769828Y13230172D01*
X22685377Y13127269D01*
X22622625Y13009868D01*
X22583982Y12882480D01*
X22570934Y12750001D01*
X22570934Y12309918D01*
X22567598Y12305853D01*
X22500090Y12179556D01*
X22458520Y12042517D01*
X22444483Y11900000D01*
X22458520Y11757483D01*
X22500090Y11620444D01*
X22567598Y11494147D01*
X22658447Y11383447D01*
X22709831Y11341278D01*
X22660804Y11326405D01*
X22586624Y11286755D01*
X22521605Y11233395D01*
X22468245Y11168376D01*
X22428595Y11094196D01*
X22404178Y11013707D01*
X22395934Y10930000D01*
X22395934Y10877000D01*
X21598208Y10877000D01*
X21562500Y10880517D01*
X21419982Y10866480D01*
X21296644Y10829066D01*
X20475000Y10829066D01*
X20342521Y10816018D01*
X20215133Y10777375D01*
X20097731Y10714623D01*
X19994828Y10630172D01*
X19910377Y10527269D01*
X19847625Y10409867D01*
X19808982Y10282479D01*
X19795934Y10150000D01*
X19795934Y9225000D01*
X19808982Y9092521D01*
X19847625Y8965133D01*
X19910377Y8847731D01*
X19994828Y8744828D01*
X20097731Y8660377D01*
X20215133Y8597625D01*
X20342521Y8558982D01*
X20475000Y8545934D01*
X21725000Y8545934D01*
X21857479Y8558982D01*
X21984867Y8597625D01*
X22102269Y8660377D01*
X22205172Y8744828D01*
X22289623Y8847731D01*
X22352375Y8965133D01*
X22391018Y9092521D01*
X22404066Y9225000D01*
X22404066Y9287430D01*
X22404178Y9286293D01*
X22428595Y9205804D01*
X22468245Y9131624D01*
X22521605Y9066605D01*
X22586624Y9013245D01*
X22660804Y8973595D01*
X22741293Y8949178D01*
X22825000Y8940934D01*
X23475000Y8940934D01*
X23558707Y8949178D01*
X23639196Y8973595D01*
X23713376Y9013245D01*
X23778395Y9066605D01*
X23831755Y9131624D01*
X23871405Y9205804D01*
X23895822Y9286293D01*
X23904066Y9370000D01*
X23904066Y9423000D01*
X24295934Y9423000D01*
X24295934Y9370000D01*
X24304178Y9286293D01*
X24328595Y9205804D01*
X24368245Y9131624D01*
X24421605Y9066605D01*
X24486624Y9013245D01*
X24560804Y8973595D01*
X24641293Y8949178D01*
X24725000Y8940934D01*
X25375000Y8940934D01*
X25458707Y8949178D01*
X25539196Y8973595D01*
X25613376Y9013245D01*
X25678395Y9066605D01*
X25731755Y9131624D01*
X25771405Y9205804D01*
X25795822Y9286293D01*
X25804066Y9370000D01*
X25804066Y10930000D01*
X25795822Y11013707D01*
X25771405Y11094196D01*
X25731755Y11168376D01*
X25678395Y11233395D01*
X25613376Y11286755D01*
X25539196Y11326405D01*
X25458707Y11350822D01*
X25375000Y11359066D01*
X24725000Y11359066D01*
X24641293Y11350822D01*
X24560804Y11326405D01*
X24486624Y11286755D01*
X24421605Y11233395D01*
X24368245Y11168376D01*
X24328595Y11094196D01*
X24304178Y11013707D01*
X24302000Y10991592D01*
X24302000Y11305673D01*
X24380172Y11369828D01*
X24464623Y11472731D01*
X24527375Y11590132D01*
X24566018Y11717520D01*
X24579066Y11849999D01*
X24579066Y12275933D01*
X24737687Y12434554D01*
X24737688Y12434556D01*
X25176143Y12873010D01*
X26050304Y12873010D01*
X26086012Y12869493D01*
X26228529Y12883530D01*
X26248084Y12889462D01*
X26365569Y12925100D01*
X26491865Y12992607D01*
X26602566Y13083456D01*
X26625337Y13111203D01*
X27300760Y13786624D01*
X27406555Y13873447D01*
X27497404Y13984148D01*
X27564911Y14110444D01*
X27606481Y14247484D01*
X27617001Y14354293D01*
X27620518Y14390001D01*
X27617001Y14425709D01*
X27617001Y23474292D01*
X27620518Y23510000D01*
X27606481Y23652517D01*
X27564911Y23789556D01*
X27540344Y23835517D01*
X27497404Y23915852D01*
X27406554Y24026553D01*
X27378812Y24049320D01*
X27277000Y24151132D01*
X27277000Y24814295D01*
X27280517Y24850001D01*
X27274360Y24912509D01*
X27266480Y24992517D01*
X27224910Y25129557D01*
X27157403Y25255853D01*
X27066553Y25366554D01*
X27038816Y25389317D01*
X25957001Y26471131D01*
X25957001Y30094293D01*
X25960518Y30130001D01*
X25946481Y30272518D01*
X25938587Y30298542D01*
X25904911Y30409558D01*
X25837404Y30535854D01*
X25746554Y30646555D01*
X25718812Y30669322D01*
X25649327Y30738807D01*
X25626555Y30766555D01*
X25524394Y30850396D01*
X26473000Y30850396D01*
X26473000Y30549604D01*
X26531681Y30254590D01*
X26646790Y29976694D01*
X26813901Y29726594D01*
X27026594Y29513901D01*
X27276694Y29346790D01*
X27554590Y29231681D01*
X27849604Y29173000D01*
X28150396Y29173000D01*
X28445410Y29231681D01*
X28723306Y29346790D01*
X28973406Y29513901D01*
X29186099Y29726594D01*
X29353210Y29976694D01*
X29468319Y30254590D01*
X29527000Y30549604D01*
X29527000Y30850396D01*
X29468319Y31145410D01*
X29353210Y31423306D01*
X29186099Y31673406D01*
X28973406Y31886099D01*
X28723306Y32053210D01*
X28445410Y32168319D01*
X28150396Y32227000D01*
X27849604Y32227000D01*
X27554590Y32168319D01*
X27276694Y32053210D01*
X27026594Y31886099D01*
X26813901Y31673406D01*
X26646790Y31423306D01*
X26531681Y31145410D01*
X26473000Y30850396D01*
X25524394Y30850396D01*
X25515854Y30857404D01*
X25389558Y30924911D01*
X25252518Y30966481D01*
X25145709Y30977001D01*
X25110001Y30980518D01*
X25074293Y30977001D01*
X22485707Y30977001D01*
X22449999Y30980518D01*
X22307481Y30966481D01*
X22178215Y30927269D01*
X22170442Y30924911D01*
X22044146Y30857404D01*
X21933445Y30766555D01*
X21910677Y30738812D01*
X21601187Y30429322D01*
X21573446Y30406555D01*
X21482596Y30295854D01*
X21415089Y30169558D01*
X21396259Y30107483D01*
X21384567Y30068939D01*
X21302726Y30077000D01*
X21177274Y30077000D01*
X20989664Y30058522D01*
X20748949Y29985502D01*
X20527104Y29866924D01*
X20332656Y29707344D01*
X20173076Y29512896D01*
X20054498Y29291051D01*
X19981478Y29050336D01*
X19956822Y28800000D01*
X19979690Y28567822D01*
X19811189Y28399321D01*
X19783447Y28376554D01*
X19705700Y28281818D01*
X19692598Y28265853D01*
X19625090Y28139556D01*
X19583520Y28002517D01*
X19569483Y27860000D01*
X19573001Y27824282D01*
X19573001Y27168218D01*
X19472731Y27114623D01*
X19369828Y27030172D01*
X19285377Y26927269D01*
X19222625Y26809868D01*
X19183982Y26682480D01*
X19170934Y26550001D01*
X19170934Y25899999D01*
X19183982Y25767520D01*
X19222625Y25640132D01*
X19285377Y25522731D01*
X19369828Y25419828D01*
X19472731Y25335377D01*
X19590132Y25272625D01*
X19717520Y25233982D01*
X19849999Y25220934D01*
X20692802Y25220934D01*
X20650934Y25179066D01*
X19849999Y25179066D01*
X19717520Y25166018D01*
X19590132Y25127375D01*
X19472731Y25064623D01*
X19369828Y24980172D01*
X19285377Y24877269D01*
X19222625Y24759868D01*
X19183982Y24632480D01*
X19170934Y24500001D01*
X19170934Y23849999D01*
X19183982Y23717520D01*
X19222625Y23590132D01*
X19285377Y23472731D01*
X19369828Y23369828D01*
X19472731Y23285377D01*
X19590132Y23222625D01*
X19717520Y23183982D01*
X19849999Y23170934D01*
X20750001Y23170934D01*
X20882480Y23183982D01*
X20887316Y23185449D01*
X19111899Y21410031D01*
X19084157Y21387264D01*
X19007739Y21294147D01*
X18993308Y21276563D01*
X18925800Y21150266D01*
X18884230Y21013227D01*
X18870193Y20870710D01*
X18873711Y20834993D01*
X18873711Y20764631D01*
X18858401Y20759987D01*
X18758288Y20706476D01*
X18670539Y20634461D01*
X18598524Y20546712D01*
X18595000Y20540119D01*
X18591476Y20546712D01*
X18519461Y20634461D01*
X18431712Y20706476D01*
X18331599Y20759987D01*
X18222970Y20792939D01*
X18132264Y20801873D01*
X18140518Y20885677D01*
X18137001Y20921385D01*
X18137001Y20987492D01*
X18140518Y21023198D01*
X18137001Y21058906D01*
X18137001Y22341096D01*
X18140518Y22376802D01*
X18136840Y22414146D01*
X18126481Y22519318D01*
X18084911Y22656358D01*
X18017404Y22782654D01*
X18006275Y22796215D01*
X17926555Y22893355D01*
X17898807Y22916127D01*
X17887093Y22927841D01*
X17887093Y29746281D01*
X17890610Y29781989D01*
X17876573Y29924506D01*
X17851623Y30006755D01*
X17835003Y30061545D01*
X17767496Y30187841D01*
X17676646Y30298542D01*
X17648909Y30321305D01*
X16991406Y30978807D01*
X16968635Y31006554D01*
X16857934Y31097403D01*
X16731638Y31164910D01*
X16594598Y31206480D01*
X16487789Y31217000D01*
X16452081Y31220517D01*
X16416373Y31217000D01*
X16305349Y31217000D01*
X16157344Y31397344D01*
X15962896Y31556924D01*
X15741051Y31675502D01*
X15500336Y31748522D01*
X15312726Y31767000D01*
X15187274Y31767000D01*
X14999664Y31748522D01*
X14758949Y31675502D01*
X14537104Y31556924D01*
X14342656Y31397344D01*
X14194651Y31217000D01*
X13511133Y31217000D01*
X13472560Y31255573D01*
X13487000Y31328166D01*
X13487000Y31571834D01*
X13439462Y31810819D01*
X13346215Y32035939D01*
X13210840Y32238541D01*
X13038541Y32410840D01*
X12835939Y32546215D01*
X12610819Y32639462D01*
X12371834Y32687000D01*
X12128166Y32687000D01*
X11889181Y32639462D01*
X11664061Y32546215D01*
X11461459Y32410840D01*
X11289160Y32238541D01*
X11248039Y32177000D01*
X8535708Y32177000D01*
X8500000Y32180517D01*
X8357482Y32166480D01*
X8220443Y32124910D01*
X8094147Y32057403D01*
X7983446Y31966554D01*
X7960683Y31938817D01*
X7553867Y31532000D01*
X6930708Y31532000D01*
X6895000Y31535517D01*
X6752482Y31521480D01*
X6615443Y31479910D01*
X6489147Y31412403D01*
X6378446Y31321554D01*
X6355679Y31293812D01*
X5869066Y30807198D01*
X5869066Y30850000D01*
X5860822Y30933707D01*
X5836405Y31014196D01*
X5796755Y31088376D01*
X5743395Y31153395D01*
X5678376Y31206755D01*
X5604196Y31246405D01*
X5523707Y31270822D01*
X5440000Y31279066D01*
X3640000Y31279066D01*
X3556293Y31270822D01*
X3475804Y31246405D01*
X3401624Y31206755D01*
X3336605Y31153395D01*
X3283245Y31088376D01*
X3243595Y31014196D01*
X3219178Y30933707D01*
X3210934Y30850000D01*
X3210934Y29050000D01*
X3219178Y28966293D01*
X3243595Y28885804D01*
X3283245Y28811624D01*
X3336605Y28746605D01*
X3401624Y28693245D01*
X3475804Y28653595D01*
X3556293Y28629178D01*
X3640000Y28620934D01*
X5440000Y28620934D01*
X5523707Y28629178D01*
X5604196Y28653595D01*
X5678376Y28693245D01*
X5743395Y28746605D01*
X5796755Y28811624D01*
X5836405Y28885804D01*
X5860822Y28966293D01*
X5869066Y29050000D01*
X5869066Y29223000D01*
X6004292Y29223000D01*
X6040000Y29219483D01*
X6042417Y29219721D01*
X6013000Y29071834D01*
X6013000Y28828166D01*
X6060538Y28589181D01*
X6153785Y28364061D01*
X6289160Y28161459D01*
X6298599Y28152020D01*
X6185725Y28152020D01*
X6150019Y28155537D01*
X6114314Y28152020D01*
X6028550Y28152020D01*
X5952269Y28214623D01*
X5834868Y28277375D01*
X5707480Y28316018D01*
X5575001Y28329066D01*
X4924999Y28329066D01*
X4792520Y28316018D01*
X4665132Y28277375D01*
X4547731Y28214623D01*
X4444828Y28130172D01*
X4360377Y28027269D01*
X4297625Y27909868D01*
X4258982Y27782480D01*
X4245934Y27650001D01*
X4245934Y26749999D01*
X4258982Y26617520D01*
X4297625Y26490132D01*
X4360377Y26372731D01*
X4444828Y26269828D01*
X4547731Y26185377D01*
X4665132Y26122625D01*
X4792520Y26083982D01*
X4924999Y26070934D01*
X5575001Y26070934D01*
X5707480Y26083982D01*
X5834868Y26122625D01*
X5952269Y26185377D01*
X6055172Y26269828D01*
X6139623Y26372731D01*
X6202375Y26490132D01*
X6214609Y26530463D01*
X6330853Y26592597D01*
X6441554Y26683446D01*
X6453514Y26698020D01*
X8964312Y26698020D01*
X8973586Y26697107D01*
X8763495Y26487015D01*
X8735752Y26464247D01*
X8644903Y26353546D01*
X8619410Y26305852D01*
X8577396Y26227250D01*
X8550350Y26138091D01*
X8201178Y25788918D01*
X8173435Y25766150D01*
X8082586Y25655449D01*
X8042534Y25580517D01*
X8015079Y25529153D01*
X7973509Y25392114D01*
X7959472Y25249597D01*
X7962989Y25213888D01*
X7962989Y24729066D01*
X7249066Y24729066D01*
X6689326Y25288806D01*
X6666554Y25316554D01*
X6555853Y25407403D01*
X6429557Y25474910D01*
X6292517Y25516480D01*
X6193635Y25526219D01*
X6139623Y25627269D01*
X6055172Y25730172D01*
X5952269Y25814623D01*
X5834868Y25877375D01*
X5707480Y25916018D01*
X5575001Y25929066D01*
X4924999Y25929066D01*
X4792520Y25916018D01*
X4665132Y25877375D01*
X4547731Y25814623D01*
X4444828Y25730172D01*
X4360377Y25627269D01*
X4297625Y25509868D01*
X4258982Y25382480D01*
X4245934Y25250001D01*
X4245934Y24349999D01*
X4258982Y24217520D01*
X4297625Y24090132D01*
X4360377Y23972731D01*
X4444828Y23869828D01*
X4547731Y23785377D01*
X4665132Y23722625D01*
X4792520Y23683982D01*
X4924999Y23670934D01*
X5575001Y23670934D01*
X5707480Y23683982D01*
X5834868Y23722625D01*
X5952269Y23785377D01*
X6053452Y23868416D01*
X6220934Y23700934D01*
X6220934Y22600000D01*
X6229178Y22516293D01*
X6253595Y22435804D01*
X6293245Y22361624D01*
X6346605Y22296605D01*
X6411624Y22243245D01*
X6485804Y22203595D01*
X6566293Y22179178D01*
X6650000Y22170934D01*
X7274153Y22170934D01*
X7249664Y22168522D01*
X7008949Y22095502D01*
X6787104Y21976924D01*
X6592656Y21817344D01*
X6444651Y21637000D01*
X5869066Y21637000D01*
X5869066Y22350000D01*
X5860822Y22433707D01*
X5836405Y22514196D01*
X5796755Y22588376D01*
X5743395Y22653395D01*
X5678376Y22706755D01*
X5604196Y22746405D01*
X5523707Y22770822D01*
X5440000Y22779066D01*
X3640000Y22779066D01*
X3556293Y22770822D01*
X3475804Y22746405D01*
X3401624Y22706755D01*
X3336605Y22653395D01*
X3283245Y22588376D01*
X3243595Y22514196D01*
X3219178Y22433707D01*
X3210934Y22350000D01*
X3210934Y20550000D01*
X3219178Y20466293D01*
X3243595Y20385804D01*
X3283245Y20311624D01*
X3336605Y20246605D01*
X3401624Y20193245D01*
X3475804Y20153595D01*
X3556293Y20129178D01*
X3640000Y20120934D01*
X4701193Y20120934D01*
X4701192Y18092485D01*
X4711712Y17985676D01*
X4753282Y17848636D01*
X4820789Y17722340D01*
X4911638Y17611639D01*
X5022339Y17520789D01*
X5148635Y17453282D01*
X5245894Y17423779D01*
X5268696Y17400977D01*
X5285981Y17379915D01*
X5307043Y17362630D01*
X5381611Y17288062D01*
X5381614Y17288060D01*
X5467312Y17202361D01*
X5450001Y17204066D01*
X4556270Y17204066D01*
X4515313Y17216490D01*
X4408504Y17227010D01*
X4372796Y17230527D01*
X4337088Y17227010D01*
X3964292Y17227010D01*
X3857483Y17216490D01*
X3809715Y17202000D01*
X2489292Y17202000D01*
X2382483Y17191480D01*
X2245443Y17149910D01*
X2119147Y17082403D01*
X2008446Y16991554D01*
X1917597Y16880853D01*
X1850090Y16754557D01*
X1820588Y16657300D01*
X452000Y15288711D01*
X452000Y32748000D01*
X30548000Y32748000D01*
X30548001Y452000D01*
M02*
