M48
; DRILL file {KiCad (5.1.4)-1} date 2/16/2020 8:15:55 AM
; FORMAT={-:-/ absolute / metric / decimal}
; #@! TF.CreationDate,2020-02-16T08:15:55-07:00
; #@! TF.GenerationSoftware,Kicad,Pcbnew,(5.1.4)-1
; #@! TF.FileFunction,Plated,1,2,PTH
FMAT,2
METRIC
T1C0.400
T2C0.900
T3C1.000
%
G90
G05
T1
X2.75Y17.95
X2.75Y14.45
X7.25Y4.45
X28.0Y27.45
X28.5Y12.2
T2
X7.25Y28.95
X12.25Y31.45
X12.25Y26.45
X2.0Y29.95
X4.54Y29.95
X7.0Y6.7
X7.0Y1.7
X12.0Y4.2
X10.5Y14.2
X10.5Y9.2
X15.5Y11.7
X11.0Y24.2
X11.0Y19.2
X16.0Y21.7
X1.96Y11.95
X4.5Y11.95
X1.96Y3.7
X4.5Y3.7
X2.0Y21.45
X4.54Y21.45
T3
X7.5Y23.45
X7.5Y20.91
X7.5Y12.74
X7.5Y10.2
X18.7Y28.8
X21.24Y28.8
X23.78Y28.8
X15.25Y30.49
X15.25Y27.95
X23.0Y22.82
X23.0Y20.28
X23.0Y17.74
X23.0Y15.2
X25.54Y22.82
X25.54Y20.28
X25.54Y17.74
X25.54Y15.2
X15.0Y6.2
X15.0Y3.66
T0
M30
